<svg width="32" height="32" viewBox="0 0 32 32" fill="none" xmlns="http://www.w3.org/2000/svg">
<path fill-rule="evenodd" clip-rule="evenodd" d="M20.5157 5.68538C18.7918 5.51061 17.0603 5.93647 15.6139 6.89097C14.1676 7.84548 13.0953 9.27008 12.5781 10.924C12.0632 12.5704 12.13 14.3435 12.7668 15.9463C12.9167 16.2943 12.8442 16.7071 12.5676 16.9837L5.647 23.9044V27.279H8.47053V25.3967C8.47053 24.877 8.89191 24.4555 9.41171 24.4555H11.2941V22.5732C11.2941 22.0534 11.7154 21.632 12.2352 21.632H14.6689L15.9424 20.3586C16.2183 20.0827 16.6301 20.0096 16.9782 20.1587C18.5813 20.796 20.3552 20.863 22.0022 20.3481C23.6561 19.8309 25.0806 18.7585 26.0352 17.3122C26.9897 15.8659 27.4155 14.1344 27.2408 12.4104C27.0659 10.6863 26.3013 9.07548 25.0759 7.85014C23.8507 6.62483 22.2398 5.86014 20.5157 5.68538ZM16.8503 22.1127C18.7005 22.7141 20.6974 22.7283 22.5639 22.1445C24.6317 21.498 26.4128 20.1573 27.6062 18.349C28.7996 16.5408 29.3321 14.376 29.1136 12.2205C28.895 10.065 27.939 8.0511 26.4071 6.51913C24.8751 4.98716 22.8611 4.03113 20.7057 3.81261C18.5502 3.59411 16.3854 4.12655 14.5771 5.3199C12.7689 6.51328 11.4281 8.29438 10.7815 10.3622C10.1978 12.2288 10.212 14.2257 10.8134 16.0758L4.04032 22.8489C3.86381 23.0255 3.76465 23.2647 3.76465 23.5143V28.2202C3.76465 28.7401 4.18603 29.1614 4.70582 29.1614H9.41171C9.93152 29.1614 10.3529 28.7401 10.3529 28.2202V26.3379H12.2352C12.755 26.3379 13.1764 25.9166 13.1764 25.3967V23.5143H15.0588C15.3084 23.5143 15.5478 23.4153 15.7243 23.2388L16.8503 22.1127Z" fill="black"/>
<path d="M21.4155 14.0148C22.7216 14.0148 23.7805 12.9559 23.7805 11.6498C23.7805 10.3437 22.7216 9.28487 21.4155 9.28487C20.1093 9.28487 19.0505 10.3437 19.0505 11.6498C19.0505 12.9559 20.1093 14.0148 21.4155 14.0148Z" fill="black"/>
</svg>
