<svg width="36" height="36" viewBox="0 0 36 36" fill="none" xmlns="http://www.w3.org/2000/svg">
<path d="M15.6758 6.15612L3.19238 26.8223C2.935 27.2642 2.79882 27.7654 2.79737 28.2758C2.79593 28.7862 2.92929 29.2881 3.18417 29.7315C3.43904 30.1749 3.80658 30.5445 4.25016 30.8033C4.69376 31.0621 5.19798 31.2012 5.71264 31.2069H30.6794C31.1941 31.2012 31.6983 31.0621 32.1419 30.8033C32.5855 30.5445 32.953 30.1749 33.2079 29.7315C33.4628 29.2881 33.5962 28.7862 33.5947 28.2758C33.5933 27.7654 33.4571 27.2642 33.1997 26.8223L20.7163 6.15612C20.4536 5.72657 20.0836 5.37144 19.6422 5.12497C19.2007 4.8785 18.7027 4.74902 18.196 4.74902C17.6894 4.74902 17.1914 4.8785 16.7499 5.12497C16.3085 5.37144 15.9385 5.72657 15.6758 6.15612Z" fill="black"/>
<path fill-rule="evenodd" clip-rule="evenodd" d="M18.1969 11.561C19.3608 11.561 20.3043 12.5046 20.3043 13.6685V19.5147C20.3043 20.6787 19.3608 21.6222 18.1969 21.6222C17.0329 21.6222 16.0894 20.6787 16.0894 19.5147V13.6685C16.0894 12.5046 17.0329 11.561 18.1969 11.561Z" fill="white"/>
<path fill-rule="evenodd" clip-rule="evenodd" d="M16.0892 25.3619C16.0892 24.198 17.0328 23.2544 18.1967 23.2544H18.2118C19.3758 23.2544 20.3193 24.198 20.3193 25.3619C20.3193 26.5258 19.3758 27.4694 18.2118 27.4694H18.1967C17.0328 27.4694 16.0892 26.5258 16.0892 25.3619Z" fill="white"/>
</svg>
