<svg width="16" height="16" viewBox="0 0 16 16" fill="none" xmlns="http://www.w3.org/2000/svg">
<path d="M14.7966 11.748L9.29857 2.24805C9.16667 2.02053 8.97731 1.83168 8.74944 1.70039C8.52157 1.5691 8.26321 1.5 8.00023 1.5C7.73725 1.5 7.47889 1.5691 7.25102 1.70039C7.02316 1.83168 6.83379 2.02053 6.70189 2.24805V2.24853L1.20384 11.748C1.07184 11.976 1.00221 12.2347 1.00195 12.4982C1.0017 12.7616 1.07083 13.0205 1.20239 13.2487C1.33395 13.4769 1.52331 13.6665 1.75139 13.7983C1.97948 13.9301 2.23826 13.9995 2.5017 13.9995H13.4988C13.7622 13.9995 14.021 13.9301 14.2491 13.7983C14.4772 13.6665 14.6665 13.4769 14.7981 13.2487C14.9296 13.0205 14.9988 12.7616 14.9985 12.4982C14.9983 12.2347 14.9286 11.976 14.7966 11.748ZM7.49974 6.5C7.49974 6.36739 7.55242 6.24021 7.64619 6.14645C7.73996 6.05268 7.86713 6 7.99974 6C8.13235 6 8.25953 6.05268 8.3533 6.14645C8.44706 6.24021 8.49974 6.36739 8.49974 6.5V9C8.49974 9.13261 8.44706 9.25978 8.3533 9.35355C8.25953 9.44732 8.13235 9.5 7.99974 9.5C7.86713 9.5 7.73996 9.44732 7.64619 9.35355C7.55242 9.25978 7.49974 9.13261 7.49974 9V6.5ZM8.00011 12.0002C7.85177 12.0002 7.70677 11.9562 7.58343 11.8738C7.46009 11.7914 7.36396 11.6742 7.3072 11.5372C7.25043 11.4001 7.23558 11.2493 7.26452 11.1039C7.29346 10.9584 7.36489 10.8247 7.46978 10.7199C7.57467 10.615 7.7083 10.5435 7.85379 10.5146C7.99928 10.4857 8.15008 10.5005 8.28712 10.5573C8.42417 10.614 8.5413 10.7102 8.62371 10.8335C8.70612 10.9568 8.75011 11.1018 8.75011 11.2502C8.7501 11.4491 8.67108 11.6399 8.53043 11.7805C8.38978 11.9212 8.19902 12.0002 8.00011 12.0002Z" fill="black"/>
</svg>
