<svg width="16" height="16" viewBox="0 0 16 16" fill="none" xmlns="http://www.w3.org/2000/svg">
<path d="M14.2812 10.3689C13.496 10.3689 12.8326 10.8989 12.628 11.6203H10.9688V9.78843H12.6629C14.503 9.78843 16 8.28981 16 6.44773C16 4.97079 15.0215 3.67332 13.6324 3.25074C13.2125 1.56754 11.6947 0.360327 9.93694 0.360327C9.25553 0.360327 8.60278 0.536236 8.02672 0.872319C7.41663 0.313777 6.61666 0 5.77612 0C3.97322 0 2.49966 1.43878 2.44084 3.22953C1.01394 3.6288 0 4.93669 0 6.44773C0 8.28981 1.497 9.78843 3.33709 9.78843H5.03125V11.6203H3.372C3.16741 10.8989 2.50397 10.3689 1.71875 10.3689C0.771031 10.3689 0 11.1408 0 12.0895C0 13.0383 0.771031 13.8101 1.71875 13.8101C2.50397 13.8101 3.16738 13.2801 3.372 12.5588H5.5C5.75887 12.5588 5.96875 12.3487 5.96875 12.0895V9.78843H7.53125V12.6243C6.81072 12.8292 6.28125 13.4933 6.28125 14.2794C6.28125 15.2281 7.05228 16 8 16C8.94772 16 9.71875 15.2281 9.71875 14.2794C9.71875 13.4933 9.18928 12.8292 8.46875 12.6243V9.78843H10.0312V12.0895C10.0312 12.3487 10.2411 12.5588 10.5 12.5588H12.628C12.8326 13.2801 13.496 13.8101 14.2812 13.8101C15.229 13.8101 16 13.0383 16 12.0895C16 11.1408 15.229 10.3689 14.2812 10.3689ZM1.71875 12.8716C1.28797 12.8716 0.9375 12.5208 0.9375 12.0895C0.9375 11.6583 1.28797 11.3074 1.71875 11.3074C2.14953 11.3074 2.5 11.6583 2.5 12.0895C2.5 12.5208 2.14953 12.8716 1.71875 12.8716ZM8.78125 14.2794C8.78125 14.7106 8.43078 15.0615 8 15.0615C7.56922 15.0615 7.21875 14.7106 7.21875 14.2794C7.21875 13.8481 7.56922 13.4973 8 13.4973C8.43078 13.4973 8.78125 13.8481 8.78125 14.2794ZM3.33709 8.84992C2.01397 8.84992 0.9375 7.77232 0.9375 6.44773C0.9375 5.26385 1.81897 4.24203 2.98781 4.07091C3.23447 4.0348 3.40972 3.81175 3.38672 3.56329C3.37994 3.49 3.3765 3.4151 3.3765 3.34068C3.3765 2.01615 4.45297 0.938547 5.77609 0.938547C6.48203 0.938547 7.14775 1.24575 7.6025 1.7814C7.76216 1.96944 8.04 2.00154 8.23828 1.85488C8.72991 1.49111 9.31728 1.29884 9.93691 1.29884C11.3628 1.29884 12.5486 2.34619 12.7702 3.70864C12.8016 3.90128 12.9488 4.05439 13.1399 4.09312C14.2539 4.31889 15.0625 5.30912 15.0625 6.44773C15.0625 7.77232 13.986 8.84992 12.6629 8.84992H3.33709ZM14.2812 12.8716C13.8505 12.8716 13.5 12.5208 13.5 12.0895C13.5 11.6583 13.8505 11.3074 14.2812 11.3074C14.712 11.3074 15.0625 11.6583 15.0625 12.0895C15.0625 12.5208 14.712 12.8716 14.2812 12.8716Z" fill="black" stroke-width="0" />
</svg>
