<svg width="17" height="16" viewBox="0 0 17 16" fill="none" xmlns="http://www.w3.org/2000/svg">
<path d="M12.4741 11.2135V11.4206L12.6206 11.567L13.887 12.8335H2.88789L4.15434 11.567L4.30078 11.4206V11.2135V7.3335C4.30078 5.404 5.63622 3.78788 7.44268 3.36004L7.82745 3.26891V2.8735V2.3935C7.82745 2.08297 8.07693 1.8335 8.38745 1.8335C8.69798 1.8335 8.94745 2.08297 8.94745 2.3935V2.8735V3.26891L9.33222 3.36004C11.1387 3.78788 12.4741 5.404 12.4741 7.3335V11.2135ZM8.38745 14.8335C8.1183 14.8335 7.87955 14.7054 7.72868 14.5068H9.04622C8.89535 14.7054 8.6566 14.8335 8.38745 14.8335Z" stroke="black"/>
</svg>
