<svg width="32" height="32" viewBox="0 0 32 32" fill="none" xmlns="http://www.w3.org/2000/svg">
<path fill-rule="evenodd" clip-rule="evenodd" d="M7.65901 3.71892C8.08097 3.2586 8.65326 3 9.25 3H22.75C23.3468 3 23.919 3.2586 24.341 3.71892C24.763 4.17924 25 4.80356 25 5.45454V28.7727C25 29.2324 24.7645 29.6536 24.3898 29.8639C24.0151 30.0743 23.5641 30.0386 23.2211 29.7714L19.9375 27.2127L16.6539 29.7714C16.2627 30.0762 15.7373 30.0762 15.3461 29.7714L12.0625 27.2127L8.7789 29.7714C8.43598 30.0386 7.98493 30.0743 7.61022 29.8639C7.23552 29.6536 7 29.2324 7 28.7727V5.45454C7 4.80356 7.23705 4.17924 7.65901 3.71892ZM22.75 5.45454H9.25V26.3879L11.4086 24.7058C11.7998 24.401 12.3252 24.401 12.7164 24.7058L16 27.2645L19.2836 24.7058C19.6748 24.401 20.2002 24.401 20.5914 24.7058L22.75 26.3879V5.45454Z" fill="black"/>
<path fill-rule="evenodd" clip-rule="evenodd" d="M11.5 10.3636C11.5 9.68581 12.0037 9.13636 12.625 9.13636H19.375C19.9963 9.13636 20.5 9.68581 20.5 10.3636C20.5 11.0415 19.9963 11.5909 19.375 11.5909H12.625C12.0037 11.5909 11.5 11.0415 11.5 10.3636ZM11.5 15.2727C11.5 14.5949 12.0037 14.0454 12.625 14.0454H19.375C19.9963 14.0454 20.5 14.5949 20.5 15.2727C20.5 15.9505 19.9963 16.5 19.375 16.5H12.625C12.0037 16.5 11.5 15.9505 11.5 15.2727ZM11.5 20.1818C11.5 19.504 12.0037 18.9545 12.625 18.9545H19.375C19.9963 18.9545 20.5 19.504 20.5 20.1818C20.5 20.8596 19.9963 21.4091 19.375 21.4091H12.625C12.0037 21.4091 11.5 20.8596 11.5 20.1818Z" fill="black"/>
</svg>
