<svg width="56" height="56" viewBox="0 0 56 56" fill="none" xmlns="http://www.w3.org/2000/svg">
<g clip-path="url(#clip0_4841:11764)">
<path d="M30.0589 8.69279C31.5255 7.93188 32.5295 6.38345 32.5295 4.59701C32.5295 2.05815 30.5017 0 28.0001 0C25.4986 0 23.4707 2.05815 23.4707 4.59701C23.4707 6.38345 24.4748 7.93188 25.9413 8.69279V16.7164C25.9413 17.178 26.31 17.5522 26.7648 17.5522H29.2354C29.6902 17.5522 30.0589 17.178 30.0589 16.7164V8.69279Z" fill="black"/>
<path d="M35 28C35 31.9237 31.866 35.1045 28 35.1045C24.134 35.1045 21 31.9237 21 28C21 24.0763 24.134 20.8955 28 20.8955C31.866 20.8955 35 24.0763 35 28Z" fill="black"/>
<path d="M30.0589 47.3077V39.2841C30.0589 38.8224 29.6902 38.4482 29.2354 38.4482H26.7648C26.31 38.4482 25.9413 38.8224 25.9413 39.2841V47.3077C24.4748 48.0686 23.4707 49.6171 23.4707 51.4035C23.4707 53.9424 25.4986 56.0005 28.0001 56.0005C30.5017 56.0005 32.5295 53.9424 32.5295 51.4035C32.5295 49.6171 31.5255 48.0686 30.0589 47.3077Z" fill="black"/>
<path d="M47.0231 25.9108H39.1175C38.6626 25.9108 38.2939 26.285 38.2939 26.7466V29.2541C38.2939 29.7157 38.6626 30.0899 39.1175 30.0899H47.0231C47.7729 31.5783 49.2985 32.5974 51.0587 32.5974C53.5602 32.5974 55.5881 30.5392 55.5881 28.0003C55.5881 25.4614 53.5602 23.4033 51.0587 23.4033C49.2985 23.4033 47.7729 24.4224 47.0231 25.9108Z" fill="black"/>
<path d="M8.97706 25.9108C8.22735 24.4224 6.70168 23.4033 4.94152 23.4033C2.43999 23.4033 0.412109 25.4614 0.412109 28.0003C0.412109 30.5392 2.43999 32.5974 4.94152 32.5974C6.70168 32.5974 8.22735 31.5783 8.97706 30.0899H16.8827C17.3375 30.0899 17.7062 29.7157 17.7062 29.2541V26.7466C17.7062 26.285 17.3375 25.9108 16.8827 25.9108H8.97706Z" fill="black"/>
<path d="M16.0683 13.1201C16.5752 11.5296 16.2063 9.71409 14.9617 8.45092C13.1929 6.65568 10.325 6.65568 8.55614 8.45092C6.78728 10.2462 6.78728 13.1568 8.55614 14.9521C9.80074 16.2153 11.5895 16.5896 13.1566 16.0752L18.7468 21.7487C19.0684 22.0751 19.5898 22.0751 19.9115 21.7487L21.6584 19.9757C21.98 19.6493 21.98 19.1201 21.6584 18.7937L16.0683 13.1201Z" fill="black"/>
<path d="M42.8436 39.9252L37.2534 34.2516C36.9318 33.9252 36.4104 33.9252 36.0887 34.2516L34.3418 36.0247C34.0202 36.351 34.0202 36.8803 34.3418 37.2067L39.9319 42.8802C39.425 44.4708 39.7939 46.2863 41.0385 47.5495C42.8073 49.3447 45.6752 49.3447 47.444 47.5495C49.2129 45.7542 49.2129 42.8435 47.444 41.0483C46.1994 39.7851 44.4107 39.4107 42.8436 39.9252Z" fill="black"/>
<path d="M42.6609 15.8897C44.228 16.4041 46.0168 16.0298 47.2614 14.7666C49.0303 12.9713 49.0303 10.0607 47.2614 8.26538C45.4926 6.47013 42.6247 6.47013 40.8559 8.26538C39.6113 9.52857 39.2424 11.3441 39.7493 12.9345L34.1592 18.6082C33.8376 18.9346 33.8376 19.4637 34.1592 19.7902L35.9061 21.5632C36.2277 21.8896 36.7492 21.8896 37.0708 21.5632L42.6609 15.8897Z" fill="black"/>
<path d="M13.3393 40.1097C11.7721 39.5953 9.98334 39.9697 8.73874 41.2328C6.9699 43.0281 6.9699 45.9388 8.73874 47.734C10.5076 49.5293 13.3755 49.5293 15.1443 47.734C16.3889 46.4708 16.7578 44.6554 16.2509 43.0649L21.841 37.3912C22.1626 37.0649 22.1626 36.5357 21.841 36.2092L20.0941 34.4362C19.7725 34.1098 19.251 34.1098 18.9294 34.4362L13.3393 40.1097Z" fill="black"/>
</g>
<defs>
<clipPath id="clip0_4841:11764">
<rect width="56" height="56" fill="white"/>
</clipPath>
</defs>
</svg>
