<svg width="16" height="16" viewBox="0 0 16 16" fill="none" xmlns="http://www.w3.org/2000/svg">
<path fill-rule="evenodd" clip-rule="evenodd" d="M1.51409 0.673643C1.03644 0.673643 0.649229 1.06086 0.649229 1.53851V14.5115C0.649229 14.9891 1.03644 15.3763 1.51409 15.3763H14.4871C14.9647 15.3763 15.3519 14.9891 15.3519 14.5115V1.53851C15.3519 1.06086 14.9647 0.673643 14.4871 0.673643H1.51409ZM0.216797 1.53851C0.216797 0.822031 0.797617 0.241211 1.51409 0.241211H14.4871C15.2035 0.241211 15.7844 0.822031 15.7844 1.53851V14.5115C15.7844 15.228 15.2035 15.8088 14.4871 15.8088H1.51409C0.797617 15.8088 0.216797 15.228 0.216797 14.5115V1.53851Z" fill="black"/>
<path d="M8.71358 8.02457L10.0514 6.6868C10.1992 6.539 10.1992 6.29934 10.0514 6.15175L9.87301 5.97342C9.72517 5.82557 9.48551 5.82557 9.33792 5.97342L8.00019 7.31115L6.66242 5.97316C6.51461 5.82535 6.27496 5.82535 6.12737 5.97316L5.94878 6.15149C5.80093 6.29934 5.80093 6.539 5.94878 6.68659L7.28677 8.02457L5.94904 9.36235C5.80119 9.5102 5.80119 9.74981 5.94904 9.8974L6.12737 10.0757C6.27518 10.2236 6.51483 10.2236 6.66242 10.0757L8.00019 8.73796L9.33792 10.0757C9.48581 10.2236 9.72543 10.2236 9.87301 10.0757L10.0514 9.8974C10.1992 9.74955 10.1992 9.50989 10.0514 9.36235L8.71358 8.02457Z" fill="black"/>
</svg>
