<svg width="32" height="32" viewBox="0 0 32 32" fill="none" xmlns="http://www.w3.org/2000/svg">
<path fill-rule="evenodd" clip-rule="evenodd" d="M8.36075 9.66681C9.41568 7.26854 12.0581 5 16 5C20.2411 5 23.8557 7.66097 24.6482 11.9671C25.7673 12.1216 26.9388 12.5168 27.9036 13.1776C29.1027 13.999 30 15.2505 30 16.9216C30 18.5419 29.2602 19.8309 28.0559 20.695C26.8752 21.542 25.304 21.9444 23.6562 21.9444H19.5C19.0167 21.9444 18.625 21.5832 18.625 21.1375C18.625 20.6919 19.0167 20.3306 19.5 20.3306H23.6562C25.0163 20.3306 26.1794 19.9966 26.9813 19.4213C27.7593 18.8631 28.25 18.0442 28.25 16.9216C28.25 15.8498 27.6981 15.0471 26.8601 14.4731C26.0005 13.8842 24.8611 13.5586 23.8317 13.5116C23.4007 13.4919 23.0496 13.1853 23.0047 12.7895C22.5639 8.89995 19.5323 6.61376 16 6.61376C12.6645 6.61376 10.532 8.64285 9.83321 10.6524C9.72634 10.9598 9.43115 11.1788 9.08277 11.2093C6.06753 11.4735 3.75 13.1852 3.75 15.7718C3.75 18.3721 6.18661 20.3306 9.43751 20.3306H12.5C12.9833 20.3306 13.375 20.6919 13.375 21.1375C13.375 21.5832 12.9833 21.9444 12.5 21.9444H9.43751C5.46964 21.9444 2 19.4772 2 15.7718C2 12.2478 5.02558 10.1424 8.36075 9.66681Z" fill="black"/>
<path d="M16.6187 11.6915C16.277 11.3764 15.723 11.3764 15.3813 11.6915L11.8813 14.919C11.5396 15.2341 11.5396 15.745 11.8813 16.0601C12.223 16.3752 12.777 16.3752 13.1187 16.0601L15.125 14.21V25.1931C15.125 25.6388 15.5168 26 16 26C16.4833 26 16.875 25.6388 16.875 25.1931V14.2101L18.8813 16.0601C19.223 16.3752 19.777 16.3752 20.1187 16.0601C20.4605 15.745 20.4605 15.2341 20.1187 14.919L16.6187 11.6915Z" fill="black"/>
</svg>
