<svg width="16" height="16" viewBox="0 0 16 16" fill="none" xmlns="http://www.w3.org/2000/svg">
<rect width="16" height="16" fill="black"/>
<path d="M12.0774 11.0225H8.66777C8.49964 11.0225 8.36334 11.1623 8.36334 11.3349C8.36334 11.5075 8.49964 11.6473 8.66777 11.6473H12.0774C12.2455 11.6473 12.3818 11.5075 12.3818 11.3349C12.3818 11.1623 12.2455 11.0225 12.0774 11.0225Z" fill="white"/>
<path d="M4.30089 11.8118C4.17404 11.6815 4.17404 11.4709 4.30089 11.3406L7.6405 7.91035L4.30089 4.48007C4.17404 4.3498 4.17404 4.13916 4.30089 4.00886C4.42774 3.87856 4.63279 3.87856 4.75964 4.00886L8.32866 7.67473C8.39192 7.73974 8.42372 7.82504 8.42372 7.91035C8.42372 7.9957 8.39192 8.081 8.32866 8.14597L4.75964 11.8119C4.63279 11.9421 4.42774 11.9421 4.30089 11.8118Z" fill="white"/>
</svg>
