<svg width="16" height="16" viewBox="0 0 16 16" fill="none" xmlns="http://www.w3.org/2000/svg">
<path d="M3 4C3 3.44772 2.55228 3 2 3C1.44772 3 1 3.44772 1 4L1 12C1 12.5523 1.44772 13 2 13C2.55229 13 3 12.5523 3 12L3 4Z" fill="black"/>
<path d="M7.29289 4.29289L3.58578 8L7.29289 11.7071C7.68342 12.0976 8.31658 12.0976 8.7071 11.7071C9.09763 11.3166 9.09763 10.6834 8.7071 10.2929L7.41421 9L14 9C14.5523 9 15 8.55228 15 8C15 7.44772 14.5523 7 14 7L7.41421 7L8.7071 5.70711C9.09763 5.31658 9.09763 4.68342 8.7071 4.29289C8.31658 3.90237 7.68342 3.90237 7.29289 4.29289Z" fill="black"/>
</svg>
