<svg width="24" height="24" viewBox="0 0 24 24" fill="none" xmlns="http://www.w3.org/2000/svg">
<path fill-rule="evenodd" clip-rule="evenodd" d="M0 2.4002C0 1.73745 0.537258 1.2002 1.2 1.2002H22.8C23.4627 1.2002 24 1.73745 24 2.4002V16.8002C24 17.4629 23.4627 18.0002 22.8 18.0002H1.2C0.537258 18.0002 0 17.4629 0 16.8002V2.4002ZM2.4 3.6002V15.6002H21.6V3.6002H2.4Z" fill="black"/>
<path fill-rule="evenodd" clip-rule="evenodd" d="M10.8 21.5999C10.8 20.9372 11.3372 20.3999 12 20.3999H18C18.6627 20.3999 19.2 20.9372 19.2 21.5999C19.2 22.2626 18.6627 22.7999 18 22.7999H12C11.3372 22.7999 10.8 22.2626 10.8 21.5999Z" fill="black"/>
<path fill-rule="evenodd" clip-rule="evenodd" d="M12 15.6001C12.6627 15.6001 13.2 16.1374 13.2 16.8001V21.6001C13.2 22.2628 12.6627 22.8001 12 22.8001C11.3372 22.8001 10.8 22.2628 10.8 21.6001V16.8001C10.8 16.1374 11.3372 15.6001 12 15.6001Z" fill="black"/>
<path fill-rule="evenodd" clip-rule="evenodd" d="M4.79999 21.5999C4.79999 20.9372 5.33725 20.3999 5.99999 20.3999H12C12.6627 20.3999 13.2 20.9372 13.2 21.5999C13.2 22.2626 12.6627 22.7999 12 22.7999H5.99999C5.33725 22.7999 4.79999 22.2626 4.79999 21.5999Z" fill="black"/>
</svg>
