<svg width="16" height="16" viewBox="0 0 16 16" fill="none" xmlns="http://www.w3.org/2000/svg">
<path d="M14.5268 3.0125H11.9831V0.46875C11.9831 0.209875 11.7732 0 11.5143 0H1.47266C1.21378 0 1.00391 0.209875 1.00391 0.46875V12.5188C1.00391 12.7777 1.21378 12.9875 1.47266 12.9875H4.01641V15.5312C4.01641 15.7901 4.22628 16 4.48516 16H14.5268C14.7857 16 14.9956 15.7901 14.9956 15.5312V3.48125C14.9956 3.22237 14.7857 3.0125 14.5268 3.0125ZM1.94141 12.05V0.9375H11.0456V3.47341C11.0455 3.47603 11.0452 3.47859 11.0452 3.48125C11.0452 3.48391 11.0455 3.48647 11.0456 3.48913V12.05H1.94141ZM14.0581 15.0625H4.95391V12.9875H11.5143C11.7732 12.9875 11.9831 12.7777 11.9831 12.5188V3.95H14.0581V15.0625Z" fill="black"/>
</svg>
