<svg width="32" height="32" viewBox="0 0 32 32" fill="none" xmlns="http://www.w3.org/2000/svg">
<path d="M29.6509 7.65232L31.2029 6.10059C31.4607 5.84251 31.5457 5.45824 31.4204 5.11572C31.2951 4.77295 30.9824 4.53418 30.6187 4.50342L27.7395 4.2605L27.4966 1.38135C27.4661 1.01782 27.227 0.705077 26.8845 0.579835C26.542 0.454346 26.1577 0.539307 25.8997 0.797365L24.3477 2.34912C21.8379 0.810304 18.9683 0 16 0C11.7263 0 7.70827 1.6643 4.68628 4.68628C1.6643 7.70827 0 11.7263 0 16C0 20.2737 1.6643 24.2917 4.68628 27.3137C7.70827 30.3357 11.7263 32 16 32C20.2737 32 24.2917 30.3357 27.3137 27.3137C30.3357 24.2917 32 20.2737 32 16C32 13.0317 31.1897 10.1623 29.6509 7.65232ZM25.9375 5.20703C25.9761 5.66261 26.3374 6.02395 26.793 6.06251L28.4494 6.20213L26.2073 8.44432L23.762 8.23803L23.5557 5.79275L25.7979 3.55054L25.9375 5.20703ZM19.1875 16C19.1875 17.7575 17.7575 19.1875 16 19.1875C14.2425 19.1875 12.8125 17.7575 12.8125 16C12.8125 14.2425 14.2425 12.8125 16 12.8125C16.5383 12.8125 17.0454 12.947 17.4905 13.1836L15.3372 15.3372C14.9709 15.7031 14.9709 16.2966 15.3372 16.6628C15.52 16.846 15.76 16.9375 16 16.9375C16.24 16.9375 16.48 16.846 16.6628 16.6628L18.8164 14.5095C19.053 14.9546 19.1875 15.4617 19.1875 16ZM18.8533 11.8208C18.0403 11.2642 17.0576 10.9375 16 10.9375C13.2085 10.9375 10.9375 13.2085 10.9375 16C10.9375 18.7915 13.2085 21.0625 16 21.0625C18.7915 21.0625 21.0625 18.7915 21.0625 16C21.0625 14.9424 20.7358 13.9597 20.1792 13.1467L22.8559 10.47C24.0789 11.9831 24.8125 13.9075 24.8125 16C24.8125 20.8591 20.8591 24.8125 16 24.8125C11.1409 24.8125 7.18752 20.8591 7.18752 16C7.18752 11.1409 11.1409 7.18752 16 7.18752C18.0925 7.18752 20.0169 7.92112 21.53 9.14405L18.8533 11.8208ZM25.9878 25.9878C23.3201 28.6558 19.773 30.125 16 30.125C12.227 30.125 8.67995 28.6558 6.01221 25.9878C3.34424 23.3201 1.875 19.773 1.875 16C1.875 12.227 3.34424 8.67995 6.01221 6.01221C8.67995 3.34424 12.227 1.875 16 1.875C18.4683 1.875 20.8591 2.50903 22.9795 3.71729L21.9221 4.77466C21.7512 4.94556 21.6538 5.17456 21.6477 5.4136C21.647 5.44773 21.6479 5.48192 21.6506 5.51637L21.7769 7.01221C20.1101 5.93701 18.1267 5.3125 16 5.3125C10.1069 5.3125 5.3125 10.1069 5.3125 16C5.3125 21.8931 10.1069 26.6875 16 26.6875C21.8931 26.6875 26.6875 21.8931 26.6875 16C26.6875 13.8733 26.063 11.8899 24.9878 10.2231L26.4836 10.3494C26.51 10.3513 26.5364 10.3525 26.5625 10.3525C26.5669 10.3525 26.5715 10.3521 26.5759 10.3518C26.5884 10.3518 26.6006 10.3508 26.613 10.3501C26.6333 10.3489 26.6538 10.3477 26.6738 10.3452C26.6863 10.3435 26.6987 10.3415 26.7112 10.3396C26.7309 10.3364 26.7505 10.3327 26.77 10.3284C26.7825 10.3254 26.7947 10.3222 26.8069 10.3191C26.8259 10.314 26.8447 10.3081 26.8635 10.3018C26.8757 10.2976 26.8877 10.2934 26.8997 10.2888C26.918 10.2818 26.9361 10.2739 26.9541 10.2654C26.9656 10.2603 26.9771 10.2551 26.9885 10.2493C27.0066 10.24 27.0242 10.2298 27.0415 10.2195C27.052 10.2131 27.0625 10.2073 27.0727 10.2009C27.0913 10.1887 27.1091 10.1755 27.1269 10.1621C27.1353 10.1558 27.1438 10.1501 27.1518 10.1436C27.1772 10.123 27.2019 10.1013 27.2253 10.0779L28.2827 9.02053C29.491 11.1409 30.125 13.5317 30.125 16C30.125 19.773 28.6558 23.3201 25.9878 25.9878Z" fill="black"/>
</svg>
