<svg width="16" height="16" viewBox="0 0 16 16" fill="none" xmlns="http://www.w3.org/2000/svg">
<g clip-path="url(#clip0)">

<path d="M10.2067 5.79688C9.99977 5.79688 9.83203 5.96462 9.83203 6.17158V13.2536C9.83203 13.4604 9.99977 13.6283 10.2067 13.6283C10.4137 13.6283 10.5814 13.4604 10.5814 13.2536V6.17158C10.5814 5.96462 10.4137 5.79688 10.2067 5.79688Z" fill="black" stroke-width="0" />

<path d="M5.78486 5.79688C5.5779 5.79688 5.41016 5.96462 5.41016 6.17158V13.2536C5.41016 13.4604 5.5779 13.6283 5.78486 13.6283C5.99183 13.6283 6.15957 13.4604 6.15957 13.2536V6.17158C6.15957 5.96462 5.99183 5.79688 5.78486 5.79688Z" fill="black" stroke-width="0" />

<path d="M2.56227 4.76335V13.9953C2.56227 14.541 2.76236 15.0534 3.11189 15.4211C3.45981 15.7898 3.944 15.9991 4.45073 16H11.5403C12.0472 15.9991 12.5314 15.7898 12.8791 15.4211C13.2287 15.0534 13.4287 14.541 13.4287 13.9953V4.76335C14.1236 4.57893 14.5738 3.90768 14.4809 3.19471C14.3878 2.48189 13.7805 1.94867 13.0615 1.94852H11.143V1.48014C11.1452 1.08626 10.9895 0.708039 10.7107 0.42979C10.4318 0.151688 10.053 -0.0031709 9.65915 4.92334e-05H6.33187C5.93799 -0.0031709 5.55919 0.151688 5.28036 0.42979C5.00152 0.708039 4.84578 1.08626 4.84798 1.48014V1.94852H2.92951C2.21055 1.94867 1.60326 2.48189 1.51017 3.19471C1.41722 3.90768 1.86746 4.57893 2.56227 4.76335ZM11.5403 15.2506H4.45073C3.81007 15.2506 3.31169 14.7002 3.31169 13.9953V4.79629H12.6793V13.9953C12.6793 14.7002 12.1809 15.2506 11.5403 15.2506ZM5.59739 1.48014C5.5949 1.28503 5.6716 1.09724 5.81007 0.959502C5.94839 0.821768 6.13662 0.746095 6.33187 0.749461H9.65915C9.8544 0.746095 10.0426 0.821768 10.181 0.959502C10.3194 1.09709 10.3961 1.28503 10.3936 1.48014V1.94852H5.59739V1.48014ZM2.92951 2.69793H13.0615C13.434 2.69793 13.736 2.99989 13.736 3.3724C13.736 3.74492 13.434 4.04688 13.0615 4.04688H2.92951C2.557 4.04688 2.25504 3.74492 2.25504 3.3724C2.25504 2.99989 2.557 2.69793 2.92951 2.69793Z" fill="black" stroke-width="0"/>

<path d="M7.9958 5.79688C7.78883 5.79688 7.62109 5.96462 7.62109 6.17158V13.2536C7.62109 13.4604 7.78883 13.6283 7.9958 13.6283C8.20276 13.6283 8.3705 13.4604 8.3705 13.2536V6.17158C8.3705 5.96462 8.20276 5.79688 7.9958 5.79688Z" fill="black" stroke-width="0" />
</g>
<defs>
<clipPath id="clip0">
<rect width="16" height="16" fill="white"/>
</clipPath>
</defs>
</svg>
