<svg width="16" height="16" viewBox="0 0 16 16" fill="none" xmlns="http://www.w3.org/2000/svg">
<path d="M6.07666 0.000292767C5.19875 -0.0104604 4.34464 0.275306 3.66251 0.808009C2.98039 1.34071 2.5133 2.08673 2.3423 2.91663H0V4.08317H2.3423C2.51623 4.91602 2.98747 5.66382 3.67412 6.1966C4.36077 6.72939 5.21943 7.01348 6.10087 6.99951H9V0.000292767H6.07666ZM7.85003 5.83297H6.07666C5.41151 5.85048 4.76574 5.61596 4.27802 5.17975C3.79029 4.74354 3.49949 4.14043 3.46806 3.4999C3.49485 2.8578 3.78424 2.252 4.27301 1.81486C4.76179 1.37771 5.41022 1.14473 6.07666 1.16683H7.85003V5.83297Z" fill="black"/>
<path d="M16 11.9166H14.0124C13.8594 11.0848 13.4495 10.3384 12.8534 9.80596C12.2573 9.27357 11.5124 8.98864 10.7471 9.00035H8.15488V10.1669H5.52581C5.38636 10.1669 5.25262 10.2283 5.15401 10.3377C5.0554 10.4471 5 10.5954 5 10.7501C5 10.9048 5.0554 11.0532 5.15401 11.1625C5.25262 11.2719 5.38636 11.3334 5.52581 11.3334H8.15488V13.6664H5.52581C5.38636 13.6664 5.25262 13.7278 5.15401 13.8372C5.0554 13.9466 5 14.095 5 14.2496C5 14.4043 5.0554 14.5527 5.15401 14.6621C5.25262 14.7714 5.38636 14.8329 5.52581 14.8329H8.15488V15.9994H10.7524C11.519 16.0148 12.2663 15.7313 12.8639 15.1984C13.4615 14.6655 13.8717 13.917 14.0229 13.0831H16V11.9166ZM10.7419 14.8329H9.2065V10.1669H10.7524C11.3314 10.1448 11.8947 10.3777 12.3193 10.8149C12.744 11.252 12.9954 11.8578 13.0186 12.4999C12.9954 13.142 12.744 13.7477 12.3193 14.1849C11.8947 14.622 11.3314 14.855 10.7524 14.8329H10.7419Z" fill="black"/>
</svg>
