<svg width="32" height="32" viewBox="0 0 32 32" fill="none" xmlns="http://www.w3.org/2000/svg">
<path fill-rule="evenodd" clip-rule="evenodd" d="M30 16C30 23.732 23.732 30 16 30C8.26801 30 2 23.732 2 16C2 8.26801 8.26801 2 16 2C23.732 2 30 8.26801 30 16ZM17.8504 9.58681L21.952 13.6884C22.0289 13.7652 22.0722 13.8696 22.0722 13.9784V23.0565C22.0722 23.283 21.8885 23.4667 21.662 23.4667H11.2713C11.0448 23.4667 10.8612 23.283 10.8612 23.0565V9.87682C10.8612 9.65031 11.0448 9.46667 11.2713 9.46667H17.5604C17.6692 9.46667 17.7735 9.50987 17.8504 9.58681ZM11.6815 22.6464H21.2519V14.1483L17.3906 10.287H11.6815V22.6464Z" fill="black"/>
</svg>
