<svg width="32" height="32" viewBox="0 0 32 32" fill="none" xmlns="http://www.w3.org/2000/svg">
<path fill-rule="evenodd" clip-rule="evenodd" d="M32 16C32 24.8366 24.8366 32 16 32C7.16344 32 0 24.8366 0 16C0 7.16344 7.16344 0 16 0C24.8366 0 32 7.16344 32 16ZM8.79921 26.8789H6.36106C6.26679 26.8823 6.17514 26.8467 6.10701 26.7801C6.03884 26.7132 6.00018 26.6214 5.99946 26.525V23.8838C5.99946 23.6798 6.16119 23.5143 6.36106 23.5135H7.21978V8.48472H6.36106C6.16119 8.48418 5.99946 8.3185 5.99946 8.11463V5.47323C6.00018 5.37705 6.03884 5.28504 6.10701 5.21842C6.17514 5.15179 6.26679 5.11612 6.36106 5.11936H8.79921C8.89385 5.11594 8.98582 5.15161 9.05431 5.21824C9.12281 5.28486 9.16218 5.37669 9.16326 5.47323V6.41018H23.2647V5.47323C23.2659 5.37669 23.3051 5.28486 23.3736 5.21824C23.4421 5.15161 23.5341 5.11594 23.6287 5.11936H26.0668C26.1613 5.11612 26.253 5.15179 26.3211 5.21842C26.3891 5.28504 26.4279 5.37705 26.4284 5.47323V8.11463C26.4286 8.3185 26.2669 8.48418 26.0668 8.48472H25.2081V23.5135H26.0668C26.2669 23.5143 26.4286 23.6798 26.4284 23.8838V26.525C26.4279 26.6214 26.3891 26.7132 26.3211 26.7801C26.253 26.8467 26.1613 26.8823 26.0668 26.8789H23.6287C23.5341 26.8823 23.4421 26.8469 23.3736 26.7802C23.3051 26.7136 23.2659 26.6216 23.2647 26.525V25.5881H9.16326V26.525C9.16218 26.6216 9.12281 26.7136 9.05431 26.7802C8.98582 26.8469 8.89385 26.8823 8.79921 26.8789ZM23.9878 26.1413H25.7053V24.2512H23.9878V26.1413ZM25.7053 5.85698H23.9878V7.7471H25.7053V5.85698ZM8.44009 5.85698H6.72263V7.7471H8.44009V5.85698ZM8.79921 8.48472H7.94294V23.5135H8.79921C8.99977 23.5141 9.16218 23.6794 9.16326 23.8838V24.8505H23.2647V23.8838C23.2657 23.6794 23.4283 23.5141 23.6287 23.5135H24.485V8.48472H23.6287C23.4283 8.48436 23.2657 8.31904 23.2647 8.11463V7.1478H9.16326V8.11463C9.16218 8.31904 8.99977 8.48436 8.79921 8.48472ZM8.44009 24.2512H6.72263V26.1413H8.44009V24.2512ZM10.4199 22.3506C10.3933 22.3569 10.3659 22.3601 10.3386 22.3601C10.2284 22.3601 10.1242 22.309 10.0556 22.2211C9.98702 22.1331 9.96142 22.018 9.98634 21.9085L10.9095 17.8351C10.9397 17.7018 11.0061 17.5801 11.1009 17.4836L18.4957 9.95582C18.9125 9.53281 19.5862 9.53317 20.0027 9.95672L22.1374 12.1341C22.5526 12.5587 22.553 13.2461 22.1381 13.6711L14.7583 21.2139C14.6635 21.3108 14.544 21.3783 14.4131 21.4089L10.4199 22.3506ZM11.7084 21.2898L11.0264 20.5941L10.8213 21.499L11.7084 21.2898ZM13.7313 20.8125L11.4941 18.5306L11.2183 19.7468L12.5389 21.0938L13.7313 20.8125ZM17.753 11.7541L11.8071 17.8068L12.8687 18.8892L18.8085 12.8306L17.753 11.7541ZM13.3801 19.411L14.4416 20.4936L20.3752 14.4287L19.3198 13.3521L13.3801 19.411ZM19.4912 10.4782C19.3572 10.3421 19.1406 10.3419 19.0065 10.478L18.2646 11.2328L20.886 13.9066L21.6261 13.1501C21.7596 13.0134 21.7594 12.7923 21.6259 12.6558L19.4912 10.4782Z" fill="black"/>
</svg>
