<svg width="32" height="32" viewBox="0 0 32 32" fill="none" xmlns="http://www.w3.org/2000/svg">
<path d="M16 32C24.8366 32 32 24.8366 32 16C32 7.16344 24.8366 0 16 0C7.16344 0 0 7.16344 0 16C0 24.8366 7.16344 32 16 32Z" fill="black"/>
<path d="M6.36111 26.8789H8.79926C8.89389 26.8823 8.98587 26.8469 9.05436 26.7802C9.12286 26.7136 9.16223 26.6216 9.16331 26.525V25.5881H23.2647V26.525C23.2659 26.6216 23.3051 26.7136 23.3736 26.7802C23.4421 26.8469 23.5341 26.8823 23.6287 26.8789H26.0669C26.1613 26.8823 26.253 26.8467 26.3211 26.7801C26.3891 26.7132 26.428 26.6214 26.4285 26.525V23.8838C26.4286 23.6798 26.2669 23.5143 26.0669 23.5135H25.2082V8.48472H26.0669C26.2669 8.48418 26.4286 8.3185 26.4285 8.11464V5.47323C26.428 5.37705 26.3891 5.28505 26.3211 5.21842C26.253 5.1518 26.1613 5.11613 26.0669 5.11937H23.6287C23.5341 5.11595 23.4421 5.15162 23.3736 5.21824C23.3051 5.28487 23.2659 5.3767 23.2647 5.47323V6.41019H9.16331V5.47323C9.16223 5.3767 9.12286 5.28487 9.05436 5.21824C8.98587 5.15162 8.89389 5.11595 8.79926 5.11937H6.36111C6.26684 5.11613 6.17519 5.1518 6.10705 5.21842C6.03888 5.28505 6.00023 5.37705 5.99951 5.47323V8.11464C5.99951 8.3185 6.16124 8.48418 6.36111 8.48472H7.21983V23.5135H6.36111C6.16124 23.5143 5.99951 23.6798 5.99951 23.8838V26.525C6.00023 26.6214 6.03888 26.7132 6.10705 26.7801C6.17519 26.8467 6.26684 26.8823 6.36111 26.8789ZM25.7053 26.1413H23.9879V24.2512H25.7053V26.1413ZM23.9879 5.85698H25.7053V7.74711H23.9879V5.85698ZM6.72268 5.85698H8.44014V7.74711H6.72268V5.85698ZM7.94299 8.48472H8.79926C8.99982 8.48436 9.16223 8.31904 9.16331 8.11464V7.14781H23.2647V8.11464C23.2657 8.31904 23.4284 8.48436 23.6287 8.48472H24.485V23.5135H23.6287C23.4284 23.5141 23.2657 23.6794 23.2647 23.8838V24.8505H9.16331V23.8838C9.16223 23.6794 8.99982 23.5141 8.79926 23.5135H7.94299V8.48472ZM6.72268 24.2512H8.44014V26.1413H6.72268V24.2512Z" fill="white"/>
<path d="M10.3386 22.3601C10.366 22.3601 10.3933 22.3569 10.42 22.3506L14.4132 21.4089C14.544 21.3784 14.6635 21.3108 14.7583 21.2139L22.1381 13.6711C22.553 13.2461 22.5527 12.5587 22.1374 12.1341L20.0028 9.95672C19.5863 9.53317 18.9126 9.53281 18.4957 9.95582L11.1009 17.4836C11.0061 17.5801 10.9397 17.7018 10.9096 17.8351L9.98639 21.9085C9.96147 22.018 9.98707 22.1331 10.0556 22.2211C10.1243 22.309 10.2284 22.3601 10.3386 22.3601ZM11.0264 20.5941L11.7085 21.2898L10.8213 21.499L11.0264 20.5941ZM11.4941 18.5306L13.7314 20.8125L12.5389 21.0938L11.2184 19.7468L11.4941 18.5306ZM11.8072 17.8068L17.753 11.7541L18.8086 12.8306L12.8687 18.8893L11.8072 17.8068ZM14.4416 20.4936L13.3802 19.411L19.3199 13.3521L20.3753 14.4287L14.4416 20.4936ZM19.0065 10.478C19.1407 10.3419 19.3573 10.3421 19.4913 10.4782L21.626 12.6558C21.7594 12.7923 21.7596 13.0134 21.6262 13.1501L20.8861 13.9066L18.2646 11.2328L19.0065 10.478Z" fill="white"/>
</svg>
