<svg width="16" height="16" viewBox="0 0 16 16" fill="none" xmlns="http://www.w3.org/2000/svg">
<path d="M4.74238 7.84467C4.74238 6.76764 3.86927 5.89453 2.79224 5.89453C1.71521 5.89453 0.842102 6.76764 0.842102 7.84467C0.842102 8.9217 1.71521 9.79481 2.79224 9.79481C3.86927 9.79481 4.74238 8.9217 4.74238 7.84467Z" fill="#0A0025"/>
<path d="M15.4694 7.84467C15.4694 6.76764 14.5963 5.89453 13.5193 5.89453C12.4423 5.89453 11.5692 6.76764 11.5692 7.84467C11.5692 8.9217 12.4423 9.79481 13.5193 9.79481C14.5963 9.79481 15.4694 8.9217 15.4694 7.84467Z" fill="#0A0025"/>
<path fill-rule="evenodd" clip-rule="evenodd" d="M4.25659 7.42432H12.0571V8.26642H4.25659V7.42432Z" fill="#0A0025"/>
</svg>
