<svg width="16" height="16" viewBox="0 0 16 16" fill="none" xmlns="http://www.w3.org/2000/svg">
<path d="M2 9.5H1.5V10V14V14.5H2H5.83219H6.33219V14V10V9.5H5.83219H2ZM9.30333 4.0541L8.97194 4.4L9.30333 4.7459L11.4711 7.00864L11.8322 7.3855L12.1932 7.00864L14.361 4.7459L14.6924 4.4L14.361 4.0541L12.1932 1.79136L11.8322 1.4145L11.4711 1.79136L9.30333 4.0541ZM3.91609 6.5C5.27045 6.5 6.33219 5.3603 6.33219 4C6.33219 2.6397 5.27045 1.5 3.91609 1.5C2.56174 1.5 1.5 2.6397 1.5 4C1.5 5.3603 2.56174 6.5 3.91609 6.5ZM11.5805 14.5C12.9348 14.5 13.9966 13.3603 13.9966 12C13.9966 10.6397 12.9348 9.5 11.5805 9.5C10.2261 9.5 9.16438 10.6397 9.16438 12C9.16438 13.3603 10.2261 14.5 11.5805 14.5Z" stroke="black"/>
</svg>
