<svg width="32" height="32" viewBox="0 0 32 32" fill="none" xmlns="http://www.w3.org/2000/svg">
<path fill-rule="evenodd" clip-rule="evenodd" d="M16 6C21.5228 6 26 10.4772 26 16C26 21.5228 21.5228 26 16 26C10.4772 26 6 21.5228 6 16C6 10.4772 10.4772 6 16 6ZM16.5481 16.0709C16.6041 15.4269 16.6321 14.7129 16.6321 13.9289V11.2969H15.2321V13.9289C15.2321 14.7129 15.2601 15.4269 15.3161 16.0709C15.3721 16.7055 15.4421 17.3402 15.5261 17.9749H16.3381C16.4221 17.3402 16.4921 16.7055 16.5481 16.0709ZM16.6181 20.9009C16.7861 20.7142 16.8701 20.4949 16.8701 20.2429C16.8701 19.9909 16.7861 19.7715 16.6181 19.5849C16.4501 19.3982 16.2215 19.3049 15.9321 19.3049C15.6428 19.3049 15.4141 19.3982 15.2461 19.5849C15.0781 19.7715 14.9941 19.9909 14.9941 20.2429C14.9941 20.4949 15.0781 20.7142 15.2461 20.9009C15.4141 21.0875 15.6428 21.1809 15.9321 21.1809C16.2215 21.1809 16.4501 21.0875 16.6181 20.9009Z" fill="black"/>
</svg>
