<svg width="16" height="16" viewBox="0 0 16 16" fill="none" xmlns="http://www.w3.org/2000/svg">
<path d="M4 13C3.44772 13 3 13.4477 3 14C3 14.5523 3.44772 15 4 15H12C12.5523 15 13 14.5523 13 14C13 13.4477 12.5523 13 12 13H4Z" fill="black"/>
<path d="M4.29289 4.29289L8 0.585785L11.7071 4.29289C12.0976 4.68342 12.0976 5.31658 11.7071 5.7071C11.3166 6.09763 10.6834 6.09763 10.2929 5.7071L9 4.41421L9 11C9 11.5523 8.55229 12 8 12C7.44772 12 7 11.5523 7 11L7 4.41421L5.70711 5.7071C5.31658 6.09763 4.68342 6.09763 4.29289 5.7071C3.90237 5.31658 3.90237 4.68342 4.29289 4.29289Z" fill="black"/>
</svg>
