<svg width="16" height="16" viewBox="0 0 16 16" fill="none" xmlns="http://www.w3.org/2000/svg">
<path d="M3 12C3 12.5523 2.55228 13 2 13C1.44772 13 1 12.5523 1 12L1 4C1 3.44771 1.44772 3 2 3C2.55228 3 3 3.44772 3 4L3 12Z" fill="black"/>
<path d="M11.7071 11.7071L15.4142 8L11.7071 4.29289C11.3166 3.90237 10.6834 3.90237 10.2929 4.29289C9.90237 4.68342 9.90237 5.31658 10.2929 5.70711L11.5858 7L5 7C4.44772 7 4 7.44771 4 8C4 8.55228 4.44771 9 5 9L11.5858 9L10.2929 10.2929C9.90237 10.6834 9.90237 11.3166 10.2929 11.7071C10.6834 12.0976 11.3166 12.0976 11.7071 11.7071Z" fill="black"/>
</svg>
