<svg width="16" height="16" viewBox="0 0 16 16" fill="none" xmlns="http://www.w3.org/2000/svg">
<path d="M4 3C3.44772 3 3 2.55228 3 2C3 1.44772 3.44772 1 4 1H12C12.5523 1 13 1.44772 13 2C13 2.55228 12.5523 3 12 3H4Z" fill="black"/>
<path d="M4.29289 11.7071L8 15.4142L11.7071 11.7071C12.0976 11.3166 12.0976 10.6834 11.7071 10.2929C11.3166 9.90237 10.6834 9.90237 10.2929 10.2929L9 11.5858L9 5C9 4.44772 8.55229 4 8 4C7.44772 4 7 4.44771 7 5L7 11.5858L5.70711 10.2929C5.31658 9.90237 4.68342 9.90237 4.29289 10.2929C3.90237 10.6834 3.90237 11.3166 4.29289 11.7071Z" fill="black"/>
</svg>
