<svg width="16" height="16" viewBox="0 0 16 16" fill="none" xmlns="http://www.w3.org/2000/svg">
<rect width="16" height="16" rx="8" fill="black"/>
<path d="M7.99969 12.8012C7.35181 12.8012 6.72269 12.6746 6.13107 12.4243C5.55914 12.1824 5.04627 11.8355 4.60561 11.3949C4.16494 10.9543 3.81803 10.4415 3.57613 9.86961C3.32579 9.27805 3.19922 8.64898 3.19922 8.00117C3.19922 7.81461 3.35017 7.66367 3.53675 7.66367C3.72333 7.66367 3.87428 7.81461 3.87428 8.00117C3.87428 8.55805 3.98305 9.09805 4.19869 9.60711C4.40684 10.0984 4.70405 10.5399 5.08284 10.9187C5.46163 11.2974 5.90323 11.5955 6.39453 11.8027C6.90271 12.0174 7.44276 12.1262 7.99969 12.1262C8.55662 12.1262 9.09667 12.0174 9.60578 11.8018C10.0971 11.5937 10.5387 11.2965 10.9175 10.9177C11.2963 10.539 11.5944 10.0974 11.8016 9.60617C12.0163 9.09805 12.1251 8.55805 12.1251 8.00117C12.1251 7.4443 12.0163 6.9043 11.8007 6.39523C11.5932 5.90516 11.293 5.45981 10.9165 5.08367C10.5408 4.70672 10.0953 4.40645 9.60485 4.19961C9.09667 3.98492 8.55662 3.87617 7.99969 3.87617C7.81311 3.87617 7.66216 3.72523 7.66216 3.53867C7.66216 3.35211 7.81311 3.20117 7.99969 3.20117C8.64756 3.20117 9.27669 3.32773 9.86831 3.57805C10.4402 3.81992 10.9531 4.1668 11.3938 4.60742C11.8344 5.04805 12.1804 5.5618 12.4223 6.13273C12.6726 6.7243 12.7992 7.35336 12.7992 8.00117C12.7992 8.64898 12.6726 9.27805 12.4223 9.86961C12.1813 10.4415 11.8344 10.9543 11.3938 11.3949C10.9531 11.8355 10.4393 12.1815 9.86831 12.4234C9.27669 12.6746 8.64756 12.8012 7.99969 12.8012Z" fill="white"/>
</svg>
