<svg width="16" height="16" viewBox="0 0 16 16" fill="none" xmlns="http://www.w3.org/2000/svg">
<rect width="16" height="16" rx="8" fill="black"/>
<g clip-path="url(#clip0)">
<path fill-rule="evenodd" clip-rule="evenodd" d="M6.2811 11.1455V11.148V11.1449C6.28068 11.0201 6.23076 10.9006 6.14231 10.8125C6.05386 10.7245 5.9341 10.6752 5.80932 10.6754C5.68454 10.6756 5.56494 10.7254 5.47678 10.8137C5.38862 10.902 5.33911 11.0216 5.33911 11.1464C5.33911 11.2712 5.38862 11.3909 5.47678 11.4792C5.56494 11.5675 5.68454 11.6172 5.80932 11.6174C5.9341 11.6176 6.05386 11.5683 6.14231 11.4803C6.23076 11.3923 6.28068 11.2728 6.2811 11.148V11.1455ZM6.56369 9.95229C6.83423 10.1229 7.0389 10.3802 7.14424 10.6821C7.24959 10.9841 7.24939 11.3128 7.14366 11.6147C7.03793 11.9165 6.83294 12.1735 6.5622 12.3438C6.29145 12.514 5.97097 12.5873 5.65313 12.5518C5.3353 12.5163 5.03892 12.374 4.81245 12.1482C4.58598 11.9223 4.44281 11.6264 4.40635 11.3087C4.36989 10.9909 4.44229 10.6702 4.61172 10.399C4.78115 10.1277 5.03759 9.922 5.33911 9.81539V6.51466C5.02468 6.40356 4.75965 6.18483 4.59088 5.89721C4.42211 5.60959 4.36046 5.27154 4.41683 4.94285C4.47319 4.61422 4.64395 4.31599 4.89891 4.10109C5.15387 3.88613 5.47662 3.76819 5.8101 3.76819C6.14358 3.76819 6.46633 3.88613 6.72129 4.10109C6.97625 4.31599 7.147 4.61422 7.20337 4.94285C7.25974 5.27154 7.19809 5.60959 7.02932 5.89721C6.86055 6.18483 6.59553 6.40356 6.2811 6.51466V8.71577C6.61913 8.34398 7.03122 8.04704 7.49087 7.84403C7.95053 7.64103 8.44758 7.53645 8.95007 7.53703H9.81544C9.92654 7.2226 10.1453 6.95758 10.4329 6.78878C10.7205 6.62003 11.0586 6.55836 11.3872 6.61476C11.7159 6.67109 12.0141 6.8419 12.229 7.09683C12.444 7.3518 12.5619 7.67454 12.5619 8.00802C12.5619 8.34151 12.444 8.66426 12.229 8.91922C12.0141 9.17418 11.7159 9.34494 11.3872 9.4013C11.0586 9.45767 10.7205 9.39602 10.4329 9.22724C10.1453 9.05848 9.92654 8.79345 9.81544 8.47902H8.95007C8.45477 8.47898 7.96922 8.61676 7.54777 8.87695C7.12633 9.13714 6.78559 9.50948 6.56369 9.95229ZM11.148 7.53703C11.273 7.53703 11.3928 7.58665 11.4811 7.67498C11.5694 7.76331 11.619 7.88311 11.619 8.00802C11.619 8.13294 11.5694 8.25274 11.4811 8.34107C11.3928 8.4294 11.273 8.47902 11.148 8.47902C11.0231 8.47902 10.9033 8.4294 10.815 8.34107C10.7267 8.25274 10.6771 8.13294 10.6771 8.00802C10.6771 7.88311 10.7267 7.76331 10.815 7.67498C10.9033 7.58665 11.0231 7.53703 11.148 7.53703ZM5.8101 4.71106C5.93501 4.71106 6.05482 4.76067 6.14314 4.84903C6.23147 4.93732 6.2811 5.05715 6.2811 5.18205C6.2811 5.30696 6.23147 5.42678 6.14314 5.51508C6.05482 5.60344 5.93501 5.65305 5.8101 5.65305C5.68519 5.65305 5.56538 5.60344 5.47706 5.51508C5.38873 5.42678 5.33911 5.30696 5.33911 5.18205C5.33911 5.05715 5.38873 4.93732 5.47706 4.84903C5.56538 4.76067 5.68519 4.71106 5.8101 4.71106Z" fill="white"/>
</g>
<defs>
<clipPath id="clip0">
<rect width="10.0479" height="10.0479" fill="white" transform="translate(3.14062 3.13965)"/>
</clipPath>
</defs>
</svg>
