<svg width="32" height="32" viewBox="0 0 32 32" fill="none" xmlns="http://www.w3.org/2000/svg">
<g clip-path="url(#clip0_1006_129)">
<path d="M15.8891 0.00278891C15.6065 0.0176071 15.3297 0.0882509 15.075 0.210585L3.94887 5.53095C3.66094 5.66863 3.40795 5.86894 3.20867 6.11702C3.00941 6.3651 2.86899 6.65457 2.79785 6.96392L0.0537164 18.9175C-0.00985337 19.1931 -0.0170807 19.4785 0.0324631 19.7569C0.082007 20.0352 0.187313 20.3009 0.342144 20.5381C0.37981 20.5957 0.42029 20.6516 0.46344 20.7054L8.16346 30.291C8.36277 30.539 8.61579 30.7392 8.90372 30.8768C9.19166 31.0144 9.5071 31.0858 9.82665 31.0858L22.1753 31.083C22.4947 31.0832 22.81 31.0121 23.098 30.8747C23.3859 30.7373 23.6389 30.5374 23.8384 30.2896L31.5358 20.7027C31.7349 20.4547 31.8754 20.1653 31.9466 19.856C32.0177 19.5468 32.0178 19.2255 31.9469 18.9162L29.1986 6.96123C29.1274 6.65212 28.9869 6.36291 28.7876 6.11508C28.5883 5.86724 28.3355 5.66714 28.0477 5.5296L16.9215 0.209235C16.6002 0.0555921 16.2452 -0.0153986 15.8891 0.00278891ZM15.8945 0.823175C16.2316 0.806112 16.5676 0.873388 16.8717 1.01883L27.4114 6.05718C27.6843 6.18759 27.9238 6.37734 28.1126 6.61234C28.3014 6.84734 28.4345 7.12155 28.5019 7.4146L31.1058 18.7381C31.1732 19.0313 31.1732 19.3358 31.1057 19.6289C31.0383 19.9221 30.9052 20.1965 30.7163 20.4315L23.4246 29.5124C23.2357 29.7471 22.9959 29.9365 22.7232 30.0667C22.4505 30.1968 22.1517 30.2642 21.8491 30.264L10.1515 30.2667C9.84876 30.2668 9.54992 30.199 9.27715 30.0687C9.00438 29.9385 8.76469 29.7487 8.57589 29.5138L1.28157 20.4342C1.24079 20.383 1.20255 20.3299 1.16701 20.275C1.02039 20.0505 0.920637 19.7989 0.873642 19.5355C0.826645 19.2719 0.833364 19.0017 0.893401 18.7408L3.49331 7.41731C3.5607 7.12427 3.69373 6.85006 3.8825 6.61506C4.07126 6.38005 4.31093 6.1903 4.58369 6.05989L15.1221 1.01884C15.3639 0.90322 15.6265 0.836703 15.8945 0.823188V0.823175Z" fill="white"/>
<path fill-rule="evenodd" clip-rule="evenodd" d="M15.1232 1.01807C15.3649 0.902453 15.6275 0.835935 15.8955 0.82242C16.2325 0.805356 16.5685 0.872632 16.8726 1.01807L27.4125 6.05643C27.6852 6.18684 27.9249 6.37659 28.1136 6.61158C28.3024 6.84659 28.4354 7.1208 28.5028 7.41385L31.1068 18.7373C31.1742 19.0305 31.1742 19.3351 31.1068 19.6282C31.0393 19.9214 30.9061 20.1957 30.7172 20.4308L23.4256 29.5116C23.2367 29.7464 22.9969 29.9358 22.7242 30.0658C22.4514 30.196 22.1526 30.2634 21.85 30.2632L10.1525 30.266C9.84974 30.266 9.5509 30.1983 9.27813 30.068C9.00536 29.9376 8.76569 29.748 8.57687 29.513L1.28255 20.4334C1.24177 20.3822 1.20353 20.3291 1.16799 20.2742C1.02137 20.0496 0.921617 19.7982 0.874622 19.5346C0.827625 19.2712 0.834344 19.0009 0.894381 18.7401L3.4943 7.41655C3.5617 7.1235 3.69471 6.84929 3.88348 6.61428C4.07224 6.37929 4.31191 6.18954 4.58467 6.05913L15.1232 1.01807ZM15.9995 9.17191L9.575 11.037L15.9995 12.9021L22.4239 11.037L15.9995 9.17191ZM9.575 11.7511V18.5947L15.5607 21.9142L15.5904 13.5421L9.575 11.7511ZM22.4258 18.5947V11.7511L16.4104 13.5421L16.44 21.9142L22.4258 18.5947Z" fill="black"/>
</g>
<defs>
<clipPath id="clip0_1006_129">
<rect width="32" height="32" fill="white"/>
</clipPath>
</defs>
</svg>
