<svg width="24" height="24" viewBox="0 0 24 24" fill="none" xmlns="http://www.w3.org/2000/svg">
<path fill-rule="evenodd" clip-rule="evenodd" d="M12 24C18.6274 24 24 18.6274 24 12C24 5.37258 18.6274 0 12 0C5.37258 0 0 5.37258 0 12C0 18.6274 5.37258 24 12 24ZM13.5723 11.2357L14.9195 13.0429C14.657 12.9982 14.3778 12.9688 14.0965 12.9688C13.9413 12.9688 13.7867 12.9777 13.6352 12.9932C13.598 12.997 13.561 13.0012 13.5243 13.0057C13.156 13.0514 12.8102 13.1334 12.5243 13.217C12.207 13.3097 11.9634 13.4043 11.8444 13.4534C11.7998 13.4718 11.7721 13.4841 11.7656 13.487L11.7358 13.5C11.4454 13.6246 10.6352 13.9062 9.90352 13.9062C9.83231 13.9062 9.76086 13.9037 9.68964 13.899C9.29188 13.8726 8.90139 13.7788 8.60018 13.6873L10.4276 11.2357V4.9375H13.5723V11.2357ZM12.5243 11.5625V12.5H11.4761V11.5625H12.5243ZM14.7616 13.9699C15.0384 14.0194 15.2947 14.0904 15.4984 14.1559C15.6417 14.202 15.759 14.2455 15.8393 14.2768L18.8633 18.3337C19.0205 18.5446 18.9339 18.7405 18.8893 18.815C18.8841 18.8237 18.8776 18.8338 18.8698 18.8449C18.8112 18.9277 18.6773 19.0625 18.4272 19.0625H5.57274C5.32262 19.0625 5.18871 18.9276 5.1301 18.8448C5.12232 18.8338 5.11586 18.8237 5.11064 18.815C5.06613 18.7405 4.97947 18.5446 5.13664 18.3337L8.00143 14.4905C8.09691 14.5234 8.20563 14.5586 8.32487 14.5936C8.75635 14.7202 9.32557 14.8438 9.90352 14.8438C10.9018 14.8438 11.875 14.4748 12.1556 14.3591C12.2006 14.3405 12.2278 14.3284 12.2344 14.3255C12.4951 14.2089 13.338 13.9062 14.0965 13.9062C14.3207 13.9062 14.5473 13.9316 14.7616 13.9699ZM11.4761 18.125V17.1875H12.5243V18.125H11.4761ZM18.4272 20C18.8838 20 19.3097 19.8242 19.6042 19.5265C19.6844 19.4455 19.7548 19.3554 19.8135 19.2573C20.0877 18.7992 20.0578 18.246 19.7355 17.8137L14.6206 10.9518V4.9375H15.6688V4H8.33117V4.9375H9.3794V10.9518L4.26451 17.8137C3.94221 18.2461 3.91234 18.7992 4.18648 19.2573C4.24512 19.3553 4.31552 19.4454 4.39565 19.5264C4.69013 19.8241 5.11605 20 5.57274 20H18.4272ZM14.6205 15.3125V16.25H13.5723V15.3125H14.6205ZM10.4276 16.25V17.1875H9.37939V16.25H10.4276Z" fill="black"/>
</svg>
