<svg width="12" height="12" viewBox="0 0 12 12" fill="none" xmlns="http://www.w3.org/2000/svg">
<path d="M12 6C12 2.68629 9.31371 0 6 0C2.68629 0 0 2.68629 0 6C0 9.31371 2.68629 12 6 12C9.31371 12 12 9.31371 12 6Z" fill="black"/>
<path d="M6.93101 5.2705V2.89643H7.30339V2.52637H4.6966V2.89643H5.069V5.2705L3.25187 7.97917C3.13737 8.14982 3.12675 8.36816 3.22415 8.54898C3.32153 8.7298 3.51024 8.84216 3.71664 8.84216H8.28335C8.48975 8.84216 8.67847 8.7298 8.77585 8.54898C8.87324 8.36816 8.86263 8.14982 8.74813 7.97917L6.93101 5.2705ZM5.4414 5.38256V2.89643H6.55857V5.38256L7.03718 6.09594C6.94396 6.07829 6.84474 6.06666 6.74482 6.06666C6.33316 6.06666 5.93354 6.26287 5.91673 6.27123C5.82408 6.31723 5.52465 6.43673 5.2552 6.43673C5.0886 6.43673 4.91834 6.39289 4.79217 6.35033L5.4414 5.38256ZM8.4475 8.37441C8.43171 8.40378 8.38402 8.47212 8.28335 8.47212H3.71664C3.61598 8.47212 3.5683 8.40378 3.55247 8.37441C3.53666 8.34498 3.50587 8.26767 3.5617 8.18443L4.57946 6.66738C4.73611 6.72731 4.99313 6.80677 5.2552 6.80677C5.66683 6.80677 6.06646 6.6106 6.08327 6.60226C6.17591 6.55622 6.47533 6.43673 6.74482 6.43673C6.99979 6.43673 7.26348 6.53942 7.36396 6.583L8.43828 8.18443C8.49411 8.26767 8.46335 8.34498 8.4475 8.37441Z" fill="white"/>
<path d="M6.55865 6.9917H6.93103V7.36174H6.55865V6.9917Z" fill="white"/>
<path d="M5.81378 7.73193H6.18618V8.10198H5.81378V7.73193Z" fill="white"/>
<path d="M5.06903 7.36182H5.44143V7.73192H5.06903V7.36182Z" fill="white"/>
<path d="M5.81378 5.51172H6.18618V5.88179H5.81378V5.51172Z" fill="white"/>
</svg>
