<svg width="16" height="16" viewBox="0 0 16 16" fill="none" xmlns="http://www.w3.org/2000/svg">
<rect width="16" height="16" rx="8" fill="black"/>
<path d="M12.7044 10.5948L8.89811 4.01788C8.80679 3.86037 8.67569 3.72962 8.51794 3.63873C8.36019 3.54784 8.18132 3.5 7.99926 3.5C7.81719 3.5 7.63833 3.54784 7.48058 3.63873C7.32282 3.72962 7.19172 3.86037 7.10041 4.01788V4.01822L3.29407 10.5948C3.20268 10.7526 3.15447 10.9317 3.1543 11.1141C3.15412 11.2965 3.20198 11.4757 3.29306 11.6337C3.38414 11.7917 3.51523 11.9229 3.67314 12.0142C3.83105 12.1054 4.0102 12.1535 4.19258 12.1535H11.8059C11.9883 12.1535 12.1675 12.1054 12.3254 12.0142C12.4833 11.9229 12.6144 11.7917 12.7055 11.6337C12.7965 11.4757 12.8444 11.2965 12.8442 11.1141C12.844 10.9317 12.7958 10.7526 12.7044 10.5948ZM7.65277 6.96154C7.65277 6.86973 7.68924 6.78169 7.75415 6.71677C7.81907 6.65185 7.90711 6.61538 7.99892 6.61538C8.09073 6.61538 8.17877 6.65185 8.24369 6.71677C8.3086 6.78169 8.34507 6.86973 8.34507 6.96154V8.69231C8.34507 8.78411 8.3086 8.87216 8.24369 8.93708C8.17877 9.00199 8.09073 9.03846 7.99892 9.03846C7.90711 9.03846 7.81907 9.00199 7.75415 8.93708C7.68924 8.87216 7.65277 8.78411 7.65277 8.69231V6.96154ZM7.99917 10.7694C7.89648 10.7694 7.79609 10.7389 7.7107 10.6818C7.62532 10.6248 7.55877 10.5437 7.51947 10.4488C7.48017 10.3539 7.46988 10.2495 7.48992 10.1488C7.50995 10.0481 7.55941 9.95559 7.63202 9.88297C7.70464 9.81036 7.79716 9.76091 7.89788 9.74087C7.9986 9.72084 8.103 9.73112 8.19787 9.77042C8.29275 9.80972 8.37384 9.87627 8.4309 9.96166C8.48795 10.047 8.5184 10.1474 8.5184 10.2501C8.5184 10.3878 8.46369 10.5199 8.36632 10.6173C8.26894 10.7146 8.13688 10.7693 7.99917 10.7694Z" fill="white"/>
</svg>
