<svg width="16" height="16" viewBox="0 0 16 16" fill="none" xmlns="http://www.w3.org/2000/svg">
<path d="M3 2.5L13 13.5" stroke="black" stroke-linecap="round" stroke-linejoin="round"/>
<path d="M9.68155 9.85012C9.19092 10.2961 8.54325 10.5289 7.88099 10.4973C7.21874 10.4657 6.59614 10.1724 6.15016 9.6818C5.70417 9.19121 5.47132 8.54356 5.50283 7.8813C5.53433 7.21904 5.82762 6.59642 6.31816 6.15039" stroke="black" stroke-linecap="round" stroke-linejoin="round"/>
<path d="M4.62465 4.28711C2.07657 5.57746 1 8.00001 1 8.00001C1 8.00001 3 12.4995 8 12.4995C9.1715 12.5089 10.3284 12.239 11.3748 11.7124" stroke="black" stroke-linecap="round" stroke-linejoin="round"/>
<path d="M13.0378 10.5692C14.4004 9.34876 14.9997 8.0005 14.9997 8.0005C14.9997 8.0005 12.9997 3.50001 7.99967 3.50001C7.56662 3.4993 7.13426 3.53451 6.70703 3.60527" stroke="black" stroke-linecap="round" stroke-linejoin="round"/>
<path d="M8.4707 5.54492C9.00206 5.64695 9.48601 5.91852 9.84997 6.31888C10.2139 6.71924 10.4383 7.22682 10.4893 7.76547" stroke="black" stroke-linecap="round" stroke-linejoin="round"/>
</svg>
