<svg width="32" height="32" viewBox="0 0 32 32" fill="none" xmlns="http://www.w3.org/2000/svg">
<path fill-rule="evenodd" clip-rule="evenodd" d="M5.00003 4H27C27.5303 4.00067 28.0385 4.20731 28.4135 4.57458C28.7884 4.94186 28.9993 5.43976 29 5.9592V21.6327C28.9993 22.1521 28.7884 22.65 28.4135 23.0172C28.0385 23.3845 27.5303 23.5911 27 23.5919L10.2559 23.6378L6.28714 26.9066C5.92932 27.2043 5.47533 27.368 5.00589 27.3686C4.71226 27.3682 4.42228 27.3048 4.15628 27.183C3.80951 27.0273 3.51599 26.7768 3.31089 26.4617C3.10581 26.1466 2.99787 25.7803 3.00003 25.4066V5.9592C3.00072 5.43976 3.21165 4.94186 3.58658 4.57458C3.9615 4.20731 4.46981 4.00067 5.00003 4ZM9.5486 20.1159L10.8388 16.1978L13.5484 18.852L9.5486 20.1159ZM18.0403 9.1225L11.7451 15.2892L14.4821 17.9703L20.7773 11.8036L18.0403 9.1225ZM20.4517 7.66572L22.2581 9.43525C22.5161 9.68805 22.5161 10.0672 22.2581 10.32L21.6775 10.8888L18.9679 8.23453L19.5485 7.66572C19.8065 7.41298 20.1937 7.41298 20.4517 7.66572Z" fill="black"/>
</svg>
