<svg width="16" height="16" viewBox="0 0 16 16" fill="none" xmlns="http://www.w3.org/2000/svg">
<path fill-rule="evenodd" clip-rule="evenodd" d="M3.5 8C3.5 7.72386 3.72386 7.5 4 7.5H12C12.2761 7.5 12.5 7.72386 12.5 8C12.5 8.27614 12.2761 8.5 12 8.5H4C3.72386 8.5 3.5 8.27614 3.5 8Z" fill="#697386"/>
<path fill-rule="evenodd" clip-rule="evenodd" d="M1 5C1 4.72386 1.22386 4.5 1.5 4.5H14.5C14.7761 4.5 15 4.72386 15 5C15 5.27614 14.7761 5.5 14.5 5.5H1.5C1.22386 5.5 1 5.27614 1 5Z" fill="#697386"/>
<path fill-rule="evenodd" clip-rule="evenodd" d="M6 11C6 10.7239 6.22386 10.5 6.5 10.5H9.5C9.77614 10.5 10 10.7239 10 11C10 11.2761 9.77614 11.5 9.5 11.5H6.5C6.22386 11.5 6 11.2761 6 11Z" fill="#697386"/>
</svg>
