<svg width="32" height="32" viewBox="0 0 32 32" fill="none" xmlns="http://www.w3.org/2000/svg">
<path d="M17.1328 19.0298H18.3037V20.1744H17.1328V19.0298Z" fill="black"/>
<path d="M14.791 21.3193H15.9619V22.464H14.791V21.3193Z" fill="black"/>
<path d="M12.4492 20.1748H13.6202V21.3195H12.4492V20.1748Z" fill="black"/>
<path d="M14.791 14.4512H15.9619V15.5959H14.791V14.4512Z" fill="black"/>
<path fill-rule="evenodd" clip-rule="evenodd" d="M18.3038 6.36195V13.7053L23.2329 20.933C23.6992 19.7987 24.8151 19 26.1175 19C27.8392 19 29.2349 20.3957 29.2349 22.1175C29.2349 23.8392 27.8392 25.2349 26.1175 25.2349C25.2092 25.2349 24.3917 24.8465 23.8219 24.2268C23.4956 24.5587 23.0414 24.7529 22.5561 24.7529H8.19679C7.54782 24.7529 6.95446 24.4055 6.64826 23.8462C6.34201 23.2868 6.37539 22.6114 6.73541 22.0835L12.4491 13.7053V6.36195H11.2781V5.21729H19.4748V6.36195H18.3038ZM23.0646 22.7519C23.0859 22.8549 23.1123 22.9561 23.1435 23.0551C23.1384 23.1676 23.0987 23.2577 23.0723 23.3061C23.0226 23.3969 22.8726 23.6083 22.5561 23.6083H8.19679C7.88029 23.6083 7.73037 23.3969 7.6806 23.3061C7.63088 23.2152 7.53408 22.9759 7.70964 22.7185L10.9098 18.026C11.4024 18.2114 12.2105 18.4573 13.0346 18.4573C14.3289 18.4573 15.5854 17.8504 15.6383 17.8245C15.9296 17.6822 16.8711 17.3126 17.7183 17.3126C18.5201 17.3126 19.3493 17.6302 19.6652 17.765L23.0433 22.7184C23.0509 22.7296 23.058 22.7408 23.0646 22.7519ZM13.62 6.36195V14.0519L11.5786 17.0452C11.9753 17.177 12.5107 17.3126 13.0346 17.3126C13.8818 17.3126 14.8233 16.9431 15.1146 16.8007C15.1675 16.7748 16.4241 16.1679 17.7183 16.1679C18.0326 16.1679 18.3445 16.2039 18.6377 16.2585L17.1329 14.0519V6.36195H13.62ZM26.1855 22.6162L26.993 23.4238C27.0823 23.513 27.2269 23.513 27.316 23.4238L27.4236 23.3161C27.5129 23.2269 27.5129 23.0822 27.4236 22.9931L26.6161 22.1856L27.4238 21.3781C27.513 21.2889 27.513 21.1442 27.4238 21.0551L27.3161 20.9473C27.2269 20.8581 27.0823 20.8581 26.9931 20.9473L26.1855 21.755L25.378 20.9474C25.2887 20.8582 25.144 20.8582 25.055 20.9474L24.9473 21.0551C24.8581 21.1443 24.8581 21.289 24.9473 21.3781L25.7548 22.1856L24.9473 22.9931C24.8581 23.0824 24.8581 23.227 24.9473 23.3161L25.055 23.4238C25.1442 23.513 25.2889 23.513 25.378 23.4238L26.1855 22.6162Z" fill="black"/>
</svg>
