<svg width="32" height="32" viewBox="0 0 32 32" fill="none" xmlns="http://www.w3.org/2000/svg">
<path d="M28.9622 3.30317C28.9127 3.18347 28.817 3.08781 28.6968 3.03777C28.637 3.01325 28.5732 3 28.5094 3H22.6226C22.3518 3 22.1321 3.21977 22.1321 3.49057C22.1321 3.76136 22.3518 3.98113 22.6226 3.98113H27.3252L19.3324 11.9739C19.1406 12.1657 19.1406 12.4758 19.3324 12.6676C19.4281 12.7632 19.5537 12.8113 19.6792 12.8113C19.8048 12.8113 19.9304 12.7632 20.0261 12.6676L28.0189 4.67479V9.37736C28.0189 9.64815 28.2386 9.86792 28.5094 9.86792C28.7802 9.86792 29 9.64815 29 9.37736V3.49057C29 3.42679 28.9868 3.36302 28.9622 3.30317Z" fill="black"/>
<path d="M11.9739 19.3324L3.98113 27.3252V22.6226C3.98113 22.3518 3.76136 22.1321 3.49057 22.1321C3.21977 22.1321 3 22.3518 3 22.6226V28.5094C3 28.5732 3.01325 28.637 3.03777 28.6968C3.08732 28.8165 3.18298 28.9122 3.30317 28.9622C3.36302 28.9868 3.42679 29 3.49057 29H9.37736C9.64815 29 9.86792 28.7802 9.86792 28.5094C9.86792 28.2386 9.64815 28.0189 9.37736 28.0189H4.67479L12.6676 20.0261C12.8594 19.8343 12.8594 19.5242 12.6676 19.3324C12.4758 19.1406 12.1657 19.1406 11.9739 19.3324Z" fill="black"/>
<path d="M3.49057 9.86792C3.76136 9.86792 3.98113 9.64815 3.98113 9.37736V4.67479L11.9734 12.6671C12.0691 12.7628 12.1947 12.8108 12.3203 12.8108C12.4458 12.8108 12.5714 12.7628 12.6671 12.6671C12.8589 12.4753 12.8589 12.1652 12.6671 11.9734L4.67479 3.98113H9.37736C9.64815 3.98113 9.86792 3.76136 9.86792 3.49057C9.86792 3.21977 9.64815 3 9.37736 3H3.49057C3.42679 3 3.36302 3.01325 3.30317 3.03777C3.18298 3.08781 3.08781 3.18298 3.03777 3.30317C3.01325 3.36302 3 3.42679 3 3.49057V9.37736C3 9.64815 3.21977 9.86792 3.49057 9.86792Z" fill="black"/>
<path d="M28.5094 22.1321C28.2386 22.1321 28.0189 22.3518 28.0189 22.6226V27.3252L20.0261 19.3319C19.8343 19.1401 19.5242 19.1401 19.3324 19.3319C19.1406 19.5237 19.1406 19.8338 19.3324 20.0256L27.3252 28.0189H22.6226C22.3518 28.0189 22.1321 28.2386 22.1321 28.5094C22.1321 28.7802 22.3518 29 22.6226 29H28.5094C28.5732 29 28.637 28.9868 28.6968 28.9622C28.8165 28.9127 28.9122 28.817 28.9622 28.6968C28.9868 28.637 29 28.5732 29 28.5094V22.6226C29 22.3518 28.7802 22.1321 28.5094 22.1321Z" fill="black"/>
</svg>
