<svg width="32" height="32" viewBox="0 0 32 32" fill="none" xmlns="http://www.w3.org/2000/svg">
<path d="M27.4764 17.5742C27.4764 16.3142 26.4513 15.2891 25.1913 15.2891H21.7975C22.218 14.1522 22.4787 12.8019 22.6312 11.779C22.7851 10.7464 22.4829 9.7012 21.8021 8.91124C21.1232 8.12362 20.1375 7.67187 19.0976 7.67187C18.6769 7.67187 18.3359 8.01292 18.3359 8.43358C18.3359 10.2738 17.2784 13.0517 16.0442 13.6705C14.6551 14.3668 11.9222 15.1385 11.3779 15.2891C11.0381 15.2891 4.09017 15.2891 3.76172 15.2891C3.34105 15.2891 3 15.6301 3 16.0508V26.7148C2.99995 27.1354 3.341 27.4767 3.76167 27.4767H6.04683V28.2383C6.04683 28.659 6.38787 29 6.80854 29H9.95697C10.8873 29 11.689 28.4408 12.0452 27.6413L17.3894 28.9772C17.4498 28.9923 17.5119 29 17.5742 29H22.1445C23.4045 29 24.4296 27.9749 24.4296 26.7148C24.4296 26.4176 24.3726 26.1336 24.269 25.8729C25.2383 25.6084 25.9531 24.7201 25.9531 23.668C25.9531 23.3708 25.896 23.0867 25.7924 22.8261C26.7617 22.5615 27.4764 21.6732 27.4764 20.6211C27.4764 20.0363 27.2557 19.5022 26.8933 19.0977C27.2557 18.6931 27.4764 18.159 27.4764 17.5742ZM6.04678 25.9531H4.52334V16.8125H6.04678V25.9531ZM10.7187 26.7148C10.7187 27.135 10.3769 27.4767 9.95693 27.4767H7.57022V16.8125H10.7187V26.7148ZM20.621 19.8594H25.1913C25.6114 19.8594 25.9531 20.2011 25.9531 20.6211C25.9531 21.0411 25.6114 21.3828 25.1913 21.3828C24.617 21.3828 21.0905 21.3828 20.621 21.3828C20.2004 21.3828 19.8593 21.7239 19.8593 22.1445C19.8593 22.5652 20.2004 22.9062 20.621 22.9062H23.6679C24.0879 22.9062 24.4296 23.248 24.4296 23.668C24.4296 24.088 24.0879 24.4297 23.6679 24.4297C23.345 24.4297 20.944 24.4297 20.621 24.4297C20.2004 24.4297 19.8593 24.7707 19.8593 25.1914C19.8593 25.6121 20.2004 25.9531 20.621 25.9531H22.1445C22.5645 25.9531 22.9062 26.2948 22.9062 26.7148C22.9062 27.135 22.5645 27.4767 22.1445 27.4767H17.668L12.2421 26.1202V16.6285C13.2698 16.3334 15.4497 15.6727 16.7269 15.0324C18.4763 14.1553 19.5476 11.3812 19.801 9.31979C20.125 9.4383 20.4175 9.63829 20.6482 9.9059C21.0394 10.3597 21.213 10.9606 21.1244 11.5543C20.7636 13.9743 20.311 14.9676 19.9398 15.7101C19.8217 15.9462 19.8343 16.2266 19.9731 16.4512C20.1119 16.6757 20.357 16.8125 20.621 16.8125H25.1913C25.6114 16.8125 25.9531 17.1542 25.9531 17.5742C25.9531 17.9942 25.6114 18.3359 25.1913 18.3359H20.621C20.2004 18.3359 19.8593 18.677 19.8593 19.0977C19.8593 19.5183 20.2004 19.8594 20.621 19.8594Z" fill="black"/>
<path d="M19.8594 3C19.4387 3 19.0977 3.34105 19.0977 3.76172V5.38671C19.0977 5.8074 19.4387 6.14844 19.8594 6.14844C20.28 6.14844 20.6211 5.8074 20.6211 5.38671V3.76172C20.6211 3.34105 20.28 3 19.8594 3Z" fill="black"/>
<path d="M15.5506 6.85617L14.4734 5.77894C14.1759 5.48147 13.6936 5.48147 13.3961 5.77894C13.0987 6.07643 13.0987 6.5587 13.3961 6.85617L14.4734 7.93338C14.7708 8.23087 15.2531 8.23087 15.5506 7.93338C15.8481 7.63592 15.8481 7.15364 15.5506 6.85617Z" fill="black"/>
<path d="M13.0039 11.4805H11.4805C11.0598 11.4805 10.7187 11.8215 10.7187 12.2422C10.7187 12.6629 11.0598 13.0039 11.4805 13.0039H13.0039C13.4246 13.0039 13.7656 12.6629 13.7656 12.2422C13.7656 11.8215 13.4246 11.4805 13.0039 11.4805Z" fill="black"/>
<path d="M28.2383 11.4805H26.7148C26.2941 11.4805 25.9531 11.8215 25.9531 12.2422C25.9531 12.6629 26.2941 13.0039 26.7148 13.0039H28.2383C28.659 13.0039 29 12.6629 29 12.2422C29 11.8215 28.659 11.4805 28.2383 11.4805Z" fill="black"/>
<path d="M26.3227 5.77894C26.0253 5.48147 25.543 5.48147 25.2456 5.77894L24.1683 6.85617C23.8708 7.15364 23.8708 7.63592 24.1683 7.93338C24.4658 8.23087 24.9481 8.23087 25.2456 7.93338L26.3227 6.85617C26.6203 6.5587 26.6203 6.07643 26.3227 5.77894Z" fill="black"/>
</svg>
