<svg width="32" height="32" viewBox="0 0 32 32" fill="none" xmlns="http://www.w3.org/2000/svg">
<mask id="path-1-inside-1_1015_141" fill="white">
<path fill-rule="evenodd" clip-rule="evenodd" d="M9.04036 19.0757C7.05806 17.3015 5.81055 14.7232 5.81055 11.8535C5.81055 6.50217 10.1487 2.16406 15.5 2.16406C20.8513 2.16406 25.1894 6.50217 25.1894 11.8535C25.1894 14.7232 23.9419 17.3015 21.9596 19.0757V29.0757C21.9596 29.774 21.2141 30.2192 20.5993 29.8882L15.5 27.1424L10.4007 29.8882C9.78586 30.2192 9.04036 29.774 9.04036 29.0757V19.0757ZM9.20363 17.9535L9.78683 18.4117C14.7169 22.2854 19.4441 20.0316 21.1864 18.4344L21.9596 17.7257V17.7804C23.3922 16.2199 24.2666 14.1388 24.2666 11.8535C24.2666 7.01182 20.3417 3.08687 15.5 3.08687C10.6583 3.08687 6.73335 7.01182 6.73335 11.8535C6.73335 14.2244 7.67452 16.3755 9.20363 17.9535ZM9.96316 19.8062V29.0757L15.0625 26.3299C15.3356 26.1828 15.6644 26.1828 15.9375 26.3299L21.0368 29.0757V19.8062C19.4673 20.9009 17.5586 21.5429 15.5 21.5429C13.4413 21.5429 11.5326 20.9009 9.96316 19.8062Z"/>
</mask>
<path fill-rule="evenodd" clip-rule="evenodd" d="M9.04036 19.0757C7.05806 17.3015 5.81055 14.7232 5.81055 11.8535C5.81055 6.50217 10.1487 2.16406 15.5 2.16406C20.8513 2.16406 25.1894 6.50217 25.1894 11.8535C25.1894 14.7232 23.9419 17.3015 21.9596 19.0757V29.0757C21.9596 29.774 21.2141 30.2192 20.5993 29.8882L15.5 27.1424L10.4007 29.8882C9.78586 30.2192 9.04036 29.774 9.04036 29.0757V19.0757ZM9.20363 17.9535L9.78683 18.4117C14.7169 22.2854 19.4441 20.0316 21.1864 18.4344L21.9596 17.7257V17.7804C23.3922 16.2199 24.2666 14.1388 24.2666 11.8535C24.2666 7.01182 20.3417 3.08687 15.5 3.08687C10.6583 3.08687 6.73335 7.01182 6.73335 11.8535C6.73335 14.2244 7.67452 16.3755 9.20363 17.9535ZM9.96316 19.8062V29.0757L15.0625 26.3299C15.3356 26.1828 15.6644 26.1828 15.9375 26.3299L21.0368 29.0757V19.8062C19.4673 20.9009 17.5586 21.5429 15.5 21.5429C13.4413 21.5429 11.5326 20.9009 9.96316 19.8062Z" fill="#C4C4C4"/>
<path d="M9.20363 17.9535L7.87821 19.2378L7.96514 19.3275L8.06337 19.4047L9.20363 17.9535ZM9.78683 18.4117L8.64657 19.863L8.64657 19.863L9.78683 18.4117ZM21.1864 18.4344L19.9393 17.0739L19.9393 17.0739L21.1864 18.4344ZM21.9596 17.7257H23.8052V13.5302L20.7125 16.3652L21.9596 17.7257ZM21.9596 17.7804H20.114V22.5199L23.3192 19.0285L21.9596 17.7804ZM9.04036 19.0757H10.886V18.2507L10.2712 17.7005L9.04036 19.0757ZM21.9596 19.0757L20.7288 17.7005L20.114 18.2507V19.0757H21.9596ZM20.5993 29.8882L21.4743 28.2632L21.4743 28.2632L20.5993 29.8882ZM15.5 27.1424L16.375 25.5174L15.5 25.0462L14.625 25.5174L15.5 27.1424ZM10.4007 29.8882L9.52566 28.2632L9.52566 28.2632L10.4007 29.8882ZM9.96316 19.8062L11.019 18.2925L8.11756 16.2686V19.8062H9.96316ZM9.96316 29.0757H8.11756V32.1656L10.8382 30.7007L9.96316 29.0757ZM15.0625 26.3299L15.9375 27.9549L15.9375 27.9549L15.0625 26.3299ZM15.9375 26.3299L15.0625 27.9549L15.0625 27.9549L15.9375 26.3299ZM21.0368 29.0757L20.1618 30.7007L22.8824 32.1656V29.0757H21.0368ZM21.0368 19.8062H22.8824V16.2686L19.9809 18.2925L21.0368 19.8062ZM8.06337 19.4047L8.64657 19.863L10.9271 16.9605L10.3439 16.5023L8.06337 19.4047ZM8.64657 19.863C14.5246 24.4814 20.2752 21.7734 22.4336 19.7949L19.9393 17.0739C18.613 18.2897 14.9092 20.0893 10.9271 16.9605L8.64657 19.863ZM22.4336 19.7949L23.2067 19.0862L20.7125 16.3652L19.9393 17.0739L22.4336 19.7949ZM20.114 17.7257V17.7804H23.8052V17.7257H20.114ZM23.3192 19.0285C25.052 17.1409 26.1122 14.6189 26.1122 11.8535H22.421C22.421 13.6587 21.7323 15.2989 20.6 16.5323L23.3192 19.0285ZM26.1122 11.8535C26.1122 5.99252 21.361 1.24126 15.5 1.24126V4.93247C19.3224 4.93247 22.421 8.03112 22.421 11.8535H26.1122ZM15.5 1.24126C9.63901 1.24126 4.88774 5.99252 4.88774 11.8535H8.57896C8.57896 8.03112 11.6776 4.93247 15.5 4.93247V1.24126ZM4.88774 11.8535C4.88774 14.7228 6.02894 17.3294 7.87821 19.2378L10.5291 16.6692C9.32011 15.4215 8.57896 13.726 8.57896 11.8535H4.88774ZM3.96494 11.8535C3.96494 15.27 5.45257 18.3414 7.8095 20.4509L10.2712 17.7005C8.66356 16.2616 7.65615 14.1764 7.65615 11.8535H3.96494ZM15.5 0.318455C9.12936 0.318455 3.96494 5.48287 3.96494 11.8535H7.65615C7.65615 7.52147 11.168 4.00967 15.5 4.00967V0.318455ZM27.035 11.8535C27.035 5.48287 21.8706 0.318455 15.5 0.318455V4.00967C19.832 4.00967 23.3438 7.52147 23.3438 11.8535H27.035ZM23.1905 20.4509C25.5474 18.3414 27.035 15.27 27.035 11.8535H23.3438C23.3438 14.1764 22.3364 16.2616 20.7288 17.7005L23.1905 20.4509ZM20.114 19.0757V29.0757H23.8052V19.0757H20.114ZM20.114 29.0757C20.114 28.3774 20.8595 27.9321 21.4743 28.2632L19.7243 31.5132C21.5687 32.5063 23.8052 31.1705 23.8052 29.0757H20.114ZM21.4743 28.2632L16.375 25.5174L14.625 28.7674L19.7243 31.5132L21.4743 28.2632ZM14.625 25.5174L9.52566 28.2632L11.2757 31.5132L16.375 28.7674L14.625 25.5174ZM9.52566 28.2632C10.1405 27.9321 10.886 28.3774 10.886 29.0757H7.19475C7.19475 31.1705 9.43127 32.5063 11.2757 31.5132L9.52566 28.2632ZM10.886 29.0757V19.0757H7.19475V29.0757H10.886ZM8.11756 19.8062V29.0757H11.8088V19.8062H8.11756ZM10.8382 30.7007L15.9375 27.9549L14.1875 24.7049L9.08816 27.4507L10.8382 30.7007ZM15.9375 27.9549C15.6644 28.102 15.3356 28.102 15.0625 27.9549L16.8125 24.7049C15.9931 24.2637 15.0069 24.2637 14.1875 24.7049L15.9375 27.9549ZM15.0625 27.9549L20.1618 30.7007L21.9118 27.4507L16.8125 24.7049L15.0625 27.9549ZM22.8824 29.0757V19.8062H19.1912V29.0757H22.8824ZM15.5 23.3885C17.9483 23.3885 20.2235 22.6237 22.0927 21.3199L19.9809 18.2925C18.7112 19.1782 17.169 19.6973 15.5 19.6973V23.3885ZM8.9073 21.3199C10.7764 22.6237 13.0517 23.3885 15.5 23.3885V19.6973C13.831 19.6973 12.2888 19.1782 11.019 18.2925L8.9073 21.3199Z" fill="black" mask="url(#path-1-inside-1_1015_141)"/>
</svg>
