<svg width="32" height="32" viewBox="0 0 32 32" fill="none" xmlns="http://www.w3.org/2000/svg">
<g clip-path="url(#clip0_1005_158)">
<path d="M26.6562 11.3125C26.6562 5.59375 21.9093 1 16 1C10.0907 1 5.34375 5.59375 5.34375 11.3125C5.34375 14.0312 6.40937 16.5625 8.25 18.3438V30.0625C8.25 30.4375 8.44375 30.7187 8.73438 30.9062C9.025 31.0937 9.4125 31.0937 9.70312 30.9062L16 27.4375L22.2969 30.9062C22.4907 31 22.5875 31 22.7812 31C22.975 31 23.0718 31 23.2656 30.9062C23.5562 30.7187 23.75 30.4375 23.75 30.0625V18.3438C25.5907 16.5625 26.6562 14.0312 26.6562 11.3125ZM16 2.875C20.8438 2.875 24.7188 6.625 24.7188 11.3125C24.7188 16 20.8438 19.75 16 19.75C11.1562 19.75 7.28125 16 7.28125 11.3125C7.28125 6.625 11.1562 2.875 16 2.875ZM16.4844 25.4688C16.1937 25.2813 15.8063 25.2813 15.5156 25.4688L10.1875 28.4687V19.9375C11.8344 20.9687 13.8687 21.625 16 21.625C18.1313 21.625 20.1656 20.9687 21.8125 19.9375V28.4687L16.4844 25.4688Z" fill="black"/>
</g>
<defs>
<clipPath id="clip0_1005_158">
<rect width="22" height="30" fill="white" transform="translate(5 1)"/>
</clipPath>
</defs>
</svg>
