<svg width="16" height="17" viewBox="0 0 16 17" fill="none" xmlns="http://www.w3.org/2000/svg">
<rect y="0.5" width="16" height="16" rx="8" fill="black"/>
<path d="M8 2.5C4.69166 2.5 2 5.19166 2 8.5C2 11.8083 4.69166 14.5 8 14.5C11.3083 14.5 14 11.8083 14 8.5C14 5.19166 11.3083 2.5 8 2.5ZM8 13.75C5.1051 13.75 2.75 11.3949 2.75 8.5C2.75 5.6051 5.1051 3.25 8 3.25C10.8949 3.25 13.25 5.6051 13.25 8.5C13.25 11.3949 10.8949 13.75 8 13.75Z" fill="white"/>
<path d="M8.375 4.75H7.625V8.65526L9.98486 11.0151L10.5151 10.4848L8.375 8.34472V4.75Z" fill="white"/>
</svg>
