<svg width="16" height="16" viewBox="0 0 16 16" fill="none" xmlns="http://www.w3.org/2000/svg">
<g clip-path="url(#clip0_4841:11817)">
<path d="M6.39326 11.1999C6.30794 11.1999 6.2226 11.1672 6.15726 11.1025L3.38394 8.3292C3.2586 8.20388 3.25326 8.0032 3.3706 7.8712L6.58394 4.27186C6.60394 4.2432 6.6306 4.2152 6.6606 4.1912C8.94526 1.57121 12.4613 -0.0727941 15.6739 -0.000127342C15.8526 0.00387267 15.9959 0.147873 15.9999 0.325872C16.0459 2.49988 15.3119 4.83654 13.9306 6.9052C13.8279 7.05854 13.6199 7.09854 13.4686 6.9972C13.3159 6.8952 13.2739 6.68788 13.3759 6.53454C14.5939 4.71054 15.2979 2.59054 15.3339 0.665206C12.4413 0.715872 9.18726 2.2912 7.1386 4.65788C7.1246 4.67454 7.1086 4.6892 7.09194 4.70254L4.0786 8.08054L6.6286 10.6305C6.7586 10.7605 6.7586 10.9719 6.6286 11.1019C6.56394 11.1672 6.4786 11.1999 6.39326 11.1999Z" fill="black"/>
<path d="M4.3607 7.60818C4.3447 7.60818 4.3287 7.60752 4.3127 7.60484L1.12137 7.14751C0.996032 7.12951 0.8927 7.04284 0.8527 6.92284C0.8127 6.80284 0.844032 6.67084 0.933366 6.58152C2.54002 4.97484 4.64602 4.10352 6.88736 4.10352C7.07136 4.10352 7.2207 4.25284 7.2207 4.43684C7.2207 4.62084 7.07136 4.77018 6.88736 4.77018C5.04402 4.77018 3.30002 5.41084 1.90937 6.58684L4.40802 6.94484C4.59002 6.97152 4.7167 7.13952 4.6907 7.32218C4.66602 7.48818 4.52336 7.60818 4.3607 7.60818Z" fill="black"/>
<path d="M11.422 6.24435C10.9767 6.24435 10.558 6.07101 10.2434 5.75635C9.59336 5.10635 9.59336 4.04901 10.2434 3.39901C10.872 2.76967 11.97 2.76901 12.6 3.39901C13.25 4.04901 13.25 5.10635 12.6 5.75635C12.2854 6.07101 11.8667 6.24435 11.422 6.24435ZM11.422 3.57835C11.1547 3.57835 10.904 3.68235 10.7147 3.87101C10.3247 4.26101 10.3247 4.89569 10.7147 5.28567C11.0914 5.66301 11.7507 5.66369 12.1287 5.28567C12.5187 4.89569 12.5187 4.26101 12.1287 3.87101C11.94 3.68169 11.6887 3.57835 11.422 3.57835ZM12.3647 5.52101H12.3714H12.3647Z" fill="black"/>
<path d="M0.333476 15.9998C0.246144 15.9998 0.16081 15.9658 0.097477 15.9025C0.0108103 15.8158 -0.0211896 15.6885 0.0141436 15.5711C0.12281 15.2065 1.10214 11.9838 1.81548 11.2705C2.61882 10.4671 3.92614 10.4671 4.72948 11.2705C5.5328 12.0738 5.5328 13.3811 4.72948 14.1845C4.01614 14.8978 0.794144 15.8771 0.42881 15.9865C0.398144 15.9951 0.365476 15.9998 0.333476 15.9998ZM3.2728 11.3338C2.91614 11.3338 2.55882 11.4698 2.28682 11.7411C1.90214 12.1265 1.26214 13.8471 0.840144 15.1591C2.15214 14.7365 3.87348 14.0965 4.25814 13.7118C4.80148 13.1685 4.80148 12.2838 4.25814 11.7405C3.9868 11.4698 3.62948 11.3338 3.2728 11.3338Z" fill="black"/>
<path d="M11.6667 15.9997C9.27737 15.9997 7.33337 14.0557 7.33337 11.6663C7.33337 9.27701 9.27737 7.33301 11.6667 7.33301C14.056 7.33301 16 9.27701 16 11.6663C16 14.0557 14.056 15.9997 11.6667 15.9997ZM11.6667 7.99967C9.64537 7.99967 8.00003 9.64435 8.00003 11.6663C8.00003 13.6883 9.64537 15.333 11.6667 15.333C13.688 15.333 15.3334 13.6883 15.3334 11.6663C15.3334 9.64435 13.688 7.99967 11.6667 7.99967Z" fill="black"/>
<path d="M11.0001 13.333C10.9114 13.333 10.8268 13.2976 10.7641 13.2356L9.43075 11.9023C9.30075 11.7723 9.30075 11.561 9.43075 11.431C9.56075 11.301 9.77209 11.301 9.90209 11.431L10.9834 12.5123L13.0821 10.1136C13.2034 9.97431 13.4141 9.96099 13.5521 10.0823C13.6908 10.2036 13.7048 10.4143 13.5834 10.553L11.2501 13.2196C11.1894 13.289 11.1028 13.3303 11.0108 13.333C11.0074 13.333 11.0041 13.333 11.0001 13.333Z" fill="black"/>
</g>
<defs>
<clipPath id="clip0_4841:11817">
<rect width="16" height="16" fill="white"/>
</clipPath>
</defs>
</svg>
