<svg width="16" height="16" viewBox="0 0 16 16" fill="none" xmlns="http://www.w3.org/2000/svg">
<path d="M9.38681 9.3374H6.44564C6.19951 9.3374 6 9.53691 6 9.78304V15.554C6 15.8001 6.19951 15.9996 6.44564 15.9996H9.38681C9.63293 15.9996 9.83244 15.8001 9.83244 15.554V9.78304C9.83244 9.53691 9.63293 9.3374 9.38681 9.3374ZM8.94117 15.1083H6.89127V10.2287H8.94117V15.1083Z" fill="#1C0732"/>
<path d="M15.2236 5.83643H12.2601C12.014 5.83643 11.8145 6.03594 11.8145 6.28206V15.5513C11.8145 15.7974 12.014 15.9969 12.2601 15.9969H15.2236C15.4697 15.9969 15.6692 15.7974 15.6692 15.5513V6.28206C15.6692 6.03598 15.4697 5.83643 15.2236 5.83643ZM14.7779 15.1056H12.7057V6.7277H14.7779V15.1056Z" fill="#1C0732"/>
<path d="M3.57122 11.499H0.607744C0.361619 11.499 0.162109 11.6985 0.162109 11.9447V15.5543C0.162109 15.8004 0.361619 15.9999 0.607744 15.9999H3.57122C3.81734 15.9999 4.01685 15.8004 4.01685 15.5543V11.9447C4.01685 11.6986 3.81734 11.499 3.57122 11.499ZM3.12558 15.1087H1.05338V12.3903H3.12558V15.1087Z" fill="#1C0732"/>
<path d="M15.7138 0.446908C15.6461 0.353508 15.5394 0.296103 15.4242 0.290942L11.3689 0.00127327C11.1227 -0.0171936 10.9083 0.167389 10.8898 0.413471C10.8713 0.659596 11.0559 0.874076 11.302 0.892542L14.1721 1.08745L8.8956 5.21523L4.86262 2.05122C4.69041 1.91483 4.44454 1.9243 4.28329 2.07348L0.138914 6.03958C-0.037267 6.20672 -0.0471615 6.48419 0.116652 6.66349C0.196148 6.76665 0.320767 6.82483 0.450888 6.81945C0.568428 6.81779 0.680551 6.76972 0.76282 6.68575L4.61757 2.98697L8.60597 6.12867C8.76876 6.25901 9.00021 6.25901 9.163 6.12867L14.8672 1.6899L14.6443 4.45762C14.6432 4.69961 14.8268 4.90249 15.0677 4.92552H15.0899C15.3196 4.92667 15.5126 4.753 15.5355 4.52445L15.8252 0.758839C15.8416 0.642878 15.7999 0.526277 15.7138 0.446908Z" fill="#1C0732"/>
</svg>
