<svg width="16" height="16" viewBox="0 0 16 16" fill="none" xmlns="http://www.w3.org/2000/svg">
<path d="M11.0098 6.23242H14.0098V3.23242" stroke="black" stroke-width="0.78" stroke-linecap="round" stroke-linejoin="round"/>
<path d="M4.11133 4.11091C4.62205 3.60019 5.22837 3.19506 5.89566 2.91866C6.56295 2.64226 7.27815 2.5 8.00042 2.5C8.72269 2.5 9.43788 2.64226 10.1052 2.91866C10.7725 3.19506 11.3788 3.60019 11.8895 4.11091L14.0108 6.23223" stroke="black" stroke-width="0.78" stroke-linecap="round" stroke-linejoin="round"/>
<path d="M4.99023 9.76758H1.99023V12.7676" stroke="black" stroke-width="0.78" stroke-linecap="round" stroke-linejoin="round"/>
<path d="M11.8897 11.8889C11.379 12.3996 10.7727 12.8047 10.1054 13.0811C9.43811 13.3576 8.72291 13.4998 8.00064 13.4998C7.27837 13.4998 6.56317 13.3576 5.89588 13.0811C5.22859 12.8047 4.62228 12.3996 4.11155 11.8889L1.99023 9.76758" stroke="black" stroke-width="0.78" stroke-linecap="round" stroke-linejoin="round"/>
</svg>
