<svg width="32" height="32" viewBox="0 0 32 32" fill="none" xmlns="http://www.w3.org/2000/svg">
<path d="M26.8685 21.7442C26.7194 21.7442 26.5984 21.6234 26.5984 21.4743V15.4691C26.5984 15.32 26.4777 15.1992 26.3286 15.1992H17.0509C16.9018 15.1992 16.7809 15.0783 16.7809 14.9292V10.5603C16.7809 10.4112 16.9018 10.2904 17.0509 10.2904H19.7834C19.9325 10.2904 20.0534 10.1695 20.0534 10.0205V2.26995C20.0534 2.12086 19.9325 2 19.7834 2H12.1421C11.993 2 11.8721 2.12086 11.8721 2.26995V10.0205C11.8721 10.1695 11.993 10.2904 12.1421 10.2904H14.8747C15.0238 10.2904 15.1446 10.4112 15.1446 10.5603V14.9292C15.1446 15.0783 15.0238 15.1992 14.8747 15.1992H5.59702C5.44793 15.1992 5.32707 15.32 5.32707 15.4691V21.4743C5.32707 21.6234 5.20621 21.7442 5.05712 21.7442H2.26995C2.12086 21.7442 2 21.8651 2 22.0142V29.6557C2 29.8047 2.12086 29.9255 2.26995 29.9255H9.96591C10.115 29.9255 10.2359 29.8047 10.2359 29.6557V22.0142C10.2359 21.8651 10.115 21.7442 9.96591 21.7442H7.23327C7.08419 21.7442 6.96333 21.6234 6.96333 21.4743V17.1054C6.96333 16.9563 7.08419 16.8354 7.23327 16.8354H14.8747C15.0238 16.8354 15.1446 16.9563 15.1446 17.1054V21.4743C15.1446 21.6234 15.0238 21.7442 14.8747 21.7442H12.1421C11.993 21.7442 11.8721 21.8651 11.8721 22.0142V29.6557C11.8721 29.8047 11.993 29.9255 12.1421 29.9255H19.7834C19.9325 29.9255 20.0534 29.8047 20.0534 29.6557V22.0142C20.0534 21.8651 19.9325 21.7442 19.7834 21.7442H17.0509C16.9018 21.7442 16.7809 21.6234 16.7809 21.4743V17.1054C16.7809 16.9563 16.9018 16.8354 17.0509 16.8354H24.6922C24.8413 16.8354 24.9622 16.9563 24.9622 17.1054V21.4743C24.9622 21.6234 24.8413 21.7442 24.6922 21.7442H21.9597C21.8106 21.7442 21.6897 21.8651 21.6897 22.0142V29.6557C21.6897 29.8047 21.8106 29.9255 21.9597 29.9255H29.6557C29.8047 29.9255 29.9255 29.8047 29.9255 29.6557V22.0142C29.9255 21.8651 29.8047 21.7442 29.6557 21.7442H26.8685ZM13.5084 3.9062C13.5084 3.75712 13.6292 3.63626 13.7783 3.63626H18.1472C18.2963 3.63626 18.4171 3.75712 18.4171 3.9062V8.38418C18.4171 8.53326 18.2963 8.65413 18.1472 8.65413H13.7783C13.6292 8.65413 13.5084 8.53326 13.5084 8.38418V3.9062ZM8.59959 28.0193C8.59959 28.1684 8.47872 28.2893 8.32964 28.2893H3.9062C3.75712 28.2893 3.63626 28.1684 3.63626 28.0193V23.6504C3.63626 23.5013 3.75712 23.3805 3.9062 23.3805H8.32964C8.47872 23.3805 8.59959 23.5013 8.59959 23.6504V28.0193ZM18.4171 28.0193C18.4171 28.1684 18.2963 28.2893 18.1472 28.2893H13.7783C13.6292 28.2893 13.5084 28.1684 13.5084 28.0193V23.6504C13.5084 23.5013 13.6292 23.3805 13.7783 23.3805H18.1472C18.2963 23.3805 18.4171 23.5013 18.4171 23.6504V28.0193ZM28.2893 28.0193C28.2893 28.1684 28.1684 28.2893 28.0193 28.2893H23.5959C23.4468 28.2893 23.3259 28.1684 23.3259 28.0193V23.6504C23.3259 23.5013 23.4468 23.3805 23.5959 23.3805H28.0193C28.1684 23.3805 28.2893 23.5013 28.2893 23.6504V28.0193Z" fill="url(#paint0_radial_1006_138)" fill-opacity="0.3"/>
<defs>
<radialGradient id="paint0_radial_1006_138" cx="0" cy="0" r="1" gradientUnits="userSpaceOnUse" gradientTransform="translate(18.2738 12.3678) rotate(118.051) scale(19.9312)">
<stop stop-color="#5B44BA"/>
<stop offset="1" stop-color="#5B44BA" stop-opacity="0"/>
</radialGradient>
</defs>
</svg>
