<svg width="16" height="16" viewBox="0 0 16 16" fill="none" xmlns="http://www.w3.org/2000/svg">
<path d="M5.5 10C7.29493 10 8.75 8.54493 8.75 6.75C8.75 4.95507 7.29493 3.5 5.5 3.5C3.70507 3.5 2.25 4.95507 2.25 6.75C2.25 8.54493 3.70507 10 5.5 10Z" stroke="black" stroke-miterlimit="10"/>
<path d="M9.71289 3.62181C10.1599 3.49586 10.6287 3.46717 11.0878 3.53766C11.5468 3.60816 11.9854 3.77621 12.374 4.03048C12.7626 4.28476 13.0922 4.61936 13.3407 5.01176C13.5891 5.40415 13.7505 5.84522 13.8141 6.30526C13.8777 6.7653 13.842 7.23363 13.7093 7.6787C13.5767 8.12377 13.3502 8.53525 13.0452 8.88543C12.7401 9.2356 12.3636 9.51634 11.9409 9.70873C11.5182 9.90112 11.0592 10.0007 10.5947 10.0007" stroke="black" stroke-linecap="round" stroke-linejoin="round"/>
<path d="M1 12.3373C1.50758 11.6153 2.18143 11.026 2.96466 10.6192C3.74788 10.2124 4.61748 10 5.50005 10C6.38262 9.99997 7.25224 10.2123 8.0355 10.619C8.81875 11.0258 9.49264 11.615 10.0003 12.337" stroke="black" stroke-linecap="round" stroke-linejoin="round"/>
<path d="M10.5938 10C11.4764 9.99936 12.3462 10.2114 13.1295 10.6182C13.9128 11.025 14.5866 11.6146 15.0938 12.337" stroke="black" stroke-linecap="round" stroke-linejoin="round"/>
</svg>
