<svg width="16" height="16" viewBox="0 0 16 16" fill="none" xmlns="http://www.w3.org/2000/svg">
<path d="M13.3344 11.4464L11.0877 9.19305C11.5144 9.33971 11.9077 9.51305 12.2677 9.69971C12.9144 10.0397 13.3211 10.713 13.3344 11.4464ZM14.1277 14.1264L13.1877 15.0664L11.4477 13.333H2.66773V11.4797C2.66773 10.733 3.0744 10.0464 3.74107 9.70638C4.60107 9.26638 5.6544 8.89305 6.8544 8.73971L0.927734 2.81305L1.86773 1.87305L14.1277 14.1264ZM10.1144 11.9997L8.1144 9.99971C8.0744 9.99971 8.04107 9.99971 8.00107 9.99971C6.42107 9.99971 5.14107 10.4864 4.34773 10.893C4.1344 10.9997 4.00107 11.2264 4.00107 11.4797V11.9997H10.1144ZM8.00107 3.99971C8.7344 3.99971 9.3344 4.59971 9.3344 5.33305C9.3344 5.90638 8.9744 6.39305 8.46773 6.57971L9.4544 7.56638C10.1877 7.09305 10.6677 6.26638 10.6677 5.33305C10.6677 3.85971 9.4744 2.66638 8.00107 2.66638C7.06773 2.66638 6.24107 3.14638 5.76773 3.87971L6.7544 4.86638C6.94107 4.35971 7.42773 3.99971 8.00107 3.99971Z" fill="black"/>
</svg>
