<svg width="16" height="16" viewBox="0 0 16 16" fill="none" xmlns="http://www.w3.org/2000/svg">
<path d="M7.99935 4.00033C8.73268 4.00033 9.33268 4.60033 9.33268 5.33366C9.33268 6.06699 8.73268 6.66699 7.99935 6.66699C7.26602 6.66699 6.66602 6.06699 6.66602 5.33366C6.66602 4.60033 7.26602 4.00033 7.99935 4.00033ZM7.99935 10.667C9.79935 10.667 11.866 11.527 11.9993 12.0003H3.99935C4.15268 11.5203 6.20602 10.667 7.99935 10.667ZM7.99935 2.66699C6.52602 2.66699 5.33268 3.86033 5.33268 5.33366C5.33268 6.80699 6.52602 8.00033 7.99935 8.00033C9.47268 8.00033 10.666 6.80699 10.666 5.33366C10.666 3.86033 9.47268 2.66699 7.99935 2.66699ZM7.99935 9.33366C6.21935 9.33366 2.66602 10.227 2.66602 12.0003V13.3337H13.3327V12.0003C13.3327 10.227 9.77935 9.33366 7.99935 9.33366Z" fill="black"/>
</svg>
