<svg width="32" height="32" viewBox="0 0 32 32" fill="none" xmlns="http://www.w3.org/2000/svg">
<path d="M7.83219 11.6667C9.94865 11.6667 11.6644 9.95042 11.6644 7.83333C11.6644 5.71624 9.94865 4 7.83219 4C5.71573 4 4 5.71624 4 7.83333C4 9.95042 5.71573 11.6667 7.83219 11.6667Z" fill="black"/>
<path d="M23.1609 27C25.2774 27 26.9931 25.2838 26.9931 23.1667C26.9931 21.0496 25.2774 19.3333 23.1609 19.3333C21.0445 19.3333 19.3287 21.0496 19.3287 23.1667C19.3287 25.2838 21.0445 27 23.1609 27Z" fill="black"/>
<path d="M11.6644 19.3333H4V27H11.6644V19.3333Z" fill="black"/>
<path d="M23.6644 4.26308L19.3287 8.6L23.6644 12.9369L28 8.6L23.6644 4.26308Z" fill="black"/>
<path d="M8.59862 14.7333H7.06575V17.8H8.59862V14.7333Z" fill="black"/>
<path d="M13.9637 7.83333V9.36667H17.0294V7.83333H13.9637Z" fill="black"/>
<path d="M23.9274 14.7333H22.3945V17.8H23.9274V14.7333Z" fill="black"/>
</svg>
