<svg width="16" height="16" viewBox="0 0 16 16" fill="none" xmlns="http://www.w3.org/2000/svg">
<path d="M9.83595 10.5429L9.83596 10.5441M9.83595 10.5429L9.83596 10.5441M9.83595 10.5429L9.83774 10.5385L9.89876 10.3881C9.87835 10.3798 9.85651 10.3756 9.83443 10.3758C9.81154 10.376 9.78956 10.3808 9.76963 10.3894L9.83045 10.5312L9.83571 10.5435M9.83595 10.5429L9.83571 10.5435M9.83596 10.5441L9.83571 10.5435M9.83596 10.5441L9.83533 10.5444M9.83571 10.5435L9.83554 10.5439L9.83533 10.5444M9.83533 10.5444L9.83493 10.5454M9.83533 10.5444L9.96666 10.8489L9.83598 10.5459L9.83575 10.5454M9.83533 10.5444L9.83551 10.5448L9.83493 10.5454M9.83533 10.5444L9.83574 10.5454M9.83493 10.5454L9.60204 10.7793L9.83438 10.5468M9.83493 10.5454L9.83438 10.5468M9.83438 10.5468L9.71083 10.8514L9.8357 10.5455M9.83438 10.5468L9.8357 10.5455M9.8357 10.5455L9.83575 10.5454M9.8357 10.5455L9.83574 10.5454M9.83575 10.5454L9.83574 10.5454M9.83575 10.5454L9.83597 10.5452L9.83574 10.5454M7.64733 7.17518L8.50089 8.02874V8.02736L8.82663 8.35334L10.307 9.83478L9.83573 10.306L8.35431 8.82566L8.00088 8.47251L7.64746 8.82566L6.16604 10.306L5.6948 9.83475L7.17514 8.35335L7.52832 7.99992L7.17514 7.64649L5.69481 6.16511L6.16603 5.69388L7.64733 7.17518ZM8.82663 7.64649L8.50089 7.97248V7.0277L9.83569 5.69385L10.307 6.16508L8.82663 7.64649ZM6.04611 10.4258C6.04618 10.4258 6.04625 10.4257 6.04632 10.4256L6.04611 10.4258Z" stroke="black"/>
<rect x="0.5" y="0.5" width="15" height="15" rx="7.5" stroke="black"/>
</svg>
