<svg width="16" height="16" viewBox="0 0 16 16" fill="none" xmlns="http://www.w3.org/2000/svg">
<path d="M5.65502 7.31304L5.65501 7.31307L5.65502 7.31304ZM5.65502 7.31304C5.69613 7.33038 5.7334 7.35568 5.7647 7.38748L5.52358 7.6237L5.52288 7.62299L5.52275 7.62286L5.2847 7.3852C5.31629 7.3537 5.3538 7.32875 5.39507 7.31181C5.43634 7.29486 5.48056 7.28625 5.52517 7.28646C5.56979 7.28667 5.61392 7.29571 5.65502 7.31304ZM6.82029 9.15018L7.17384 9.50374L7.5274 9.15018L10.4738 6.20373L10.945 6.67492L7.52203 10.0979L7.522 10.0979L7.22248 10.3974C7.20914 10.4098 7.19159 10.4166 7.17347 10.4165L7.17314 10.4165C7.15466 10.4164 7.1367 10.409 7.12331 10.3955L7.12273 10.395L5.05231 8.32564L5.52365 7.85354L6.82029 9.15018ZM4.93949 8.21288C4.93962 8.21301 4.93975 8.21314 4.93987 8.21326L4.93949 8.21288ZM5.41009 7.73997C5.4095 7.73939 5.40894 7.73881 5.40836 7.73822L5.40835 7.73823L5.41009 7.73997Z" stroke="black"/>
<rect x="0.5" y="0.5" width="15" height="15" rx="7.5" stroke="black"/>
</svg>
