<svg width="16" height="16" viewBox="0 0 16 16" fill="none" xmlns="http://www.w3.org/2000/svg">
<path d="M15.5811 1.49449C15.2869 1.18168 14.8736 1.00293 14.4416 1.00293C13.5814 1.00293 12.885 1.6993 12.885 2.55953C12.885 2.69731 12.9036 2.8351 12.9409 2.96916L11.2539 4.16454C10.6507 3.55381 9.66383 3.54636 9.0531 4.14964C8.62113 4.57789 8.4759 5.21468 8.68444 5.78816L7.12784 7.09898C6.63628 6.39516 5.66806 6.22014 4.96052 6.71169C4.6924 6.89789 4.49131 7.16601 4.38331 7.47137L3.09111 6.9463C2.94588 6.09725 2.14524 5.52749 1.29618 5.67272C0.447131 5.81795 -0.122628 6.6186 0.0226042 7.46765C0.167837 8.3167 0.968479 8.88646 1.81753 8.74123C2.37612 8.64813 2.83789 8.25712 3.02781 7.7246L4.32001 8.24967C4.46524 9.09873 5.26588 9.66848 6.11493 9.52325C6.86344 9.39664 7.41086 8.74868 7.41086 7.989C7.41086 7.94059 7.40713 7.88845 7.40341 7.84004L9.10152 6.40633C9.73831 6.98354 10.7214 6.93885 11.2986 6.30206C11.6673 5.89616 11.7939 5.3264 11.6375 4.80505L13.3058 3.62084C13.8942 4.25019 14.8773 4.27998 15.5067 3.69532C16.136 3.10694 16.1658 2.12383 15.5811 1.49449ZM1.55686 8.02251C1.10999 8.02251 0.745044 7.65757 0.745044 7.2107C0.745044 6.76383 1.10999 6.39889 1.55686 6.39889C2.00373 6.39889 2.36867 6.76383 2.36867 7.2107C2.36867 7.65757 2.00373 8.02251 1.55686 8.02251ZM5.85054 8.80454C5.40367 8.80454 5.03872 8.43959 5.03872 7.99272C5.03872 7.54585 5.40367 7.18091 5.85054 7.18091C6.29741 7.18091 6.66235 7.54585 6.66235 7.99272C6.66235 8.43959 6.30113 8.80454 5.85054 8.80454ZM10.1479 6.07118C9.70107 6.07118 9.33612 5.70624 9.33612 5.25937C9.33612 4.8125 9.70107 4.44755 10.1479 4.44755C10.5948 4.44755 10.9598 4.8125 10.9598 5.25937C10.9598 5.70624 10.5948 6.07118 10.1479 6.07118ZM14.4416 3.37134C13.9947 3.37134 13.6298 3.0064 13.6298 2.55953C13.6298 2.11266 13.9947 1.74771 14.4416 1.74771C14.8885 1.74771 15.2534 2.11266 15.2534 2.55953C15.2534 3.01012 14.8922 3.37134 14.4416 3.37134Z" fill="white"/>
<path d="M15.485 5.35254H13.3997C13.1948 5.35254 13.0273 5.52012 13.0273 5.72493V14.5878C13.0273 14.7927 13.1948 14.9602 13.3997 14.9602H15.485C15.6899 14.9602 15.8574 14.7927 15.8574 14.5878V5.72493C15.8574 5.52012 15.6899 5.35254 15.485 5.35254ZM15.1127 14.2527H13.772V6.09732H15.1127V14.2527Z" fill="white"/>
<path d="M11.2019 8.03369H9.11653C8.91172 8.03369 8.74414 8.20126 8.74414 8.40608V14.5878C8.74414 14.7926 8.91172 14.9602 9.11653 14.9602H11.2019C11.4068 14.9602 11.5743 14.7926 11.5743 14.5878V8.40608C11.5743 8.20126 11.4068 8.03369 11.2019 8.03369ZM10.8295 14.2526H9.48892V8.77847H10.8295V14.2526Z" fill="white"/>
<path d="M6.88162 10.8267H4.79622C4.59141 10.8267 4.42383 10.9942 4.42383 11.1991V14.6251C4.42383 14.8299 4.59141 14.9975 4.79622 14.9975H6.88162C7.08644 14.9975 7.25401 14.8299 7.25401 14.6251V11.1991C7.25401 10.9942 7.08644 10.8267 6.88162 10.8267ZM6.50923 14.2527H5.16861V11.5714H6.50923V14.2527Z" fill="white"/>
<path d="M2.60036 10.0444H0.51497C0.310154 10.0444 0.142578 10.212 0.142578 10.4168V14.6249C0.142578 14.8297 0.310154 14.9972 0.51497 14.9972H2.60036C2.80518 14.9972 2.97275 14.8297 2.97275 14.6249V10.4168C2.97275 10.212 2.80518 10.0444 2.60036 10.0444ZM2.22797 14.2525H0.887361V10.7892H2.22797V14.2525Z" fill="white"/>
<mask id="path-6-inside-1" fill="white">
<path d="M15.5811 1.49449C15.2869 1.18168 14.8736 1.00293 14.4416 1.00293C13.5814 1.00293 12.885 1.6993 12.885 2.55953C12.885 2.69731 12.9036 2.8351 12.9409 2.96916L11.2539 4.16454C10.6507 3.55381 9.66383 3.54636 9.0531 4.14964C8.62113 4.57789 8.4759 5.21468 8.68444 5.78816L7.12784 7.09898C6.63628 6.39516 5.66806 6.22014 4.96052 6.71169C4.6924 6.89789 4.49131 7.16601 4.38331 7.47137L3.09111 6.9463C2.94588 6.09725 2.14524 5.52749 1.29618 5.67272C0.447131 5.81795 -0.122628 6.6186 0.0226042 7.46765C0.167837 8.3167 0.968479 8.88646 1.81753 8.74123C2.37612 8.64813 2.83789 8.25712 3.02781 7.7246L4.32001 8.24967C4.46524 9.09873 5.26588 9.66848 6.11493 9.52325C6.86344 9.39664 7.41086 8.74868 7.41086 7.989C7.41086 7.94059 7.40713 7.88845 7.40341 7.84004L9.10152 6.40633C9.73831 6.98354 10.7214 6.93885 11.2986 6.30206C11.6673 5.89616 11.7939 5.3264 11.6375 4.80505L13.3058 3.62084C13.8942 4.25019 14.8773 4.27998 15.5067 3.69532C16.136 3.10694 16.1658 2.12383 15.5811 1.49449ZM1.55686 8.02251C1.10999 8.02251 0.745044 7.65757 0.745044 7.2107C0.745044 6.76383 1.10999 6.39889 1.55686 6.39889C2.00373 6.39889 2.36867 6.76383 2.36867 7.2107C2.36867 7.65757 2.00373 8.02251 1.55686 8.02251ZM5.85054 8.80454C5.40367 8.80454 5.03872 8.43959 5.03872 7.99272C5.03872 7.54585 5.40367 7.18091 5.85054 7.18091C6.29741 7.18091 6.66235 7.54585 6.66235 7.99272C6.66235 8.43959 6.30113 8.80454 5.85054 8.80454ZM10.1479 6.07118C9.70107 6.07118 9.33612 5.70624 9.33612 5.25937C9.33612 4.8125 9.70107 4.44755 10.1479 4.44755C10.5948 4.44755 10.9598 4.8125 10.9598 5.25937C10.9598 5.70624 10.5948 6.07118 10.1479 6.07118ZM14.4416 3.37134C13.9947 3.37134 13.6298 3.0064 13.6298 2.55953C13.6298 2.11266 13.9947 1.74771 14.4416 1.74771C14.8885 1.74771 15.2534 2.11266 15.2534 2.55953C15.2534 3.01012 14.8922 3.37134 14.4416 3.37134Z"/>
</mask>
<path d="M15.5811 1.49449C15.2869 1.18168 14.8736 1.00293 14.4416 1.00293C13.5814 1.00293 12.885 1.6993 12.885 2.55953C12.885 2.69731 12.9036 2.8351 12.9409 2.96916L11.2539 4.16454C10.6507 3.55381 9.66383 3.54636 9.0531 4.14964C8.62113 4.57789 8.4759 5.21468 8.68444 5.78816L7.12784 7.09898C6.63628 6.39516 5.66806 6.22014 4.96052 6.71169C4.6924 6.89789 4.49131 7.16601 4.38331 7.47137L3.09111 6.9463C2.94588 6.09725 2.14524 5.52749 1.29618 5.67272C0.447131 5.81795 -0.122628 6.6186 0.0226042 7.46765C0.167837 8.3167 0.968479 8.88646 1.81753 8.74123C2.37612 8.64813 2.83789 8.25712 3.02781 7.7246L4.32001 8.24967C4.46524 9.09873 5.26588 9.66848 6.11493 9.52325C6.86344 9.39664 7.41086 8.74868 7.41086 7.989C7.41086 7.94059 7.40713 7.88845 7.40341 7.84004L9.10152 6.40633C9.73831 6.98354 10.7214 6.93885 11.2986 6.30206C11.6673 5.89616 11.7939 5.3264 11.6375 4.80505L13.3058 3.62084C13.8942 4.25019 14.8773 4.27998 15.5067 3.69532C16.136 3.10694 16.1658 2.12383 15.5811 1.49449ZM1.55686 8.02251C1.10999 8.02251 0.745044 7.65757 0.745044 7.2107C0.745044 6.76383 1.10999 6.39889 1.55686 6.39889C2.00373 6.39889 2.36867 6.76383 2.36867 7.2107C2.36867 7.65757 2.00373 8.02251 1.55686 8.02251ZM5.85054 8.80454C5.40367 8.80454 5.03872 8.43959 5.03872 7.99272C5.03872 7.54585 5.40367 7.18091 5.85054 7.18091C6.29741 7.18091 6.66235 7.54585 6.66235 7.99272C6.66235 8.43959 6.30113 8.80454 5.85054 8.80454ZM10.1479 6.07118C9.70107 6.07118 9.33612 5.70624 9.33612 5.25937C9.33612 4.8125 9.70107 4.44755 10.1479 4.44755C10.5948 4.44755 10.9598 4.8125 10.9598 5.25937C10.9598 5.70624 10.5948 6.07118 10.1479 6.07118ZM14.4416 3.37134C13.9947 3.37134 13.6298 3.0064 13.6298 2.55953C13.6298 2.11266 13.9947 1.74771 14.4416 1.74771C14.8885 1.74771 15.2534 2.11266 15.2534 2.55953C15.2534 3.01012 14.8922 3.37134 14.4416 3.37134Z" stroke="black" stroke-width="2" mask="url(#path-6-inside-1)"/>
<mask id="path-7-inside-2" fill="white">
<path d="M15.485 5.35254H13.3997C13.1948 5.35254 13.0273 5.52012 13.0273 5.72493V14.5878C13.0273 14.7927 13.1948 14.9602 13.3997 14.9602H15.485C15.6899 14.9602 15.8574 14.7927 15.8574 14.5878V5.72493C15.8574 5.52012 15.6899 5.35254 15.485 5.35254ZM15.1127 14.2527H13.772V6.09732H15.1127V14.2527Z"/>
</mask>
<path d="M15.485 5.35254H13.3997C13.1948 5.35254 13.0273 5.52012 13.0273 5.72493V14.5878C13.0273 14.7927 13.1948 14.9602 13.3997 14.9602H15.485C15.6899 14.9602 15.8574 14.7927 15.8574 14.5878V5.72493C15.8574 5.52012 15.6899 5.35254 15.485 5.35254ZM15.1127 14.2527H13.772V6.09732H15.1127V14.2527Z" stroke="black" stroke-width="2" mask="url(#path-7-inside-2)"/>
<mask id="path-8-inside-3" fill="white">
<path d="M11.2019 8.03369H9.11653C8.91172 8.03369 8.74414 8.20126 8.74414 8.40608V14.5878C8.74414 14.7926 8.91172 14.9602 9.11653 14.9602H11.2019C11.4068 14.9602 11.5743 14.7926 11.5743 14.5878V8.40608C11.5743 8.20126 11.4068 8.03369 11.2019 8.03369ZM10.8295 14.2526H9.48892V8.77847H10.8295V14.2526Z"/>
</mask>
<path d="M11.2019 8.03369H9.11653C8.91172 8.03369 8.74414 8.20126 8.74414 8.40608V14.5878C8.74414 14.7926 8.91172 14.9602 9.11653 14.9602H11.2019C11.4068 14.9602 11.5743 14.7926 11.5743 14.5878V8.40608C11.5743 8.20126 11.4068 8.03369 11.2019 8.03369ZM10.8295 14.2526H9.48892V8.77847H10.8295V14.2526Z" stroke="black" stroke-width="2" mask="url(#path-8-inside-3)"/>
<mask id="path-9-inside-4" fill="white">
<path d="M6.88162 10.8267H4.79622C4.59141 10.8267 4.42383 10.9942 4.42383 11.1991V14.6251C4.42383 14.8299 4.59141 14.9975 4.79622 14.9975H6.88162C7.08644 14.9975 7.25401 14.8299 7.25401 14.6251V11.1991C7.25401 10.9942 7.08644 10.8267 6.88162 10.8267ZM6.50923 14.2527H5.16861V11.5714H6.50923V14.2527Z"/>
</mask>
<path d="M6.88162 10.8267H4.79622C4.59141 10.8267 4.42383 10.9942 4.42383 11.1991V14.6251C4.42383 14.8299 4.59141 14.9975 4.79622 14.9975H6.88162C7.08644 14.9975 7.25401 14.8299 7.25401 14.6251V11.1991C7.25401 10.9942 7.08644 10.8267 6.88162 10.8267ZM6.50923 14.2527H5.16861V11.5714H6.50923V14.2527Z" stroke="black" stroke-width="2" mask="url(#path-9-inside-4)"/>
<mask id="path-10-inside-5" fill="white">
<path d="M2.60036 10.0444H0.51497C0.310154 10.0444 0.142578 10.212 0.142578 10.4168V14.6249C0.142578 14.8297 0.310154 14.9972 0.51497 14.9972H2.60036C2.80518 14.9972 2.97275 14.8297 2.97275 14.6249V10.4168C2.97275 10.212 2.80518 10.0444 2.60036 10.0444ZM2.22797 14.2525H0.887361V10.7892H2.22797V14.2525Z"/>
</mask>
<path d="M2.60036 10.0444H0.51497C0.310154 10.0444 0.142578 10.212 0.142578 10.4168V14.6249C0.142578 14.8297 0.310154 14.9972 0.51497 14.9972H2.60036C2.80518 14.9972 2.97275 14.8297 2.97275 14.6249V10.4168C2.97275 10.212 2.80518 10.0444 2.60036 10.0444ZM2.22797 14.2525H0.887361V10.7892H2.22797V14.2525Z" stroke="black" stroke-width="2" mask="url(#path-10-inside-5)"/>
</svg>
