<svg width="16" height="16" viewBox="0 0 16 16" fill="none" xmlns="http://www.w3.org/2000/svg">
<g clip-path="url(#clip0)">
<g clip-path="url(#clip1)">
<mask id="path-1-inside-1" fill="white">
<path d="M15.5811 1.49449C15.2869 1.18168 14.8736 1.00293 14.4416 1.00293C13.5814 1.00293 12.885 1.6993 12.885 2.55953C12.885 2.69731 12.9036 2.8351 12.9409 2.96916L11.2539 4.16454C10.6507 3.55381 9.66383 3.54636 9.0531 4.14964C8.62113 4.57789 8.4759 5.21468 8.68444 5.78816L7.12784 7.09898C6.63628 6.39516 5.66806 6.22014 4.96052 6.71169C4.6924 6.89789 4.49131 7.16601 4.38331 7.47137L3.09111 6.9463C2.94588 6.09725 2.14524 5.52749 1.29618 5.67272C0.447131 5.81795 -0.122628 6.6186 0.0226044 7.46765C0.167837 8.3167 0.968479 8.88646 1.81753 8.74123C2.37612 8.64813 2.83789 8.25712 3.02781 7.7246L4.32001 8.24967C4.46524 9.09873 5.26588 9.66848 6.11493 9.52325C6.86344 9.39664 7.41086 8.74868 7.41086 7.989C7.41086 7.94059 7.40713 7.88845 7.40341 7.84004L9.10152 6.40633C9.73831 6.98354 10.7214 6.93885 11.2986 6.30206C11.6673 5.89616 11.7939 5.3264 11.6375 4.80505L13.3058 3.62084C13.8942 4.25019 14.8773 4.27998 15.5067 3.69532C16.136 3.10694 16.1658 2.12383 15.5811 1.49449ZM1.55686 8.02251C1.10999 8.02251 0.745044 7.65757 0.745044 7.2107C0.745044 6.76383 1.10999 6.39889 1.55686 6.39889C2.00373 6.39889 2.36867 6.76383 2.36867 7.2107C2.36867 7.65757 2.00373 8.02251 1.55686 8.02251ZM5.85054 8.80454C5.40367 8.80454 5.03872 8.43959 5.03872 7.99272C5.03872 7.54585 5.40367 7.18091 5.85054 7.18091C6.29741 7.18091 6.66235 7.54585 6.66235 7.99272C6.66235 8.43959 6.30113 8.80454 5.85054 8.80454ZM10.1479 6.07118C9.70107 6.07118 9.33612 5.70624 9.33612 5.25937C9.33612 4.8125 9.70107 4.44755 10.1479 4.44755C10.5948 4.44755 10.9598 4.8125 10.9598 5.25937C10.9598 5.70624 10.5948 6.07118 10.1479 6.07118ZM14.4416 3.37134C13.9947 3.37134 13.6298 3.0064 13.6298 2.55953C13.6298 2.11266 13.9947 1.74771 14.4416 1.74771C14.8885 1.74771 15.2534 2.11266 15.2534 2.55953C15.2534 3.01012 14.8922 3.37134 14.4416 3.37134Z"/>
<path d="M15.4843 5.35254H13.399C13.1941 5.35254 13.0266 5.52011 13.0266 5.72493V14.5878C13.0266 14.7927 13.1941 14.9602 13.399 14.9602H15.4843C15.6892 14.9602 15.8567 14.7927 15.8567 14.5878V5.72493C15.8567 5.52011 15.6892 5.35254 15.4843 5.35254ZM15.112 14.2527H13.7713V6.09732H15.112V14.2527Z"/>
<path d="M11.2015 8.03379H9.11614C8.91133 8.03379 8.74375 8.20136 8.74375 8.40618V14.5879C8.74375 14.7927 8.91133 14.9603 9.11614 14.9603H11.2015C11.4064 14.9603 11.5739 14.7927 11.5739 14.5879V8.40618C11.5739 8.20136 11.4064 8.03379 11.2015 8.03379ZM10.8291 14.2527H9.48853V8.77857H10.8291V14.2527Z"/>
<path d="M6.88201 10.8266H4.79661C4.5918 10.8266 4.42422 10.9941 4.42422 11.199V14.625C4.42422 14.8298 4.5918 14.9974 4.79661 14.9974H6.88201C7.08683 14.9974 7.2544 14.8298 7.2544 14.625V11.199C7.2544 10.9941 7.08683 10.8266 6.88201 10.8266ZM6.50962 14.2526H5.169V11.5713H6.50962V14.2526Z"/>
<path d="M2.59958 10.0445H0.514189C0.309373 10.0445 0.141797 10.2121 0.141797 10.4169V14.625C0.141797 14.8298 0.309373 14.9973 0.514189 14.9973H2.59958C2.8044 14.9973 2.97197 14.8298 2.97197 14.625V10.4169C2.97197 10.2121 2.8044 10.0445 2.59958 10.0445ZM2.22719 14.2526H0.88658V10.7893H2.22719V14.2526Z"/>
</mask>
<path d="M15.5811 1.49449C15.2869 1.18168 14.8736 1.00293 14.4416 1.00293C13.5814 1.00293 12.885 1.6993 12.885 2.55953C12.885 2.69731 12.9036 2.8351 12.9409 2.96916L11.2539 4.16454C10.6507 3.55381 9.66383 3.54636 9.0531 4.14964C8.62113 4.57789 8.4759 5.21468 8.68444 5.78816L7.12784 7.09898C6.63628 6.39516 5.66806 6.22014 4.96052 6.71169C4.6924 6.89789 4.49131 7.16601 4.38331 7.47137L3.09111 6.9463C2.94588 6.09725 2.14524 5.52749 1.29618 5.67272C0.447131 5.81795 -0.122628 6.6186 0.0226044 7.46765C0.167837 8.3167 0.968479 8.88646 1.81753 8.74123C2.37612 8.64813 2.83789 8.25712 3.02781 7.7246L4.32001 8.24967C4.46524 9.09873 5.26588 9.66848 6.11493 9.52325C6.86344 9.39664 7.41086 8.74868 7.41086 7.989C7.41086 7.94059 7.40713 7.88845 7.40341 7.84004L9.10152 6.40633C9.73831 6.98354 10.7214 6.93885 11.2986 6.30206C11.6673 5.89616 11.7939 5.3264 11.6375 4.80505L13.3058 3.62084C13.8942 4.25019 14.8773 4.27998 15.5067 3.69532C16.136 3.10694 16.1658 2.12383 15.5811 1.49449ZM1.55686 8.02251C1.10999 8.02251 0.745044 7.65757 0.745044 7.2107C0.745044 6.76383 1.10999 6.39889 1.55686 6.39889C2.00373 6.39889 2.36867 6.76383 2.36867 7.2107C2.36867 7.65757 2.00373 8.02251 1.55686 8.02251ZM5.85054 8.80454C5.40367 8.80454 5.03872 8.43959 5.03872 7.99272C5.03872 7.54585 5.40367 7.18091 5.85054 7.18091C6.29741 7.18091 6.66235 7.54585 6.66235 7.99272C6.66235 8.43959 6.30113 8.80454 5.85054 8.80454ZM10.1479 6.07118C9.70107 6.07118 9.33612 5.70624 9.33612 5.25937C9.33612 4.8125 9.70107 4.44755 10.1479 4.44755C10.5948 4.44755 10.9598 4.8125 10.9598 5.25937C10.9598 5.70624 10.5948 6.07118 10.1479 6.07118ZM14.4416 3.37134C13.9947 3.37134 13.6298 3.0064 13.6298 2.55953C13.6298 2.11266 13.9947 1.74771 14.4416 1.74771C14.8885 1.74771 15.2534 2.11266 15.2534 2.55953C15.2534 3.01012 14.8922 3.37134 14.4416 3.37134Z" stroke="black" stroke-width="2" mask="url(#path-1-inside-1)"/>
<path d="M15.4843 5.35254H13.399C13.1941 5.35254 13.0266 5.52011 13.0266 5.72493V14.5878C13.0266 14.7927 13.1941 14.9602 13.399 14.9602H15.4843C15.6892 14.9602 15.8567 14.7927 15.8567 14.5878V5.72493C15.8567 5.52011 15.6892 5.35254 15.4843 5.35254ZM15.112 14.2527H13.7713V6.09732H15.112V14.2527Z" stroke="black" stroke-width="2" mask="url(#path-1-inside-1)"/>
<path d="M11.2015 8.03379H9.11614C8.91133 8.03379 8.74375 8.20136 8.74375 8.40618V14.5879C8.74375 14.7927 8.91133 14.9603 9.11614 14.9603H11.2015C11.4064 14.9603 11.5739 14.7927 11.5739 14.5879V8.40618C11.5739 8.20136 11.4064 8.03379 11.2015 8.03379ZM10.8291 14.2527H9.48853V8.77857H10.8291V14.2527Z" stroke="black" stroke-width="2" mask="url(#path-1-inside-1)"/>
<path d="M6.88201 10.8266H4.79661C4.5918 10.8266 4.42422 10.9941 4.42422 11.199V14.625C4.42422 14.8298 4.5918 14.9974 4.79661 14.9974H6.88201C7.08683 14.9974 7.2544 14.8298 7.2544 14.625V11.199C7.2544 10.9941 7.08683 10.8266 6.88201 10.8266ZM6.50962 14.2526H5.169V11.5713H6.50962V14.2526Z" stroke="black" stroke-width="2" mask="url(#path-1-inside-1)"/>
<path d="M2.59958 10.0445H0.514189C0.309373 10.0445 0.141797 10.2121 0.141797 10.4169V14.625C0.141797 14.8298 0.309373 14.9973 0.514189 14.9973H2.59958C2.8044 14.9973 2.97197 14.8298 2.97197 14.625V10.4169C2.97197 10.2121 2.8044 10.0445 2.59958 10.0445ZM2.22719 14.2526H0.88658V10.7893H2.22719V14.2526Z" stroke="black" stroke-width="2" mask="url(#path-1-inside-1)"/>
</g>
</g>
<defs>
<clipPath id="clip0">
<rect width="16" height="16" fill="white"/>
</clipPath>
<clipPath id="clip1">
<rect width="16" height="16" fill="white"/>
</clipPath>
</defs>
</svg>
