<svg width="16" height="16" viewBox="0 0 16 16" fill="none" xmlns="http://www.w3.org/2000/svg">
<mask id="path-1-inside-1" fill="white">
<path d="M14.2812 10.3689C13.496 10.3689 12.8326 10.8989 12.628 11.6203H10.9688V9.78843H12.6629C14.503 9.78843 16 8.28981 16 6.44773C16 4.97079 15.0215 3.67332 13.6324 3.25074C13.2125 1.56754 11.6947 0.360327 9.93694 0.360327C9.25553 0.360327 8.60278 0.536236 8.02672 0.872319C7.41663 0.313777 6.61666 0 5.77612 0C3.97322 0 2.49966 1.43878 2.44084 3.22953C1.01394 3.6288 0 4.93669 0 6.44773C0 8.28981 1.497 9.78843 3.33709 9.78843H5.03125V11.6203H3.372C3.16741 10.8989 2.50397 10.3689 1.71875 10.3689C0.771031 10.3689 0 11.1408 0 12.0895C0 13.0383 0.771031 13.8101 1.71875 13.8101C2.50397 13.8101 3.16738 13.2801 3.372 12.5588H5.5C5.75887 12.5588 5.96875 12.3487 5.96875 12.0895V9.78843H7.53125V12.6243C6.81072 12.8292 6.28125 13.4933 6.28125 14.2794C6.28125 15.2281 7.05228 16 8 16C8.94772 16 9.71875 15.2281 9.71875 14.2794C9.71875 13.4933 9.18928 12.8292 8.46875 12.6243V9.78843H10.0312V12.0895C10.0312 12.3487 10.2411 12.5588 10.5 12.5588H12.628C12.8326 13.2801 13.496 13.8101 14.2812 13.8101C15.229 13.8101 16 13.0383 16 12.0895C16 11.1408 15.229 10.3689 14.2812 10.3689ZM1.71875 12.8716C1.28797 12.8716 0.9375 12.5208 0.9375 12.0895C0.9375 11.6583 1.28797 11.3074 1.71875 11.3074C2.14953 11.3074 2.5 11.6583 2.5 12.0895C2.5 12.5208 2.14953 12.8716 1.71875 12.8716ZM8.78125 14.2794C8.78125 14.7106 8.43078 15.0615 8 15.0615C7.56922 15.0615 7.21875 14.7106 7.21875 14.2794C7.21875 13.8481 7.56922 13.4973 8 13.4973C8.43078 13.4973 8.78125 13.8481 8.78125 14.2794ZM3.33709 8.84992C2.01397 8.84992 0.9375 7.77232 0.9375 6.44773C0.9375 5.26385 1.81897 4.24203 2.98781 4.07091C3.23447 4.0348 3.40972 3.81175 3.38672 3.56329C3.37994 3.49 3.3765 3.4151 3.3765 3.34068C3.3765 2.01615 4.45297 0.938547 5.77609 0.938547C6.48203 0.938547 7.14775 1.24575 7.6025 1.7814C7.76216 1.96944 8.04 2.00154 8.23828 1.85488C8.72991 1.49111 9.31728 1.29884 9.93691 1.29884C11.3628 1.29884 12.5486 2.34619 12.7702 3.70864C12.8016 3.90128 12.9488 4.05439 13.1399 4.09312C14.2539 4.31889 15.0625 5.30912 15.0625 6.44773C15.0625 7.77232 13.986 8.84992 12.6629 8.84992H3.33709ZM14.2812 12.8716C13.8505 12.8716 13.5 12.5208 13.5 12.0895C13.5 11.6583 13.8505 11.3074 14.2812 11.3074C14.712 11.3074 15.0625 11.6583 15.0625 12.0895C15.0625 12.5208 14.712 12.8716 14.2812 12.8716Z"/>
</mask>
<path d="M12.628 11.6203V12.6203H13.3838L13.59 11.8932L12.628 11.6203ZM10.9688 11.6203H9.96875V12.6203H10.9688V11.6203ZM10.9688 9.78843V8.78843H9.96875V9.78843H10.9688ZM13.6324 3.25074L12.6621 3.49279L12.7993 4.04254L13.3413 4.20745L13.6324 3.25074ZM8.02672 0.872319L7.35146 1.6099L7.8946 2.10714L8.53064 1.73607L8.02672 0.872319ZM2.44084 3.22953L2.71031 4.19253L3.41624 3.995L3.4403 3.26235L2.44084 3.22953ZM5.03125 9.78843H6.03125V8.78843H5.03125V9.78843ZM5.03125 11.6203V12.6203H6.03125V11.6203H5.03125ZM3.372 11.6203L2.40995 11.8931L2.61619 12.6203H3.372V11.6203ZM3.372 12.5588V11.5588H2.61622L2.40996 12.2859L3.372 12.5588ZM5.96875 9.78843V8.78843H4.96875V9.78843H5.96875ZM7.53125 9.78843H8.53125V8.78843H7.53125V9.78843ZM7.53125 12.6243L7.80467 13.5862L8.53125 13.3797V12.6243H7.53125ZM8.46875 12.6243H7.46875V13.3797L8.19529 13.5862L8.46875 12.6243ZM8.46875 9.78843V8.78843H7.46875V9.78843H8.46875ZM10.0312 9.78843H11.0312V8.78843H10.0312V9.78843ZM12.628 12.5588L13.59 12.2859L13.3838 11.5588H12.628V12.5588ZM2.98781 4.07091L2.84299 3.08145L2.84295 3.08145L2.98781 4.07091ZM3.38672 3.56329L2.39097 3.65542L2.39098 3.65547L3.38672 3.56329ZM7.6025 1.7814L6.84018 2.42859L6.84019 2.42861L7.6025 1.7814ZM8.23828 1.85488L8.83294 2.65886L8.83309 2.65875L8.23828 1.85488ZM12.7702 3.70864L11.7832 3.86922L11.7832 3.86923L12.7702 3.70864ZM13.1399 4.09312L12.9412 5.07319L12.9412 5.07319L13.1399 4.09312ZM14.2812 9.36891C13.035 9.36891 11.9888 10.2093 11.666 11.3473L13.59 11.8932C13.6764 11.5886 13.9571 11.3689 14.2812 11.3689V9.36891ZM12.628 10.6203H10.9688V12.6203H12.628V10.6203ZM11.9688 11.6203V9.78843H9.96875V11.6203H11.9688ZM10.9688 10.7884H12.6629V8.78843H10.9688V10.7884ZM12.6629 10.7884C15.0563 10.7884 17 8.84108 17 6.44773H15C15 7.73855 13.9497 8.78843 12.6629 8.78843V10.7884ZM17 6.44773C17 4.52691 15.7301 2.84364 13.9234 2.29403L13.3413 4.20745C14.3129 4.503 15 5.41466 15 6.44773H17ZM14.6026 3.00869C14.0728 0.88501 12.1588 -0.639673 9.93694 -0.639673V1.36033C11.2306 1.36033 12.3521 2.25007 12.6621 3.49279L14.6026 3.00869ZM9.93694 -0.639673C9.08102 -0.639673 8.254 -0.418026 7.5228 0.00856996L8.53064 1.73607C8.95156 1.4905 9.43005 1.36033 9.93694 1.36033V-0.639673ZM8.70198 0.134737C7.90768 -0.592439 6.86687 -1 5.77612 -1V1C6.36644 1 6.92557 1.21999 7.35146 1.6099L8.70198 0.134737ZM5.77612 -1C3.43077 -1 1.51781 0.86968 1.44138 3.1967L3.4403 3.26235C3.4815 2.00787 4.51567 1 5.77612 1V-1ZM2.17138 2.26652C0.317374 2.7853 -1 4.4832 -1 6.44773H1C1 5.39017 1.7105 4.4723 2.71031 4.19253L2.17138 2.26652ZM-1 6.44773C-1 8.84108 0.943695 10.7884 3.33709 10.7884V8.78843C2.0503 8.78843 1 7.73855 1 6.44773H-1ZM3.33709 10.7884H5.03125V8.78843H3.33709V10.7884ZM4.03125 9.78843V11.6203H6.03125V9.78843H4.03125ZM5.03125 10.6203H3.372V12.6203H5.03125V10.6203ZM4.33405 11.3474C4.01124 10.2093 2.96497 9.36891 1.71875 9.36891V11.3689C2.04297 11.3689 2.32358 11.5886 2.40995 11.8931L4.33405 11.3474ZM1.71875 9.36891C0.217726 9.36891 -1 10.5895 -1 12.0895H1C1 11.692 1.32434 11.3689 1.71875 11.3689V9.36891ZM-1 12.0895C-1 13.5895 0.217726 14.8101 1.71875 14.8101V12.8101C1.32434 12.8101 1 12.487 1 12.0895H-1ZM1.71875 14.8101C2.965 14.8101 4.01119 13.9697 4.33404 12.8317L2.40996 12.2859C2.32356 12.5904 2.04294 12.8101 1.71875 12.8101V14.8101ZM3.372 13.5588H5.5V11.5588H3.372V13.5588ZM5.5 13.5588C6.31218 13.5588 6.96875 12.8999 6.96875 12.0895H4.96875C4.96875 11.7974 5.20557 11.5588 5.5 11.5588V13.5588ZM6.96875 12.0895V9.78843H4.96875V12.0895H6.96875ZM5.96875 10.7884H7.53125V8.78843H5.96875V10.7884ZM6.53125 9.78843V12.6243H8.53125V9.78843H6.53125ZM7.25783 11.6625C6.11953 11.986 5.28125 13.0338 5.28125 14.2794H7.28125C7.28125 13.9528 7.5019 13.6723 7.80467 13.5862L7.25783 11.6625ZM5.28125 14.2794C5.28125 15.7794 6.49898 17 8 17V15C7.60559 15 7.28125 14.6769 7.28125 14.2794H5.28125ZM8 17C9.50102 17 10.7188 15.7794 10.7188 14.2794H8.71875C8.71875 14.6769 8.39441 15 8 15V17ZM10.7188 14.2794C10.7188 13.0338 9.88044 11.9861 8.74221 11.6625L8.19529 13.5862C8.49812 13.6723 8.71875 13.9529 8.71875 14.2794H10.7188ZM9.46875 12.6243V9.78843H7.46875V12.6243H9.46875ZM8.46875 10.7884H10.0312V8.78843H8.46875V10.7884ZM9.03125 9.78843V12.0895H11.0312V9.78843H9.03125ZM9.03125 12.0895C9.03125 12.8999 9.68782 13.5588 10.5 13.5588V11.5588C10.7944 11.5588 11.0312 11.7974 11.0312 12.0895H9.03125ZM10.5 13.5588H12.628V11.5588H10.5V13.5588ZM11.666 12.8317C11.9888 13.9698 13.035 14.8101 14.2812 14.8101V12.8101C13.957 12.8101 13.6764 12.5904 13.59 12.2859L11.666 12.8317ZM14.2812 14.8101C15.7823 14.8101 17 13.5895 17 12.0895H15C15 12.487 14.6757 12.8101 14.2812 12.8101V14.8101ZM17 12.0895C17 10.5895 15.7823 9.36891 14.2812 9.36891V11.3689C14.6757 11.3689 15 11.692 15 12.0895H17ZM1.71875 11.8716C1.84127 11.8716 1.9375 11.9695 1.9375 12.0895H-0.0625C-0.0625 13.072 0.734663 13.8716 1.71875 13.8716V11.8716ZM1.9375 12.0895C1.9375 12.2095 1.84127 12.3074 1.71875 12.3074V10.3074C0.734664 10.3074 -0.0625 11.107 -0.0625 12.0895H1.9375ZM1.71875 12.3074C1.59623 12.3074 1.5 12.2095 1.5 12.0895H3.5C3.5 11.107 2.70284 10.3074 1.71875 10.3074V12.3074ZM1.5 12.0895C1.5 11.9695 1.59623 11.8716 1.71875 11.8716V13.8716C2.70284 13.8716 3.5 13.072 3.5 12.0895H1.5ZM7.78125 14.2794C7.78125 14.1594 7.87748 14.0615 8 14.0615V16.0615C8.98409 16.0615 9.78125 15.2619 9.78125 14.2794H7.78125ZM8 14.0615C8.12252 14.0615 8.21875 14.1594 8.21875 14.2794H6.21875C6.21875 15.2619 7.01591 16.0615 8 16.0615V14.0615ZM8.21875 14.2794C8.21875 14.3994 8.12252 14.4973 8 14.4973V12.4973C7.01591 12.4973 6.21875 13.2969 6.21875 14.2794H8.21875ZM8 14.4973C7.87748 14.4973 7.78125 14.3994 7.78125 14.2794H9.78125C9.78125 13.2969 8.98409 12.4973 8 12.4973V14.4973ZM3.33709 7.84992C2.56727 7.84992 1.9375 7.22104 1.9375 6.44773H-0.0625C-0.0625 8.32359 1.46067 9.84992 3.33709 9.84992V7.84992ZM1.9375 6.44773C1.9375 5.75854 2.45655 5.15934 3.13267 5.06036L2.84295 3.08145C1.18139 3.32471 -0.0625 4.76916 -0.0625 6.44773H1.9375ZM3.13263 5.06036C3.90639 4.94711 4.45438 4.24798 4.38246 3.47112L2.39098 3.65547C2.36506 3.37552 2.56255 3.12249 2.84299 3.08145L3.13263 5.06036ZM4.38247 3.47117C4.37855 3.42884 4.3765 3.38469 4.3765 3.34068H2.3765C2.3765 3.44552 2.38133 3.55115 2.39097 3.65542L4.38247 3.47117ZM4.3765 3.34068C4.3765 2.56744 5.00625 1.93855 5.77609 1.93855V-0.0614532C3.89969 -0.0614532 2.3765 1.46486 2.3765 3.34068H4.3765ZM5.77609 1.93855C6.19006 1.93855 6.57646 2.11797 6.84018 2.42859L8.36482 1.1342C7.71904 0.373538 6.774 -0.0614532 5.77609 -0.0614532V1.93855ZM6.84019 2.42861C7.34041 3.01778 8.2115 3.11851 8.83294 2.65886L7.64362 1.05091C7.86851 0.88457 8.1839 0.921109 8.36481 1.13418L6.84019 2.42861ZM8.83309 2.65875C9.15013 2.42416 9.52839 2.29884 9.93691 2.29884V0.298843C9.10617 0.298843 8.30968 0.558065 7.64347 1.05101L8.83309 2.65875ZM9.93691 2.29884C10.8627 2.29884 11.6387 2.98098 11.7832 3.86922L13.7572 3.54806C13.4584 1.71141 11.8629 0.298843 9.93691 0.298843V2.29884ZM11.7832 3.86923C11.8813 4.47194 12.342 4.95175 12.9412 5.07319L13.3385 3.11304C13.5555 3.15703 13.7219 3.33063 13.7572 3.54805L11.7832 3.86923ZM12.9412 5.07319C13.5879 5.20424 14.0625 5.78366 14.0625 6.44773H16.0625C16.0625 4.83458 14.9199 3.43354 13.3385 3.11304L12.9412 5.07319ZM14.0625 6.44773C14.0625 7.22105 13.4327 7.84992 12.6629 7.84992V9.84992C14.5393 9.84992 16.0625 8.32359 16.0625 6.44773H14.0625ZM12.6629 7.84992H3.33709V9.84992H12.6629V7.84992ZM14.2812 11.8716C14.4038 11.8716 14.5 11.9695 14.5 12.0895H12.5C12.5 13.072 13.2972 13.8716 14.2812 13.8716V11.8716ZM14.5 12.0895C14.5 12.2095 14.4038 12.3074 14.2812 12.3074V10.3074C13.2972 10.3074 12.5 11.107 12.5 12.0895H14.5ZM14.2812 12.3074C14.1587 12.3074 14.0625 12.2095 14.0625 12.0895H16.0625C16.0625 11.107 15.2653 10.3074 14.2812 10.3074V12.3074ZM14.0625 12.0895C14.0625 11.9695 14.1587 11.8716 14.2812 11.8716V13.8716C15.2653 13.8716 16.0625 13.072 16.0625 12.0895H14.0625Z" fill="black" mask="url(#path-1-inside-1)"/>
</svg>
