<svg width="16" height="16" viewBox="0 0 16 16" fill="none" xmlns="http://www.w3.org/2000/svg">
<mask id="path-1-inside-1" fill="white">
<path d="M13.9657 13.2614L11.9833 11.2799C12.6521 10.4805 13.0589 9.50975 13.1592 8.47344H14.4269C14.6859 8.47344 14.896 8.2635 14.896 8.00456C14.896 7.74563 14.6859 7.53569 14.4269 7.53569H13.1659C13.0788 6.47006 12.6688 5.47041 11.9832 4.65094L13.9241 2.71103C14.1215 2.81062 14.3407 2.86369 14.5682 2.86369C14.9507 2.86369 15.3102 2.71484 15.5806 2.44453C15.8511 2.17425 16 1.81487 16 1.43259C16 1.05031 15.8511 0.690969 15.5807 0.420687C15.3103 0.150375 14.9507 0.0015 14.5682 0.0015C14.1858 0.0015 13.8262 0.150344 13.5558 0.420656C13.2854 0.690938 13.1364 1.05031 13.1364 1.43259C13.1364 1.64544 13.1827 1.85113 13.2703 2.03831L11.3196 3.98803C10.4895 3.29562 9.49208 2.90347 8.47223 2.81166V1.54541C8.47223 1.28647 8.26219 1.07653 8.00313 1.07653C7.74406 1.07653 7.53402 1.28647 7.53402 1.54541V2.81175C6.51454 2.90372 5.51752 3.29587 4.6877 3.988L2.73151 2.03275C2.8179 1.84659 2.86361 1.64241 2.86361 1.43109C2.86361 1.04884 2.71469 0.689469 2.44424 0.419156C2.1738 0.148844 1.81421 0 1.43177 0C1.04933 0 0.68978 0.148844 0.419396 0.419156C0.148949 0.689438 0 1.04881 0 1.43106C0 1.81331 0.148949 2.17269 0.419396 2.443C0.68978 2.71328 1.04936 2.86216 1.4318 2.86216C1.66082 2.86216 1.88143 2.80841 2.07984 2.70756L4.02437 4.65112C3.3229 5.49125 2.92948 6.50294 2.84422 7.53569H1.53345C1.27438 7.53569 1.06434 7.74563 1.06434 8.00456C1.06434 8.2635 1.27438 8.47344 1.53345 8.47344H2.85095C2.94928 9.47897 3.34056 10.4608 4.02431 11.2797L2.03354 13.2695C1.84751 13.1834 1.64347 13.1378 1.43237 13.1378C1.04993 13.1378 0.690374 13.2867 0.419958 13.557C0.149543 13.8272 0.000594045 14.1866 0.000594045 14.5689C0.000594045 14.9512 0.149512 15.3105 0.419958 15.5808C0.690342 15.8511 1.04993 16 1.43237 16C1.81481 16 2.17436 15.8512 2.44481 15.5808C2.71525 15.3105 2.8642 14.9512 2.8642 14.5689C2.8642 14.3397 2.8103 14.1189 2.70913 13.9204L4.68773 11.9428C5.51755 12.6351 6.51448 13.0272 7.53405 13.1191V14.4012C7.53405 14.6601 7.74409 14.87 8.00316 14.87C8.26222 14.87 8.47227 14.6601 8.47227 14.4012V13.1191C9.49202 13.0272 10.4896 12.6351 11.3196 11.9428L13.291 13.9131C13.0194 14.4501 13.1073 15.1236 13.5556 15.5716C13.8347 15.8507 14.2013 15.9901 14.568 15.9901C14.9346 15.9901 15.3013 15.8506 15.5804 15.5716C15.8509 15.3013 15.9998 14.942 15.9998 14.5597C15.9998 14.1774 15.8509 13.8181 15.5804 13.5478C15.1445 13.1122 14.4952 13.0167 13.9657 13.2614ZM14.2192 1.08375C14.3124 0.990562 14.4364 0.93925 14.5682 0.93925C14.7 0.93925 14.824 0.990563 14.9172 1.08372L14.9172 1.08375C15.0104 1.17691 15.0618 1.30081 15.0618 1.43256C15.0618 1.56434 15.0104 1.68822 14.9172 1.78141C14.824 1.87456 14.7 1.92587 14.5682 1.92587C14.4364 1.92587 14.3124 1.87456 14.2192 1.78141C14.126 1.68822 14.0746 1.56434 14.0746 1.43256C14.0746 1.30081 14.126 1.17694 14.2192 1.08375ZM1.78079 1.77991C1.68759 1.87309 1.56362 1.92441 1.43177 1.92441C1.29996 1.92438 1.17599 1.87309 1.08279 1.77991C0.989585 1.68672 0.938215 1.56284 0.938215 1.43106C0.938215 1.29931 0.989585 1.17541 1.08282 1.08222C1.17602 0.989063 1.29996 0.93775 1.43177 0.93775C1.56362 0.93775 1.68756 0.989062 1.78079 1.08225C1.87399 1.17541 1.92533 1.29931 1.92533 1.43106C1.92536 1.56287 1.87399 1.68675 1.78079 1.77991ZM1.78138 14.9178C1.68815 15.0109 1.56421 15.0623 1.43237 15.0623C1.30055 15.0623 1.17658 15.0109 1.08338 14.9178C0.990179 14.8246 0.938841 14.7007 0.938841 14.5689C0.938841 14.4372 0.990179 14.3133 1.08341 14.2201C1.17661 14.1269 1.30055 14.0756 1.43237 14.0756C1.56421 14.0756 1.68815 14.1269 1.78138 14.2201C1.87459 14.3133 1.92596 14.4372 1.92596 14.5689C1.92599 14.7007 1.87459 14.8246 1.78138 14.9178ZM8.00369 3.72769C8.94266 3.72769 9.88146 4.03678 10.653 4.65438L8.95551 6.351C8.37043 6.00653 7.63698 6.00653 7.0519 6.351L5.35441 4.65438C6.12588 4.03678 7.06469 3.72769 8.00369 3.72769ZM8.66583 8.62722C8.48899 8.804 8.25378 8.90134 8.00369 8.90134C7.75357 8.90137 7.51839 8.804 7.34152 8.62725C6.97643 8.26234 6.97643 7.66856 7.34152 7.30366C7.52411 7.12116 7.76385 7.02997 8.00369 7.02997C8.24347 7.02997 8.48327 7.12122 8.66583 7.30363C9.03092 7.66853 9.03092 8.26231 8.66583 8.62722ZM4.69098 5.31747L6.38845 7.01409C6.04381 7.59888 6.04381 8.33197 6.38845 8.91678L4.69098 10.6134C3.45515 9.07119 3.45515 6.85969 4.69098 5.31747ZM5.35438 11.2765L7.05159 9.58009C7.33698 9.74884 7.66333 9.83912 8.00366 9.83912C8.34395 9.83912 8.6703 9.74887 8.95569 9.58012L10.6529 11.2765C9.10996 12.5117 6.89739 12.5117 5.35438 11.2765ZM11.3166 10.6136L9.61887 8.91675C9.96351 8.33197 9.96354 7.59888 9.61887 7.01406L11.3166 5.31722C11.9184 6.06644 12.2455 6.99072 12.2455 7.96537C12.2455 8.94009 11.9184 9.86438 11.3166 10.6136ZM14.917 14.9086C14.7246 15.101 14.4115 15.101 14.219 14.9086C14.0266 14.7163 14.0266 14.4033 14.219 14.2109C14.3152 14.1147 14.4416 14.0667 14.568 14.0667C14.6944 14.0667 14.8208 14.1148 14.917 14.2109C15.0102 14.3041 15.0616 14.428 15.0616 14.5598C15.0616 14.6915 15.0102 14.8154 14.917 14.9086Z"/>
</mask>
<path d="M13.9657 13.2614L11.9833 11.2799C12.6521 10.4805 13.0589 9.50975 13.1592 8.47344H14.4269C14.6859 8.47344 14.896 8.2635 14.896 8.00456C14.896 7.74563 14.6859 7.53569 14.4269 7.53569H13.1659C13.0788 6.47006 12.6688 5.47041 11.9832 4.65094L13.9241 2.71103C14.1215 2.81062 14.3407 2.86369 14.5682 2.86369C14.9507 2.86369 15.3102 2.71484 15.5806 2.44453C15.8511 2.17425 16 1.81487 16 1.43259C16 1.05031 15.8511 0.690969 15.5807 0.420687C15.3103 0.150375 14.9507 0.0015 14.5682 0.0015C14.1858 0.0015 13.8262 0.150344 13.5558 0.420656C13.2854 0.690938 13.1364 1.05031 13.1364 1.43259C13.1364 1.64544 13.1827 1.85113 13.2703 2.03831L11.3196 3.98803C10.4895 3.29562 9.49208 2.90347 8.47223 2.81166V1.54541C8.47223 1.28647 8.26219 1.07653 8.00313 1.07653C7.74406 1.07653 7.53402 1.28647 7.53402 1.54541V2.81175C6.51454 2.90372 5.51752 3.29587 4.6877 3.988L2.73151 2.03275C2.8179 1.84659 2.86361 1.64241 2.86361 1.43109C2.86361 1.04884 2.71469 0.689469 2.44424 0.419156C2.1738 0.148844 1.81421 0 1.43177 0C1.04933 0 0.68978 0.148844 0.419396 0.419156C0.148949 0.689438 0 1.04881 0 1.43106C0 1.81331 0.148949 2.17269 0.419396 2.443C0.68978 2.71328 1.04936 2.86216 1.4318 2.86216C1.66082 2.86216 1.88143 2.80841 2.07984 2.70756L4.02437 4.65112C3.3229 5.49125 2.92948 6.50294 2.84422 7.53569H1.53345C1.27438 7.53569 1.06434 7.74563 1.06434 8.00456C1.06434 8.2635 1.27438 8.47344 1.53345 8.47344H2.85095C2.94928 9.47897 3.34056 10.4608 4.02431 11.2797L2.03354 13.2695C1.84751 13.1834 1.64347 13.1378 1.43237 13.1378C1.04993 13.1378 0.690374 13.2867 0.419958 13.557C0.149543 13.8272 0.000594045 14.1866 0.000594045 14.5689C0.000594045 14.9512 0.149512 15.3105 0.419958 15.5808C0.690342 15.8511 1.04993 16 1.43237 16C1.81481 16 2.17436 15.8512 2.44481 15.5808C2.71525 15.3105 2.8642 14.9512 2.8642 14.5689C2.8642 14.3397 2.8103 14.1189 2.70913 13.9204L4.68773 11.9428C5.51755 12.6351 6.51448 13.0272 7.53405 13.1191V14.4012C7.53405 14.6601 7.74409 14.87 8.00316 14.87C8.26222 14.87 8.47227 14.6601 8.47227 14.4012V13.1191C9.49202 13.0272 10.4896 12.6351 11.3196 11.9428L13.291 13.9131C13.0194 14.4501 13.1073 15.1236 13.5556 15.5716C13.8347 15.8507 14.2013 15.9901 14.568 15.9901C14.9346 15.9901 15.3013 15.8506 15.5804 15.5716C15.8509 15.3013 15.9998 14.942 15.9998 14.5597C15.9998 14.1774 15.8509 13.8181 15.5804 13.5478C15.1445 13.1122 14.4952 13.0167 13.9657 13.2614ZM14.2192 1.08375C14.3124 0.990562 14.4364 0.93925 14.5682 0.93925C14.7 0.93925 14.824 0.990563 14.9172 1.08372L14.9172 1.08375C15.0104 1.17691 15.0618 1.30081 15.0618 1.43256C15.0618 1.56434 15.0104 1.68822 14.9172 1.78141C14.824 1.87456 14.7 1.92587 14.5682 1.92587C14.4364 1.92587 14.3124 1.87456 14.2192 1.78141C14.126 1.68822 14.0746 1.56434 14.0746 1.43256C14.0746 1.30081 14.126 1.17694 14.2192 1.08375ZM1.78079 1.77991C1.68759 1.87309 1.56362 1.92441 1.43177 1.92441C1.29996 1.92438 1.17599 1.87309 1.08279 1.77991C0.989585 1.68672 0.938215 1.56284 0.938215 1.43106C0.938215 1.29931 0.989585 1.17541 1.08282 1.08222C1.17602 0.989063 1.29996 0.93775 1.43177 0.93775C1.56362 0.93775 1.68756 0.989062 1.78079 1.08225C1.87399 1.17541 1.92533 1.29931 1.92533 1.43106C1.92536 1.56287 1.87399 1.68675 1.78079 1.77991ZM1.78138 14.9178C1.68815 15.0109 1.56421 15.0623 1.43237 15.0623C1.30055 15.0623 1.17658 15.0109 1.08338 14.9178C0.990179 14.8246 0.938841 14.7007 0.938841 14.5689C0.938841 14.4372 0.990179 14.3133 1.08341 14.2201C1.17661 14.1269 1.30055 14.0756 1.43237 14.0756C1.56421 14.0756 1.68815 14.1269 1.78138 14.2201C1.87459 14.3133 1.92596 14.4372 1.92596 14.5689C1.92599 14.7007 1.87459 14.8246 1.78138 14.9178ZM8.00369 3.72769C8.94266 3.72769 9.88146 4.03678 10.653 4.65438L8.95551 6.351C8.37043 6.00653 7.63698 6.00653 7.0519 6.351L5.35441 4.65438C6.12588 4.03678 7.06469 3.72769 8.00369 3.72769ZM8.66583 8.62722C8.48899 8.804 8.25378 8.90134 8.00369 8.90134C7.75357 8.90137 7.51839 8.804 7.34152 8.62725C6.97643 8.26234 6.97643 7.66856 7.34152 7.30366C7.52411 7.12116 7.76385 7.02997 8.00369 7.02997C8.24347 7.02997 8.48327 7.12122 8.66583 7.30363C9.03092 7.66853 9.03092 8.26231 8.66583 8.62722ZM4.69098 5.31747L6.38845 7.01409C6.04381 7.59888 6.04381 8.33197 6.38845 8.91678L4.69098 10.6134C3.45515 9.07119 3.45515 6.85969 4.69098 5.31747ZM5.35438 11.2765L7.05159 9.58009C7.33698 9.74884 7.66333 9.83912 8.00366 9.83912C8.34395 9.83912 8.6703 9.74887 8.95569 9.58012L10.6529 11.2765C9.10996 12.5117 6.89739 12.5117 5.35438 11.2765ZM11.3166 10.6136L9.61887 8.91675C9.96351 8.33197 9.96354 7.59888 9.61887 7.01406L11.3166 5.31722C11.9184 6.06644 12.2455 6.99072 12.2455 7.96537C12.2455 8.94009 11.9184 9.86438 11.3166 10.6136ZM14.917 14.9086C14.7246 15.101 14.4115 15.101 14.219 14.9086C14.0266 14.7163 14.0266 14.4033 14.219 14.2109C14.3152 14.1147 14.4416 14.0667 14.568 14.0667C14.6944 14.0667 14.8208 14.1148 14.917 14.2109C15.0102 14.3041 15.0616 14.428 15.0616 14.5598C15.0616 14.6915 15.0102 14.8154 14.917 14.9086Z" stroke="black" stroke-width="2" mask="url(#path-1-inside-1)"/>
</svg>
