<svg width="14" height="10" viewBox="0 0 14 10" fill="none" xmlns="http://www.w3.org/2000/svg">
<path d="M12 1C12 0.447715 12.4477 -2.41411e-08 13 0C13.5523 2.41411e-08 14 0.447716 14 1V9C14 9.55229 13.5523 10 13 10C12.4477 10 12 9.55228 12 9V1Z" fill="black"/>
<path d="M7.70711 1.29289L11.4142 5L7.70711 8.70711C7.31658 9.09763 6.68342 9.09763 6.2929 8.70711C5.90237 8.31658 5.90237 7.68342 6.2929 7.29289L7.58579 6L1 6C0.447715 6 -2.41398e-08 5.55228 0 5C-9.29532e-07 4.44772 0.447714 4 0.999999 4L7.58579 4L6.29289 2.70711C5.90237 2.31658 5.90237 1.68342 6.29289 1.29289C6.68342 0.902368 7.31658 0.902368 7.70711 1.29289Z" fill="black"/>
</svg>
