<svg width="16" height="16" viewBox="0 0 16 16" fill="none" xmlns="http://www.w3.org/2000/svg">
<path d="M4 13C3.44771 13 3 13.4477 3 14C3 14.5523 3.44771 15 4 15L12 15C12.5523 15 13 14.5523 13 14C13 13.4477 12.5523 13 12 13L4 13Z" fill="black"/>
<path d="M4.29289 8.70711L8 12.4142L11.7071 8.70711C12.0976 8.31658 12.0976 7.68342 11.7071 7.2929C11.3166 6.90237 10.6834 6.90237 10.2929 7.2929L9 8.58579L9 2C9 1.44772 8.55228 1 8 1C7.44772 0.999999 7 1.44771 7 2L7 8.58579L5.70711 7.29289C5.31658 6.90237 4.68342 6.90237 4.29289 7.29289C3.90237 7.68342 3.90237 8.31658 4.29289 8.70711Z" fill="black"/>
</svg>
