<svg width="10" height="14" viewBox="0 0 10 14" fill="none" xmlns="http://www.w3.org/2000/svg">
<path d="M0.999999 12C0.447715 12 -5.68248e-07 12.4477 -5.68248e-07 13C-5.68248e-07 13.5523 0.447715 14 1 14L9 14C9.55228 14 10 13.5523 10 13C10 12.4477 9.55228 12 9 12L0.999999 12Z" fill="black"/>
<path d="M1.29289 7.70711L5 11.4142L8.70711 7.70711C9.09763 7.31658 9.09763 6.68342 8.70711 6.2929C8.31658 5.90237 7.68342 5.90237 7.29289 6.2929L6 7.58579L6 1C6 0.447715 5.55228 2.18558e-07 5 2.18558e-07C4.44772 -7.35116e-07 4 0.447714 4 0.999999L4 7.58579L2.70711 6.29289C2.31658 5.90237 1.68342 5.90237 1.29289 6.29289C0.902368 6.68342 0.902368 7.31658 1.29289 7.70711Z" fill="black"/>
</svg>
