<svg width="16" height="16" viewBox="0 0 16 16" fill="none" xmlns="http://www.w3.org/2000/svg">
<path d="M13 4C13 3.44772 13.4477 3 14 3C14.5523 3 15 3.44772 15 4V12C15 12.5523 14.5523 13 14 13C13.4477 13 13 12.5523 13 12V4Z" fill="black"/>
<path d="M8.70711 4.29289L12.4142 8L8.70711 11.7071C8.31658 12.0976 7.68342 12.0976 7.2929 11.7071C6.90237 11.3166 6.90237 10.6834 7.2929 10.2929L8.58579 9L2 9C1.44771 9 1 8.55228 1 8C0.999999 7.44772 1.44771 7 2 7L8.58579 7L7.29289 5.70711C6.90237 5.31658 6.90237 4.68342 7.29289 4.29289C7.68342 3.90237 8.31658 3.90237 8.70711 4.29289Z" fill="black"/>
</svg>
