<svg width="16" height="16" viewBox="0 0 16 16" fill="none" xmlns="http://www.w3.org/2000/svg">
<path d="M4 3C3.44771 3 3 2.55229 3 2C3 1.44772 3.44771 1 4 1L12 1C12.5523 1 13 1.44772 13 2C13 2.55229 12.5523 3 12 3L4 3Z" fill="black"/>
<path d="M4.29289 7.29289L8 3.58578L11.7071 7.29289C12.0976 7.68342 12.0976 8.31658 11.7071 8.7071C11.3166 9.09763 10.6834 9.09763 10.2929 8.7071L9 7.41421L9 14C9 14.5523 8.55228 15 8 15C7.44772 15 7 14.5523 7 14L7 7.41421L5.70711 8.70711C5.31658 9.09763 4.68342 9.09763 4.29289 8.70711C3.90237 8.31658 3.90237 7.68342 4.29289 7.29289Z" fill="black"/>
</svg>
