<svg width="14" height="10" viewBox="0 0 14 10" fill="none" xmlns="http://www.w3.org/2000/svg">
<path d="M2 1C2 0.447715 1.55228 -2.41411e-08 1 0C0.447715 2.41411e-08 -2.41411e-08 0.447716 0 1L3.49691e-07 9C3.73832e-07 9.55229 0.447716 10 1 10C1.55229 10 2 9.55228 2 9L2 1Z" fill="black"/>
<path d="M6.29289 1.29289L2.58578 5L6.29289 8.70711C6.68342 9.09763 7.31658 9.09763 7.7071 8.70711C8.09763 8.31658 8.09763 7.68342 7.7071 7.29289L6.41421 6L13 6C13.5523 6 14 5.55228 14 5C14 4.44772 13.5523 4 13 4L6.41421 4L7.7071 2.70711C8.09763 2.31658 8.09763 1.68342 7.7071 1.29289C7.31658 0.902368 6.68342 0.902368 6.29289 1.29289Z" fill="black"/>
</svg>
