<svg width="16" height="16" viewBox="0 0 16 16" fill="none" xmlns="http://www.w3.org/2000/svg">
<g clip-path="url(#clip0)">
<mask id="path-1-inside-1" fill="white">
<path d="M15.4767 12.3365C15.8239 11.6042 15.9999 10.8188 15.9999 9.99929C15.9999 7.07405 13.6779 4.67801 10.7704 4.53732C10.1152 2.17707 7.9628 0.530762 5.50011 0.530762C2.46746 0.530762 0.00024082 2.98399 0.00024082 5.99938C0.00024082 6.81886 0.176174 7.60431 0.523416 8.33664L0.00933436 10.9074C-0.0561016 11.2346 0.232579 11.5238 0.559884 11.4591L3.16229 10.9446C3.81421 11.2538 4.5077 11.4266 5.23006 11.4611C6.14091 14.7407 9.79923 16.3858 12.8378 14.9445C15.6879 15.508 15.4656 15.4679 15.5311 15.4679C15.8273 15.4679 16.0486 15.1965 15.9907 14.9073L15.4767 12.3365ZM3.44041 10.0366C3.34663 9.98867 3.23938 9.9737 3.13614 9.99413L1.06618 10.4034L1.47396 8.36439C1.49467 8.2608 1.4798 8.15318 1.43164 8.05909C1.10393 7.41798 0.937719 6.72502 0.937719 5.99938C0.937719 3.50091 2.98439 1.46824 5.50011 1.46824C7.46616 1.46824 9.19749 2.74665 9.80254 4.57495C6.9368 4.94135 4.77844 7.52713 5.05534 10.5089C4.49051 10.4546 3.9494 10.2968 3.44041 10.0366ZM14.5262 12.3643L14.934 14.4033L12.864 13.994C12.7607 13.9736 12.6535 13.9886 12.5597 14.0365C11.9186 14.3642 11.2257 14.5304 10.5 14.5304C8.00155 14.5304 5.96888 12.4978 5.96888 9.99929C5.96888 7.50082 8.00155 5.46815 10.5 5.46815C13.0157 5.46815 15.0624 7.50082 15.0624 9.99929C15.0624 10.7249 14.8962 11.4179 14.5685 12.059C14.5203 12.1531 14.5055 12.2607 14.5262 12.3643Z"/>
</mask>
<path d="M15.4767 12.3365L14.5731 11.9081L14.4311 12.2076L14.4961 12.5326L15.4767 12.3365ZM10.7704 4.53732L9.80684 4.80482L10.0002 5.50123L10.7221 5.53616L10.7704 4.53732ZM0.523416 8.33664L1.504 8.53273L1.569 8.2077L1.42699 7.9082L0.523416 8.33664ZM0.00933436 10.9074L-0.971251 10.7113L-0.971254 10.7113L0.00933436 10.9074ZM0.559884 11.4591L0.365929 10.4781L0.365822 10.4781L0.559884 11.4591ZM3.16229 10.9446L3.59087 10.0411L3.29241 9.8995L2.96834 9.96357L3.16229 10.9446ZM5.23006 11.4611L6.19359 11.1935L6.00006 10.4967L5.27772 10.4622L5.23006 11.4611ZM12.8378 14.9445L13.0317 13.9635L12.7076 13.8994L12.4092 14.041L12.8378 14.9445ZM15.9907 14.9073L15.0102 15.1034L15.0102 15.1034L15.9907 14.9073ZM3.13614 9.99413L3.3301 10.9751L3.33031 10.9751L3.13614 9.99413ZM1.06618 10.4034L0.085601 10.2073L-0.207849 11.6747L1.26015 11.3844L1.06618 10.4034ZM1.47396 8.36439L0.493376 8.16827L0.493373 8.16829L1.47396 8.36439ZM1.43164 8.05909L0.541228 8.51423L0.541455 8.51468L1.43164 8.05909ZM9.80254 4.57495L9.92936 5.56687L11.1332 5.41296L10.7519 4.26077L9.80254 4.57495ZM5.05534 10.5089L4.95968 11.5043L6.16282 11.6199L6.05106 10.4164L5.05534 10.5089ZM14.934 14.4033L14.74 15.3843L16.208 15.6746L15.9145 14.2072L14.934 14.4033ZM12.864 13.994L13.058 13.013L13.0578 13.013L12.864 13.994ZM12.5597 14.0365L13.0149 14.9269L12.5597 14.0365ZM14.5685 12.059L15.4587 12.5146L15.4589 12.5142L14.5685 12.059ZM16.3803 12.765C16.7917 11.8974 16.9999 10.9654 16.9999 9.99929H14.9999C14.9999 10.6721 14.8562 11.3111 14.5731 11.9081L16.3803 12.765ZM16.9999 9.99929C16.9999 6.53268 14.2512 3.70458 10.8187 3.53849L10.7221 5.53616C13.1046 5.65144 14.9999 7.61541 14.9999 9.99929H16.9999ZM11.734 4.26983C10.9589 1.47807 8.41352 -0.469238 5.50011 -0.469238V1.53076C7.51209 1.53076 9.27139 2.87606 9.80684 4.80482L11.734 4.26983ZM5.50011 -0.469238C1.92056 -0.469238 -0.999759 2.42634 -0.999759 5.99938H1.00024C1.00024 3.54163 3.01437 1.53076 5.50011 1.53076V-0.469238ZM-0.999759 5.99938C-0.999759 6.9655 -0.791552 7.89745 -0.380154 8.76508L1.42699 7.9082C1.1439 7.31118 1.00024 6.67223 1.00024 5.99938H-0.999759ZM-0.457169 8.14055L-0.971251 10.7113L0.98992 11.1035L1.504 8.53273L-0.457169 8.14055ZM-0.971254 10.7113C-1.17642 11.7373 -0.272506 12.6431 0.753946 12.4401L0.365822 10.4781C0.737664 10.4046 1.06422 10.7319 0.989922 11.1034L-0.971254 10.7113ZM0.753839 12.4401L3.35625 11.9256L2.96834 9.96357L0.365929 10.4781L0.753839 12.4401ZM2.73371 11.8481C3.50586 12.2144 4.3289 12.4192 5.18239 12.46L5.27772 10.4622C4.68649 10.434 4.12257 10.2933 3.59087 10.0411L2.73371 11.8481ZM4.26653 11.7287C5.34421 15.609 9.66943 17.5541 13.2663 15.848L12.4092 14.041C9.92902 15.2174 6.93761 13.8724 6.19359 11.1935L4.26653 11.7287ZM12.6438 15.9255C14.0664 16.2067 14.7266 16.3383 15.0367 16.3989C15.1826 16.4274 15.2738 16.4449 15.3318 16.4538C15.3622 16.4585 15.4298 16.4685 15.5126 16.4685C15.5511 16.4686 15.5852 16.4662 15.5798 16.4665C15.5746 16.4668 15.5554 16.4679 15.5311 16.4679V14.4679C15.4986 14.4679 15.4735 14.4693 15.463 14.4699C15.4522 14.4706 15.4816 14.4685 15.5144 14.4685C15.5508 14.4686 15.5811 14.4708 15.6024 14.4729C15.6213 14.4748 15.6338 14.4767 15.6351 14.4769C15.6363 14.4771 15.6251 14.4754 15.5861 14.468C15.5497 14.4612 15.4973 14.4511 15.4207 14.4361C15.113 14.3759 14.4593 14.2457 13.0317 13.9635L12.6438 15.9255ZM15.5311 16.4679C16.4602 16.4679 17.1526 15.6174 16.9713 14.7112L15.0102 15.1034C14.9446 14.7756 15.1944 14.4679 15.5311 14.4679V16.4679ZM16.9713 14.7112L16.4573 12.1405L14.4961 12.5326L15.0102 15.1034L16.9713 14.7112ZM3.89556 9.14619C3.6018 8.99603 3.26583 8.94906 2.94196 9.01317L3.33031 10.9751C3.21294 10.9983 3.09146 10.9813 2.98526 10.927L3.89556 9.14619ZM2.94217 9.01313L0.872219 9.4224L1.26015 11.3844L3.3301 10.9751L2.94217 9.01313ZM2.04677 10.5995L2.45454 8.56049L0.493373 8.16829L0.085601 10.2073L2.04677 10.5995ZM2.45454 8.56051C2.51944 8.23599 2.4729 7.89867 2.32183 7.6035L0.541455 8.51468C0.4867 8.40769 0.469908 8.28561 0.493376 8.16827L2.45454 8.56051ZM2.32206 7.60394C2.06693 7.10483 1.93772 6.568 1.93772 5.99938H-0.0622812C-0.0622812 6.88204 0.140934 7.73113 0.541228 8.51423L2.32206 7.60394ZM1.93772 5.99938C1.93772 4.05966 3.53019 2.46824 5.50011 2.46824V0.46824C2.43859 0.46824 -0.0622812 2.94216 -0.0622812 5.99938H1.93772ZM5.50011 2.46824C7.03024 2.46824 8.38213 3.46574 8.85318 4.88913L10.7519 4.26077C10.0129 2.02755 7.90208 0.46824 5.50011 0.46824V2.46824ZM9.67572 3.58302C6.28585 4.01643 3.73194 7.07273 4.05963 10.6014L6.05106 10.4164C5.82494 7.98152 7.58774 5.86626 9.92936 5.56687L9.67572 3.58302ZM5.151 9.51349C4.71174 9.47128 4.2926 9.34917 3.89561 9.14621L2.98521 10.927C3.6062 11.2445 4.26928 11.438 4.95968 11.5043L5.151 9.51349ZM13.5456 12.5604L13.9534 14.5994L15.9145 14.2072L15.5068 12.1682L13.5456 12.5604ZM15.1279 13.4223L13.058 13.013L12.67 14.975L14.74 15.3843L15.1279 13.4223ZM13.0578 13.013C12.7343 12.9491 12.3985 12.9958 12.1046 13.1461L13.0149 14.9269C12.9085 14.9813 12.7871 14.9982 12.6702 14.9751L13.0578 13.013ZM12.1046 13.1461C11.6055 13.4012 11.0686 13.5304 10.5 13.5304V15.5304C11.3827 15.5304 12.2318 15.3272 13.0149 14.9269L12.1046 13.1461ZM10.5 13.5304C8.55384 13.5304 6.96888 11.9455 6.96888 9.99929H4.96888C4.96888 13.05 7.44927 15.5304 10.5 15.5304V13.5304ZM6.96888 9.99929C6.96888 8.0531 8.55384 6.46815 10.5 6.46815V4.46815C7.44927 4.46815 4.96888 6.94853 4.96888 9.99929H6.96888ZM10.5 6.46815C12.47 6.46815 14.0624 8.05957 14.0624 9.99929H16.0624C16.0624 6.94207 13.5615 4.46815 10.5 4.46815V6.46815ZM14.0624 9.99929C14.0624 10.5679 13.9332 11.1047 13.6781 11.6038L15.4589 12.5142C15.8592 11.731 16.0624 10.8819 16.0624 9.99929H14.0624ZM13.6783 11.6034C13.5272 11.8986 13.4807 12.2358 13.5456 12.5604L15.5068 12.1682C15.5302 12.2855 15.5134 12.4076 15.4587 12.5146L13.6783 11.6034Z" fill="black" mask="url(#path-1-inside-1)"/>
</g>
<defs>
<clipPath id="clip0">
<rect width="16" height="16" fill="white"/>
</clipPath>
</defs>
</svg>
