<svg width="16" height="16" viewBox="0 0 16 16" fill="none" xmlns="http://www.w3.org/2000/svg">
<path d="M15.4767 12.3365C15.8239 11.6042 15.9999 10.8188 15.9999 9.99929C15.9999 7.07405 13.6779 4.67801 10.7704 4.53732C10.1152 2.17707 7.9628 0.530762 5.50011 0.530762C2.46746 0.530762 0.000240817 2.98399 0.000240817 5.99938C0.000240817 6.81886 0.176174 7.60431 0.523416 8.33664L0.00933436 10.9074C-0.0561016 11.2346 0.232579 11.5238 0.559884 11.4591L3.16229 10.9446C3.81421 11.2538 4.5077 11.4266 5.23006 11.4611C6.14091 14.7407 9.79923 16.3858 12.8378 14.9445C15.6879 15.508 15.4656 15.4679 15.5311 15.4679C15.8273 15.4679 16.0486 15.1965 15.9907 14.9073L15.4767 12.3365ZM3.44041 10.0366C3.34663 9.98867 3.23938 9.9737 3.13614 9.99413L1.06618 10.4034L1.47396 8.36439C1.49467 8.2608 1.4798 8.15318 1.43164 8.05909C1.10393 7.41798 0.937719 6.72502 0.937719 5.99938C0.937719 3.50091 2.98439 1.46824 5.50011 1.46824C7.46616 1.46824 9.19749 2.74665 9.80254 4.57495C6.9368 4.94135 4.77844 7.52713 5.05534 10.5089C4.49051 10.4546 3.9494 10.2968 3.44041 10.0366ZM14.5262 12.3643L14.934 14.4033L12.864 13.994C12.7607 13.9736 12.6535 13.9886 12.5597 14.0365C11.9186 14.3642 11.2257 14.5304 10.5 14.5304C8.00155 14.5304 5.96888 12.4978 5.96888 9.99929C5.96888 7.50082 8.00155 5.46815 10.5 5.46815C13.0157 5.46815 15.0624 7.50082 15.0624 9.99929C15.0624 10.7249 14.8962 11.4179 14.5685 12.059C14.5203 12.1531 14.5055 12.2607 14.5262 12.3643Z" fill = "black"/>
</svg>