<svg width="16" height="16" viewBox="0 0 16 16" fill="none" xmlns="http://www.w3.org/2000/svg">
<mask id="path-1-inside-1" fill="white">
<path d="M15.4767 12.3365C15.8239 11.6042 15.9999 10.8188 15.9999 9.99929C15.9999 7.07405 13.6779 4.67801 10.7704 4.53732C10.1152 2.17707 7.9628 0.530762 5.50011 0.530762C2.46746 0.530762 0.000240817 2.98399 0.000240817 5.99938C0.000240817 6.81886 0.176174 7.60431 0.523416 8.33664L0.00933436 10.9074C-0.0561016 11.2346 0.232579 11.5238 0.559884 11.4591L3.16229 10.9446C3.81421 11.2538 4.5077 11.4266 5.23006 11.4611C6.14091 14.7407 9.79923 16.3858 12.8378 14.9445C15.6879 15.508 15.4656 15.4679 15.5311 15.4679C15.8273 15.4679 16.0486 15.1965 15.9907 14.9073L15.4767 12.3365ZM3.44041 10.0366C3.34663 9.98867 3.23938 9.9737 3.13614 9.99413L1.06618 10.4034L1.47396 8.36439C1.49467 8.2608 1.4798 8.15318 1.43164 8.05909C1.10393 7.41798 0.937719 6.72502 0.937719 5.99938C0.937719 3.50091 2.98439 1.46824 5.50011 1.46824C7.46616 1.46824 9.19749 2.74665 9.80254 4.57495C6.9368 4.94135 4.77844 7.52713 5.05534 10.5089C4.49051 10.4546 3.9494 10.2968 3.44041 10.0366ZM14.5262 12.3643L14.934 14.4033L12.864 13.994C12.7607 13.9736 12.6535 13.9886 12.5597 14.0365C11.9186 14.3642 11.2257 14.5304 10.5 14.5304C8.00155 14.5304 5.96888 12.4978 5.96888 9.99929C5.96888 7.50082 8.00155 5.46815 10.5 5.46815C13.0157 5.46815 15.0624 7.50082 15.0624 9.99929C15.0624 10.7249 14.8962 11.4179 14.5685 12.059C14.5203 12.1531 14.5055 12.2607 14.5262 12.3643Z"/>
</mask>
<path d="M15.4767 12.3365L14.5731 11.9081L14.4311 12.2076L14.4961 12.5326L15.4767 12.3365ZM10.7704 4.53732L9.80684 4.8048L10.0002 5.50122L10.7221 5.53615L10.7704 4.53732ZM0.523416 8.33664L1.504 8.53273L1.569 8.2077L1.42699 7.9082L0.523416 8.33664ZM0.00933436 10.9074L0.989917 11.1035L0.98992 11.1035L0.00933436 10.9074ZM0.559884 11.4591L0.753806 12.4401L0.753832 12.4401L0.559884 11.4591ZM3.16229 10.9446L3.59082 10.0411L3.29238 9.89953L2.96834 9.96359L3.16229 10.9446ZM5.23006 11.4611L6.19359 11.1935L6.00008 10.4967L5.27777 10.4622L5.23006 11.4611ZM12.8378 14.9445L13.0318 13.9635L12.7077 13.8994L12.4092 14.041L12.8378 14.9445ZM15.9907 14.9073L15.0101 15.1034L15.0102 15.1036L15.9907 14.9073ZM3.44041 10.0366L3.89559 9.1462L3.89551 9.14616L3.44041 10.0366ZM3.13614 9.99413L3.3301 10.9751L3.33026 10.9751L3.13614 9.99413ZM1.06618 10.4034L0.0855973 10.2073L-0.20786 11.6747L1.26014 11.3844L1.06618 10.4034ZM1.47396 8.36439L2.45454 8.5605L2.45456 8.56043L1.47396 8.36439ZM1.43164 8.05909L0.541223 8.51424L0.541472 8.51472L1.43164 8.05909ZM9.80254 4.57495L9.92936 5.56687L11.1332 5.41296L10.7519 4.26077L9.80254 4.57495ZM5.05534 10.5089L4.95965 11.5043L6.16282 11.62L6.05106 10.4164L5.05534 10.5089ZM14.5262 12.3643L13.5456 12.5602L13.5456 12.5604L14.5262 12.3643ZM14.934 14.4033L14.74 15.3843L16.2081 15.6746L15.9146 14.2072L14.934 14.4033ZM12.864 13.994L13.058 13.013L13.0577 13.0129L12.864 13.994ZM12.5597 14.0365L12.1049 13.1459L12.1046 13.1461L12.5597 14.0365ZM14.5685 12.059L15.4585 12.5149L15.4589 12.5141L14.5685 12.059ZM16.3803 12.7649C16.7916 11.8974 16.9999 10.9655 16.9999 9.99929H14.9999C14.9999 10.6721 14.8562 11.311 14.5731 11.9081L16.3803 12.7649ZM16.9999 9.99929C16.9999 6.53268 14.2512 3.70458 10.8187 3.53849L10.7221 5.53615C13.1046 5.65144 14.9999 7.61542 14.9999 9.99929H16.9999ZM11.734 4.26984C10.959 1.47807 8.4135 -0.469238 5.50011 -0.469238V1.53076C7.5121 1.53076 9.27143 2.87607 9.80684 4.8048L11.734 4.26984ZM5.50011 -0.469238C1.92055 -0.469238 -0.999759 2.42634 -0.999759 5.99938H1.00024C1.00024 3.54164 3.01437 1.53076 5.50011 1.53076V-0.469238ZM-0.999759 5.99938C-0.999759 6.9655 -0.791552 7.89745 -0.380155 8.76508L1.42699 7.9082C1.1439 7.31117 1.00024 6.67222 1.00024 5.99938H-0.999759ZM-0.45717 8.14055L-0.971251 10.7113L0.98992 11.1035L1.504 8.53273L-0.45717 8.14055ZM-0.971249 10.7113C-1.17649 11.7376 -0.272305 12.643 0.753806 12.4401L0.365962 10.4781C0.737463 10.4046 1.06428 10.7316 0.989917 11.1035L-0.971249 10.7113ZM0.753832 12.4401L3.35624 11.9256L2.96834 9.96359L0.365936 10.4781L0.753832 12.4401ZM2.73376 11.8481C3.50589 12.2143 4.3289 12.4192 5.18235 12.46L5.27777 10.4622C4.6865 10.434 4.12253 10.2933 3.59082 10.0411L2.73376 11.8481ZM4.26653 11.7287C5.34421 15.609 9.66942 17.5542 13.2664 15.848L12.4092 14.041C9.92904 15.2174 6.93761 13.8724 6.19359 11.1935L4.26653 11.7287ZM12.6438 15.9255C14.0664 16.2068 14.7266 16.3383 15.0367 16.3989C15.1826 16.4274 15.2738 16.4449 15.3319 16.4538C15.3623 16.4585 15.4299 16.4685 15.5128 16.4685C15.5512 16.4685 15.5853 16.4662 15.5798 16.4665C15.5746 16.4668 15.5554 16.4679 15.5311 16.4679V14.4679C15.4986 14.4679 15.4734 14.4693 15.4629 14.4699C15.4521 14.4706 15.4815 14.4685 15.5142 14.4685C15.5506 14.4685 15.5809 14.4707 15.6023 14.4729C15.6211 14.4748 15.6337 14.4767 15.635 14.4769C15.6362 14.4771 15.625 14.4753 15.586 14.468C15.5496 14.4612 15.4972 14.4511 15.4206 14.4361C15.113 14.3759 14.4593 14.2457 13.0318 13.9635L12.6438 15.9255ZM15.5311 16.4679C16.46 16.4679 17.1527 15.6175 16.9712 14.711L15.0102 15.1036C14.9445 14.7755 15.1946 14.4679 15.5311 14.4679V16.4679ZM16.9713 14.7112L16.4573 12.1404L14.4961 12.5326L15.0101 15.1034L16.9713 14.7112ZM3.89551 9.14616C3.6018 8.99605 3.26586 8.94907 2.94202 9.01315L3.33026 10.9751C3.2129 10.9983 3.09146 10.9813 2.98531 10.927L3.89551 9.14616ZM2.94218 9.01312L0.872216 9.42239L1.26014 11.3844L3.3301 10.9751L2.94218 9.01312ZM2.04676 10.5995L2.45454 8.5605L0.493377 8.16828L0.0855973 10.2073L2.04676 10.5995ZM2.45456 8.56043C2.51942 8.23599 2.47292 7.89867 2.32181 7.60346L0.541472 8.51472C0.486684 8.40768 0.469921 8.28561 0.493365 8.16835L2.45456 8.56043ZM2.32206 7.60394C2.06693 7.10484 1.93772 6.568 1.93772 5.99938H-0.062281C-0.062281 6.88204 0.140928 7.73112 0.541223 8.51424L2.32206 7.60394ZM1.93772 5.99938C1.93772 4.05966 3.53019 2.46824 5.50011 2.46824V0.46824C2.43859 0.46824 -0.062281 2.94216 -0.062281 5.99938H1.93772ZM5.50011 2.46824C7.03024 2.46824 8.38213 3.46574 8.85318 4.88913L10.7519 4.26077C10.0129 2.02756 7.90208 0.46824 5.50011 0.46824V2.46824ZM9.67572 3.58302C6.28585 4.01644 3.73194 7.07273 4.05962 10.6014L6.05106 10.4164C5.82494 7.98153 7.58775 5.86626 9.92936 5.56687L9.67572 3.58302ZM5.15103 9.51349C4.71174 9.47126 4.29258 9.34915 3.89559 9.1462L2.98523 10.927C3.60622 11.2445 4.26928 11.4379 4.95965 11.5043L5.15103 9.51349ZM13.5456 12.5604L13.9534 14.5994L15.9146 14.2072L15.5068 12.1682L13.5456 12.5604ZM15.128 13.4223L13.058 13.013L12.67 14.975L14.74 15.3843L15.128 13.4223ZM13.0577 13.0129C12.7339 12.949 12.3983 12.9961 12.1049 13.1459L13.0145 14.9271C12.9087 14.9811 12.7875 14.9982 12.6703 14.9751L13.0577 13.0129ZM12.1046 13.1461C11.6055 13.4012 11.0687 13.5304 10.5 13.5304V15.5304C11.3827 15.5304 12.2317 15.3272 13.0148 14.9269L12.1046 13.1461ZM10.5 13.5304C8.55382 13.5304 6.96888 11.9455 6.96888 9.99929H4.96888C4.96888 13.0501 7.44928 15.5304 10.5 15.5304V13.5304ZM6.96888 9.99929C6.96888 8.0531 8.55384 6.46815 10.5 6.46815V4.46815C7.44926 4.46815 4.96888 6.94854 4.96888 9.99929H6.96888ZM10.5 6.46815C12.4699 6.46815 14.0624 8.05958 14.0624 9.99929H16.0624C16.0624 6.94206 13.5615 4.46815 10.5 4.46815V6.46815ZM14.0624 9.99929C14.0624 10.5679 13.9332 11.1048 13.6781 11.6039L15.4589 12.5141C15.8592 11.731 16.0624 10.8819 16.0624 9.99929H14.0624ZM13.6785 11.6031C13.527 11.8989 13.4809 12.2363 13.5456 12.5602L15.5068 12.1684C15.5301 12.2851 15.5136 12.4073 15.4585 12.5149L13.6785 11.6031Z" fill="black" mask="url(#path-1-inside-1)"/>
</svg>
