<svg width="14" height="16" viewBox="0 0 14 16" fill="none" xmlns="http://www.w3.org/2000/svg">
<path d="M13.5268 3.0125H10.9831V0.46875C10.9831 0.209875 10.7732 0 10.5143 0H0.472656C0.213781 0 0.00390625 0.209875 0.00390625 0.46875V12.5188C0.00390625 12.7777 0.213781 12.9875 0.472656 12.9875H3.01641V15.5312C3.01641 15.7901 3.22628 16 3.48516 16H13.5268C13.7857 16 13.9956 15.7901 13.9956 15.5312V3.48125C13.9956 3.22237 13.7857 3.0125 13.5268 3.0125ZM0.941406 12.05V0.9375H10.0456V3.47341C10.0455 3.47603 10.0452 3.47859 10.0452 3.48125C10.0452 3.48391 10.0455 3.48647 10.0456 3.48913V12.05H0.941406ZM13.0581 15.0625H3.95391V12.9875H10.5143C10.7732 12.9875 10.9831 12.7777 10.9831 12.5188V3.95H13.0581V15.0625Z" fill="black"/>
</svg>
