<svg width="16" height="16" viewBox="0 0 16 16" fill="none" xmlns="http://www.w3.org/2000/svg">
<g clip-path="url(#clip0)">
<mask id="path-1-inside-1" fill="white">
<path d="M10.2067 5.79688C9.99977 5.79688 9.83203 5.96462 9.83203 6.17158V13.2536C9.83203 13.4604 9.99977 13.6283 10.2067 13.6283C10.4137 13.6283 10.5814 13.4604 10.5814 13.2536V6.17158C10.5814 5.96462 10.4137 5.79688 10.2067 5.79688Z"/>
</mask>
<path d="M10.2067 4.79688C9.44749 4.79688 8.83203 5.41233 8.83203 6.17158H10.832C10.832 6.5169 10.5521 6.79688 10.2067 6.79688V4.79688ZM8.83203 6.17158V13.2536H10.832V6.17158H8.83203ZM8.83203 13.2536C8.83203 14.0124 9.44723 14.6283 10.2067 14.6283V12.6283C10.5523 12.6283 10.832 12.9083 10.832 13.2536H8.83203ZM10.2067 14.6283C10.9662 14.6283 11.5814 14.0124 11.5814 13.2536H9.58145C9.58145 12.9083 9.86117 12.6283 10.2067 12.6283V14.6283ZM11.5814 13.2536V6.17158H9.58145V13.2536H11.5814ZM11.5814 6.17158C11.5814 5.41233 10.966 4.79688 10.2067 4.79688V6.79688C9.86142 6.79688 9.58145 6.5169 9.58145 6.17158H11.5814Z" fill="black" mask="url(#path-1-inside-1)"/>
<mask id="path-3-inside-2" fill="white">
<path d="M5.78486 5.79688C5.5779 5.79688 5.41016 5.96462 5.41016 6.17158V13.2536C5.41016 13.4604 5.5779 13.6283 5.78486 13.6283C5.99183 13.6283 6.15957 13.4604 6.15957 13.2536V6.17158C6.15957 5.96462 5.99183 5.79688 5.78486 5.79688Z"/>
</mask>
<path d="M5.78486 4.79688C5.02561 4.79688 4.41016 5.41233 4.41016 6.17158H6.41016C6.41016 6.5169 6.13018 6.79688 5.78486 6.79688V4.79688ZM4.41016 6.17158V13.2536H6.41016V6.17158H4.41016ZM4.41016 13.2536C4.41016 14.0124 5.02536 14.6283 5.78486 14.6283V12.6283C6.13043 12.6283 6.41016 12.9083 6.41016 13.2536H4.41016ZM5.78486 14.6283C6.54437 14.6283 7.15957 14.0124 7.15957 13.2536H5.15957C5.15957 12.9083 5.43929 12.6283 5.78486 12.6283V14.6283ZM7.15957 13.2536V6.17158H5.15957V13.2536H7.15957ZM7.15957 6.17158C7.15957 5.41233 6.54412 4.79688 5.78486 4.79688V6.79688C5.43955 6.79688 5.15957 6.5169 5.15957 6.17158H7.15957Z" fill="black" mask="url(#path-3-inside-2)"/>
<mask id="path-5-inside-3" fill="white">
<path d="M2.56227 4.76335V13.9953C2.56227 14.541 2.76236 15.0534 3.11189 15.4211C3.45981 15.7898 3.944 15.9991 4.45073 16H11.5403C12.0472 15.9991 12.5314 15.7898 12.8791 15.4211C13.2287 15.0534 13.4287 14.541 13.4287 13.9953V4.76335C14.1236 4.57893 14.5738 3.90768 14.4809 3.19471C14.3878 2.48189 13.7805 1.94867 13.0615 1.94852H11.143V1.48014C11.1452 1.08626 10.9895 0.708039 10.7107 0.42979C10.4318 0.151688 10.053 -0.0031709 9.65915 4.92333e-05H6.33187C5.93799 -0.0031709 5.55919 0.151688 5.28036 0.42979C5.00152 0.708039 4.84578 1.08626 4.84798 1.48014V1.94852H2.92951C2.21055 1.94867 1.60326 2.48189 1.51017 3.19471C1.41722 3.90768 1.86746 4.57893 2.56227 4.76335ZM11.5403 15.2506H4.45073C3.81007 15.2506 3.31169 14.7002 3.31169 13.9953V4.79629H12.6793V13.9953C12.6793 14.7002 12.1809 15.2506 11.5403 15.2506ZM5.59739 1.48014C5.5949 1.28503 5.6716 1.09724 5.81007 0.959502C5.94839 0.821768 6.13662 0.746095 6.33187 0.749461H9.65915C9.8544 0.746095 10.0426 0.821768 10.181 0.959502C10.3194 1.09709 10.3961 1.28503 10.3936 1.48014V1.94852H5.59739V1.48014ZM2.92951 2.69793H13.0615C13.434 2.69793 13.736 2.99989 13.736 3.3724C13.736 3.74492 13.434 4.04688 13.0615 4.04688H2.92951C2.557 4.04688 2.25504 3.74492 2.25504 3.3724C2.25504 2.99989 2.557 2.69793 2.92951 2.69793Z"/>
</mask>
<path d="M3.11189 15.4211L3.83921 14.7348L3.83666 14.7321L3.11189 15.4211ZM4.45073 16L4.449 17H4.45073V16ZM11.5403 16V17L11.542 17L11.5403 16ZM12.8791 15.4211L12.1544 14.7321L12.1517 14.735L12.8791 15.4211ZM13.4287 4.76335L13.1722 3.79682L12.4287 3.99416V4.76335H13.4287ZM14.4809 3.19471L15.4725 3.06544L15.4724 3.06522L14.4809 3.19471ZM13.0615 1.94852L13.0617 0.948521H13.0615V1.94852ZM11.143 1.94852H10.143V2.94852H11.143V1.94852ZM11.143 1.48014L10.143 1.47456V1.48014H11.143ZM10.7107 0.42979L11.417 -0.278059L11.4168 -0.278245L10.7107 0.42979ZM9.65915 4.92333e-05V1.00008L9.66732 1.00002L9.65915 4.92333e-05ZM6.33187 4.92333e-05L6.3237 1.00005H6.33187V4.92333e-05ZM5.28036 0.42979L4.57418 -0.278245L4.57399 -0.278059L5.28036 0.42979ZM4.84798 1.48014H5.848L5.84796 1.47456L4.84798 1.48014ZM4.84798 1.94852V2.94852H5.84798V1.94852H4.84798ZM2.92951 1.94852V0.948521L2.92931 0.948521L2.92951 1.94852ZM1.51017 3.19471L0.518589 3.06522L0.518559 3.06544L1.51017 3.19471ZM3.31169 4.79629V3.79629H2.31169V4.79629H3.31169ZM12.6793 4.79629H13.6793V3.79629H12.6793V4.79629ZM5.59739 1.48014H6.59747L6.59731 1.46739L5.59739 1.48014ZM5.81007 0.959502L6.5153 1.66848L6.51567 1.66811L5.81007 0.959502ZM6.33187 0.749461L6.31464 1.74931L6.32325 1.74946H6.33187V0.749461ZM9.65915 0.749461V1.74946H9.66777L9.67639 1.74931L9.65915 0.749461ZM10.181 0.959502L9.47535 1.66811L9.4761 1.66885L10.181 0.959502ZM10.3936 1.48014L9.39363 1.46739V1.48014H10.3936ZM10.3936 1.94852V2.94852H11.3936V1.94852H10.3936ZM5.59739 1.94852H4.59739V2.94852H5.59739V1.94852ZM1.56227 4.76335V13.9953H3.56227V4.76335H1.56227ZM1.56227 13.9953C1.56227 14.7815 1.85019 15.5453 2.38712 16.1101L3.83666 14.7321C3.67453 14.5616 3.56227 14.3005 3.56227 13.9953H1.56227ZM2.38458 16.1074C2.92099 16.6759 3.66756 16.9986 4.449 17L4.45247 15C4.22044 14.9996 3.99863 14.9038 3.8392 14.7348L2.38458 16.1074ZM4.45073 17H11.5403V15H4.45073V17ZM11.542 17C12.3235 16.9986 13.0702 16.6759 13.6066 16.1073L12.1517 14.735C11.9925 14.9037 11.7708 14.9996 11.5386 15L11.542 17ZM13.6039 16.1101C14.1408 15.5453 14.4287 14.7815 14.4287 13.9953H12.4287C12.4287 14.3005 12.3165 14.5616 12.1544 14.7321L13.6039 16.1101ZM14.4287 13.9953V4.76335H12.4287V13.9953H14.4287ZM13.6853 5.72989C14.8656 5.41659 15.6303 4.27634 15.4725 3.06544L13.4892 3.32398C13.5173 3.53902 13.3815 3.74127 13.1722 3.79682L13.6853 5.72989ZM15.4724 3.06522C15.3143 1.85441 14.2828 0.94877 13.0617 0.948521L13.0613 2.94852C13.2782 2.94857 13.4612 3.10937 13.4893 3.32421L15.4724 3.06522ZM13.0615 0.948521H11.143V2.94852H13.0615V0.948521ZM12.143 1.94852V1.48014H10.143V1.94852H12.143ZM12.143 1.48571C12.1467 0.824181 11.8851 0.189051 11.417 -0.278059L10.0043 1.13764C10.0939 1.22703 10.1438 1.34833 10.1431 1.47456L12.143 1.48571ZM11.4168 -0.278245C10.9486 -0.74527 10.3125 -1.00533 9.65097 -0.999917L9.66732 1.00002C9.79355 0.998984 9.91508 1.04865 10.0045 1.13783L11.4168 -0.278245ZM9.65915 -0.999951H6.33187V1.00005H9.65915V-0.999951ZM6.34005 -0.999917C5.67852 -1.00533 5.04243 -0.74527 4.57418 -0.278245L5.98653 1.13783C6.07595 1.04865 6.19747 0.998984 6.3237 1.00002L6.34005 -0.999917ZM4.57399 -0.278059C4.1059 0.189051 3.84431 0.824182 3.848 1.48571L5.84796 1.47456C5.84726 1.34833 5.89714 1.22703 5.98672 1.13764L4.57399 -0.278059ZM3.84798 1.48014V1.94852H5.84798V1.48014H3.84798ZM4.84798 0.948521H2.92951V2.94852H4.84798V0.948521ZM2.92931 0.948521C1.70826 0.94877 0.676714 1.85441 0.518589 3.06522L2.50175 3.32421C2.52981 3.10937 2.71284 2.94857 2.92972 2.94852L2.92931 0.948521ZM0.518559 3.06544C0.360703 4.27634 1.12538 5.41659 2.30573 5.72989L2.81882 3.79682C2.60953 3.74127 2.47375 3.53902 2.50178 3.32398L0.518559 3.06544ZM11.5403 14.2506H4.45073V16.2506H11.5403V14.2506ZM4.45073 14.2506C4.42993 14.2506 4.40883 14.2454 4.38172 14.2155C4.35175 14.1825 4.31169 14.1114 4.31169 13.9953H2.31169C2.31169 15.1583 3.16804 16.2506 4.45073 16.2506V14.2506ZM4.31169 13.9953V4.79629H2.31169V13.9953H4.31169ZM3.31169 5.79629H12.6793V3.79629H3.31169V5.79629ZM11.6793 4.79629V13.9953H13.6793V4.79629H11.6793ZM11.6793 13.9953C11.6793 14.1114 11.6393 14.1825 11.6093 14.2155C11.5822 14.2454 11.5611 14.2506 11.5403 14.2506V16.2506C12.823 16.2506 13.6793 15.1583 13.6793 13.9953H11.6793ZM6.59731 1.46739C6.59828 1.54301 6.56851 1.61555 6.5153 1.66848L5.10484 0.250524C4.7747 0.57892 4.59153 1.02704 4.59747 1.49289L6.59731 1.46739ZM6.51567 1.66811C6.46188 1.72167 6.38914 1.7506 6.31464 1.74931L6.34911 -0.25039C5.88409 -0.258408 5.43489 -0.0781363 5.10446 0.250897L6.51567 1.66811ZM6.33187 1.74946H9.65915V-0.250538H6.33187V1.74946ZM9.67639 1.74931C9.60188 1.7506 9.52914 1.72167 9.47535 1.66811L10.8866 0.250897C10.5561 -0.0781366 10.1069 -0.258408 9.64191 -0.25039L9.67639 1.74931ZM9.4761 1.66885C9.42231 1.61541 9.39275 1.54271 9.39371 1.46739L11.3935 1.49289C11.3995 1.02735 11.2165 0.578772 10.8858 0.250149L9.4761 1.66885ZM9.39363 1.48014V1.94852H11.3936V1.48014H9.39363ZM10.3936 0.948521H5.59739V2.94852H10.3936V0.948521ZM6.59739 1.94852V1.48014H4.59739V1.94852H6.59739ZM2.92951 3.69793H13.0615V1.69793H2.92951V3.69793ZM13.0615 3.69793C12.8817 3.69793 12.736 3.55218 12.736 3.3724H14.736C14.736 2.44761 13.9863 1.69793 13.0615 1.69793V3.69793ZM12.736 3.3724C12.736 3.19263 12.8817 3.04688 13.0615 3.04688V5.04688C13.9863 5.04688 14.736 4.2972 14.736 3.3724H12.736ZM13.0615 3.04688H2.92951V5.04688H13.0615V3.04688ZM2.92951 3.04688C3.10929 3.04688 3.25504 3.19263 3.25504 3.3724H1.25504C1.25504 4.2972 2.00472 5.04688 2.92951 5.04688V3.04688ZM3.25504 3.3724C3.25504 3.55218 3.10929 3.69793 2.92951 3.69793V1.69793C2.00472 1.69793 1.25504 2.44761 1.25504 3.3724H3.25504Z" fill="black" mask="url(#path-5-inside-3)"/>
<mask id="path-7-inside-4" fill="white">
<path d="M7.9958 5.79688C7.78883 5.79688 7.62109 5.96462 7.62109 6.17158V13.2536C7.62109 13.4604 7.78883 13.6283 7.9958 13.6283C8.20276 13.6283 8.3705 13.4604 8.3705 13.2536V6.17158C8.3705 5.96462 8.20276 5.79688 7.9958 5.79688Z"/>
</mask>
<path d="M7.9958 4.79688C7.23653 4.79688 6.62109 5.41234 6.62109 6.17158H8.62109C8.62109 6.51689 8.34113 6.79688 7.9958 6.79688V4.79688ZM6.62109 6.17158V13.2536H8.62109V6.17158H6.62109ZM6.62109 13.2536C6.62109 14.0124 7.23628 14.6283 7.9958 14.6283V12.6283C8.34138 12.6283 8.62109 12.9084 8.62109 13.2536H6.62109ZM7.9958 14.6283C8.75531 14.6283 9.3705 14.0124 9.3705 13.2536H7.3705C7.3705 12.9084 7.65021 12.6283 7.9958 12.6283V14.6283ZM9.3705 13.2536V6.17158H7.3705V13.2536H9.3705ZM9.3705 6.17158C9.3705 5.41234 8.75506 4.79688 7.9958 4.79688V6.79688C7.65046 6.79688 7.3705 6.51689 7.3705 6.17158H9.3705Z" fill="black" mask="url(#path-7-inside-4)"/>
</g>
<defs>
<clipPath id="clip0">
<rect width="16" height="16" fill="white"/>
</clipPath>
</defs>
</svg>
