<svg width="16" height="16" viewBox="0 0 16 16" fill="none" xmlns="http://www.w3.org/2000/svg">
<path fill-rule="evenodd" clip-rule="evenodd" d="M1.44391 2.31575C1.18618 2.77354 1.03906 3.30256 1.03906 3.86612C1.03906 5.60715 2.44313 7.01853 4.17513 7.01853C4.73577 7.01853 5.26204 6.87065 5.71746 6.61158L4.80172 5.69106C4.60534 5.75917 4.39453 5.79617 4.17513 5.79617C3.11472 5.79617 2.25509 4.93205 2.25509 3.86612C2.25509 3.64557 2.29189 3.43367 2.35965 3.23627L1.44391 2.31575ZM5.77217 4.93789C5.9762 4.6313 6.09517 4.26267 6.09517 3.86612C6.09517 2.80018 5.23554 1.93607 4.17513 1.93607C3.78063 1.93607 3.41392 2.05567 3.10892 2.26076L2.23885 1.38616C2.77203 0.964935 3.44439 0.713705 4.17513 0.713705C5.90713 0.713705 7.3112 2.12509 7.3112 3.86612C7.3112 4.60067 7.06127 5.27653 6.64223 5.81249L5.77217 4.93789ZM9.12407 10.0359C8.86634 10.4937 8.71923 11.0228 8.71923 11.5863C8.71923 13.3273 10.1233 14.7387 11.8553 14.7387C12.4159 14.7387 12.9422 14.5908 13.3976 14.3318L12.4819 13.4113C12.2855 13.4794 12.0747 13.5164 11.8553 13.5164C10.7949 13.5164 9.93526 12.6522 9.93526 11.5863C9.93526 11.3658 9.97206 11.1539 10.0398 10.9565L9.12407 10.0359ZM10.7891 9.98095L9.91902 9.10635C10.4522 8.68513 11.1246 8.4339 11.8553 8.4339C13.5873 8.4339 14.9914 9.84528 14.9914 11.5863C14.9914 12.3209 14.7414 12.9967 14.3224 13.5327L13.4523 12.6581C13.6564 12.3515 13.7753 11.9829 13.7753 11.5863C13.7753 10.5204 12.9157 9.65626 11.8553 9.65626C11.4608 9.65626 11.0941 9.77586 10.7891 9.98095ZM7.3112 14.7387V8.4339H1.03906V14.7387H7.3112ZM12.1075 0.339844L8.21554 4.25213L12.1075 8.16441L15.9995 4.25213L12.1075 0.339844ZM12.1075 2.06853L9.93526 4.25213L12.1075 6.43573L14.2798 4.25213L12.1075 2.06853ZM6.09517 13.5164V9.65626H2.25509V13.5164H6.09517Z" fill="#1C0732"/>
<path d="M0.295824 0.296019C0.459285 0.132532 0.724308 0.132532 0.88777 0.29602L15.7014 15.1119C15.8648 15.2754 15.8648 15.5405 15.7014 15.704C15.5379 15.8675 15.2729 15.8675 15.1094 15.704L0.295824 0.888059C0.132363 0.724572 0.132363 0.459507 0.295824 0.296019Z" fill="#1C0732"/>
</svg>
