<svg width="16" height="16" viewBox="0 0 16 16" fill="none" xmlns="http://www.w3.org/2000/svg">
<g clip-path="url(#clip0)">
<mask id="path-1-inside-1" fill="white">
<path d="M13.9564 3.88725L10.2065 0.137344C10.119 0.0497812 9.9995 0 9.875 0H3.3125C2.53709 0 1.90625 0.630844 1.90625 1.40625V14.5938C1.90625 15.3692 2.53709 16 3.3125 16H12.6875C13.4629 16 14.0938 15.3692 14.0938 14.5938V4.21875C14.0938 4.09094 14.0401 3.97091 13.9564 3.88725ZM10.3438 1.60041L12.4933 3.75H10.8125C10.554 3.75 10.3438 3.53972 10.3438 3.28125V1.60041ZM12.6875 15.0625H3.3125C3.05403 15.0625 2.84375 14.8522 2.84375 14.5938V1.40625C2.84375 1.14778 3.05403 0.9375 3.3125 0.9375H9.40625V3.28125C9.40625 4.05666 10.0371 4.6875 10.8125 4.6875H13.1562V14.5938C13.1562 14.8522 12.946 15.0625 12.6875 15.0625Z"/>
</mask>
<path d="M13.9564 3.88725L13.2493 4.59436L13.2494 4.59449L13.9564 3.88725ZM10.2065 0.137344L9.49927 0.844324L9.49939 0.844451L10.2065 0.137344ZM10.3438 1.60041L11.0509 0.8933L9.34375 -0.813808V1.60041H10.3438ZM12.4933 3.75V4.75H14.9076L13.2004 3.04289L12.4933 3.75ZM9.40625 0.9375H10.4062V-0.0625H9.40625V0.9375ZM13.1562 4.6875H14.1562V3.6875H13.1562V4.6875ZM14.6635 3.18014L10.9136 -0.569763L9.49939 0.844451L13.2493 4.59436L14.6635 3.18014ZM10.9137 -0.569637C10.6392 -0.844271 10.2655 -1 9.875 -1V1C9.73346 1 9.59874 0.943833 9.49927 0.844324L10.9137 -0.569637ZM9.875 -1H3.3125V1H9.875V-1ZM3.3125 -1C1.98481 -1 0.90625 0.078559 0.90625 1.40625H2.90625C2.90625 1.18313 3.08938 1 3.3125 1V-1ZM0.90625 1.40625V14.5938H2.90625V1.40625H0.90625ZM0.90625 14.5938C0.90625 15.9214 1.98481 17 3.3125 17V15C3.08938 15 2.90625 14.8169 2.90625 14.5938H0.90625ZM3.3125 17H12.6875V15H3.3125V17ZM12.6875 17C14.0152 17 15.0938 15.9214 15.0938 14.5938H13.0938C13.0938 14.8169 12.9106 15 12.6875 15V17ZM15.0938 14.5938V4.21875H13.0938V14.5938H15.0938ZM15.0938 4.21875C15.0938 3.81509 14.9271 3.44361 14.6634 3.18001L13.2494 4.59449C13.1531 4.4982 13.0938 4.36678 13.0938 4.21875H15.0938ZM9.63664 2.30751L11.7862 4.45711L13.2004 3.04289L11.0509 0.8933L9.63664 2.30751ZM12.4933 2.75H10.8125V4.75H12.4933V2.75ZM10.8125 2.75C11.1063 2.75 11.3438 2.98743 11.3438 3.28125H9.34375C9.34375 4.092 10.0017 4.75 10.8125 4.75V2.75ZM11.3438 3.28125V1.60041H9.34375V3.28125H11.3438ZM12.6875 14.0625H3.3125V16.0625H12.6875V14.0625ZM3.3125 14.0625C3.60632 14.0625 3.84375 14.2999 3.84375 14.5938H1.84375C1.84375 15.4045 2.50175 16.0625 3.3125 16.0625V14.0625ZM3.84375 14.5938V1.40625H1.84375V14.5938H3.84375ZM3.84375 1.40625C3.84375 1.70007 3.60632 1.9375 3.3125 1.9375V-0.0625C2.50175 -0.0625 1.84375 0.595496 1.84375 1.40625H3.84375ZM3.3125 1.9375H9.40625V-0.0625H3.3125V1.9375ZM8.40625 0.9375V3.28125H10.4062V0.9375H8.40625ZM8.40625 3.28125C8.40625 4.60894 9.48481 5.6875 10.8125 5.6875V3.6875C10.5894 3.6875 10.4062 3.50437 10.4062 3.28125H8.40625ZM10.8125 5.6875H13.1562V3.6875H10.8125V5.6875ZM12.1562 4.6875V14.5938H14.1562V4.6875H12.1562ZM12.1562 14.5938C12.1562 14.2999 12.3937 14.0625 12.6875 14.0625V16.0625C13.4983 16.0625 14.1562 15.4045 14.1562 14.5938H12.1562Z" fill="black" mask="url(#path-1-inside-1)"/>
<mask id="path-3-inside-2" fill="white">
<path d="M10.8125 6.625H5.1875C4.92862 6.625 4.71875 6.83487 4.71875 7.09375C4.71875 7.35263 4.92862 7.5625 5.1875 7.5625H10.8125C11.0714 7.5625 11.2812 7.35263 11.2812 7.09375C11.2812 6.83487 11.0714 6.625 10.8125 6.625Z"/>
</mask>
<path d="M10.8125 5.625H5.1875V7.625H10.8125V5.625ZM5.1875 5.625C4.37634 5.625 3.71875 6.28259 3.71875 7.09375H5.71875C5.71875 7.38716 5.48091 7.625 5.1875 7.625V5.625ZM3.71875 7.09375C3.71875 7.90491 4.37634 8.5625 5.1875 8.5625V6.5625C5.48091 6.5625 5.71875 6.80034 5.71875 7.09375H3.71875ZM5.1875 8.5625H10.8125V6.5625H5.1875V8.5625ZM10.8125 8.5625C11.6237 8.5625 12.2812 7.90491 12.2812 7.09375H10.2812C10.2812 6.80034 10.5191 6.5625 10.8125 6.5625V8.5625ZM12.2812 7.09375C12.2812 6.28259 11.6237 5.625 10.8125 5.625V7.625C10.5191 7.625 10.2812 7.38716 10.2812 7.09375H12.2812Z" fill="black" mask="url(#path-3-inside-2)"/>
<mask id="path-5-inside-3" fill="white">
<path d="M10.8125 8.5H5.1875C4.92862 8.5 4.71875 8.70987 4.71875 8.96875C4.71875 9.22763 4.92862 9.4375 5.1875 9.4375H10.8125C11.0714 9.4375 11.2812 9.22763 11.2812 8.96875C11.2812 8.70987 11.0714 8.5 10.8125 8.5Z"/>
</mask>
<path d="M10.8125 7.5H5.1875V9.5H10.8125V7.5ZM5.1875 7.5C4.37634 7.5 3.71875 8.15759 3.71875 8.96875H5.71875C5.71875 9.26216 5.48091 9.5 5.1875 9.5V7.5ZM3.71875 8.96875C3.71875 9.77991 4.37634 10.4375 5.1875 10.4375V8.4375C5.48091 8.4375 5.71875 8.67534 5.71875 8.96875H3.71875ZM5.1875 10.4375H10.8125V8.4375H5.1875V10.4375ZM10.8125 10.4375C11.6237 10.4375 12.2812 9.77991 12.2812 8.96875H10.2812C10.2812 8.67534 10.5191 8.4375 10.8125 8.4375V10.4375ZM12.2812 8.96875C12.2812 8.15759 11.6237 7.5 10.8125 7.5V9.5C10.5191 9.5 10.2812 9.26216 10.2812 8.96875H12.2812Z" fill="black" mask="url(#path-5-inside-3)"/>
<mask id="path-7-inside-4" fill="white">
<path d="M10.8125 10.375H5.1875C4.92862 10.375 4.71875 10.5849 4.71875 10.8438C4.71875 11.1026 4.92862 11.3125 5.1875 11.3125H10.8125C11.0714 11.3125 11.2812 11.1026 11.2812 10.8438C11.2812 10.5849 11.0714 10.375 10.8125 10.375Z"/>
</mask>
<path d="M10.8125 9.375H5.1875V11.375H10.8125V9.375ZM5.1875 9.375C4.37634 9.375 3.71875 10.0326 3.71875 10.8438H5.71875C5.71875 11.1372 5.48091 11.375 5.1875 11.375V9.375ZM3.71875 10.8438C3.71875 11.6549 4.37634 12.3125 5.1875 12.3125V10.3125C5.48091 10.3125 5.71875 10.5503 5.71875 10.8438H3.71875ZM5.1875 12.3125H10.8125V10.3125H5.1875V12.3125ZM10.8125 12.3125C11.6237 12.3125 12.2812 11.6549 12.2812 10.8438H10.2812C10.2812 10.5503 10.5191 10.3125 10.8125 10.3125V12.3125ZM12.2812 10.8438C12.2812 10.0326 11.6237 9.375 10.8125 9.375V11.375C10.5191 11.375 10.2812 11.1372 10.2812 10.8438H12.2812Z" fill="black" mask="url(#path-7-inside-4)"/>
<mask id="path-9-inside-5" fill="white">
<path d="M8.9375 12.25H5.1875C4.92862 12.25 4.71875 12.4599 4.71875 12.7188C4.71875 12.9776 4.92862 13.1875 5.1875 13.1875H8.9375C9.19637 13.1875 9.40625 12.9776 9.40625 12.7188C9.40625 12.4599 9.19637 12.25 8.9375 12.25Z"/>
</mask>
<path d="M8.9375 11.25H5.1875V13.25H8.9375V11.25ZM5.1875 11.25C4.37634 11.25 3.71875 11.9076 3.71875 12.7188H5.71875C5.71875 13.0122 5.48091 13.25 5.1875 13.25V11.25ZM3.71875 12.7188C3.71875 13.5299 4.37634 14.1875 5.1875 14.1875V12.1875C5.48091 12.1875 5.71875 12.4253 5.71875 12.7188H3.71875ZM5.1875 14.1875H8.9375V12.1875H5.1875V14.1875ZM8.9375 14.1875C9.74866 14.1875 10.4062 13.5299 10.4062 12.7188H8.40625C8.40625 12.4253 8.64409 12.1875 8.9375 12.1875V14.1875ZM10.4062 12.7188C10.4062 11.9076 9.74866 11.25 8.9375 11.25V13.25C8.64409 13.25 8.40625 13.0122 8.40625 12.7188H10.4062Z" fill="black" mask="url(#path-9-inside-5)"/>
</g>
<defs>
<clipPath id="clip0">
<rect width="16" height="16" fill="white"/>
</clipPath>
</defs>
</svg>
