<svg width="16" height="17" viewBox="0 0 16 17" fill="none" xmlns="http://www.w3.org/2000/svg">
<mask id="path-1-inside-1" fill="white">
<path d="M16 11.666V15.2217C16 15.6932 15.8127 16.1454 15.4793 16.4788C15.1459 16.8122 14.6937 16.9995 14.2222 16.9995H1.77778C1.30628 16.9995 0.854097 16.8122 0.520699 16.4788C0.187301 16.1454 0 15.6932 0 15.2217L0 11.666"/>
</mask>
<path d="M17.5 11.666C17.5 10.8375 16.8284 10.166 16 10.166C15.1716 10.166 14.5 10.8375 14.5 11.666H17.5ZM14.2222 16.9995V18.4995V16.9995ZM0 15.2217H-1.5H0ZM1.5 11.666C1.5 10.8375 0.828427 10.166 0 10.166C-0.828427 10.166 -1.5 10.8375 -1.5 11.666H1.5ZM14.5 11.666V15.2217L17.5 15.2217V11.666H14.5ZM14.5 15.2217C14.5 15.2954 14.4707 15.3661 14.4186 15.4182L16.54 17.5394C17.1547 16.9247 17.5 16.091 17.5 15.2217L14.5 15.2217ZM14.4186 15.4182C14.3665 15.4703 14.2959 15.4995 14.2222 15.4995V18.4995C15.0916 18.4995 15.9253 18.1542 16.54 17.5394L14.4186 15.4182ZM14.2222 15.4995H1.77778V18.4995H14.2222V15.4995ZM1.77778 15.4995C1.70413 15.4995 1.63348 15.4703 1.58138 15.4182L-0.539983 17.5394C0.074715 18.1542 0.908437 18.4995 1.77778 18.4995V15.4995ZM1.58138 15.4182C1.52928 15.3661 1.5 15.2954 1.5 15.2217H-1.5C-1.5 16.091 -1.15468 16.9247 -0.539983 17.5394L1.58138 15.4182ZM1.5 15.2217L1.5 11.666H-1.5L-1.5 15.2217H1.5Z" fill="black" mask="url(#path-1-inside-1)"/>
<path d="M12.4436 7.22168L7.99913 11.6663L3.55469 7.22168" stroke="black" stroke-width="1.5" stroke-linecap="round" stroke-linejoin="round"/>
<path d="M8 11.6672V1" stroke="black" stroke-width="1.5" stroke-linecap="round" stroke-linejoin="round"/>
</svg>
