<svg width="16" height="16" viewBox="0 0 16 16" fill="none" xmlns="http://www.w3.org/2000/svg">
<path d="M13 12C13 12.5523 13.4477 13 14 13C14.5523 13 15 12.5523 15 12V4C15 3.44771 14.5523 3 14 3C13.4477 3 13 3.44772 13 4V12Z" fill="black"/>
<path d="M4.29289 11.7071L0.585785 8L4.29289 4.29289C4.68342 3.90237 5.31658 3.90237 5.7071 4.29289C6.09763 4.68342 6.09763 5.31658 5.7071 5.70711L4.41421 7L11 7C11.5523 7 12 7.44771 12 8C12 8.55228 11.5523 9 11 9L4.41421 9L5.7071 10.2929C6.09763 10.6834 6.09763 11.3166 5.7071 11.7071C5.31658 12.0976 4.68342 12.0976 4.29289 11.7071Z" fill="black"/>
</svg>
