<svg width="16" height="16" viewBox="0 0 16 16" fill="none" xmlns="http://www.w3.org/2000/svg">
<rect width="16" height="16" rx="8" fill="black"/>
<path d="M9.31999 8.00025L11.7949 5.52534C12.0683 5.25189 12.0683 4.80856 11.7949 4.53554L11.465 4.2056C11.1914 3.93206 10.7481 3.93206 10.4751 4.2056L8.00025 6.68042L5.52534 4.20509C5.25189 3.93164 4.80856 3.93164 4.53554 4.20509L4.20509 4.53502C3.93164 4.80856 3.93164 5.25189 4.20509 5.52492L6.68042 8.00025L4.2056 10.4751C3.93206 10.7486 3.93206 11.1919 4.2056 11.465L4.53554 11.7949C4.80899 12.0683 5.25232 12.0683 5.52534 11.7949L8.00025 9.31999L10.4751 11.7949C10.7486 12.0683 11.1919 12.0683 11.465 11.7949L11.7949 11.465C12.0683 11.1914 12.0683 10.7481 11.7949 10.4751L9.31999 8.00025Z" fill="white"/>
</svg>
