<svg width="16" height="16" viewBox="0 0 16 16" fill="none" xmlns="http://www.w3.org/2000/svg">
<path d="M10.1206 6.95181V7.11766L10.2197 7.25063L15.3346 14.1125C15.5374 14.3846 15.5532 14.7185 15.3845 15.0006C15.345 15.0665 15.2962 15.1281 15.2394 15.1839C15.2735 15.142 15.2996 15.1031 15.3184 15.0717L15.3184 15.0717C15.4034 14.9295 15.6022 14.4886 15.2643 14.035L15.2642 14.0349L12.2401 9.97796L12.1545 9.86312L12.0211 9.81102C11.9306 9.77568 11.7911 9.72389 11.6176 9.66907L12.0669 9.74563L11.3203 8.74408L10.0723 7.06984V0.9375V0.5H10.1206V0.9375V6.95181ZM5.8794 0.9375V0.5H5.92764V0.9375V7.06984L4.1993 9.38846L3.81885 9.89885L3.77408 9.95891L3.60055 10.1917L0.735758 14.0349L0.735736 14.035C0.397652 14.4886 0.596608 14.9296 0.68152 15.0716L0.681659 15.0718C0.700427 15.1032 0.726481 15.1419 0.760486 15.1838C0.703705 15.128 0.654933 15.0664 0.615537 15.0006L0.615531 15.0006C0.446752 14.7186 0.462546 14.3846 0.665378 14.1126L0.66539 14.1125L5.78028 7.25063L5.8794 7.11766V6.95181V0.9375Z" stroke="black"/>
</svg>
