<svg width="16" height="16" viewBox="0 0 16 16" fill="none" xmlns="http://www.w3.org/2000/svg">
<g clip-path="url(#clip0)">

<path d="M10.6206 6.95181V0.9375H11.6688V0H4.33117V0.9375H5.3794V6.95181L0.264508 13.8137C-0.0577896 14.2461 -0.0876642 14.7992 0.186484 15.2573C0.460597 15.7154 0.991773 16 1.57274 16H14.4272C15.0082 16 15.5394 15.7154 15.8135 15.2573C16.0877 14.7992 16.0578 14.246 15.7355 13.8137L10.6206 6.95181ZM6.42764 7.23569V0.9375H9.57234V7.23569L10.9195 9.04291C10.657 8.99819 10.3778 8.96875 10.0965 8.96875C8.93781 8.96875 7.81291 9.46581 7.7656 9.48697C7.5048 9.60359 6.66195 9.90625 5.90352 9.90625C5.43457 9.90625 4.95532 9.79516 4.60018 9.68728L6.42764 7.23569ZM14.8893 14.815C14.8448 14.8894 14.7106 15.0625 14.4272 15.0625H1.57274C1.2894 15.0625 1.15519 14.8894 1.11064 14.815C1.06613 14.7405 0.979474 14.5446 1.13664 14.3337L4.00143 10.4905C4.44239 10.6424 5.16584 10.8438 5.90352 10.8438C7.06217 10.8438 8.18706 10.3467 8.23437 10.3255C8.49514 10.2089 9.33799 9.90625 10.0965 9.90625C10.8142 9.90625 11.5565 10.1664 11.8393 10.2768L14.8633 14.3337C15.0205 14.5446 14.9339 14.7405 14.8893 14.815Z" fill="black" stroke-width="0" />

<path d="M9.57227 11.3125H10.6205V12.25H9.57227V11.3125Z" fill="black" stroke-width="0" />

<path d="M7.47656 13.1875H8.52479V14.125H7.47656V13.1875Z" fill="black" stroke-width="0" />

<path d="M5.37891 12.25H6.42714V13.1875H5.37891V12.25Z" fill="black" stroke-width="0" />

<path d="M7.47656 7.5625H8.52479V8.5H7.47656V7.5625Z" fill="black" stroke-width="0" />
</g>
<defs>
<clipPath id="clip0">
<rect width="16" height="16" fill="white"/>
</clipPath>
</defs>
</svg>