<svg width="16" height="16" viewBox="0 0 16 16" fill="none" xmlns="http://www.w3.org/2000/svg">
<rect width="16" height="16" rx="8" fill="black"/>
<path d="M8 4C5.79444 4 4 5.79444 4 8C4 10.2056 5.79444 12 8 12C10.2056 12 12 10.2056 12 8C12 5.79444 10.2056 4 8 4ZM8 11.5C6.07007 11.5 4.5 9.92993 4.5 8C4.5 6.07007 6.07007 4.5 8 4.5C9.92993 4.5 11.5 6.07007 11.5 8C11.5 9.92993 9.92993 11.5 8 11.5Z" fill="white"/>
<path d="M8.25 5.5H7.75V8.10351L9.32324 9.67675L9.67676 9.32323L8.25 7.89648V5.5Z" fill="white"/>
</svg>
