<svg width="16" height="16" viewBox="0 0 16 16" fill="none" xmlns="http://www.w3.org/2000/svg">
<g clip-path="url(#clip0)">
<path d="M15.3725 8.04561C15.401 8.07141 15.445 8.07011 15.4719 8.0423C15.4981 8.01515 15.4986 7.97242 15.4734 7.94465L14.3356 6.80685L8.04968 0.520905C8.04967 0.520897 8.04967 0.520888 8.04966 0.520879C8.02179 0.493041 7.97661 0.49304 7.94874 0.52088L15.3725 8.04561ZM15.3725 8.04561L15.2097 7.88272L14.3561 7.02895V8.23623V15.4285C14.3561 15.468 14.3241 15.5 14.2846 15.5H1.71262C1.67315 15.5 1.64116 15.468 1.64116 15.4285V8.23623V7.02313L0.786367 7.88392L0.624947 8.04648M15.3725 8.04561L0.624947 8.04648M0.624947 8.04648C0.597173 8.07135 0.554706 8.07073 0.527667 8.04461L0.527658 8.0446C0.499861 8.01776 0.498522 7.97375 0.524372 7.94525L1.66273 6.80685L1.66274 6.80685L7.94871 0.520906L0.624947 8.04648ZM9.71299 15.3571H10.213V14.8571V10.2855V9.78546H9.71299H6.28427H5.78427V10.2855V14.8571V15.3571H6.28427H9.71299ZM13.7131 15.3571H14.2131V14.8571V7.09334V6.88623L14.0667 6.73979L8.35215 1.02524L7.99859 0.671688L7.64504 1.02524L1.93053 6.73979L1.78409 6.88623V7.09334V14.8571V15.3571H2.28409H5.14134H5.64134V14.8571V9.71403C5.64134 9.67456 5.67333 9.64257 5.7128 9.64257H10.2844C10.3239 9.64257 10.3559 9.67456 10.3559 9.71403V14.8571V15.3571H10.8559H13.7131Z" stroke="black"/>
</g>
<defs>
<clipPath id="clip0">
<rect width="16" height="16" fill="white"/>
</clipPath>
</defs>
</svg>
