<svg width="16" height="16" viewBox="0 0 16 16" fill="none" xmlns="http://www.w3.org/2000/svg">
<g clip-path="url(#clip0)">
<path d="M15.8315 7.59563L14.6892 6.4533L8.40321 0.167326C8.18008 -0.0557753 7.81832 -0.0557753 7.59518 0.167326L1.30918 6.4533L0.166282 7.59623C-0.0529685 7.82325 -0.0467071 8.18501 0.180312 8.40426C0.401772 8.61815 0.752848 8.61815 0.974308 8.40426L1.14116 8.23623V15.4285C1.14116 15.7442 1.397 16 1.71262 16H14.2846C14.6002 16 14.8561 15.7442 14.8561 15.4285V8.23623L15.0235 8.40369C15.2505 8.62294 15.6123 8.61664 15.8315 8.38966C16.0454 8.1682 16.0454 7.81709 15.8315 7.59563ZM9.71299 14.8571H6.28427V10.2855H9.71299V14.8571ZM13.7131 14.8571H10.8559V9.71403C10.8559 9.39842 10.6 9.14257 10.2844 9.14257H5.7128C5.39719 9.14257 5.14134 9.39842 5.14134 9.71403V14.8571H2.28409V7.09334L7.9986 1.3788L13.7131 7.09334V14.8571Z" fill="black"/>
</g>
<defs>
<clipPath id="clip0">
<rect width="16" height="16" fill="white"/>
</clipPath>
</defs>
</svg>
