<svg width="17" height="16" viewBox="0 0 17 16" fill="none" xmlns="http://www.w3.org/2000/svg">
<mask id="path-1-inside-1" fill="white">
<path d="M5.33355 16H1.77785C1.30634 16 0.854132 15.8127 0.52072 15.4793C0.187309 15.1459 0 14.6937 0 14.2222V1.77778C0 1.30628 0.187309 0.854097 0.52072 0.520699C0.854132 0.187301 1.30634 0 1.77785 0H5.33355"/>
</mask>
<path d="M5.33355 17.5C6.16198 17.5 6.83355 16.8284 6.83355 16C6.83355 15.1716 6.16198 14.5 5.33355 14.5V17.5ZM0 14.2222H-1.5H0ZM1.77785 0V-1.5V0ZM5.33355 1.5C6.16198 1.5 6.83355 0.828427 6.83355 0C6.83355 -0.828427 6.16198 -1.5 5.33355 -1.5V1.5ZM5.33355 14.5H1.77785V17.5H5.33355V14.5ZM1.77785 14.5C1.70414 14.5 1.63346 14.4707 1.58136 14.4186L-0.539918 16.54C0.0748026 17.1547 0.90853 17.5 1.77785 17.5V14.5ZM1.58136 14.4186C1.52926 14.3665 1.5 14.2959 1.5 14.2222H-1.5C-1.5 15.0916 -1.15464 15.9253 -0.539918 16.54L1.58136 14.4186ZM1.5 14.2222V1.77778H-1.5V14.2222H1.5ZM1.5 1.77778C1.5 1.70413 1.52926 1.63348 1.58136 1.58138L-0.539918 -0.539983C-1.15464 0.074715 -1.5 0.908437 -1.5 1.77778H1.5ZM1.58136 1.58138C1.63346 1.52928 1.70414 1.5 1.77785 1.5V-1.5C0.908531 -1.5 0.0748033 -1.15468 -0.539918 -0.539983L1.58136 1.58138ZM1.77785 1.5H5.33355V-1.5H1.77785V1.5Z" fill="black" mask="url(#path-1-inside-1)"/>
<path d="M11.5547 12.4446L15.9993 8.00011L11.5547 3.55566" stroke="black" stroke-width="1.5" stroke-linecap="round" stroke-linejoin="round"/>
<path d="M15.9992 8H5.33203" stroke="black" stroke-width="1.5" stroke-linecap="round" stroke-linejoin="round"/>
</svg>
