<svg width="17" height="16" viewBox="0 0 17 16" fill="none" xmlns="http://www.w3.org/2000/svg">
<mask id="path-1-inside-1" fill="white">
<path d="M6 15H2.66667C2.22464 15 1.80072 14.8361 1.48816 14.5444C1.1756 14.2527 1 13.857 1 13.4444V2.55556C1 2.14299 1.1756 1.74733 1.48816 1.45561C1.80072 1.16389 2.22464 1 2.66667 1H6"/>
</mask>
<path d="M1.48816 14.5444L0.805834 15.2754L0.805835 15.2754L1.48816 14.5444ZM1.48816 1.45561L0.805837 0.724556L0.805836 0.724557L1.48816 1.45561ZM6 14H2.66667V16H6V14ZM2.66667 14C2.46845 14 2.29104 13.9259 2.17048 13.8133L0.805835 15.2754C1.31039 15.7464 1.98084 16 2.66667 16V14ZM2.17048 13.8133C2.05224 13.703 2 13.5686 2 13.4444H0C0 14.1453 0.298947 14.8023 0.805834 15.2754L2.17048 13.8133ZM2 13.4444V2.55556H0V13.4444H2ZM2 2.55556C2 2.43135 2.05224 2.29702 2.17047 2.18667L0.805836 0.724557C0.298955 1.19765 0 1.85464 0 2.55556H2ZM2.17047 2.18667C2.29104 2.07414 2.46845 2 2.66667 2V0C1.98084 0 1.31039 0.253641 0.805837 0.724556L2.17047 2.18667ZM2.66667 2H6V0H2.66667V2Z" fill="black" mask="url(#path-1-inside-1)"/>
<path d="M11.5547 12.4446L15.9993 8.00011L11.5547 3.55566" stroke="black" stroke-linecap="round" stroke-linejoin="round"/>
<path d="M15.9992 8H5.33203" stroke="black" stroke-linecap="round" stroke-linejoin="round"/>
</svg>
