<svg width="16" height="16" viewBox="0 0 16 16" fill="none" xmlns="http://www.w3.org/2000/svg">
<rect x="0.5" y="0.5" width="15" height="15" rx="7.5" stroke="black"/>
<path fill-rule="evenodd" clip-rule="evenodd" d="M5.37109 6.05672C5.37109 5.82815 5.48538 5.71387 5.71395 5.71387H6.74252C6.97109 5.71387 7.08538 5.82815 7.08538 6.05672V9.94244C7.08538 10.171 6.97109 10.2853 6.74252 10.2853H5.71395C5.48538 10.2853 5.37109 10.171 5.37109 9.94244V6.05672ZM8.79966 6.05672C8.79966 5.82815 8.91395 5.71387 9.14252 5.71387H10.1711C10.3997 5.71387 10.514 5.82815 10.514 6.05672V9.94244C10.514 10.171 10.3997 10.2853 10.1711 10.2853H9.14252C8.91395 10.2853 8.79966 10.171 8.79966 9.94244V6.05672Z" fill="black" stroke-width="0" />
</svg>
