<svg width="16" height="16" viewBox="0 0 16 16" fill="none" xmlns="http://www.w3.org/2000/svg">
<path d="M0.5 8C0.5 6.01088 1.29018 4.10322 2.6967 2.6967C4.10322 1.29018 6.01088 0.5 8 0.5C9.98912 0.5 11.8968 1.29018 13.3033 2.6967C14.7098 4.10322 15.5 6.01088 15.5 8C15.5 9.98912 14.7098 11.8968 13.3033 13.3033C11.8968 14.7098 9.98912 15.5 8 15.5C6.01088 15.5 4.10322 14.7098 2.6967 13.3033C1.29018 11.8968 0.5 9.98912 0.5 8Z" stroke="black"/>
<path fill-rule="evenodd" clip-rule="evenodd" d="M5.37109 6.05672C5.37109 5.82815 5.48538 5.71387 5.71395 5.71387H6.74252C6.97109 5.71387 7.08538 5.82815 7.08538 6.05672V9.94244C7.08538 10.171 6.97109 10.2853 6.74252 10.2853H5.71395C5.48538 10.2853 5.37109 10.171 5.37109 9.94244V6.05672ZM8.79966 6.05672C8.79966 5.82815 8.91395 5.71387 9.14252 5.71387H10.1711C10.3997 5.71387 10.514 5.82815 10.514 6.05672V9.94244C10.514 10.171 10.3997 10.2853 10.1711 10.2853H9.14252C8.91395 10.2853 8.79966 10.171 8.79966 9.94244V6.05672Z" fill="black"/>
</svg>
