<svg width="16" height="16" viewBox="0 0 16 16" fill="none" xmlns="http://www.w3.org/2000/svg">
<mask id="path-1-inside-1" fill="white">
<path d="M14.2689 4.82481L9.58144 0.137313C9.49353 0.049375 9.37431 0 9.25 0H2.0625C1.80363 0 1.59375 0.209875 1.59375 0.46875V15.5312C1.59375 15.7901 1.80363 16 2.0625 16H13.9375C14.1964 16 14.4063 15.7901 14.4063 15.5312V5.15625C14.4063 5.03191 14.3568 4.91269 14.2689 4.82481ZM13.4688 15.0625H2.53125V0.9375H9.05584L13.4688 5.35041V15.0625Z"/>
</mask>
<path d="M14.2689 4.82481L13.5618 5.53191L13.5619 5.532L14.2689 4.82481ZM9.58144 0.137313L8.87422 0.844307L8.87433 0.844417L9.58144 0.137313ZM13.4688 15.0625V16.0625H14.4688V15.0625H13.4688ZM2.53125 15.0625H1.53125V16.0625H2.53125V15.0625ZM2.53125 0.9375V-0.0625H1.53125V0.9375H2.53125ZM9.05584 0.9375L9.76294 0.230389L9.47005 -0.0625H9.05584V0.9375ZM13.4688 5.35041H14.4688V4.93619L14.1759 4.6433L13.4688 5.35041ZM14.976 4.11771L10.2885 -0.569791L8.87433 0.844417L13.5618 5.53191L14.976 4.11771ZM10.2887 -0.569681C10.0132 -0.84527 9.63952 -1 9.25 -1V1C9.1091 1 8.9739 0.94402 8.87422 0.844307L10.2887 -0.569681ZM9.25 -1H2.0625V1H9.25V-1ZM2.0625 -1C1.25135 -1 0.59375 -0.342417 0.59375 0.46875H2.59375C2.59375 0.762167 2.35591 1 2.0625 1V-1ZM0.59375 0.46875V15.5312H2.59375V0.46875H0.59375ZM0.59375 15.5312C0.59375 16.3423 1.25125 17 2.0625 17V15C2.35601 15 2.59375 15.2379 2.59375 15.5312H0.59375ZM2.0625 17H13.9375V15H2.0625V17ZM13.9375 17C14.7487 17 15.4063 16.3424 15.4063 15.5312H13.4063C13.4063 15.2378 13.6441 15 13.9375 15V17ZM15.4063 15.5312V5.15625H13.4063V15.5312H15.4063ZM15.4063 5.15625C15.4063 4.76611 15.251 4.39266 14.9759 4.11762L13.5619 5.532C13.4626 5.43272 13.4063 5.29771 13.4063 5.15625H15.4063ZM13.4688 14.0625H2.53125V16.0625H13.4688V14.0625ZM3.53125 15.0625V0.9375H1.53125V15.0625H3.53125ZM2.53125 1.9375H9.05584V-0.0625H2.53125V1.9375ZM8.34874 1.64461L12.7617 6.05752L14.1759 4.6433L9.76294 0.230389L8.34874 1.64461ZM12.4688 5.35041V15.0625H14.4688V5.35041H12.4688Z" fill="black" mask="url(#path-1-inside-1)"/>
</svg>
