<svg width="16" height="16" viewBox="0 0 16 16" fill="none" xmlns="http://www.w3.org/2000/svg">
<g clip-path="url(#clip0)">
<path d="M1.92175 8.73779C1.89087 8.48047 1.875 8.22485 1.875 8C1.875 4.64368 4.64368 1.875 8 1.875C9.56555 1.875 11.0313 2.50623 12.1094 3.4906L11.5687 4.04065C11.4469 4.16248 11.4 4.34058 11.4469 4.5094C11.5032 4.6687 11.6344 4.79065 11.8031 4.82812C11.8975 4.84705 14.9973 5.84595 14.7999 5.80627C15.051 5.88989 15.4224 5.62207 15.3532 5.25317C15.3341 5.15869 14.6478 1.71521 14.6875 1.91248C14.65 1.74377 14.5281 1.60315 14.3594 1.55627C14.2001 1.5094 14.0219 1.55627 13.9 1.6781L13.4407 2.12805C12.025 0.806274 10.0812 0 8 0C3.60315 0 0 3.60315 0 8V8.01868C0 8.28296 0.012085 8.48718 0.0261231 8.64343C0.0447998 8.85046 0.197388 9.02002 0.401245 9.06091L1.36426 9.25342C1.67773 9.31616 1.95959 9.05334 1.92175 8.73779Z" fill="black"/>
<path d="M15.6013 6.93788L14.6355 6.7411C14.3217 6.67714 14.0379 6.9402 14.0764 7.25721C14.1099 7.53077 14.1248 7.79677 14.1248 7.99952C14.1248 11.3557 11.3561 14.1245 7.99977 14.1245C6.43422 14.1245 4.96852 13.4933 3.8904 12.4995L4.43105 11.9589C4.55287 11.837 4.59975 11.6589 4.55287 11.4901C4.4966 11.3307 4.36537 11.2089 4.19667 11.1714C4.10231 11.1524 1.00246 10.1536 1.19984 10.1932C1.04042 10.1652 0.880997 10.212 0.777969 10.3245C0.665421 10.4276 0.618546 10.5963 0.646622 10.7463C0.665665 10.8407 1.35207 14.2529 1.31239 14.0557C1.34975 14.2245 1.4717 14.3651 1.6404 14.4119C1.83608 14.4609 1.99941 14.4016 2.09975 14.2901L2.54982 13.8401C3.96535 15.162 5.9092 15.9995 7.99977 15.9995C12.3966 15.9995 15.9998 12.3964 15.9998 7.99952V7.97133C15.9998 7.76356 15.9922 7.55958 15.9749 7.35682C15.957 7.14967 15.8051 6.9795 15.6013 6.93788Z" fill="black"/>
</g>
<defs>
<clipPath id="clip0">
<rect width="16" height="16" fill="white"/>
</clipPath>
</defs>
</svg>
