<svg width="16" height="16" viewBox="0 0 16 16" fill="none" xmlns="http://www.w3.org/2000/svg">
<path d="M8.02989 1.08635C6.15843 1.0813 4.35872 1.80611 3.01315 3.1068V1.08632C3.01315 0.780837 2.76551 0.533203 2.46003 0.533203C2.15455 0.533203 1.90695 0.780837 1.90695 1.08632V4.40495C1.90688 4.64312 2.0593 4.85459 2.28529 4.92984L5.60392 6.03604C5.8941 6.13258 6.20762 5.97557 6.30414 5.68538C6.40068 5.39519 6.24366 5.08167 5.95348 4.98516L3.50323 4.16989C5.76667 1.70506 9.59972 1.54179 12.0646 3.80523C14.5294 6.06868 14.6927 9.90173 12.4292 12.3666C10.1658 14.8314 6.33272 14.9947 3.86789 12.7312C2.35675 11.3435 1.65044 9.28545 1.99105 7.26228C2.04462 6.96153 1.84427 6.67433 1.54355 6.62072C1.24283 6.56712 0.955597 6.7675 0.901993 7.06822C0.90141 7.07149 0.900859 7.0748 0.90034 7.07807C0.83413 7.47417 0.800814 7.87506 0.800781 8.27664C0.805286 12.2459 4.02186 15.4625 7.9911 15.467C11.9622 15.4778 15.1901 12.2672 15.2009 8.29611C15.2116 4.325 12.001 1.09708 8.02989 1.08635Z" fill="black"/>
</svg>
