<svg width="16" height="16" viewBox="0 0 16 16" fill="none" xmlns="http://www.w3.org/2000/svg">
<mask id="path-1-inside-1" fill="white">
<path d="M5.375 7.81836H4.625C4.43084 7.81836 4.27344 7.9928 4.27344 8.20797C4.27344 8.42314 4.43084 8.59758 4.625 8.59758H5.375C5.56916 8.59758 5.72656 8.42314 5.72656 8.20797C5.72656 7.9928 5.56916 7.81836 5.375 7.81836Z"/>
</mask>
<path d="M5.375 7.81836H4.625C4.43084 7.81836 4.27344 7.9928 4.27344 8.20797C4.27344 8.42314 4.43084 8.59758 4.625 8.59758H5.375C5.56916 8.59758 5.72656 8.42314 5.72656 8.20797C5.72656 7.9928 5.56916 7.81836 5.375 7.81836Z" fill="black"/>
<path d="M5.375 6.81836H4.625V8.81836H5.375V6.81836ZM4.625 6.81836C3.78437 6.81836 3.27344 7.53967 3.27344 8.20797H5.27344C5.27344 8.44594 5.07732 8.81836 4.625 8.81836V6.81836ZM3.27344 8.20797C3.27344 8.87627 3.78437 9.59758 4.625 9.59758V7.59758C5.07732 7.59758 5.27344 7.97 5.27344 8.20797H3.27344ZM4.625 9.59758H5.375V7.59758H4.625V9.59758ZM5.375 9.59758C6.21563 9.59758 6.72656 8.87627 6.72656 8.20797H4.72656C4.72656 7.97 4.92268 7.59758 5.375 7.59758V9.59758ZM6.72656 8.20797C6.72656 7.53967 6.21563 6.81836 5.375 6.81836V8.81836C4.92268 8.81836 4.72656 8.44594 4.72656 8.20797H6.72656Z" fill="black" mask="url(#path-1-inside-1)"/>
<mask id="path-3-inside-2" fill="white">
<path d="M5.375 9.48047H4.625C4.43084 9.48047 4.27344 9.65491 4.27344 9.87008C4.27344 10.0852 4.43084 10.2597 4.625 10.2597H5.375C5.56916 10.2597 5.72656 10.0852 5.72656 9.87008C5.72656 9.65491 5.56916 9.48047 5.375 9.48047Z"/>
</mask>
<path d="M5.375 9.48047H4.625C4.43084 9.48047 4.27344 9.65491 4.27344 9.87008C4.27344 10.0852 4.43084 10.2597 4.625 10.2597H5.375C5.56916 10.2597 5.72656 10.0852 5.72656 9.87008C5.72656 9.65491 5.56916 9.48047 5.375 9.48047Z" fill="black"/>
<path d="M5.375 8.48047H4.625V10.4805H5.375V8.48047ZM4.625 8.48047C3.78437 8.48047 3.27344 9.20178 3.27344 9.87008H5.27344C5.27344 10.108 5.07732 10.4805 4.625 10.4805V8.48047ZM3.27344 9.87008C3.27344 10.5384 3.78437 11.2597 4.625 11.2597V9.25969C5.07732 9.25969 5.27344 9.63211 5.27344 9.87008H3.27344ZM4.625 11.2597H5.375V9.25969H4.625V11.2597ZM5.375 11.2597C6.21563 11.2597 6.72656 10.5384 6.72656 9.87008H4.72656C4.72656 9.63211 4.92268 9.25969 5.375 9.25969V11.2597ZM6.72656 9.87008C6.72656 9.20178 6.21563 8.48047 5.375 8.48047V10.4805C4.92268 10.4805 4.72656 10.108 4.72656 9.87008H6.72656Z" fill="black" mask="url(#path-3-inside-2)"/>
<mask id="path-5-inside-3" fill="white">
<path d="M5.375 11.1426H4.625C4.43084 11.1426 4.27344 11.317 4.27344 11.5322C4.27344 11.7474 4.43084 11.9218 4.625 11.9218H5.375C5.56916 11.9218 5.72656 11.7474 5.72656 11.5322C5.72656 11.317 5.56916 11.1426 5.375 11.1426Z"/>
</mask>
<path d="M5.375 11.1426H4.625C4.43084 11.1426 4.27344 11.317 4.27344 11.5322C4.27344 11.7474 4.43084 11.9218 4.625 11.9218H5.375C5.56916 11.9218 5.72656 11.7474 5.72656 11.5322C5.72656 11.317 5.56916 11.1426 5.375 11.1426Z" fill="black"/>
<path d="M5.375 10.1426H4.625V12.1426H5.375V10.1426ZM4.625 10.1426C3.78437 10.1426 3.27344 10.8639 3.27344 11.5322H5.27344C5.27344 11.7702 5.07732 12.1426 4.625 12.1426V10.1426ZM3.27344 11.5322C3.27344 12.2005 3.78437 12.9218 4.625 12.9218V10.9218C5.07732 10.9218 5.27344 11.2942 5.27344 11.5322H3.27344ZM4.625 12.9218H5.375V10.9218H4.625V12.9218ZM5.375 12.9218C6.21563 12.9218 6.72656 12.2005 6.72656 11.5322H4.72656C4.72656 11.2942 4.92268 10.9218 5.375 10.9218V12.9218ZM6.72656 11.5322C6.72656 10.8639 6.21563 10.1426 5.375 10.1426V12.1426C4.92268 12.1426 4.72656 11.7702 4.72656 11.5322H6.72656Z" fill="black" mask="url(#path-5-inside-3)"/>
<mask id="path-7-inside-4" fill="white">
<path d="M8.375 7.81836H7.625C7.43084 7.81836 7.27344 7.9928 7.27344 8.20797C7.27344 8.42314 7.43084 8.59758 7.625 8.59758H8.375C8.56916 8.59758 8.72656 8.42314 8.72656 8.20797C8.72656 7.9928 8.56916 7.81836 8.375 7.81836Z"/>
</mask>
<path d="M8.375 7.81836H7.625C7.43084 7.81836 7.27344 7.9928 7.27344 8.20797C7.27344 8.42314 7.43084 8.59758 7.625 8.59758H8.375C8.56916 8.59758 8.72656 8.42314 8.72656 8.20797C8.72656 7.9928 8.56916 7.81836 8.375 7.81836Z" fill="black"/>
<path d="M8.375 6.81836H7.625V8.81836H8.375V6.81836ZM7.625 6.81836C6.78437 6.81836 6.27344 7.53967 6.27344 8.20797H8.27344C8.27344 8.44594 8.07732 8.81836 7.625 8.81836V6.81836ZM6.27344 8.20797C6.27344 8.87627 6.78437 9.59758 7.625 9.59758V7.59758C8.07732 7.59758 8.27344 7.97 8.27344 8.20797H6.27344ZM7.625 9.59758H8.375V7.59758H7.625V9.59758ZM8.375 9.59758C9.21563 9.59758 9.72656 8.87627 9.72656 8.20797H7.72656C7.72656 7.97 7.92268 7.59758 8.375 7.59758V9.59758ZM9.72656 8.20797C9.72656 7.53967 9.21563 6.81836 8.375 6.81836V8.81836C7.92268 8.81836 7.72656 8.44594 7.72656 8.20797H9.72656Z" fill="black" mask="url(#path-7-inside-4)"/>
<mask id="path-9-inside-5" fill="white">
<path d="M8.375 9.48047H7.625C7.43084 9.48047 7.27344 9.65491 7.27344 9.87008C7.27344 10.0852 7.43084 10.2597 7.625 10.2597H8.375C8.56916 10.2597 8.72656 10.0852 8.72656 9.87008C8.72656 9.65491 8.56916 9.48047 8.375 9.48047Z"/>
</mask>
<path d="M8.375 9.48047H7.625C7.43084 9.48047 7.27344 9.65491 7.27344 9.87008C7.27344 10.0852 7.43084 10.2597 7.625 10.2597H8.375C8.56916 10.2597 8.72656 10.0852 8.72656 9.87008C8.72656 9.65491 8.56916 9.48047 8.375 9.48047Z" fill="black"/>
<path d="M8.375 8.48047H7.625V10.4805H8.375V8.48047ZM7.625 8.48047C6.78437 8.48047 6.27344 9.20178 6.27344 9.87008H8.27344C8.27344 10.108 8.07732 10.4805 7.625 10.4805V8.48047ZM6.27344 9.87008C6.27344 10.5384 6.78437 11.2597 7.625 11.2597V9.25969C8.07732 9.25969 8.27344 9.63211 8.27344 9.87008H6.27344ZM7.625 11.2597H8.375V9.25969H7.625V11.2597ZM8.375 11.2597C9.21563 11.2597 9.72656 10.5384 9.72656 9.87008H7.72656C7.72656 9.63211 7.92268 9.25969 8.375 9.25969V11.2597ZM9.72656 9.87008C9.72656 9.20178 9.21563 8.48047 8.375 8.48047V10.4805C7.92268 10.4805 7.72656 10.108 7.72656 9.87008H9.72656Z" fill="black" mask="url(#path-9-inside-5)"/>
<mask id="path-11-inside-6" fill="white">
<path d="M8.375 11.1426H7.625C7.43084 11.1426 7.27344 11.317 7.27344 11.5322C7.27344 11.7474 7.43084 11.9218 7.625 11.9218H8.375C8.56916 11.9218 8.72656 11.7474 8.72656 11.5322C8.72656 11.317 8.56916 11.1426 8.375 11.1426Z"/>
</mask>
<path d="M8.375 11.1426H7.625C7.43084 11.1426 7.27344 11.317 7.27344 11.5322C7.27344 11.7474 7.43084 11.9218 7.625 11.9218H8.375C8.56916 11.9218 8.72656 11.7474 8.72656 11.5322C8.72656 11.317 8.56916 11.1426 8.375 11.1426Z" fill="black"/>
<path d="M8.375 10.1426H7.625V12.1426H8.375V10.1426ZM7.625 10.1426C6.78437 10.1426 6.27344 10.8639 6.27344 11.5322H8.27344C8.27344 11.7702 8.07732 12.1426 7.625 12.1426V10.1426ZM6.27344 11.5322C6.27344 12.2005 6.78437 12.9218 7.625 12.9218V10.9218C8.07732 10.9218 8.27344 11.2942 8.27344 11.5322H6.27344ZM7.625 12.9218H8.375V10.9218H7.625V12.9218ZM8.375 12.9218C9.21563 12.9218 9.72656 12.2005 9.72656 11.5322H7.72656C7.72656 11.2942 7.92268 10.9218 8.375 10.9218V12.9218ZM9.72656 11.5322C9.72656 10.8639 9.21563 10.1426 8.375 10.1426V12.1426C7.92268 12.1426 7.72656 11.7702 7.72656 11.5322H9.72656Z" fill="black" mask="url(#path-11-inside-6)"/>
<mask id="path-13-inside-7" fill="white">
<path d="M11.375 7.81836H10.625C10.4308 7.81836 10.2734 7.9928 10.2734 8.20797C10.2734 8.42314 10.4308 8.59758 10.625 8.59758H11.375C11.5692 8.59758 11.7266 8.42314 11.7266 8.20797C11.7266 7.9928 11.5692 7.81836 11.375 7.81836Z"/>
</mask>
<path d="M11.375 7.81836H10.625C10.4308 7.81836 10.2734 7.9928 10.2734 8.20797C10.2734 8.42314 10.4308 8.59758 10.625 8.59758H11.375C11.5692 8.59758 11.7266 8.42314 11.7266 8.20797C11.7266 7.9928 11.5692 7.81836 11.375 7.81836Z" fill="black"/>
<path d="M11.375 6.81836H10.625V8.81836H11.375V6.81836ZM10.625 6.81836C9.78437 6.81836 9.27344 7.53967 9.27344 8.20797H11.2734C11.2734 8.44594 11.0773 8.81836 10.625 8.81836V6.81836ZM9.27344 8.20797C9.27344 8.87627 9.78437 9.59758 10.625 9.59758V7.59758C11.0773 7.59758 11.2734 7.97 11.2734 8.20797H9.27344ZM10.625 9.59758H11.375V7.59758H10.625V9.59758ZM11.375 9.59758C12.2156 9.59758 12.7266 8.87627 12.7266 8.20797H10.7266C10.7266 7.97 10.9227 7.59758 11.375 7.59758V9.59758ZM12.7266 8.20797C12.7266 7.53967 12.2156 6.81836 11.375 6.81836V8.81836C10.9227 8.81836 10.7266 8.44594 10.7266 8.20797H12.7266Z" fill="black" mask="url(#path-13-inside-7)"/>
<mask id="path-15-inside-8" fill="white">
<path d="M11.375 9.48047H10.625C10.4308 9.48047 10.2734 9.65491 10.2734 9.87008C10.2734 10.0852 10.4308 10.2597 10.625 10.2597H11.375C11.5692 10.2597 11.7266 10.0852 11.7266 9.87008C11.7266 9.65491 11.5692 9.48047 11.375 9.48047Z"/>
</mask>
<path d="M11.375 9.48047H10.625C10.4308 9.48047 10.2734 9.65491 10.2734 9.87008C10.2734 10.0852 10.4308 10.2597 10.625 10.2597H11.375C11.5692 10.2597 11.7266 10.0852 11.7266 9.87008C11.7266 9.65491 11.5692 9.48047 11.375 9.48047Z" fill="black"/>
<path d="M11.375 8.48047H10.625V10.4805H11.375V8.48047ZM10.625 8.48047C9.78437 8.48047 9.27344 9.20178 9.27344 9.87008H11.2734C11.2734 10.108 11.0773 10.4805 10.625 10.4805V8.48047ZM9.27344 9.87008C9.27344 10.5384 9.78437 11.2597 10.625 11.2597V9.25969C11.0773 9.25969 11.2734 9.63211 11.2734 9.87008H9.27344ZM10.625 11.2597H11.375V9.25969H10.625V11.2597ZM11.375 11.2597C12.2156 11.2597 12.7266 10.5384 12.7266 9.87008H10.7266C10.7266 9.63211 10.9227 9.25969 11.375 9.25969V11.2597ZM12.7266 9.87008C12.7266 9.20178 12.2156 8.48047 11.375 8.48047V10.4805C10.9227 10.4805 10.7266 10.108 10.7266 9.87008H12.7266Z" fill="black" mask="url(#path-15-inside-8)"/>
<mask id="path-17-inside-9" fill="white">
<path d="M11.375 11.1426H10.625C10.4308 11.1426 10.2734 11.317 10.2734 11.5322C10.2734 11.7474 10.4308 11.9218 10.625 11.9218H11.375C11.5692 11.9218 11.7266 11.7474 11.7266 11.5322C11.7266 11.317 11.5692 11.1426 11.375 11.1426Z"/>
</mask>
<path d="M11.375 11.1426H10.625C10.4308 11.1426 10.2734 11.317 10.2734 11.5322C10.2734 11.7474 10.4308 11.9218 10.625 11.9218H11.375C11.5692 11.9218 11.7266 11.7474 11.7266 11.5322C11.7266 11.317 11.5692 11.1426 11.375 11.1426Z" fill="black"/>
<path d="M11.375 10.1426H10.625V12.1426H11.375V10.1426ZM10.625 10.1426C9.78437 10.1426 9.27344 10.8639 9.27344 11.5322H11.2734C11.2734 11.7702 11.0773 12.1426 10.625 12.1426V10.1426ZM9.27344 11.5322C9.27344 12.2005 9.78437 12.9218 10.625 12.9218V10.9218C11.0773 10.9218 11.2734 11.2942 11.2734 11.5322H9.27344ZM10.625 12.9218H11.375V10.9218H10.625V12.9218ZM11.375 12.9218C12.2156 12.9218 12.7266 12.2005 12.7266 11.5322H10.7266C10.7266 11.2942 10.9227 10.9218 11.375 10.9218V12.9218ZM12.7266 11.5322C12.7266 10.8639 12.2156 10.1426 11.375 10.1426V12.1426C10.9227 12.1426 10.7266 11.7702 10.7266 11.5322H12.7266Z" fill="black" mask="url(#path-17-inside-9)"/>
<mask id="path-19-inside-10" fill="white">
<path d="M12.9453 3.03896H12.1016V2.38961C12.1016 2.17444 11.9442 2 11.75 2C11.5558 2 11.3984 2.17444 11.3984 2.38961V3.03896H8.35156V2.38961C8.35156 2.17444 8.19416 2 8 2C7.80584 2 7.64844 2.17444 7.64844 2.38961V3.03896H4.60156V2.38961C4.60156 2.17444 4.44416 2 4.25 2C4.05584 2 3.89844 2.17444 3.89844 2.38961V3.03896H3.05469C2.47313 3.03896 2 3.5633 2 4.20779V12.8312C2 13.4757 2.47313 14 3.05469 14H12.9453C13.5269 14 14 13.4757 14 12.8312C14 12.5797 14 4.42662 14 4.20779C14 3.5633 13.5269 3.03896 12.9453 3.03896ZM2.70312 4.20779C2.70312 3.99296 2.86084 3.81818 3.05469 3.81818H3.89844V4.46753C3.89844 4.6827 4.05584 4.85714 4.25 4.85714C4.44416 4.85714 4.60156 4.6827 4.60156 4.46753V3.81818H7.64844V4.46753C7.64844 4.6827 7.80584 4.85714 8 4.85714C8.19416 4.85714 8.35156 4.6827 8.35156 4.46753V3.81818H11.3984V4.46753C11.3984 4.6827 11.5558 4.85714 11.75 4.85714C11.9442 4.85714 12.1016 4.6827 12.1016 4.46753V3.81818H12.9453C13.1392 3.81818 13.2969 3.99296 13.2969 4.20779V5.74026H2.70312V4.20779ZM12.9453 13.2208H3.05469C2.86084 13.2208 2.70312 13.046 2.70312 12.8312V6.51948H13.2969V12.8312C13.2969 13.046 13.1392 13.2208 12.9453 13.2208Z"/>
</mask>
<path d="M12.1016 3.03896H11.1016V4.03896H12.1016V3.03896ZM11.3984 3.03896V4.03896H12.3984V3.03896H11.3984ZM8.35156 3.03896H7.35156V4.03896H8.35156V3.03896ZM7.64844 3.03896V4.03896H8.64844V3.03896H7.64844ZM4.60156 3.03896H3.60156V4.03896H4.60156V3.03896ZM3.89844 3.03896V4.03896H4.89844V3.03896H3.89844ZM3.89844 3.81818H4.89844V2.81818H3.89844V3.81818ZM4.60156 3.81818V2.81818H3.60156V3.81818H4.60156ZM7.64844 3.81818H8.64844V2.81818H7.64844V3.81818ZM8.35156 3.81818V2.81818H7.35156V3.81818H8.35156ZM11.3984 3.81818H12.3984V2.81818H11.3984V3.81818ZM12.1016 3.81818V2.81818H11.1016V3.81818H12.1016ZM13.2969 5.74026V6.74026H14.2969V5.74026H13.2969ZM2.70312 5.74026H1.70312V6.74026H2.70312V5.74026ZM2.70312 6.51948V5.51948H1.70312V6.51948H2.70312ZM13.2969 6.51948H14.2969V5.51948H13.2969V6.51948ZM12.9453 2.03896H12.1016V4.03896H12.9453V2.03896ZM13.1016 3.03896V2.38961H11.1016V3.03896H13.1016ZM13.1016 2.38961C13.1016 1.72131 12.5906 1 11.75 1V3C11.2977 3 11.1016 2.62758 11.1016 2.38961H13.1016ZM11.75 1C10.9094 1 10.3984 1.72131 10.3984 2.38961H12.3984C12.3984 2.62758 12.2023 3 11.75 3V1ZM10.3984 2.38961V3.03896H12.3984V2.38961H10.3984ZM11.3984 2.03896H8.35156V4.03896H11.3984V2.03896ZM9.35156 3.03896V2.38961H7.35156V3.03896H9.35156ZM9.35156 2.38961C9.35156 1.72131 8.84063 1 8 1V3C7.54768 3 7.35156 2.62758 7.35156 2.38961H9.35156ZM8 1C7.15937 1 6.64844 1.72131 6.64844 2.38961H8.64844C8.64844 2.62758 8.45232 3 8 3V1ZM6.64844 2.38961V3.03896H8.64844V2.38961H6.64844ZM7.64844 2.03896H4.60156V4.03896H7.64844V2.03896ZM5.60156 3.03896V2.38961H3.60156V3.03896H5.60156ZM5.60156 2.38961C5.60156 1.72131 5.09063 1 4.25 1V3C3.79768 3 3.60156 2.62758 3.60156 2.38961H5.60156ZM4.25 1C3.40937 1 2.89844 1.72131 2.89844 2.38961H4.89844C4.89844 2.62758 4.70232 3 4.25 3V1ZM2.89844 2.38961V3.03896H4.89844V2.38961H2.89844ZM3.89844 2.03896H3.05469V4.03896H3.89844V2.03896ZM3.05469 2.03896C1.82666 2.03896 1 3.11016 1 4.20779H3C3 4.13033 3.02831 4.07752 3.05169 4.05162C3.0737 4.02722 3.07637 4.03896 3.05469 4.03896V2.03896ZM1 4.20779V12.8312H3V4.20779H1ZM1 12.8312C1 13.9288 1.82666 15 3.05469 15V13C3.07637 13 3.0737 13.0117 3.05169 12.9873C3.02831 12.9614 3 12.9086 3 12.8312H1ZM3.05469 15H12.9453V13H3.05469V15ZM12.9453 15C14.1733 15 15 13.9288 15 12.8312H13C13 12.9086 12.9717 12.9614 12.9483 12.9873C12.9263 13.0117 12.9236 13 12.9453 13V15ZM15 12.8312C15 12.8307 15 12.8302 15 12.8296C15 12.8291 15 12.8285 15 12.8279C15 12.8273 15 12.8266 15 12.8259C15 12.8253 15 12.8246 15 12.8238C15 12.8231 15 12.8223 15 12.8216C15 12.8208 15 12.8199 15 12.8191C15 12.8182 15 12.8174 15 12.8165C15 12.8156 15 12.8146 15 12.8137C15 12.8127 15 12.8117 15 12.8107C15 12.8096 15 12.8086 15 12.8075C15 12.8064 15 12.8053 15 12.8042C15 12.803 15 12.8019 15 12.8007C15 12.7995 15 12.7982 15 12.797C15 12.7957 15 12.7945 15 12.7931C15 12.7918 15 12.7905 15 12.7891C15 12.7877 15 12.7864 15 12.7849C15 12.7835 15 12.782 15 12.7806C15 12.7791 15 12.7776 15 12.776C15 12.7745 15 12.7729 15 12.7713C15 12.7697 15 12.7681 15 12.7665C15 12.7648 15 12.7631 15 12.7614C15 12.7597 15 12.758 15 12.7562C15 12.7545 15 12.7527 15 12.7509C15 12.7491 15 12.7472 15 12.7453C15 12.7435 15 12.7416 15 12.7397C15 12.7377 15 12.7358 15 12.7338C15 12.7318 15 12.7298 15 12.7278C15 12.7258 15 12.7237 15 12.7216C15 12.7195 15 12.7174 15 12.7153C15 12.7131 15 12.711 15 12.7088C15 12.7066 15 12.7044 15 12.7021C15 12.6999 15 12.6976 15 12.6953C15 12.693 15 12.6907 15 12.6883C15 12.686 15 12.6836 15 12.6812C15 12.6788 15 12.6763 15 12.6739C15 12.6714 15 12.6689 15 12.6664C15 12.6639 15 12.6614 15 12.6588C15 12.6563 15 12.6537 15 12.6511C15 12.6485 15 12.6458 15 12.6432C15 12.6405 15 12.6378 15 12.6351C15 12.6324 15 12.6296 15 12.6269C15 12.6241 15 12.6213 15 12.6185C15 12.6157 15 12.6129 15 12.61C15 12.6071 15 12.6042 15 12.6013C15 12.5984 15 12.5955 15 12.5925C15 12.5895 15 12.5865 15 12.5835C15 12.5805 15 12.5775 15 12.5744C15 12.5713 15 12.5683 15 12.5651C15 12.562 15 12.5589 15 12.5557C15 12.5526 15 12.5494 15 12.5462C15 12.543 15 12.5397 15 12.5365C15 12.5332 15 12.5299 15 12.5266C15 12.5233 15 12.52 15 12.5166C15 12.5133 15 12.5099 15 12.5065C15 12.5031 15 12.4997 15 12.4962C15 12.4928 15 12.4893 15 12.4858C15 12.4823 15 12.4788 15 12.4752C15 12.4717 15 12.4681 15 12.4645C15 12.4609 15 12.4573 15 12.4537C15 12.4501 15 12.4464 15 12.4427C15 12.439 15 12.4353 15 12.4316C15 12.4279 15 12.4241 15 12.4203C15 12.4166 15 12.4128 15 12.4089C15 12.4051 15 12.4013 15 12.3974C15 12.3935 15 12.3897 15 12.3857C15 12.3818 15 12.3779 15 12.3739C15 12.37 15 12.366 15 12.362C15 12.358 15 12.354 15 12.3499C15 12.3459 15 12.3418 15 12.3377C15 12.3336 15 12.3295 15 12.3254C15 12.3213 15 12.3171 15 12.3129C15 12.3088 15 12.3046 15 12.3003C15 12.2961 15 12.2919 15 12.2876C15 12.2834 15 12.2791 15 12.2748C15 12.2705 15 12.2661 15 12.2618C15 12.2574 15 12.2531 15 12.2487C15 12.2443 15 12.2399 15 12.2354C15 12.231 15 12.2265 15 12.2221C15 12.2176 15 12.2131 15 12.2086C15 12.2041 15 12.1995 15 12.195C15 12.1904 15 12.1858 15 12.1812C15 12.1766 15 12.172 15 12.1674C15 12.1627 15 12.1581 15 12.1534C15 12.1487 15 12.144 15 12.1393C15 12.1346 15 12.1298 15 12.125C15 12.1203 15 12.1155 15 12.1107C15 12.1059 15 12.1011 15 12.0962C15 12.0914 15 12.0865 15 12.0816C15 12.0768 15 12.0719 15 12.0669C15 12.062 15 12.0571 15 12.0521C15 12.0471 15 12.0422 15 12.0372C15 12.0322 15 12.0271 15 12.0221C15 12.0171 15 12.012 15 12.0069C15 12.0019 15 11.9968 15 11.9916C15 11.9865 15 11.9814 15 11.9762C15 11.9711 15 11.9659 15 11.9607C15 11.9555 15 11.9503 15 11.9451C15 11.9399 15 11.9346 15 11.9294C15 11.9241 15 11.9188 15 11.9135C15 11.9082 15 11.9029 15 11.8975C15 11.8922 15 11.8868 15 11.8815C15 11.8761 15 11.8707 15 11.8653C15 11.8599 15 11.8544 15 11.849C15 11.8435 15 11.8381 15 11.8326C15 11.8271 15 11.8216 15 11.8161C15 11.8106 15 11.805 15 11.7995C15 11.7939 15 11.7883 15 11.7827C15 11.7772 15 11.7715 15 11.7659C15 11.7603 15 11.7547 15 11.749C15 11.7433 15 11.7377 15 11.732C15 11.7263 15 11.7206 15 11.7148C15 11.7091 15 11.7034 15 11.6976C15 11.6918 15 11.686 15 11.6802C15 11.6745 15 11.6686 15 11.6628C15 11.657 15 11.6511 15 11.6453C15 11.6394 15 11.6335 15 11.6276C15 11.6217 15 11.6158 15 11.6099C15 11.604 15 11.598 15 11.5921C15 11.5861 15 11.5801 15 11.5741C15 11.5681 15 11.5621 15 11.5561C15 11.5501 15 11.544 15 11.538C15 11.5319 15 11.5258 15 11.5197C15 11.5136 15 11.5075 15 11.5014C15 11.4953 15 11.4892 15 11.483C15 11.4769 15 11.4707 15 11.4645C15 11.4583 15 11.4521 15 11.4459C15 11.4397 15 11.4335 15 11.4272C15 11.421 15 11.4147 15 11.4084C15 11.4022 15 11.3959 15 11.3896C15 11.3833 15 11.377 15 11.3706C15 11.3643 15 11.3579 15 11.3516C15 11.3452 15 11.3388 15 11.3324C15 11.326 15 11.3196 15 11.3132C15 11.3068 15 11.3004 15 11.2939C15 11.2875 15 11.281 15 11.2745C15 11.268 15 11.2615 15 11.255C15 11.2485 15 11.242 15 11.2355C15 11.2289 15 11.2224 15 11.2158C15 11.2093 15 11.2027 15 11.1961C15 11.1895 15 11.1829 15 11.1763C15 11.1697 15 11.163 15 11.1564C15 11.1497 15 11.1431 15 11.1364C15 11.1297 15 11.123 15 11.1163C15 11.1096 15 11.1029 15 11.0962C15 11.0895 15 11.0827 15 11.076C15 11.0692 15 11.0625 15 11.0557C15 11.0489 15 11.0421 15 11.0353C15 11.0285 15 11.0217 15 11.0149C15 11.008 15 11.0012 15 10.9943C15 10.9875 15 10.9806 15 10.9737C15 10.9669 15 10.96 15 10.9531C15 10.9462 15 10.9393 15 10.9323C15 10.9254 15 10.9185 15 10.9115C15 10.9046 15 10.8976 15 10.8906C15 10.8836 15 10.8766 15 10.8696C15 10.8626 15 10.8556 15 10.8486C15 10.8416 15 10.8345 15 10.8275C15 10.8205 15 10.8134 15 10.8063C15 10.7992 15 10.7922 15 10.7851C15 10.778 15 10.7709 15 10.7638C15 10.7566 15 10.7495 15 10.7424C15 10.7352 15 10.7281 15 10.7209C15 10.7138 15 10.7066 15 10.6994C15 10.6922 15 10.685 15 10.6778C15 10.6706 15 10.6634 15 10.6562C15 10.649 15 10.6417 15 10.6345C15 10.6272 15 10.62 15 10.6127C15 10.6054 15 10.5982 15 10.5909C15 10.5836 15 10.5763 15 10.569C15 10.5617 15 10.5543 15 10.547C15 10.5397 15 10.5323 15 10.525C15 10.5176 15 10.5103 15 10.5029C15 10.4955 15 10.4882 15 10.4808C15 10.4734 15 10.466 15 10.4586C15 10.4512 15 10.4438 15 10.4363C15 10.4289 15 10.4215 15 10.414C15 10.4066 15 10.3991 15 10.3916C15 10.3842 15 10.3767 15 10.3692C15 10.3617 15 10.3542 15 10.3467C15 10.3392 15 10.3317 15 10.3242C15 10.3167 15 10.3092 15 10.3016C15 10.2941 15 10.2865 15 10.279C15 10.2714 15 10.2639 15 10.2563C15 10.2487 15 10.2411 15 10.2336C15 10.226 15 10.2184 15 10.2108C15 10.2032 15 10.1955 15 10.1879C15 10.1803 15 10.1727 15 10.165C15 10.1574 15 10.1497 15 10.1421C15 10.1344 15 10.1268 15 10.1191C15 10.1114 15 10.1038 15 10.0961C15 10.0884 15 10.0807 15 10.073C15 10.0653 15 10.0576 15 10.0499C15 10.0421 15 10.0344 15 10.0267C15 10.019 15 10.0112 15 10.0035C15 9.99573 15 9.98798 15 9.98022C15 9.97246 15 9.96469 15 9.95692C15 9.94914 15 9.94136 15 9.93357C15 9.92578 15 9.91799 15 9.91019C15 9.90239 15 9.89458 15 9.88676C15 9.87895 15 9.87112 15 9.8633C15 9.85547 15 9.84763 15 9.83979C15 9.83195 15 9.8241 15 9.81625C15 9.80839 15 9.80053 15 9.79266C15 9.7848 15 9.77692 15 9.76905C15 9.76117 15 9.75328 15 9.74539C15 9.7375 15 9.7296 15 9.7217C15 9.7138 15 9.70589 15 9.69797C15 9.69006 15 9.68214 15 9.67421C15 9.66629 15 9.65836 15 9.65042C15 9.64248 15 9.63454 15 9.62659C15 9.61864 15 9.61069 15 9.60273C15 9.59477 15 9.58681 15 9.57884C15 9.57087 15 9.5629 15 9.55492C15 9.54694 15 9.53896 15 9.53097C15 9.52298 15 9.51499 15 9.50699C15 9.49899 15 9.49099 15 9.48298C15 9.47497 15 9.46696 15 9.45894C15 9.45093 15 9.4429 15 9.43488C15 9.42685 15 9.41882 15 9.41079C15 9.40275 15 9.39471 15 9.38667C15 9.37863 15 9.37058 15 9.36253C15 9.35448 15 9.34642 15 9.33836C15 9.3303 15 9.32224 15 9.31417C15 9.3061 15 9.29803 15 9.28996C15 9.28188 15 9.2738 15 9.26572C15 9.25764 15 9.24955 15 9.24147C15 9.23338 15 9.22528 15 9.21719C15 9.20909 15 9.20099 15 9.19289C15 9.18479 15 9.17668 15 9.16857C15 9.16046 15 9.15235 15 9.14424C15 9.13612 15 9.128 15 9.11988C15 9.11176 15 9.10364 15 9.09551C15 9.08738 15 9.07925 15 9.07112C15 9.06299 15 9.05486 15 9.04672C15 9.03858 15 9.03044 15 9.0223C15 9.01416 15 9.00601 15 8.99787C15 8.98972 15 8.98157 15 8.97342C15 8.96527 15 8.95711 15 8.94896C15 8.9408 15 8.93264 15 8.92448C15 8.91632 15 8.90816 15 8.9C15 8.89184 15 8.88367 15 8.8755C15 8.86734 15 8.85917 15 8.851C15 8.84283 15 8.83466 15 8.82648C15 8.81831 15 8.81013 15 8.80196C15 8.79378 15 8.7856 15 8.77743C15 8.76925 15 8.76107 15 8.75289C15 8.74471 15 8.73652 15 8.72834C15 8.72016 15 8.71197 15 8.70379C15 8.6956 15 8.68742 15 8.67923C15 8.67104 15 8.66286 15 8.65467C15 8.64648 15 8.63829 15 8.6301C15 8.62191 15 8.61372 15 8.60553C15 8.59734 15 8.58915 15 8.58096C15 8.57277 15 8.56458 15 8.55639C15 8.5482 15 8.54 15 8.53181C15 8.52362 15 8.51543 15 8.50724C15 8.49905 15 8.49085 15 8.48266C15 8.47447 15 8.46628 15 8.45809C15 8.4499 15 8.44171 15 8.43352C15 8.42533 15 8.41714 15 8.40895C15 8.40076 15 8.39257 15 8.38438C15 8.37619 15 8.36801 15 8.35982C15 8.35163 15 8.34345 15 8.33526C15 8.32708 15 8.31889 15 8.31071C15 8.30253 15 8.29435 15 8.28616C15 8.27798 15 8.2698 15 8.26163C15 8.25345 15 8.24527 15 8.23709C15 8.22892 15 8.22074 15 8.21257C15 8.2044 15 8.19622 15 8.18805C15 8.17988 15 8.17172 15 8.16355C15 8.15538 15 8.14722 15 8.13905C15 8.13089 15 8.12273 15 8.11457C15 8.10641 15 8.09825 15 8.0901C15 8.08194 15 8.07379 15 8.06564C15 8.05749 15 8.04934 15 8.04119C15 8.03304 15 8.0249 15 8.01676C15 8.00862 15 8.00048 15 7.99234C15 7.9842 15 7.97607 15 7.96794C15 7.95981 15 7.95168 15 7.94355C15 7.93542 15 7.9273 15 7.91918C15 7.91106 15 7.90294 15 7.89483C15 7.88671 15 7.8786 15 7.87049C15 7.86238 15 7.85428 15 7.84617C15 7.83807 15 7.82997 15 7.82188C15 7.81378 15 7.80569 15 7.7976C15 7.78951 15 7.78143 15 7.77334C15 7.76526 15 7.75718 15 7.74911C15 7.74104 15 7.73297 15 7.7249C15 7.71683 15 7.70877 15 7.70071C15 7.69265 15 7.6846 15 7.67655C15 7.66849 15 7.66045 15 7.6524C15 7.64436 15 7.63632 15 7.62829C15 7.62025 15 7.61222 15 7.6042C15 7.59617 15 7.58815 15 7.58014C15 7.57212 15 7.56411 15 7.5561C15 7.54809 15 7.54009 15 7.53209C15 7.52409 15 7.5161 15 7.50811C15 7.50013 15 7.49214 15 7.48416C15 7.47619 15 7.46821 15 7.46024C15 7.45228 15 7.44431 15 7.43636C15 7.4284 15 7.42044 15 7.4125C15 7.40455 15 7.39661 15 7.38867C15 7.38074 15 7.37281 15 7.36488C15 7.35696 15 7.34904 15 7.34112C15 7.33321 15 7.3253 15 7.3174C15 7.3095 15 7.3016 15 7.29371C15 7.28582 15 7.27793 15 7.27006C15 7.26218 15 7.25431 15 7.24644C15 7.23857 15 7.23071 15 7.22286C15 7.21501 15 7.20716 15 7.19932C15 7.19148 15 7.18364 15 7.17581C15 7.16799 15 7.16017 15 7.15235C15 7.14454 15 7.13673 15 7.12893C15 7.12113 15 7.11333 15 7.10554C15 7.09776 15 7.08998 15 7.0822C15 7.07443 15 7.06666 15 7.0589C15 7.05114 15 7.04339 15 7.03565C15 7.0279 15 7.02016 15 7.01243C15 7.0047 15 6.99698 15 6.98926C15 6.98155 15 6.97384 15 6.96614C15 6.95844 15 6.95075 15 6.94306C15 6.93538 15 6.9277 15 6.92003C15 6.91236 15 6.9047 15 6.89705C15 6.88939 15 6.88175 15 6.87411C15 6.86647 15 6.85884 15 6.85122C15 6.8436 15 6.83599 15 6.82838C15 6.82078 15 6.81318 15 6.80559C15 6.798 15 6.79042 15 6.78285C15 6.77528 15 6.76772 15 6.76017C15 6.75261 15 6.74507 15 6.73753C15 6.72999 15 6.72247 15 6.71495C15 6.70743 15 6.69992 15 6.69242C15 6.68492 15 6.67743 15 6.66994C15 6.66246 15 6.65499 15 6.64752C15 6.64006 15 6.63261 15 6.62516C15 6.61771 15 6.61028 15 6.60285C15 6.59543 15 6.58801 15 6.5806C15 6.57319 15 6.5658 15 6.55841C15 6.55102 15 6.54364 15 6.53627C15 6.5289 15 6.52155 15 6.5142C15 6.50685 15 6.49951 15 6.49218C15 6.48485 15 6.47753 15 6.47023C15 6.46292 15 6.45562 15 6.44833C15 6.44104 15 6.43377 15 6.4265C15 6.41923 15 6.41198 15 6.40473C15 6.39748 15 6.39025 15 6.38302C15 6.3758 15 6.36859 15 6.36138C15 6.35418 15 6.34699 15 6.33981C15 6.33262 15 6.32545 15 6.31829C15 6.31113 15 6.30399 15 6.29685C15 6.28971 15 6.28258 15 6.27547C15 6.26835 15 6.26125 15 6.25416C15 6.24707 15 6.23998 15 6.23292C15 6.22585 15 6.21879 15 6.21174C15 6.2047 15 6.19766 15 6.19064C15 6.18362 15 6.1766 15 6.1696C15 6.16261 15 6.15562 15 6.14864C15 6.14167 15 6.1347 15 6.12775C15 6.1208 15 6.11386 15 6.10693C15 6.10001 15 6.09309 15 6.08619C15 6.07929 15 6.0724 15 6.06552C15 6.05864 15 6.05178 15 6.04492C15 6.03807 15 6.03123 15 6.0244C15 6.01758 15 6.01076 15 6.00396C15 5.99716 15 5.99037 15 5.98359C15 5.97682 15 5.97005 15 5.9633C15 5.95655 15 5.94981 15 5.94309C15 5.93637 15 5.92966 15 5.92296C15 5.91626 15 5.90958 15 5.9029C15 5.89623 15 5.88958 15 5.88293C15 5.87629 15 5.86966 15 5.86304C15 5.85642 15 5.84982 15 5.84323C15 5.83664 15 5.83007 15 5.8235C15 5.81694 15 5.81039 15 5.80386C15 5.79732 15 5.7908 15 5.7843C15 5.77779 15 5.7713 15 5.76482C15 5.75835 15 5.75188 15 5.74543C15 5.73898 15 5.73255 15 5.72613C15 5.71971 15 5.7133 15 5.70691C15 5.70052 15 5.69414 15 5.68778C15 5.68142 15 5.67507 15 5.66874C15 5.66241 15 5.65609 15 5.64979C15 5.64348 15 5.6372 15 5.63092C15 5.62465 15 5.61839 15 5.61215C15 5.60591 15 5.59968 15 5.59347C15 5.58726 15 5.58106 15 5.57488C15 5.5687 15 5.56253 15 5.55638C15 5.55023 15 5.54409 15 5.53797C15 5.53185 15 5.52575 15 5.51966C15 5.51357 15 5.5075 15 5.50145C15 5.49539 15 5.48935 15 5.48333C15 5.4773 15 5.47129 15 5.4653C15 5.45931 15 5.45333 15 5.44737C15 5.44141 15 5.43547 15 5.42954C15 5.42361 15 5.4177 15 5.41181C15 5.40591 15 5.40003 15 5.39417C15 5.38831 15 5.38246 15 5.37664C15 5.37081 15 5.365 15 5.3592C15 5.35341 15 5.34763 15 5.34187C15 5.33611 15 5.33036 15 5.32463C15 5.31891 15 5.3132 15 5.3075C15 5.30181 15 5.29614 15 5.29048C15 5.28482 15 5.27918 15 5.27355C15 5.26793 15 5.26232 15 5.25674C15 5.25115 15 5.24558 15 5.24002C15 5.23447 15 5.22893 15 5.22341C15 5.2179 15 5.21239 15 5.20691C15 5.20143 15 5.19596 15 5.19052C15 5.18507 15 5.17964 15 5.17423C15 5.16882 15 5.16343 15 5.15805C15 5.15268 15 5.14732 15 5.14199C15 5.13665 15 5.13133 15 5.12603C15 5.12073 15 5.11545 15 5.11018C15 5.10492 15 5.09967 15 5.09445C15 5.08922 15 5.08401 15 5.07882C15 5.07363 15 5.06846 15 5.06331C15 5.05816 15 5.05303 15 5.04792C15 5.0428 15 5.03771 15 5.03263C15 5.02756 15 5.0225 15 5.01747C15 5.01243 15 5.00741 15 5.00241C15 4.99742 15 4.99244 15 4.98748C15 4.98252 15 4.97758 15 4.97266C15 4.96774 15 4.96284 15 4.95796C15 4.95308 15 4.94822 15 4.94338C15 4.93854 15 4.93372 15 4.92892C15 4.92412 15 4.91934 15 4.91457C15 4.90981 15 4.90507 15 4.90035C15 4.89563 15 4.89093 15 4.88625C15 4.88157 15 4.87691 15 4.87228C15 4.86764 15 4.86302 15 4.85842C15 4.85382 15 4.84924 15 4.84469C15 4.84013 15 4.8356 15 4.83108C15 4.82657 15 4.82207 15 4.8176C15 4.81313 15 4.80867 15 4.80424C15 4.79981 15 4.7954 15 4.79101C15 4.78662 15 4.78226 15 4.77791C15 4.77356 15 4.76924 15 4.76493C15 4.76063 15 4.75635 15 4.75209C15 4.74783 15 4.74359 15 4.73937C15 4.73515 15 4.73096 15 4.72678C15 4.72261 15 4.71845 15 4.71432C15 4.71019 15 4.70609 15 4.702C15 4.69791 15 4.69385 15 4.6898C15 4.68576 15 4.68174 15 4.67774C15 4.67375 15 4.66977 15 4.66582C15 4.66186 15 4.65793 15 4.65402C15 4.65011 15 4.64623 15 4.64236C15 4.6385 15 4.63466 15 4.63084C15 4.62702 15 4.62323 15 4.61946C15 4.61568 15 4.61193 15 4.60821C15 4.60448 15 4.60077 15 4.59709C15 4.59341 15 4.58976 15 4.58612C15 4.58249 15 4.57887 15 4.57529C15 4.5717 15 4.56813 15 4.56459C15 4.56105 15 4.55753 15 4.55404C15 4.55054 15 4.54707 15 4.54363C15 4.54018 15 4.53675 15 4.53335C15 4.52995 15 4.52658 15 4.52323C15 4.51987 15 4.51655 15 4.51324C15 4.50994 15 4.50666 15 4.5034C15 4.50014 15 4.49691 15 4.49371C15 4.4905 15 4.48731 15 4.48415C15 4.481 15 4.47786 15 4.47475C15 4.47164 15 4.46855 15 4.46549C15 4.46243 15 4.4594 15 4.45638C15 4.45337 15 4.45039 15 4.44742C15 4.44446 15 4.44152 15 4.43861C15 4.4357 15 4.43281 15 4.42995C15 4.42709 15 4.42425 15 4.42144C15 4.41862 15 4.41584 15 4.41308C15 4.41031 15 4.40758 15 4.40487C15 4.40216 15 4.39947 15 4.39681C15 4.39415 15 4.39152 15 4.38891C15 4.3863 15 4.38371 15 4.38116C15 4.3786 15 4.37607 15 4.37356C15 4.37106 15 4.36858 15 4.36612C15 4.36367 15 4.36124 15 4.35884C15 4.35644 15 4.35406 15 4.35172C15 4.34937 15 4.34704 15 4.34475C15 4.34245 15 4.34018 15 4.33794C15 4.33569 15 4.33348 15 4.33128C15 4.32909 15 4.32693 15 4.32479C15 4.32266 15 4.32055 15 4.31846C15 4.31638 15 4.31432 15 4.31229C15 4.31026 15 4.30826 15 4.30628C15 4.30431 15 4.30236 15 4.30044C15 4.29852 15 4.29662 15 4.29475C15 4.29289 15 4.29105 15 4.28924C15 4.28742 15 4.28564 15 4.28388C15 4.28212 15 4.28039 15 4.27869C15 4.27699 15 4.27532 15 4.27367C15 4.27202 15 4.2704 15 4.26881C15 4.26722 15 4.26566 15 4.26412C15 4.26259 15 4.26108 15 4.2596C15 4.25812 15 4.25667 15 4.25525C15 4.25383 15 4.25243 15 4.25107C15 4.2497 15 4.24837 15 4.24706C15 4.24575 15 4.24447 15 4.24322C15 4.24196 15 4.24074 15 4.23955C15 4.23835 15 4.23719 15 4.23605C15 4.23491 15 4.23381 15 4.23273C15 4.23165 15 4.2306 15 4.22958C15 4.22856 15 4.22756 15 4.2266C15 4.22564 15 4.2247 15 4.2238C15 4.2229 15 4.22202 15 4.22118C15 4.22033 15 4.21952 15 4.21873C15 4.21794 15 4.21719 15 4.21646C15 4.21573 15 4.21503 15 4.21437C15 4.2137 15 4.21306 15 4.21245C15 4.21184 15 4.21127 15 4.21072C15 4.21017 15 4.20965 15 4.20917C15 4.20868 15 4.20822 15 4.20779H13C13 4.20822 13 4.20868 13 4.20917C13 4.20965 13 4.21017 13 4.21072C13 4.21127 13 4.21184 13 4.21245C13 4.21306 13 4.2137 13 4.21437C13 4.21503 13 4.21573 13 4.21646C13 4.21719 13 4.21794 13 4.21873C13 4.21952 13 4.22033 13 4.22118C13 4.22202 13 4.2229 13 4.2238C13 4.2247 13 4.22564 13 4.2266C13 4.22756 13 4.22856 13 4.22958C13 4.2306 13 4.23165 13 4.23273C13 4.23381 13 4.23491 13 4.23605C13 4.23719 13 4.23835 13 4.23955C13 4.24074 13 4.24196 13 4.24322C13 4.24447 13 4.24575 13 4.24706C13 4.24837 13 4.2497 13 4.25107C13 4.25243 13 4.25383 13 4.25525C13 4.25667 13 4.25812 13 4.2596C13 4.26108 13 4.26259 13 4.26412C13 4.26566 13 4.26722 13 4.26881C13 4.2704 13 4.27202 13 4.27367C13 4.27532 13 4.27699 13 4.27869C13 4.28039 13 4.28212 13 4.28388C13 4.28564 13 4.28742 13 4.28924C13 4.29105 13 4.29289 13 4.29475C13 4.29662 13 4.29852 13 4.30044C13 4.30236 13 4.30431 13 4.30628C13 4.30826 13 4.31026 13 4.31229C13 4.31432 13 4.31638 13 4.31846C13 4.32055 13 4.32266 13 4.32479C13 4.32693 13 4.32909 13 4.33128C13 4.33348 13 4.33569 13 4.33794C13 4.34018 13 4.34245 13 4.34475C13 4.34704 13 4.34937 13 4.35172C13 4.35406 13 4.35644 13 4.35884C13 4.36124 13 4.36367 13 4.36612C13 4.36858 13 4.37106 13 4.37356C13 4.37607 13 4.3786 13 4.38116C13 4.38371 13 4.3863 13 4.38891C13 4.39152 13 4.39415 13 4.39681C13 4.39947 13 4.40216 13 4.40487C13 4.40758 13 4.41031 13 4.41308C13 4.41584 13 4.41862 13 4.42144C13 4.42425 13 4.42709 13 4.42995C13 4.43281 13 4.4357 13 4.43861C13 4.44152 13 4.44446 13 4.44742C13 4.45039 13 4.45337 13 4.45638C13 4.4594 13 4.46243 13 4.46549C13 4.46855 13 4.47164 13 4.47475C13 4.47786 13 4.481 13 4.48415C13 4.48731 13 4.4905 13 4.49371C13 4.49691 13 4.50014 13 4.5034C13 4.50666 13 4.50994 13 4.51324C13 4.51655 13 4.51987 13 4.52323C13 4.52658 13 4.52995 13 4.53335C13 4.53675 13 4.54018 13 4.54363C13 4.54707 13 4.55054 13 4.55404C13 4.55753 13 4.56105 13 4.56459C13 4.56813 13 4.5717 13 4.57529C13 4.57887 13 4.58249 13 4.58612C13 4.58976 13 4.59341 13 4.59709C13 4.60077 13 4.60448 13 4.60821C13 4.61193 13 4.61568 13 4.61946C13 4.62323 13 4.62702 13 4.63084C13 4.63466 13 4.6385 13 4.64236C13 4.64623 13 4.65011 13 4.65402C13 4.65793 13 4.66186 13 4.66582C13 4.66977 13 4.67375 13 4.67774C13 4.68174 13 4.68576 13 4.6898C13 4.69385 13 4.69791 13 4.702C13 4.70609 13 4.71019 13 4.71432C13 4.71845 13 4.72261 13 4.72678C13 4.73096 13 4.73515 13 4.73937C13 4.74359 13 4.74783 13 4.75209C13 4.75635 13 4.76063 13 4.76493C13 4.76924 13 4.77356 13 4.77791C13 4.78226 13 4.78662 13 4.79101C13 4.7954 13 4.79981 13 4.80424C13 4.80867 13 4.81313 13 4.8176C13 4.82207 13 4.82657 13 4.83108C13 4.8356 13 4.84013 13 4.84469C13 4.84924 13 4.85382 13 4.85842C13 4.86302 13 4.86764 13 4.87228C13 4.87691 13 4.88157 13 4.88625C13 4.89093 13 4.89563 13 4.90035C13 4.90507 13 4.90981 13 4.91457C13 4.91934 13 4.92412 13 4.92892C13 4.93372 13 4.93854 13 4.94338C13 4.94822 13 4.95308 13 4.95796C13 4.96284 13 4.96774 13 4.97266C13 4.97758 13 4.98252 13 4.98748C13 4.99244 13 4.99742 13 5.00241C13 5.00741 13 5.01243 13 5.01747C13 5.0225 13 5.02756 13 5.03263C13 5.03771 13 5.0428 13 5.04792C13 5.05303 13 5.05816 13 5.06331C13 5.06846 13 5.07363 13 5.07882C13 5.08401 13 5.08922 13 5.09445C13 5.09967 13 5.10492 13 5.11018C13 5.11545 13 5.12073 13 5.12603C13 5.13133 13 5.13665 13 5.14199C13 5.14732 13 5.15268 13 5.15805C13 5.16343 13 5.16882 13 5.17423C13 5.17964 13 5.18507 13 5.19052C13 5.19596 13 5.20143 13 5.20691C13 5.21239 13 5.2179 13 5.22341C13 5.22893 13 5.23447 13 5.24002C13 5.24558 13 5.25115 13 5.25674C13 5.26232 13 5.26793 13 5.27355C13 5.27918 13 5.28482 13 5.29048C13 5.29614 13 5.30181 13 5.3075C13 5.3132 13 5.31891 13 5.32463C13 5.33036 13 5.33611 13 5.34187C13 5.34763 13 5.35341 13 5.3592C13 5.365 13 5.37081 13 5.37664C13 5.38246 13 5.38831 13 5.39417C13 5.40003 13 5.40591 13 5.41181C13 5.4177 13 5.42361 13 5.42954C13 5.43547 13 5.44141 13 5.44737C13 5.45333 13 5.45931 13 5.4653C13 5.47129 13 5.4773 13 5.48333C13 5.48935 13 5.49539 13 5.50145C13 5.5075 13 5.51357 13 5.51966C13 5.52575 13 5.53185 13 5.53797C13 5.54409 13 5.55023 13 5.55638C13 5.56253 13 5.5687 13 5.57488C13 5.58106 13 5.58726 13 5.59347C13 5.59968 13 5.60591 13 5.61215C13 5.61839 13 5.62465 13 5.63092C13 5.6372 13 5.64348 13 5.64979C13 5.65609 13 5.66241 13 5.66874C13 5.67507 13 5.68142 13 5.68778C13 5.69414 13 5.70052 13 5.70691C13 5.7133 13 5.71971 13 5.72613C13 5.73255 13 5.73898 13 5.74543C13 5.75188 13 5.75835 13 5.76482C13 5.7713 13 5.77779 13 5.7843C13 5.7908 13 5.79732 13 5.80386C13 5.81039 13 5.81694 13 5.8235C13 5.83007 13 5.83664 13 5.84323C13 5.84982 13 5.85642 13 5.86304C13 5.86966 13 5.87629 13 5.88293C13 5.88958 13 5.89623 13 5.9029C13 5.90958 13 5.91626 13 5.92296C13 5.92966 13 5.93637 13 5.94309C13 5.94981 13 5.95655 13 5.9633C13 5.97005 13 5.97682 13 5.98359C13 5.99037 13 5.99716 13 6.00396C13 6.01076 13 6.01758 13 6.0244C13 6.03123 13 6.03807 13 6.04492C13 6.05178 13 6.05864 13 6.06552C13 6.0724 13 6.07929 13 6.08619C13 6.09309 13 6.10001 13 6.10693C13 6.11386 13 6.1208 13 6.12775C13 6.1347 13 6.14167 13 6.14864C13 6.15562 13 6.16261 13 6.1696C13 6.1766 13 6.18362 13 6.19064C13 6.19766 13 6.2047 13 6.21174C13 6.21879 13 6.22585 13 6.23292C13 6.23998 13 6.24707 13 6.25416C13 6.26125 13 6.26835 13 6.27547C13 6.28258 13 6.28971 13 6.29685C13 6.30399 13 6.31113 13 6.31829C13 6.32545 13 6.33262 13 6.33981C13 6.34699 13 6.35418 13 6.36138C13 6.36859 13 6.3758 13 6.38302C13 6.39025 13 6.39748 13 6.40473C13 6.41198 13 6.41923 13 6.4265C13 6.43377 13 6.44104 13 6.44833C13 6.45562 13 6.46292 13 6.47023C13 6.47753 13 6.48485 13 6.49218C13 6.49951 13 6.50685 13 6.5142C13 6.52155 13 6.5289 13 6.53627C13 6.54364 13 6.55102 13 6.55841C13 6.5658 13 6.57319 13 6.5806C13 6.58801 13 6.59543 13 6.60285C13 6.61028 13 6.61771 13 6.62516C13 6.63261 13 6.64006 13 6.64752C13 6.65499 13 6.66246 13 6.66994C13 6.67743 13 6.68492 13 6.69242C13 6.69992 13 6.70743 13 6.71495C13 6.72247 13 6.72999 13 6.73753C13 6.74507 13 6.75261 13 6.76017C13 6.76772 13 6.77528 13 6.78285C13 6.79042 13 6.798 13 6.80559C13 6.81318 13 6.82078 13 6.82838C13 6.83599 13 6.8436 13 6.85122C13 6.85884 13 6.86647 13 6.87411C13 6.88175 13 6.88939 13 6.89705C13 6.9047 13 6.91236 13 6.92003C13 6.9277 13 6.93538 13 6.94306C13 6.95075 13 6.95844 13 6.96614C13 6.97384 13 6.98155 13 6.98926C13 6.99698 13 7.0047 13 7.01243C13 7.02016 13 7.0279 13 7.03565C13 7.04339 13 7.05114 13 7.0589C13 7.06666 13 7.07443 13 7.0822C13 7.08998 13 7.09776 13 7.10554C13 7.11333 13 7.12113 13 7.12893C13 7.13673 13 7.14454 13 7.15235C13 7.16017 13 7.16799 13 7.17581C13 7.18364 13 7.19148 13 7.19932C13 7.20716 13 7.21501 13 7.22286C13 7.23071 13 7.23857 13 7.24644C13 7.25431 13 7.26218 13 7.27006C13 7.27793 13 7.28582 13 7.29371C13 7.3016 13 7.3095 13 7.3174C13 7.3253 13 7.33321 13 7.34112C13 7.34904 13 7.35696 13 7.36488C13 7.37281 13 7.38074 13 7.38867C13 7.39661 13 7.40455 13 7.4125C13 7.42044 13 7.4284 13 7.43636C13 7.44431 13 7.45228 13 7.46024C13 7.46821 13 7.47619 13 7.48416C13 7.49214 13 7.50013 13 7.50811C13 7.5161 13 7.52409 13 7.53209C13 7.54009 13 7.54809 13 7.5561C13 7.56411 13 7.57212 13 7.58014C13 7.58815 13 7.59617 13 7.6042C13 7.61222 13 7.62025 13 7.62829C13 7.63632 13 7.64436 13 7.6524C13 7.66045 13 7.66849 13 7.67655C13 7.6846 13 7.69265 13 7.70071C13 7.70877 13 7.71683 13 7.7249C13 7.73297 13 7.74104 13 7.74911C13 7.75718 13 7.76526 13 7.77334C13 7.78143 13 7.78951 13 7.7976C13 7.80569 13 7.81378 13 7.82188C13 7.82997 13 7.83807 13 7.84617C13 7.85428 13 7.86238 13 7.87049C13 7.8786 13 7.88671 13 7.89483C13 7.90294 13 7.91106 13 7.91918C13 7.9273 13 7.93542 13 7.94355C13 7.95168 13 7.95981 13 7.96794C13 7.97607 13 7.9842 13 7.99234C13 8.00048 13 8.00862 13 8.01676C13 8.0249 13 8.03304 13 8.04119C13 8.04934 13 8.05749 13 8.06564C13 8.07379 13 8.08194 13 8.0901C13 8.09825 13 8.10641 13 8.11457C13 8.12273 13 8.13089 13 8.13905C13 8.14722 13 8.15538 13 8.16355C13 8.17172 13 8.17988 13 8.18805C13 8.19622 13 8.2044 13 8.21257C13 8.22074 13 8.22892 13 8.23709C13 8.24527 13 8.25345 13 8.26163C13 8.2698 13 8.27798 13 8.28616C13 8.29435 13 8.30253 13 8.31071C13 8.31889 13 8.32708 13 8.33526C13 8.34345 13 8.35163 13 8.35982C13 8.36801 13 8.37619 13 8.38438C13 8.39257 13 8.40076 13 8.40895C13 8.41714 13 8.42533 13 8.43352C13 8.44171 13 8.4499 13 8.45809C13 8.46628 13 8.47447 13 8.48266C13 8.49085 13 8.49905 13 8.50724C13 8.51543 13 8.52362 13 8.53181C13 8.54 13 8.5482 13 8.55639C13 8.56458 13 8.57277 13 8.58096C13 8.58915 13 8.59734 13 8.60553C13 8.61372 13 8.62191 13 8.6301C13 8.63829 13 8.64648 13 8.65467C13 8.66286 13 8.67104 13 8.67923C13 8.68742 13 8.6956 13 8.70379C13 8.71197 13 8.72016 13 8.72834C13 8.73652 13 8.74471 13 8.75289C13 8.76107 13 8.76925 13 8.77743C13 8.7856 13 8.79378 13 8.80196C13 8.81013 13 8.81831 13 8.82648C13 8.83466 13 8.84283 13 8.851C13 8.85917 13 8.86734 13 8.8755C13 8.88367 13 8.89184 13 8.9C13 8.90816 13 8.91632 13 8.92448C13 8.93264 13 8.9408 13 8.94896C13 8.95711 13 8.96527 13 8.97342C13 8.98157 13 8.98972 13 8.99787C13 9.00601 13 9.01416 13 9.0223C13 9.03044 13 9.03858 13 9.04672C13 9.05486 13 9.06299 13 9.07112C13 9.07925 13 9.08738 13 9.09551C13 9.10364 13 9.11176 13 9.11988C13 9.128 13 9.13612 13 9.14424C13 9.15235 13 9.16046 13 9.16857C13 9.17668 13 9.18479 13 9.19289C13 9.20099 13 9.20909 13 9.21719C13 9.22528 13 9.23338 13 9.24147C13 9.24955 13 9.25764 13 9.26572C13 9.2738 13 9.28188 13 9.28996C13 9.29803 13 9.3061 13 9.31417C13 9.32224 13 9.3303 13 9.33836C13 9.34642 13 9.35448 13 9.36253C13 9.37058 13 9.37863 13 9.38667C13 9.39471 13 9.40275 13 9.41079C13 9.41882 13 9.42685 13 9.43488C13 9.4429 13 9.45093 13 9.45894C13 9.46696 13 9.47497 13 9.48298C13 9.49099 13 9.49899 13 9.50699C13 9.51499 13 9.52298 13 9.53097C13 9.53896 13 9.54694 13 9.55492C13 9.5629 13 9.57087 13 9.57884C13 9.58681 13 9.59477 13 9.60273C13 9.61069 13 9.61864 13 9.62659C13 9.63454 13 9.64248 13 9.65042C13 9.65836 13 9.66629 13 9.67421C13 9.68214 13 9.69006 13 9.69797C13 9.70589 13 9.7138 13 9.7217C13 9.7296 13 9.7375 13 9.74539C13 9.75328 13 9.76117 13 9.76905C13 9.77692 13 9.7848 13 9.79266C13 9.80053 13 9.80839 13 9.81625C13 9.8241 13 9.83195 13 9.83979C13 9.84763 13 9.85547 13 9.8633C13 9.87112 13 9.87895 13 9.88676C13 9.89458 13 9.90239 13 9.91019C13 9.91799 13 9.92578 13 9.93357C13 9.94136 13 9.94914 13 9.95692C13 9.96469 13 9.97246 13 9.98022C13 9.98798 13 9.99573 13 10.0035C13 10.0112 13 10.019 13 10.0267C13 10.0344 13 10.0421 13 10.0499C13 10.0576 13 10.0653 13 10.073C13 10.0807 13 10.0884 13 10.0961C13 10.1038 13 10.1114 13 10.1191C13 10.1268 13 10.1344 13 10.1421C13 10.1497 13 10.1574 13 10.165C13 10.1727 13 10.1803 13 10.1879C13 10.1955 13 10.2032 13 10.2108C13 10.2184 13 10.226 13 10.2336C13 10.2411 13 10.2487 13 10.2563C13 10.2639 13 10.2714 13 10.279C13 10.2865 13 10.2941 13 10.3016C13 10.3092 13 10.3167 13 10.3242C13 10.3317 13 10.3392 13 10.3467C13 10.3542 13 10.3617 13 10.3692C13 10.3767 13 10.3842 13 10.3916C13 10.3991 13 10.4066 13 10.414C13 10.4215 13 10.4289 13 10.4363C13 10.4438 13 10.4512 13 10.4586C13 10.466 13 10.4734 13 10.4808C13 10.4882 13 10.4955 13 10.5029C13 10.5103 13 10.5176 13 10.525C13 10.5323 13 10.5397 13 10.547C13 10.5543 13 10.5617 13 10.569C13 10.5763 13 10.5836 13 10.5909C13 10.5982 13 10.6054 13 10.6127C13 10.62 13 10.6272 13 10.6345C13 10.6417 13 10.649 13 10.6562C13 10.6634 13 10.6706 13 10.6778C13 10.685 13 10.6922 13 10.6994C13 10.7066 13 10.7138 13 10.7209C13 10.7281 13 10.7352 13 10.7424C13 10.7495 13 10.7566 13 10.7638C13 10.7709 13 10.778 13 10.7851C13 10.7922 13 10.7992 13 10.8063C13 10.8134 13 10.8205 13 10.8275C13 10.8345 13 10.8416 13 10.8486C13 10.8556 13 10.8626 13 10.8696C13 10.8766 13 10.8836 13 10.8906C13 10.8976 13 10.9046 13 10.9115C13 10.9185 13 10.9254 13 10.9323C13 10.9393 13 10.9462 13 10.9531C13 10.96 13 10.9669 13 10.9737C13 10.9806 13 10.9875 13 10.9943C13 11.0012 13 11.008 13 11.0149C13 11.0217 13 11.0285 13 11.0353C13 11.0421 13 11.0489 13 11.0557C13 11.0625 13 11.0692 13 11.076C13 11.0827 13 11.0895 13 11.0962C13 11.1029 13 11.1096 13 11.1163C13 11.123 13 11.1297 13 11.1364C13 11.1431 13 11.1497 13 11.1564C13 11.163 13 11.1697 13 11.1763C13 11.1829 13 11.1895 13 11.1961C13 11.2027 13 11.2093 13 11.2158C13 11.2224 13 11.2289 13 11.2355C13 11.242 13 11.2485 13 11.255C13 11.2615 13 11.268 13 11.2745C13 11.281 13 11.2875 13 11.2939C13 11.3004 13 11.3068 13 11.3132C13 11.3196 13 11.326 13 11.3324C13 11.3388 13 11.3452 13 11.3516C13 11.3579 13 11.3643 13 11.3706C13 11.377 13 11.3833 13 11.3896C13 11.3959 13 11.4022 13 11.4084C13 11.4147 13 11.421 13 11.4272C13 11.4335 13 11.4397 13 11.4459C13 11.4521 13 11.4583 13 11.4645C13 11.4707 13 11.4769 13 11.483C13 11.4892 13 11.4953 13 11.5014C13 11.5075 13 11.5136 13 11.5197C13 11.5258 13 11.5319 13 11.538C13 11.544 13 11.5501 13 11.5561C13 11.5621 13 11.5681 13 11.5741C13 11.5801 13 11.5861 13 11.5921C13 11.598 13 11.604 13 11.6099C13 11.6158 13 11.6217 13 11.6276C13 11.6335 13 11.6394 13 11.6453C13 11.6511 13 11.657 13 11.6628C13 11.6686 13 11.6745 13 11.6802C13 11.686 13 11.6918 13 11.6976C13 11.7034 13 11.7091 13 11.7148C13 11.7206 13 11.7263 13 11.732C13 11.7377 13 11.7433 13 11.749C13 11.7547 13 11.7603 13 11.7659C13 11.7715 13 11.7772 13 11.7827C13 11.7883 13 11.7939 13 11.7995C13 11.805 13 11.8106 13 11.8161C13 11.8216 13 11.8271 13 11.8326C13 11.8381 13 11.8435 13 11.849C13 11.8544 13 11.8599 13 11.8653C13 11.8707 13 11.8761 13 11.8815C13 11.8868 13 11.8922 13 11.8975C13 11.9029 13 11.9082 13 11.9135C13 11.9188 13 11.9241 13 11.9294C13 11.9346 13 11.9399 13 11.9451C13 11.9503 13 11.9555 13 11.9607C13 11.9659 13 11.9711 13 11.9762C13 11.9814 13 11.9865 13 11.9916C13 11.9968 13 12.0019 13 12.0069C13 12.012 13 12.0171 13 12.0221C13 12.0271 13 12.0322 13 12.0372C13 12.0422 13 12.0471 13 12.0521C13 12.0571 13 12.062 13 12.0669C13 12.0719 13 12.0768 13 12.0816C13 12.0865 13 12.0914 13 12.0962C13 12.1011 13 12.1059 13 12.1107C13 12.1155 13 12.1203 13 12.125C13 12.1298 13 12.1346 13 12.1393C13 12.144 13 12.1487 13 12.1534C13 12.1581 13 12.1627 13 12.1674C13 12.172 13 12.1766 13 12.1812C13 12.1858 13 12.1904 13 12.195C13 12.1995 13 12.2041 13 12.2086C13 12.2131 13 12.2176 13 12.2221C13 12.2265 13 12.231 13 12.2354C13 12.2399 13 12.2443 13 12.2487C13 12.2531 13 12.2574 13 12.2618C13 12.2661 13 12.2705 13 12.2748C13 12.2791 13 12.2834 13 12.2876C13 12.2919 13 12.2961 13 12.3003C13 12.3046 13 12.3088 13 12.3129C13 12.3171 13 12.3213 13 12.3254C13 12.3295 13 12.3336 13 12.3377C13 12.3418 13 12.3459 13 12.3499C13 12.354 13 12.358 13 12.362C13 12.366 13 12.37 13 12.3739C13 12.3779 13 12.3818 13 12.3857C13 12.3897 13 12.3935 13 12.3974C13 12.4013 13 12.4051 13 12.4089C13 12.4128 13 12.4166 13 12.4203C13 12.4241 13 12.4279 13 12.4316C13 12.4353 13 12.439 13 12.4427C13 12.4464 13 12.4501 13 12.4537C13 12.4573 13 12.4609 13 12.4645C13 12.4681 13 12.4717 13 12.4752C13 12.4788 13 12.4823 13 12.4858C13 12.4893 13 12.4928 13 12.4962C13 12.4997 13 12.5031 13 12.5065C13 12.5099 13 12.5133 13 12.5166C13 12.52 13 12.5233 13 12.5266C13 12.5299 13 12.5332 13 12.5365C13 12.5397 13 12.543 13 12.5462C13 12.5494 13 12.5526 13 12.5557C13 12.5589 13 12.562 13 12.5651C13 12.5683 13 12.5713 13 12.5744C13 12.5775 13 12.5805 13 12.5835C13 12.5865 13 12.5895 13 12.5925C13 12.5955 13 12.5984 13 12.6013C13 12.6042 13 12.6071 13 12.61C13 12.6129 13 12.6157 13 12.6185C13 12.6213 13 12.6241 13 12.6269C13 12.6296 13 12.6324 13 12.6351C13 12.6378 13 12.6405 13 12.6432C13 12.6458 13 12.6485 13 12.6511C13 12.6537 13 12.6563 13 12.6588C13 12.6614 13 12.6639 13 12.6664C13 12.6689 13 12.6714 13 12.6739C13 12.6763 13 12.6788 13 12.6812C13 12.6836 13 12.686 13 12.6883C13 12.6907 13 12.693 13 12.6953C13 12.6976 13 12.6999 13 12.7021C13 12.7044 13 12.7066 13 12.7088C13 12.711 13 12.7131 13 12.7153C13 12.7174 13 12.7195 13 12.7216C13 12.7237 13 12.7258 13 12.7278C13 12.7298 13 12.7318 13 12.7338C13 12.7358 13 12.7377 13 12.7397C13 12.7416 13 12.7435 13 12.7453C13 12.7472 13 12.7491 13 12.7509C13 12.7527 13 12.7545 13 12.7562C13 12.758 13 12.7597 13 12.7614C13 12.7631 13 12.7648 13 12.7665C13 12.7681 13 12.7697 13 12.7713C13 12.7729 13 12.7745 13 12.776C13 12.7776 13 12.7791 13 12.7806C13 12.782 13 12.7835 13 12.7849C13 12.7864 13 12.7877 13 12.7891C13 12.7905 13 12.7918 13 12.7931C13 12.7945 13 12.7957 13 12.797C13 12.7982 13 12.7995 13 12.8007C13 12.8019 13 12.803 13 12.8042C13 12.8053 13 12.8064 13 12.8075C13 12.8086 13 12.8096 13 12.8107C13 12.8117 13 12.8127 13 12.8137C13 12.8146 13 12.8156 13 12.8165C13 12.8174 13 12.8182 13 12.8191C13 12.8199 13 12.8208 13 12.8216C13 12.8223 13 12.8231 13 12.8238C13 12.8246 13 12.8253 13 12.8259C13 12.8266 13 12.8273 13 12.8279C13 12.8285 13 12.8291 13 12.8296C13 12.8302 13 12.8307 13 12.8312H15ZM15 4.20779C15 3.11016 14.1733 2.03896 12.9453 2.03896V4.03896C12.9236 4.03896 12.9263 4.02722 12.9483 4.05162C12.9717 4.07752 13 4.13033 13 4.20779H15ZM3.70312 4.20779C3.70312 4.4461 3.50731 4.81818 3.05469 4.81818V2.81818C2.21436 2.81818 1.70312 3.53983 1.70312 4.20779H3.70312ZM3.05469 4.81818H3.89844V2.81818H3.05469V4.81818ZM2.89844 3.81818V4.46753H4.89844V3.81818H2.89844ZM2.89844 4.46753C2.89844 5.13584 3.40937 5.85714 4.25 5.85714V3.85714C4.70232 3.85714 4.89844 4.22957 4.89844 4.46753H2.89844ZM4.25 5.85714C5.09063 5.85714 5.60156 5.13584 5.60156 4.46753H3.60156C3.60156 4.22957 3.79768 3.85714 4.25 3.85714V5.85714ZM5.60156 4.46753V3.81818H3.60156V4.46753H5.60156ZM4.60156 4.81818H7.64844V2.81818H4.60156V4.81818ZM6.64844 3.81818V4.46753H8.64844V3.81818H6.64844ZM6.64844 4.46753C6.64844 5.13584 7.15937 5.85714 8 5.85714V3.85714C8.45232 3.85714 8.64844 4.22957 8.64844 4.46753H6.64844ZM8 5.85714C8.84063 5.85714 9.35156 5.13584 9.35156 4.46753H7.35156C7.35156 4.22957 7.54768 3.85714 8 3.85714V5.85714ZM9.35156 4.46753V3.81818H7.35156V4.46753H9.35156ZM8.35156 4.81818H11.3984V2.81818H8.35156V4.81818ZM10.3984 3.81818V4.46753H12.3984V3.81818H10.3984ZM10.3984 4.46753C10.3984 5.13584 10.9094 5.85714 11.75 5.85714V3.85714C12.2023 3.85714 12.3984 4.22957 12.3984 4.46753H10.3984ZM11.75 5.85714C12.5906 5.85714 13.1016 5.13584 13.1016 4.46753H11.1016C11.1016 4.22957 11.2977 3.85714 11.75 3.85714V5.85714ZM13.1016 4.46753V3.81818H11.1016V4.46753H13.1016ZM12.1016 4.81818H12.9453V2.81818H12.1016V4.81818ZM12.9453 4.81818C12.4927 4.81818 12.2969 4.4461 12.2969 4.20779H14.2969C14.2969 3.53983 13.7856 2.81818 12.9453 2.81818V4.81818ZM12.2969 4.20779V5.74026H14.2969V4.20779H12.2969ZM13.2969 4.74026H2.70312V6.74026H13.2969V4.74026ZM3.70312 5.74026V4.20779H1.70312V5.74026H3.70312ZM12.9453 12.2208H3.05469V14.2208H12.9453V12.2208ZM3.05469 12.2208C3.50731 12.2208 3.70312 12.5929 3.70312 12.8312H1.70312C1.70312 13.4991 2.21436 14.2208 3.05469 14.2208V12.2208ZM3.70312 12.8312V6.51948H1.70312V12.8312H3.70312ZM2.70312 7.51948H13.2969V5.51948H2.70312V7.51948ZM12.2969 6.51948V12.8312H14.2969V6.51948H12.2969ZM12.2969 12.8312C12.2969 12.5929 12.4927 12.2208 12.9453 12.2208V14.2208C13.7856 14.2208 14.2969 13.4991 14.2969 12.8312H12.2969Z" fill="black" mask="url(#path-19-inside-10)"/>
</svg>
