<svg width="16" height="16" viewBox="0 0 16 16" fill="none" xmlns="http://www.w3.org/2000/svg">
<path d="M5.375 7.81836H4.625C4.43084 7.81836 4.27344 7.9928 4.27344 8.20797C4.27344 8.42314 4.43084 8.59758 4.625 8.59758H5.375C5.56916 8.59758 5.72656 8.42314 5.72656 8.20797C5.72656 7.9928 5.56916 7.81836 5.375 7.81836Z" fill="black"/>
<path d="M5.375 9.48047H4.625C4.43084 9.48047 4.27344 9.65491 4.27344 9.87008C4.27344 10.0852 4.43084 10.2597 4.625 10.2597H5.375C5.56916 10.2597 5.72656 10.0852 5.72656 9.87008C5.72656 9.65491 5.56916 9.48047 5.375 9.48047Z" fill="black"/>
<path d="M5.375 11.1426H4.625C4.43084 11.1426 4.27344 11.317 4.27344 11.5322C4.27344 11.7474 4.43084 11.9218 4.625 11.9218H5.375C5.56916 11.9218 5.72656 11.7474 5.72656 11.5322C5.72656 11.317 5.56916 11.1426 5.375 11.1426Z" fill="black"/>
<path d="M8.375 7.81836H7.625C7.43084 7.81836 7.27344 7.9928 7.27344 8.20797C7.27344 8.42314 7.43084 8.59758 7.625 8.59758H8.375C8.56916 8.59758 8.72656 8.42314 8.72656 8.20797C8.72656 7.9928 8.56916 7.81836 8.375 7.81836Z" fill="black"/>
<path d="M8.375 9.48047H7.625C7.43084 9.48047 7.27344 9.65491 7.27344 9.87008C7.27344 10.0852 7.43084 10.2597 7.625 10.2597H8.375C8.56916 10.2597 8.72656 10.0852 8.72656 9.87008C8.72656 9.65491 8.56916 9.48047 8.375 9.48047Z" fill="black"/>
<path d="M8.375 11.1426H7.625C7.43084 11.1426 7.27344 11.317 7.27344 11.5322C7.27344 11.7474 7.43084 11.9218 7.625 11.9218H8.375C8.56916 11.9218 8.72656 11.7474 8.72656 11.5322C8.72656 11.317 8.56916 11.1426 8.375 11.1426Z" fill="black"/>
<path d="M11.375 7.81836H10.625C10.4308 7.81836 10.2734 7.9928 10.2734 8.20797C10.2734 8.42314 10.4308 8.59758 10.625 8.59758H11.375C11.5692 8.59758 11.7266 8.42314 11.7266 8.20797C11.7266 7.9928 11.5692 7.81836 11.375 7.81836Z" fill="black"/>
<path d="M11.375 9.48047H10.625C10.4308 9.48047 10.2734 9.65491 10.2734 9.87008C10.2734 10.0852 10.4308 10.2597 10.625 10.2597H11.375C11.5692 10.2597 11.7266 10.0852 11.7266 9.87008C11.7266 9.65491 11.5692 9.48047 11.375 9.48047Z" fill="black"/>
<path d="M11.375 11.1426H10.625C10.4308 11.1426 10.2734 11.317 10.2734 11.5322C10.2734 11.7474 10.4308 11.9218 10.625 11.9218H11.375C11.5692 11.9218 11.7266 11.7474 11.7266 11.5322C11.7266 11.317 11.5692 11.1426 11.375 11.1426Z" fill="black"/>
<path d="M12.9453 3.03896H12.1016V2.38961C12.1016 2.17444 11.9442 2 11.75 2C11.5558 2 11.3984 2.17444 11.3984 2.38961V3.03896H8.35156V2.38961C8.35156 2.17444 8.19416 2 8 2C7.80584 2 7.64844 2.17444 7.64844 2.38961V3.03896H4.60156V2.38961C4.60156 2.17444 4.44416 2 4.25 2C4.05584 2 3.89844 2.17444 3.89844 2.38961V3.03896H3.05469C2.47313 3.03896 2 3.5633 2 4.20779V12.8312C2 13.4757 2.47313 14 3.05469 14H12.9453C13.5269 14 14 13.4757 14 12.8312C14 12.5797 14 4.42662 14 4.20779C14 3.5633 13.5269 3.03896 12.9453 3.03896ZM2.70312 4.20779C2.70312 3.99296 2.86084 3.81818 3.05469 3.81818H3.89844V4.46753C3.89844 4.6827 4.05584 4.85714 4.25 4.85714C4.44416 4.85714 4.60156 4.6827 4.60156 4.46753V3.81818H7.64844V4.46753C7.64844 4.6827 7.80584 4.85714 8 4.85714C8.19416 4.85714 8.35156 4.6827 8.35156 4.46753V3.81818H11.3984V4.46753C11.3984 4.6827 11.5558 4.85714 11.75 4.85714C11.9442 4.85714 12.1016 4.6827 12.1016 4.46753V3.81818H12.9453C13.1392 3.81818 13.2969 3.99296 13.2969 4.20779V5.74026H2.70312V4.20779ZM12.9453 13.2208H3.05469C2.86084 13.2208 2.70312 13.046 2.70312 12.8312V6.51948H13.2969V12.8312C13.2969 13.046 13.1392 13.2208 12.9453 13.2208Z" fill="black"/>
</svg>
