<svg width="16" height="16" viewBox="0 0 16 16" fill="none" xmlns="http://www.w3.org/2000/svg">
<path d="M10.8659 9.99706L10.5825 10.3469L10.9009 10.6653L15.431 15.1954L15.1954 15.431L10.6653 10.9009L10.3469 10.5826L9.99707 10.866C8.99374 11.6786 7.72016 12.1667 6.33336 12.1667C3.1173 12.1667 0.5 9.54941 0.5 6.33336C0.5 3.1173 3.11728 0.5 6.33332 0.5C9.54938 0.5 12.1667 3.1173 12.1667 6.33336C12.1667 7.72017 11.6786 8.99374 10.8659 9.99706ZM0.833346 6.33336C0.833346 9.36666 3.30005 11.8334 6.33336 11.8334C9.36666 11.8334 11.8334 9.36666 11.8334 6.33336C11.8334 3.30005 9.36666 0.833346 6.33336 0.833346C3.30005 0.833346 0.833346 3.30005 0.833346 6.33336Z" stroke="black"/>
</svg>
