<svg width="16" height="16" viewBox="0 0 16 16" fill="none" xmlns="http://www.w3.org/2000/svg">
<g clip-path="url(#clip0)">
<mask id="path-1-inside-1" fill="white">
<path d="M15.5308 3.24593H10.0822C10.0245 3.11168 9.94104 2.98597 9.83157 2.87653L8.97039 2.01534C8.74642 1.79134 8.44858 1.66797 8.13177 1.66797C7.81498 1.66797 7.51717 1.79134 7.29314 2.01531L6.43196 2.8765C6.32252 2.98593 6.23899 3.11165 6.18133 3.2459H0.469218C0.210093 3.2459 0 3.45597 0 3.71509C0 3.97421 0.210093 4.18434 0.469218 4.18434H6.18139C6.23905 4.31859 6.32255 4.44431 6.43202 4.55374L7.2932 5.41493C7.5172 5.63893 7.81505 5.76227 8.13183 5.76227C8.44864 5.76227 8.74645 5.6389 8.97045 5.41493L9.83164 4.55374C9.94107 4.44431 10.0246 4.31859 10.0823 4.18434H15.5308C15.7899 4.18434 16 3.97425 16 3.71512C16 3.456 15.7899 3.24593 15.5308 3.24593ZM9.16808 3.89025L8.30689 4.75143C8.26014 4.79818 8.19798 4.82393 8.13183 4.82393C8.06567 4.82393 8.00352 4.79818 7.95677 4.75143L7.09558 3.89025C6.99905 3.79368 6.99905 3.63662 7.09558 3.54009L7.95677 2.67894C8.00352 2.63219 8.06567 2.60644 8.13183 2.60644C8.19798 2.60644 8.26014 2.63219 8.30689 2.67894L9.16808 3.54012C9.26461 3.63665 9.26461 3.79371 9.16808 3.89025Z"/>
</mask>
<path d="M15.5308 3.24593H10.0822C10.0245 3.11168 9.94104 2.98597 9.83157 2.87653L8.97039 2.01534C8.74642 1.79134 8.44858 1.66797 8.13177 1.66797C7.81498 1.66797 7.51717 1.79134 7.29314 2.01531L6.43196 2.8765C6.32252 2.98593 6.23899 3.11165 6.18133 3.2459H0.469218C0.210093 3.2459 0 3.45597 0 3.71509C0 3.97421 0.210093 4.18434 0.469218 4.18434H6.18139C6.23905 4.31859 6.32255 4.44431 6.43202 4.55374L7.2932 5.41493C7.5172 5.63893 7.81505 5.76227 8.13183 5.76227C8.44864 5.76227 8.74645 5.6389 8.97045 5.41493L9.83164 4.55374C9.94107 4.44431 10.0246 4.31859 10.0823 4.18434H15.5308C15.7899 4.18434 16 3.97425 16 3.71512C16 3.456 15.7899 3.24593 15.5308 3.24593ZM9.16808 3.89025L8.30689 4.75143C8.26014 4.79818 8.19798 4.82393 8.13183 4.82393C8.06567 4.82393 8.00352 4.79818 7.95677 4.75143L7.09558 3.89025C6.99905 3.79368 6.99905 3.63662 7.09558 3.54009L7.95677 2.67894C8.00352 2.63219 8.06567 2.60644 8.13183 2.60644C8.19798 2.60644 8.26014 2.63219 8.30689 2.67894L9.16808 3.54012C9.26461 3.63665 9.26461 3.79371 9.16808 3.89025Z" stroke="black" stroke-width="2" mask="url(#path-1-inside-1)"/>
<mask id="path-2-inside-2" fill="white">
<path d="M15.5308 7.59355H6.37839C6.31971 7.45737 6.23511 7.33215 6.12708 7.22415L5.26593 6.36297C5.04193 6.13897 4.74408 6.01562 4.4273 6.01562C4.11049 6.01562 3.81268 6.13901 3.58868 6.36297L2.72749 7.22415C2.61806 7.33359 2.53453 7.4593 2.47687 7.59355H0.469218C0.210093 7.59355 0 7.80363 0 8.06275C0 8.32188 0.210093 8.53197 0.469218 8.53197H2.47693C2.53459 8.66622 2.61809 8.79194 2.72756 8.90137L3.58874 9.76256C3.81271 9.98656 4.11055 10.1099 4.42737 10.1099C4.74415 10.1099 5.04196 9.98656 5.26599 9.76256L6.12714 8.90141C6.23514 8.79341 6.31977 8.66818 6.37846 8.53199H15.5308C15.7899 8.53199 16 8.32191 16 8.06278C16 7.80366 15.7899 7.59355 15.5308 7.59355ZM5.46355 8.23783L4.6024 9.099C4.55565 9.14575 4.49349 9.1715 4.42734 9.1715C4.36118 9.1715 4.29902 9.14575 4.25227 9.099L3.39109 8.23781C3.29456 8.14128 3.29456 7.98422 3.39109 7.88769L4.25227 7.02649C4.29902 6.97974 4.36118 6.954 4.42734 6.954C4.49349 6.954 4.55565 6.97974 4.6024 7.02649L5.46355 7.88769C5.5103 7.93444 5.53605 7.9966 5.53605 8.06272C5.53605 8.12888 5.5103 8.19105 5.46355 8.23783Z"/>
</mask>
<path d="M15.5308 7.59355H6.37839C6.31971 7.45737 6.23511 7.33215 6.12708 7.22415L5.26593 6.36297C5.04193 6.13897 4.74408 6.01562 4.4273 6.01562C4.11049 6.01562 3.81268 6.13901 3.58868 6.36297L2.72749 7.22415C2.61806 7.33359 2.53453 7.4593 2.47687 7.59355H0.469218C0.210093 7.59355 0 7.80363 0 8.06275C0 8.32188 0.210093 8.53197 0.469218 8.53197H2.47693C2.53459 8.66622 2.61809 8.79194 2.72756 8.90137L3.58874 9.76256C3.81271 9.98656 4.11055 10.1099 4.42737 10.1099C4.74415 10.1099 5.04196 9.98656 5.26599 9.76256L6.12714 8.90141C6.23514 8.79341 6.31977 8.66818 6.37846 8.53199H15.5308C15.7899 8.53199 16 8.32191 16 8.06278C16 7.80366 15.7899 7.59355 15.5308 7.59355ZM5.46355 8.23783L4.6024 9.099C4.55565 9.14575 4.49349 9.1715 4.42734 9.1715C4.36118 9.1715 4.29902 9.14575 4.25227 9.099L3.39109 8.23781C3.29456 8.14128 3.29456 7.98422 3.39109 7.88769L4.25227 7.02649C4.29902 6.97974 4.36118 6.954 4.42734 6.954C4.49349 6.954 4.55565 6.97974 4.6024 7.02649L5.46355 7.88769C5.5103 7.93444 5.53605 7.9966 5.53605 8.06272C5.53605 8.12888 5.5103 8.19105 5.46355 8.23783Z" stroke="black" stroke-width="2" mask="url(#path-2-inside-2)"/>
<mask id="path-3-inside-3" fill="white">
<path d="M15.5308 11.8162H13.2102C13.1526 11.682 13.0691 11.5563 12.9596 11.4468L12.0984 10.5856C11.8744 10.3616 11.5766 10.2383 11.2598 10.2383C10.943 10.2383 10.6452 10.3616 10.4212 10.5856L9.55998 11.4468C9.45054 11.5562 9.36701 11.682 9.30936 11.8162H0.469218C0.210093 11.8162 0 12.0263 0 12.2854C0 12.5445 0.210093 12.7546 0.469218 12.7546H9.30945C9.36711 12.8889 9.45061 13.0146 9.56008 13.124L10.4213 13.9852C10.6453 14.2092 10.9431 14.3326 11.2599 14.3326C11.5767 14.3326 11.8745 14.2092 12.0985 13.9852L12.9597 13.124C13.0691 13.0146 13.1527 12.8889 13.2103 12.7546H15.5308C15.79 12.7546 16.0001 12.5445 16.0001 12.2854C16 12.0263 15.7899 11.8162 15.5308 11.8162ZM12.2961 12.4605L11.4349 13.3217C11.3882 13.3685 11.326 13.3942 11.2599 13.3942C11.1937 13.3942 11.1315 13.3685 11.0848 13.3217L10.2236 12.4605C10.1271 12.364 10.1271 12.2069 10.2236 12.1104L11.0848 11.2492C11.1315 11.2025 11.1937 11.1767 11.2599 11.1767C11.326 11.1767 11.3882 11.2025 11.4349 11.2492L12.2961 12.1104C12.3926 12.2069 12.3926 12.364 12.2961 12.4605Z"/>
</mask>
<path d="M15.5308 11.8162H13.2102C13.1526 11.682 13.0691 11.5563 12.9596 11.4468L12.0984 10.5856C11.8744 10.3616 11.5766 10.2383 11.2598 10.2383C10.943 10.2383 10.6452 10.3616 10.4212 10.5856L9.55998 11.4468C9.45054 11.5562 9.36701 11.682 9.30936 11.8162H0.469218C0.210093 11.8162 0 12.0263 0 12.2854C0 12.5445 0.210093 12.7546 0.469218 12.7546H9.30945C9.36711 12.8889 9.45061 13.0146 9.56008 13.124L10.4213 13.9852C10.6453 14.2092 10.9431 14.3326 11.2599 14.3326C11.5767 14.3326 11.8745 14.2092 12.0985 13.9852L12.9597 13.124C13.0691 13.0146 13.1527 12.8889 13.2103 12.7546H15.5308C15.79 12.7546 16.0001 12.5445 16.0001 12.2854C16 12.0263 15.7899 11.8162 15.5308 11.8162ZM12.2961 12.4605L11.4349 13.3217C11.3882 13.3685 11.326 13.3942 11.2599 13.3942C11.1937 13.3942 11.1315 13.3685 11.0848 13.3217L10.2236 12.4605C10.1271 12.364 10.1271 12.2069 10.2236 12.1104L11.0848 11.2492C11.1315 11.2025 11.1937 11.1767 11.2599 11.1767C11.326 11.1767 11.3882 11.2025 11.4349 11.2492L12.2961 12.1104C12.3926 12.2069 12.3926 12.364 12.2961 12.4605Z" stroke="black" stroke-width="2" mask="url(#path-3-inside-3)"/>
</g>
<defs>
<clipPath id="clip0">
<rect width="16" height="16" fill="white"/>
</clipPath>
</defs>
</svg>
