<svg width="16" height="16" viewBox="0 0 16 16" fill="none" xmlns="http://www.w3.org/2000/svg">
<g clip-path="url(#clip0)">
<path d="M7.29317 2.01534L7.29314 2.01531M7.29317 2.01534L0.469218 3.2459C0.210093 3.2459 0 3.45597 0 3.71509C0 3.97421 0.210093 4.18434 0.469218 4.18434H6.18139C6.23905 4.31859 6.32255 4.44431 6.43202 4.55374L7.2932 5.41493C7.5172 5.63893 7.81505 5.76227 8.13183 5.76227C8.44864 5.76227 8.74645 5.6389 8.97045 5.41493L9.83164 4.55374C9.94107 4.44431 10.0246 4.31859 10.0823 4.18434H15.5308C15.7899 4.18434 16 3.97425 16 3.71512C16 3.456 15.7899 3.24593 15.5308 3.24593H10.0822C10.0245 3.11168 9.94104 2.98597 9.83157 2.87653L8.97039 2.01534C8.74642 1.79134 8.44858 1.66797 8.13177 1.66797C7.81498 1.66797 7.51717 1.79134 7.29314 2.01531M7.29317 2.01534L7.29314 2.01531M7.29317 2.01534L7.29314 2.01531M6.03605 8.06278C6.03605 8.06273 6.03605 8.06268 6.03605 8.06263L6.03618 8.06291L6.03605 8.0632C6.03605 8.06306 6.03605 8.06292 6.03605 8.06278ZM15.5308 8.03206C15.5308 8.03206 15.5308 8.03206 15.5308 8.03206H15.5308ZM15.5308 12.255H15.5308H15.5308Z" stroke="black"/>
</g>
<defs>
<clipPath id="clip0">
<rect width="16" height="16" fill="white"/>
</clipPath>
</defs>
</svg>
