<svg width="16" height="16" viewBox="0 0 16 16" fill="none" xmlns="http://www.w3.org/2000/svg">
<g clip-path="url(#clip0)">
<path d="M15.5308 3.24593H10.0822C10.0245 3.11168 9.94104 2.98597 9.83157 2.87653L8.97039 2.01534C8.74642 1.79134 8.44858 1.66797 8.13177 1.66797C7.81499 1.66797 7.51717 1.79134 7.29314 2.01531L6.43196 2.8765C6.32252 2.98593 6.23899 3.11165 6.18133 3.2459H0.469218C0.210093 3.2459 0 3.45597 0 3.71509C0 3.97421 0.210093 4.18434 0.469218 4.18434H6.18139C6.23905 4.31859 6.32255 4.44431 6.43202 4.55374L7.2932 5.41493C7.5172 5.63893 7.81505 5.76227 8.13183 5.76227C8.44864 5.76227 8.74645 5.6389 8.97045 5.41493L9.83164 4.55374C9.94107 4.44431 10.0246 4.31859 10.0823 4.18434H15.5308C15.7899 4.18434 16 3.97425 16 3.71512C16 3.456 15.7899 3.24593 15.5308 3.24593ZM9.16808 3.89025L8.30689 4.75143C8.26014 4.79818 8.19798 4.82393 8.13183 4.82393C8.06567 4.82393 8.00352 4.79818 7.95677 4.75143L7.09558 3.89025C6.99905 3.79368 6.99905 3.63662 7.09558 3.54009L7.95677 2.67894C8.00352 2.63219 8.06567 2.60644 8.13183 2.60644C8.19798 2.60644 8.26014 2.63219 8.30689 2.67894L9.16808 3.54012C9.26461 3.63665 9.26461 3.79371 9.16808 3.89025Z" fill="#101217"/>
<path d="M15.5308 7.59362H6.37839C6.31971 7.45744 6.23511 7.33222 6.12708 7.22422L5.26593 6.36303C5.04193 6.13903 4.74408 6.01569 4.4273 6.01569C4.11049 6.01569 3.81268 6.13907 3.58868 6.36303L2.72749 7.22422C2.61806 7.33366 2.53453 7.45937 2.47687 7.59362H0.469218C0.210093 7.59362 0 7.80369 0 8.06281C0 8.32194 0.210093 8.53203 0.469218 8.53203H2.47693C2.53459 8.66628 2.61809 8.792 2.72756 8.90143L3.58874 9.76262C3.81271 9.98662 4.11055 10.11 4.42737 10.11C4.74415 10.11 5.04196 9.98662 5.26599 9.76262L6.12714 8.90147C6.23514 8.79347 6.31977 8.66825 6.37846 8.53206H15.5308C15.7899 8.53206 16 8.32197 16 8.06284C16 7.80372 15.7899 7.59362 15.5308 7.59362ZM5.46355 8.2379L4.6024 9.09906C4.55565 9.14581 4.49349 9.17156 4.42734 9.17156C4.36118 9.17156 4.29902 9.14581 4.25227 9.09906L3.39109 8.23787C3.29456 8.14134 3.29456 7.98428 3.39109 7.88775L4.25227 7.02656C4.29902 6.97981 4.36118 6.95406 4.42734 6.95406C4.49349 6.95406 4.55565 6.97981 4.6024 7.02656L5.46355 7.88775C5.5103 7.9345 5.53605 7.99666 5.53605 8.06278C5.53605 8.12894 5.5103 8.19112 5.46355 8.2379Z" fill="#101217"/>
<path d="M15.5308 11.8166H13.2102C13.1526 11.6824 13.0691 11.5567 12.9596 11.4472L12.0984 10.586C11.8744 10.362 11.5766 10.2387 11.2598 10.2387C10.943 10.2387 10.6452 10.362 10.4212 10.586L9.55998 11.4472C9.45054 11.5566 9.36701 11.6824 9.30936 11.8166H0.469218C0.210093 11.8166 0 12.0267 0 12.2858C0 12.5449 0.210093 12.755 0.469218 12.755H9.30945C9.36711 12.8893 9.45061 13.015 9.56008 13.1244L10.4213 13.9856C10.6453 14.2096 10.9431 14.333 11.2599 14.333C11.5767 14.333 11.8745 14.2096 12.0985 13.9856L12.9597 13.1244C13.0691 13.015 13.1527 12.8893 13.2103 12.755H15.5308C15.79 12.755 16.0001 12.5449 16.0001 12.2858C16 12.0267 15.7899 11.8166 15.5308 11.8166ZM12.2961 12.4609L11.4349 13.3221C11.3882 13.3689 11.326 13.3946 11.2599 13.3946C11.1937 13.3946 11.1315 13.3689 11.0848 13.3221L10.2236 12.4609C10.1271 12.3644 10.1271 12.2073 10.2236 12.1108L11.0848 11.2496C11.1315 11.2029 11.1937 11.1771 11.2599 11.1771C11.326 11.1771 11.3882 11.2029 11.4349 11.2496L12.2961 12.1108C12.3926 12.2073 12.3926 12.3644 12.2961 12.4609Z" fill="#101217"/>
</g>
<defs>
<clipPath id="clip0">
<rect width="16" height="16" fill="white"/>
</clipPath>
</defs>
</svg>
