<svg width="16" height="16" viewBox="0 0 16 16" fill="none" xmlns="http://www.w3.org/2000/svg">
<mask id="path-1-inside-1" fill="white">
<path d="M16 10.9795V14.326C16 14.7698 15.8127 15.1954 15.4793 15.5092C15.1459 15.823 14.6937 15.9993 14.2222 15.9993H1.77778C1.30628 15.9993 0.854097 15.823 0.520699 15.5092C0.187301 15.1954 0 14.7698 0 14.326V10.9795"/>
</mask>
<path d="M15 10.9795V14.326H17V10.9795H15ZM15 14.326C15 14.4844 14.9337 14.6494 14.7939 14.781L16.1647 16.2374C16.6917 15.7414 17 15.0552 17 14.326H15ZM14.7939 14.781C14.6521 14.9145 14.4474 14.9993 14.2222 14.9993V16.9993C14.94 16.9993 15.6397 16.7315 16.1647 16.2374L14.7939 14.781ZM14.2222 14.9993H1.77778V16.9993H14.2222V14.9993ZM1.77778 14.9993C1.55259 14.9993 1.34792 14.9145 1.20607 14.781L-0.164668 16.2374C0.360272 16.7314 1.05997 16.9993 1.77778 16.9993V14.9993ZM1.20607 14.781C1.06627 14.6494 1 14.4844 1 14.326H-1C-1 15.0552 -0.691667 15.7414 -0.164668 16.2374L1.20607 14.781ZM1 14.326V10.9795H-1V14.326H1Z" fill="black" mask="url(#path-1-inside-1)"/>
<path d="M12.4436 5.12362L7.99913 0.94043L3.55469 5.12362" stroke="black" stroke-linecap="round" stroke-linejoin="round"/>
<path d="M8 0.941406V10.9811" stroke="black" stroke-linecap="round" stroke-linejoin="round"/>
</svg>
