<svg width="16" height="17" viewBox="0 0 16 17" fill="none" xmlns="http://www.w3.org/2000/svg">
<mask id="path-1-inside-1" fill="white">
<path d="M16 11.6655V15.2212C16 15.6927 15.8127 16.1449 15.4793 16.4783C15.1459 16.8117 14.6937 16.999 14.2222 16.999H1.77778C1.30628 16.999 0.854097 16.8117 0.520699 16.4783C0.187301 16.1449 0 15.6927 0 15.2212L0 11.6655"/>
</mask>
<path d="M17.5 11.6655C17.5 10.837 16.8284 10.1655 16 10.1655C15.1716 10.1655 14.5 10.837 14.5 11.6655H17.5ZM14.2222 16.999V18.499V16.999ZM0 15.2212H-1.5H0ZM1.5 11.6655C1.5 10.837 0.828427 10.1655 0 10.1655C-0.828427 10.1655 -1.5 10.837 -1.5 11.6655H1.5ZM14.5 11.6655V15.2212L17.5 15.2212V11.6655H14.5ZM14.5 15.2212C14.5 15.2949 14.4707 15.3656 14.4186 15.4177L16.54 17.5389C17.1547 16.9242 17.5 16.0905 17.5 15.2212L14.5 15.2212ZM14.4186 15.4177C14.3665 15.4698 14.2959 15.499 14.2222 15.499V18.499C15.0916 18.499 15.9253 18.1537 16.54 17.5389L14.4186 15.4177ZM14.2222 15.499H1.77778V18.499H14.2222V15.499ZM1.77778 15.499C1.70413 15.499 1.63348 15.4698 1.58138 15.4177L-0.539983 17.5389C0.074715 18.1537 0.908437 18.499 1.77778 18.499V15.499ZM1.58138 15.4177C1.52928 15.3656 1.5 15.2949 1.5 15.2212H-1.5C-1.5 16.0905 -1.15468 16.9242 -0.539983 17.5389L1.58138 15.4177ZM1.5 15.2212L1.5 11.6655H-1.5L-1.5 15.2212H1.5Z" fill="black" mask="url(#path-1-inside-1)"/>
<path d="M12.4436 5.44434L7.99913 0.9997L3.55469 5.44434" stroke="black" stroke-width="1.5" stroke-linecap="round" stroke-linejoin="round"/>
<path d="M8 0.999837V11.667" stroke="black" stroke-width="1.5" stroke-linecap="round" stroke-linejoin="round"/>
</svg>
