<svg width="16" height="16" viewBox="0 0 16 16" fill="none" xmlns="http://www.w3.org/2000/svg">
<path d="M15.5 8C15.5 12.1421 12.1421 15.5 8 15.5C3.85786 15.5 0.5 12.1421 0.5 8C0.5 3.85786 3.85786 0.5 8 0.5C12.1421 0.5 15.5 3.85786 15.5 8Z" stroke="black"/>
<path d="M7.90204 12.0687C6.79723 12.0687 5.73766 11.6298 4.95644 10.8486C4.17521 10.0674 3.73633 9.00784 3.73633 7.90302C3.73633 6.7982 4.17521 5.73864 4.95644 4.95741C5.73766 4.17619 6.79723 3.7373 7.90204 3.7373C9.00686 3.7373 10.0664 4.17619 10.8476 4.95741C11.6289 5.73864 12.0678 6.7982 12.0678 7.90302C12.0678 9.00784 11.6289 10.0674 10.8476 10.8486C10.0664 11.6298 9.00686 12.0687 7.90204 12.0687ZM7.90204 10.8779C8.69102 10.8779 9.44769 10.5645 10.0056 10.0066C10.5635 9.44867 10.8769 8.692 10.8769 7.90302C10.8769 7.11404 10.5635 6.35737 10.0056 5.79948C9.44769 5.24158 8.69102 4.92816 7.90204 4.92816C7.11306 4.92816 6.3564 5.24158 5.7985 5.79948C5.24061 6.35737 4.92719 7.11404 4.92719 7.90302C4.92719 8.692 5.24061 9.44867 5.7985 10.0066C6.3564 10.5645 7.11306 10.8779 7.90204 10.8779Z" fill="black"/>
<path d="M7.93864 5.52344H7.86436C7.55634 5.52344 7.30664 5.77313 7.30664 6.08115V7.94058C7.30664 8.2486 7.55634 8.49829 7.86436 8.49829H7.93864C8.24666 8.49829 8.49636 8.2486 8.49636 7.94058V6.08115C8.49636 5.77313 8.24666 5.52344 7.93864 5.52344Z" fill="black"/>
<path d="M9.1295 7.30762H7.86435C7.55634 7.30762 7.30664 7.55731 7.30664 7.86533V7.93962C7.30664 8.24763 7.55634 8.49733 7.86435 8.49733H9.1295C9.43751 8.49733 9.68721 8.24763 9.68721 7.93962V7.86533C9.68721 7.55731 9.43751 7.30762 9.1295 7.30762Z" fill="black"/>
</svg>
