<svg width="16" height="16" viewBox="0 0 16 16" fill="none" xmlns="http://www.w3.org/2000/svg">
<path d="M0.5 8C0.5 6.01088 1.29018 4.10322 2.6967 2.6967C4.10322 1.29018 6.01088 0.5 8 0.5C9.98912 0.5 11.8968 1.29018 13.3033 2.6967C14.7098 4.10322 15.5 6.01088 15.5 8C15.5 9.98912 14.7098 11.8968 13.3033 13.3033C11.8968 14.7098 9.98912 15.5 8 15.5C6.01088 15.5 4.10322 14.7098 2.6967 13.3033C1.29018 11.8968 0.5 9.98912 0.5 8Z" stroke="black"/>
<path fill-rule="evenodd" clip-rule="evenodd" d="M7.99994 3.42871C10.5142 3.42871 12.5714 5.48585 12.5714 8.00014C12.5714 10.5144 10.5142 12.5716 7.99994 12.5716C6.51423 12.5716 5.1428 11.7716 4.22852 10.6287L7.99994 8.00014V3.42871Z" fill="black"/>
</svg>
