<svg width="16" height="16" viewBox="0 0 16 16" fill="none" xmlns="http://www.w3.org/2000/svg">
<mask id="path-1-inside-1" fill="white">
<path d="M5.38462 9.8457H0.769231C0.346154 9.8457 0 10.1919 0 10.6149V15.2303C0 15.6534 0.346154 15.9995 0.769231 15.9995H5.38462C5.80769 15.9995 6.15385 15.6534 6.15385 15.2303V10.6149C6.15385 10.1919 5.80769 9.8457 5.38462 9.8457ZM5.38462 15.2303H0.769231V10.6149H5.38462V15.2303Z"/>
</mask>
<path d="M5.38462 15.2303V16.2303H6.38462V15.2303H5.38462ZM0.769231 15.2303H-0.230769V16.2303H0.769231V15.2303ZM0.769231 10.6149V9.61493H-0.230769V10.6149H0.769231ZM5.38462 10.6149H6.38462V9.61493H5.38462V10.6149ZM5.38462 8.8457H0.769231V10.8457H5.38462V8.8457ZM0.769231 8.8457C-0.206131 8.8457 -1 9.63957 -1 10.6149H1C1 10.7441 0.898439 10.8457 0.769231 10.8457V8.8457ZM-1 10.6149V15.2303H1V10.6149H-1ZM-1 15.2303C-1 16.2057 -0.206131 16.9995 0.769231 16.9995V14.9995C0.898439 14.9995 1 15.1011 1 15.2303H-1ZM0.769231 16.9995H5.38462V14.9995H0.769231V16.9995ZM5.38462 16.9995C6.35998 16.9995 7.15385 16.2057 7.15385 15.2303H5.15385C5.15385 15.1011 5.25541 14.9995 5.38462 14.9995V16.9995ZM7.15385 15.2303V10.6149H5.15385V15.2303H7.15385ZM7.15385 10.6149C7.15385 9.63957 6.35998 8.8457 5.38462 8.8457V10.8457C5.25541 10.8457 5.15385 10.7441 5.15385 10.6149H7.15385ZM5.38462 14.2303H0.769231V16.2303H5.38462V14.2303ZM1.76923 15.2303V10.6149H-0.230769V15.2303H1.76923ZM0.769231 11.6149H5.38462V9.61493H0.769231V11.6149ZM4.38462 10.6149V15.2303H6.38462V10.6149H4.38462Z" fill="black" mask="url(#path-1-inside-1)"/>
<mask id="path-3-inside-2" fill="white">
<path d="M11.846 0.461614L9.07677 3.23084C8.82293 3.48469 8.82293 3.90008 9.07677 4.15392L11.846 6.92315C12.0998 7.177 12.5152 7.177 12.7691 6.92315L15.5383 4.15392C15.7922 3.90008 15.7922 3.48469 15.5383 3.23084L12.7691 0.461614C12.5152 0.207768 12.0998 0.207768 11.846 0.461614ZM15.0768 3.69238L12.3075 6.46161L9.53831 3.69238L12.3075 0.923153L15.0768 3.69238Z"/>
</mask>
<path d="M15.0768 3.69238L15.7839 4.39949L16.491 3.69238L15.7839 2.98528L15.0768 3.69238ZM12.3075 6.46161L11.6004 7.16872L12.3075 7.87583L13.0146 7.16872L12.3075 6.46161ZM9.53831 3.69238L8.8312 2.98528L8.1241 3.69238L8.8312 4.39949L9.53831 3.69238ZM12.3075 0.923153L13.0146 0.216046L12.3075 -0.491061L11.6004 0.216046L12.3075 0.923153ZM11.1389 -0.245493L8.36967 2.52374L9.78388 3.93795L12.5531 1.16872L11.1389 -0.245493ZM8.36967 2.52374C7.7253 3.16811 7.7253 4.21666 8.36967 4.86103L9.78388 3.44681C9.92056 3.58349 9.92056 3.80127 9.78388 3.93795L8.36967 2.52374ZM8.36967 4.86103L11.1389 7.63026L12.5531 6.21604L9.78388 3.44681L8.36967 4.86103ZM11.1389 7.63026C11.7833 8.27463 12.8318 8.27463 13.4762 7.63026L12.062 6.21604C12.1987 6.07937 12.4164 6.07937 12.5531 6.21604L11.1389 7.63026ZM13.4762 7.63026L16.2454 4.86103L14.8312 3.44681L12.062 6.21604L13.4762 7.63026ZM16.2454 4.86103C16.8898 4.21666 16.8898 3.16811 16.2454 2.52374L14.8312 3.93795C14.6945 3.80127 14.6945 3.58349 14.8312 3.44681L16.2454 4.86103ZM16.2454 2.52374L13.4762 -0.245493L12.062 1.16872L14.8312 3.93795L16.2454 2.52374ZM13.4762 -0.245493C12.8318 -0.889863 11.7833 -0.889863 11.1389 -0.245493L12.5531 1.16872C12.4164 1.3054 12.1987 1.3054 12.062 1.16872L13.4762 -0.245493ZM14.3697 2.98528L11.6004 5.75451L13.0146 7.16872L15.7839 4.39949L14.3697 2.98528ZM13.0146 5.75451L10.2454 2.98528L8.8312 4.39949L11.6004 7.16872L13.0146 5.75451ZM10.2454 4.39949L13.0146 1.63026L11.6004 0.216046L8.8312 2.98528L10.2454 4.39949ZM11.6004 1.63026L14.3697 4.39949L15.7839 2.98528L13.0146 0.216046L11.6004 1.63026Z" fill="black" mask="url(#path-3-inside-2)"/>
<mask id="path-5-inside-3" fill="white">
<path d="M12.3074 9.8457C10.6089 9.8457 9.23047 11.2242 9.23047 12.9226C9.23047 14.6211 10.6089 15.9995 12.3074 15.9995C14.0059 15.9995 15.3843 14.6211 15.3843 12.9226C15.3843 11.2242 14.0059 9.8457 12.3074 9.8457ZM12.3074 15.3842C10.9474 15.3842 9.84585 14.2826 9.84585 12.9226C9.84585 11.5626 10.9474 10.4611 12.3074 10.4611C13.6674 10.4611 14.7689 11.5626 14.7689 12.9226C14.7689 14.2826 13.6674 15.3842 12.3074 15.3842Z"/>
</mask>
<path d="M12.3074 8.8457C10.0566 8.8457 8.23047 10.6719 8.23047 12.9226H10.2305C10.2305 11.7764 11.1612 10.8457 12.3074 10.8457V8.8457ZM8.23047 12.9226C8.23047 15.1734 10.0566 16.9995 12.3074 16.9995V14.9995C11.1612 14.9995 10.2305 14.0688 10.2305 12.9226H8.23047ZM12.3074 16.9995C14.5581 16.9995 16.3843 15.1734 16.3843 12.9226H14.3843C14.3843 14.0688 13.4536 14.9995 12.3074 14.9995V16.9995ZM16.3843 12.9226C16.3843 10.6719 14.5581 8.8457 12.3074 8.8457V10.8457C13.4536 10.8457 14.3843 11.7764 14.3843 12.9226H16.3843ZM12.3074 14.3842C11.4997 14.3842 10.8459 13.7303 10.8459 12.9226H8.84585C8.84585 14.8349 10.3951 16.3842 12.3074 16.3842V14.3842ZM10.8459 12.9226C10.8459 12.1149 11.4997 11.4611 12.3074 11.4611V9.46109C10.3951 9.46109 8.84585 11.0103 8.84585 12.9226H10.8459ZM12.3074 11.4611C13.1151 11.4611 13.7689 12.1149 13.7689 12.9226H15.7689C15.7689 11.0103 14.2197 9.46109 12.3074 9.46109V11.4611ZM13.7689 12.9226C13.7689 13.7303 13.1151 14.3842 12.3074 14.3842V16.3842C14.2197 16.3842 15.7689 14.8349 15.7689 12.9226H13.7689Z" fill="black" mask="url(#path-5-inside-3)"/>
<mask id="path-7-inside-4" fill="white">
<path d="M3.07692 0.615234C1.37846 0.615234 0 1.9937 0 3.69216C0 5.39062 1.37846 6.76908 3.07692 6.76908C4.77539 6.76908 6.15385 5.39062 6.15385 3.69216C6.15385 1.9937 4.77539 0.615234 3.07692 0.615234ZM3.07692 6.1537C1.71692 6.1537 0.615385 5.05216 0.615385 3.69216C0.615385 2.33216 1.71692 1.23062 3.07692 1.23062C4.43692 1.23062 5.53846 2.33216 5.53846 3.69216C5.53846 5.05216 4.43692 6.1537 3.07692 6.1537Z"/>
</mask>
<path d="M3.07692 -0.384766C0.826177 -0.384766 -1 1.44141 -1 3.69216H1C1 2.54598 1.93075 1.61523 3.07692 1.61523V-0.384766ZM-1 3.69216C-1 5.9429 0.826177 7.76908 3.07692 7.76908V5.76908C1.93075 5.76908 1 4.83834 1 3.69216H-1ZM3.07692 7.76908C5.32767 7.76908 7.15385 5.9429 7.15385 3.69216H5.15385C5.15385 4.83834 4.2231 5.76908 3.07692 5.76908V7.76908ZM7.15385 3.69216C7.15385 1.44141 5.32767 -0.384766 3.07692 -0.384766V1.61523C4.2231 1.61523 5.15385 2.54598 5.15385 3.69216H7.15385ZM3.07692 5.1537C2.26921 5.1537 1.61538 4.49987 1.61538 3.69216H-0.384615C-0.384615 5.60444 1.16464 7.1537 3.07692 7.1537V5.1537ZM1.61538 3.69216C1.61538 2.88444 2.26921 2.23062 3.07692 2.23062V0.230619C1.16464 0.230619 -0.384615 1.77987 -0.384615 3.69216H1.61538ZM3.07692 2.23062C3.88464 2.23062 4.53846 2.88444 4.53846 3.69216H6.53846C6.53846 1.77987 4.98921 0.230619 3.07692 0.230619V2.23062ZM4.53846 3.69216C4.53846 4.49987 3.88464 5.1537 3.07692 5.1537V7.1537C4.98921 7.1537 6.53846 5.60444 6.53846 3.69216H4.53846Z" fill="black" mask="url(#path-7-inside-4)"/>
</svg>
