<svg width="16" height="16" viewBox="0 0 16 16" fill="none" xmlns="http://www.w3.org/2000/svg">
<path d="M2.6967 13.3033C1.29018 11.8968 0.5 9.98912 0.5 8C0.5 6.01088 1.29018 4.10322 2.6967 2.6967C4.10322 1.29018 6.01088 0.5 8 0.5C9.98912 0.5 11.8968 1.29018 13.3033 2.6967C14.7098 4.10322 15.5 6.01088 15.5 8C15.5 9.98912 14.7098 11.8968 13.3033 13.3033C11.8968 14.7098 9.98912 15.5 8 15.5C6.01088 15.5 4.10322 14.7098 2.6967 13.3033Z" stroke="black"/>
<path fill-rule="evenodd" clip-rule="evenodd" d="M8.00089 6.82163L6.39975 5.22049C6.36862 5.18951 6.33163 5.16504 6.29095 5.14848C6.25028 5.13192 6.20671 5.12361 6.1628 5.12404C6.11888 5.12446 6.07548 5.13361 6.03513 5.15096C5.99478 5.1683 5.95828 5.19349 5.92775 5.22506L5.22604 5.92678C5.16338 5.98905 5.12777 6.0735 5.12691 6.16184C5.12605 6.25018 5.16002 6.3353 5.22147 6.39878L6.82147 7.99992L5.22147 9.60106C5.19049 9.6322 5.16601 9.66918 5.14946 9.70986C5.1329 9.75054 5.12459 9.7941 5.12502 9.83802C5.12544 9.88193 5.13459 9.92533 5.15193 9.96568C5.16928 10.006 5.19447 10.0425 5.22604 10.0731L5.92775 10.7748C6.05689 10.9051 6.27061 10.9085 6.39975 10.7793L8.00089 9.17935L9.60204 10.7793C9.63317 10.8103 9.67016 10.8348 9.71083 10.8514C9.75151 10.8679 9.79508 10.8762 9.83899 10.8758C9.88291 10.8754 9.92631 10.8662 9.96666 10.8489C10.007 10.8315 10.0435 10.8063 10.074 10.7748L10.7758 10.0731C10.8384 10.0108 10.874 9.92634 10.8749 9.838C10.8757 9.74966 10.8418 9.66454 10.7803 9.60106L9.18032 7.99992L10.7803 6.39878C10.8113 6.36764 10.8358 6.33066 10.8523 6.28998C10.8689 6.2493 10.8772 6.20574 10.8768 6.16182C10.8763 6.1179 10.8672 6.07451 10.8499 6.03416C10.8325 5.99381 10.8073 5.95731 10.7758 5.92678L10.074 5.22506C10.0118 5.1624 9.92731 5.12679 9.83898 5.12593C9.75064 5.12508 9.66552 5.15905 9.60204 5.22049L8.00089 6.82049V6.82163Z" fill="black"/>
</svg>
