<svg width="16" height="16" viewBox="0 0 16 16" fill="none" xmlns="http://www.w3.org/2000/svg">
<mask id="path-1-inside-1" fill="white">
<path fill-rule="evenodd" clip-rule="evenodd" d="M0 8C0 5.87827 0.842855 3.84344 2.34315 2.34315C3.84344 0.842855 5.87827 0 8 0C10.1217 0 12.1566 0.842855 13.6569 2.34315C15.1571 3.84344 16 5.87827 16 8C16 10.1217 15.1571 12.1566 13.6569 13.6569C12.1566 15.1571 10.1217 16 8 16C5.87827 16 3.84344 15.1571 2.34315 13.6569C0.842855 12.1566 0 10.1217 0 8H0Z"/>
</mask>
<path fill-rule="evenodd" clip-rule="evenodd" d="M0 8C0 5.87827 0.842855 3.84344 2.34315 2.34315C3.84344 0.842855 5.87827 0 8 0C10.1217 0 12.1566 0.842855 13.6569 2.34315C15.1571 3.84344 16 5.87827 16 8C16 10.1217 15.1571 12.1566 13.6569 13.6569C12.1566 15.1571 10.1217 16 8 16C5.87827 16 3.84344 15.1571 2.34315 13.6569C0.842855 12.1566 0 10.1217 0 8H0Z" stroke="black" stroke-width="2" mask="url(#path-1-inside-1)"/>
<path fill-rule="evenodd" clip-rule="evenodd" d="M7.17384 8.79663L5.7647 7.38748C5.7334 7.35568 5.69613 7.33038 5.65502 7.31304C5.61392 7.29571 5.56979 7.28667 5.52517 7.28646C5.48056 7.28625 5.43634 7.29486 5.39507 7.31181C5.3538 7.32875 5.31629 7.3537 5.2847 7.3852L4.58412 8.08691C4.52106 8.15102 4.4859 8.23746 4.48633 8.32738C4.48676 8.41731 4.52274 8.50341 4.58641 8.56691L6.76927 10.7486C6.87548 10.8551 7.0194 10.9155 7.16981 10.9165C7.32021 10.9176 7.46498 10.8593 7.57269 10.7543L7.87555 10.4515L11.4241 6.90291C11.4839 6.83938 11.5163 6.75489 11.5144 6.66766C11.5125 6.58044 11.4764 6.49746 11.4138 6.43663L10.7121 5.73491C10.6514 5.67211 10.5684 5.6358 10.4811 5.63387C10.3938 5.63194 10.3092 5.66456 10.2458 5.72463L7.17384 8.79663Z" stroke="black" />
</svg>
