<svg width="16" height="16" viewBox="0 0 16 16" fill="none" xmlns="http://www.w3.org/2000/svg">
<path d="M15.5 8C15.5 12.1421 12.1421 15.5 8 15.5C3.85786 15.5 0.5 12.1421 0.5 8C0.5 3.85786 3.85786 0.5 8 0.5C12.1421 0.5 15.5 3.85786 15.5 8Z" stroke="black"/>
<path d="M7.90204 11.5687C6.92983 11.5687 5.99745 11.1825 5.30999 10.4951C4.62254 9.80762 4.23633 8.87523 4.23633 7.90302C4.23633 6.93081 4.62254 5.99842 5.30999 5.31097C5.99745 4.62351 6.92983 4.2373 7.90204 4.2373C8.87425 4.2373 9.80664 4.62351 10.4941 5.31097C11.1815 5.99842 11.5678 6.93081 11.5678 7.90302C11.5678 8.87523 11.1815 9.80762 10.4941 10.4951C9.80664 11.1825 8.87425 11.5687 7.90204 11.5687ZM7.90204 11.3779C8.82363 11.3779 9.70748 11.0118 10.3591 10.3601C11.0108 9.70845 11.3769 8.82461 11.3769 7.90302C11.3769 6.98143 11.0108 6.09759 10.3591 5.44592C9.70748 4.79426 8.82363 4.42816 7.90204 4.42816C6.98045 4.42816 6.09661 4.79426 5.44495 5.44592C4.79329 6.09759 4.42719 6.98143 4.42719 7.90302C4.42719 8.82461 4.79329 9.70845 5.44495 10.3601C6.09661 11.0118 6.98045 11.3779 7.90204 11.3779Z" fill="black" stroke="black"/>
<path d="M7.86436 6.02344H7.93864C7.97052 6.02344 7.99636 6.04928 7.99636 6.08115V7.94058C7.99636 7.97246 7.97052 7.99829 7.93864 7.99829H7.86436C7.83248 7.99829 7.80664 7.97245 7.80664 7.94058V6.08115C7.80664 6.04928 7.83248 6.02344 7.86436 6.02344Z" stroke="black"/>
<path d="M7.86435 7.80762H9.1295C9.16137 7.80762 9.18721 7.83346 9.18721 7.86533V7.93962C9.18721 7.97149 9.16137 7.99733 9.1295 7.99733H7.86435C7.83248 7.99733 7.80664 7.97149 7.80664 7.93962V7.86533C7.80664 7.83346 7.83248 7.80762 7.86435 7.80762Z" stroke="black"/>
</svg>
