<svg width="16" height="16" viewBox="0 0 16 16" fill="none" xmlns="http://www.w3.org/2000/svg">
<path d="M5.38462 9.8457H0.769231C0.346154 9.8457 0 10.1919 0 10.6149V15.2303C0 15.6534 0.346154 15.9995 0.769231 15.9995H5.38462C5.80769 15.9995 6.15385 15.6534 6.15385 15.2303V10.6149C6.15385 10.1919 5.80769 9.8457 5.38462 9.8457ZM5.38462 15.2303H0.769231V10.6149H5.38462V15.2303Z" fill="black" stroke-width="0"/>
<path d="M11.8463 0.461869L9.0771 3.23109C8.82326 3.48494 8.82326 3.90034 9.0771 4.15418L11.8463 6.9234C12.1001 7.17725 12.5155 7.17725 12.7694 6.9234L15.5386 4.15418C15.7925 3.90034 15.7925 3.48494 15.5386 3.23109L12.7694 0.461869C12.5155 0.208023 12.1001 0.208023 11.8463 0.461869ZM15.0771 3.69263L12.3078 6.46186L9.53864 3.69263L12.3078 0.923408L15.0771 3.69263Z" fill="black" stroke-width="0" />
<path d="M12.3074 9.8457C10.6089 9.8457 9.23047 11.2242 9.23047 12.9226C9.23047 14.6211 10.6089 15.9995 12.3074 15.9995C14.0059 15.9995 15.3843 14.6211 15.3843 12.9226C15.3843 11.2242 14.0059 9.8457 12.3074 9.8457ZM12.3074 15.3842C10.9474 15.3842 9.84585 14.2826 9.84585 12.9226C9.84585 11.5626 10.9474 10.4611 12.3074 10.4611C13.6674 10.4611 14.7689 11.5626 14.7689 12.9226C14.7689 14.2826 13.6674 15.3842 12.3074 15.3842Z" fill="black" stroke-width="0" />
<path d="M3.07692 0.615234C1.37846 0.615234 0 1.9937 0 3.69216C0 5.39062 1.37846 6.76908 3.07692 6.76908C4.77539 6.76908 6.15385 5.39062 6.15385 3.69216C6.15385 1.9937 4.77539 0.615234 3.07692 0.615234ZM3.07692 6.1537C1.71692 6.1537 0.615385 5.05216 0.615385 3.69216C0.615385 2.33216 1.71692 1.23062 3.07692 1.23062C4.43692 1.23062 5.53846 2.33216 5.53846 3.69216C5.53846 5.05216 4.43692 6.1537 3.07692 6.1537Z" fill="black" stroke-width="0" />
</svg>
