<svg width="16" height="17" viewBox="0 0 16 17" fill="none" xmlns="http://www.w3.org/2000/svg">
<path d="M7.99995 9.70816C8.73633 9.70816 9.33328 9.11121 9.33328 8.37483C9.33328 7.63845 8.73633 7.0415 7.99995 7.0415C7.26358 7.0415 6.66663 7.63845 6.66663 8.37483C6.66663 9.11121 7.26358 9.70816 7.99995 9.70816Z" fill="#5B44BA"/>
<path d="M1.33333 9.70816C2.0697 9.70816 2.66665 9.11121 2.66665 8.37483C2.66665 7.63845 2.0697 7.0415 1.33333 7.0415C0.596951 7.0415 0 7.63845 0 8.37483C0 9.11121 0.596951 9.70816 1.33333 9.70816Z" fill="#878EDE"/>
<path d="M14.6667 9.70816C15.4031 9.70816 16 9.11121 16 8.37483C16 7.63845 15.4031 7.0415 14.6667 7.0415C13.9303 7.0415 13.3334 7.63845 13.3334 8.37483C13.3334 9.11121 13.9303 9.70816 14.6667 9.70816Z" fill="#5B44BA"/>
<path d="M7.99995 16.3749C8.73633 16.3749 9.33328 15.778 9.33328 15.0416C9.33328 14.3052 8.73633 13.7083 7.99995 13.7083C7.26358 13.7083 6.66663 14.3052 6.66663 15.0416C6.66663 15.778 7.26358 16.3749 7.99995 16.3749Z" fill="#878EDE"/>
<path d="M7.99995 3.04165C8.73633 3.04165 9.33328 2.4447 9.33328 1.70833C9.33328 0.971951 8.73633 0.375 7.99995 0.375C7.26358 0.375 6.66663 0.971951 6.66663 1.70833C6.66663 2.4447 7.26358 3.04165 7.99995 3.04165Z" fill="#5B44BA"/>
<path d="M3.11104 5.26407C3.84741 5.26407 4.44436 4.66711 4.44436 3.93074C4.44436 3.19436 3.84741 2.59741 3.11104 2.59741C2.37466 2.59741 1.77771 3.19436 1.77771 3.93074C1.77771 4.66711 2.37466 5.26407 3.11104 5.26407Z" fill="#878EDE"/>
<path d="M3.11104 14.1527C3.84741 14.1527 4.44436 13.5558 4.44436 12.8194C4.44436 12.083 3.84741 11.4861 3.11104 11.4861C2.37466 11.4861 1.77771 12.083 1.77771 12.8194C1.77771 13.5558 2.37466 14.1527 3.11104 14.1527Z" fill="#878EDE"/>
<path d="M12.8887 14.3749C13.6251 14.3749 14.2221 13.778 14.2221 13.0416C14.2221 12.3052 13.6251 11.7083 12.8887 11.7083C12.1524 11.7083 11.5554 12.3052 11.5554 13.0416C11.5554 13.778 12.1524 14.3749 12.8887 14.3749Z" fill="#878EDE"/>
<path d="M12.8887 5.26407C13.6251 5.26407 14.2221 4.66711 14.2221 3.93074C14.2221 3.19436 13.6251 2.59741 12.8887 2.59741C12.1524 2.59741 11.5554 3.19436 11.5554 3.93074C11.5554 4.66711 12.1524 5.26407 12.8887 5.26407Z" fill="#878EDE"/>
</svg>
