<svg width="15" height="15" viewBox="0 0 15 15" fill="none" xmlns="http://www.w3.org/2000/svg">
<rect width="15" height="15" rx="7.5" fill="#F2536D"/>
<g clip-path="url(#clip0)">
<path d="M8.73749 7.50023L11.0577 5.18001C11.3141 4.92365 11.3141 4.50803 11.0577 4.25207L10.7484 3.94275C10.492 3.68631 10.0763 3.68631 9.82038 3.94275L7.50023 6.26289L5.18001 3.94227C4.92365 3.68591 4.50803 3.68591 4.25207 3.94227L3.94227 4.25159C3.68591 4.50803 3.68591 4.92365 3.94227 5.17961L6.26289 7.50023L3.94275 9.82038C3.68631 10.0768 3.68631 10.4924 3.94275 10.7484L4.25207 11.0577C4.50843 11.3141 4.92405 11.3141 5.18001 11.0577L7.50023 8.73749L9.82038 11.0577C10.0768 11.3141 10.4924 11.3141 10.7484 11.0577L11.0577 10.7484C11.3141 10.492 11.3141 10.0763 11.0577 9.82038L8.73749 7.50023Z" fill="white"/>
</g>
<defs>
<clipPath id="clip0">
<rect width="7.5" height="7.5" fill="white" transform="translate(3.75 3.75)"/>
</clipPath>
</defs>
</svg>
