<svg width="23" height="23" viewBox="0 0 23 23" fill="none" xmlns="http://www.w3.org/2000/svg">
<path d="M11.3635 0.0691233C5.28533 0.0665105 0.362305 5.29725 0.362305 11.7534C0.362305 16.8587 3.44196 21.1985 7.73087 22.7923C8.30846 22.9464 8.21997 22.5101 8.21997 22.2122V20.1874C4.88471 20.6028 4.74952 18.2565 4.52586 17.8646C4.07362 17.0442 3.00447 16.8352 3.32399 16.4433C4.08345 16.0279 4.85767 16.5478 5.75478 17.9561C6.40364 18.9777 7.66942 18.8052 8.31091 18.6354C8.45101 18.0214 8.75086 17.4727 9.16378 17.0468C5.70808 16.3884 4.26779 14.1467 4.26779 11.4817C4.26779 10.1883 4.66842 8.99953 5.45492 8.04065C4.95352 6.45993 5.50162 5.10652 5.57535 4.90534C7.00335 4.76948 8.48788 5.99225 8.6034 6.08892C9.41448 5.85638 10.3411 5.73358 11.3783 5.73358C12.4204 5.73358 13.3495 5.86161 14.1679 6.09676C14.4456 5.87206 15.822 4.82173 17.1493 4.94976C17.2205 5.15094 17.7563 6.47299 17.2844 8.03281C18.0808 8.99431 18.4863 10.1936 18.4863 11.4895C18.4863 14.1597 17.0362 16.4041 13.5707 17.0521C13.8675 17.3624 14.1032 17.7324 14.264 18.1407C14.4247 18.5489 14.5074 18.9871 14.5071 19.4297V22.369C14.5268 22.6042 14.5071 22.8367 14.8758 22.8367C19.2286 21.2769 22.3623 16.9057 22.3623 11.756C22.3623 5.29725 17.4368 0.0691233 11.3635 0.0691233Z" fill="#1C1438"/>
</svg>
