<svg width="778" height="435" viewBox="0 0 778 435" fill="none" xmlns="http://www.w3.org/2000/svg">
<rect width="255.424" height="239.956" rx="9.5695" transform="matrix(0.866025 -0.5 0.866025 0.5 0 314.307)" fill="#F7F8FA"/>
<g filter="url(#filter0_dd)">
<rect width="151.198" height="31.5793" rx="3.8278" transform="matrix(0.866025 -0.5 0.866025 0.5 209.672 359.525)" fill="url(#paint0_linear)"/>
<path d="M238.87 356.139L240.098 355.43C238.709 354.671 236.534 354.795 234.82 355.784C233.126 356.762 232.797 358.07 234.251 358.91C235.425 359.588 236.954 359.5 238.676 358.929L239.945 358.51C241.086 358.127 242.079 357.896 242.829 358.329C243.653 358.805 243.41 359.574 242.327 360.199C241.346 360.765 240.093 360.984 239.101 360.497L237.823 361.234C239.434 362.069 241.56 361.931 243.451 360.839C245.433 359.695 245.532 358.434 244.102 357.609C242.582 356.731 240.637 357.173 239.302 357.64L238.264 357.992C237.436 358.275 236.249 358.603 235.446 358.134C234.729 357.72 234.853 357.035 235.891 356.436C236.859 355.877 238 355.741 238.87 356.139ZM250.65 356.668C252.146 355.805 252.216 354.727 251.12 353.938L249.921 354.63C250.448 355.115 250.321 355.655 249.616 356.062C248.574 356.664 247.033 356.55 245.653 355.753C244.297 354.97 244.128 354.083 245.158 353.488C245.941 353.036 246.913 353.046 247.639 353.312L248.838 352.62C247.428 351.958 245.537 352.07 244.099 352.9C242.315 353.93 242.505 355.372 244.437 356.488C246.345 357.589 248.813 357.729 250.65 356.668ZM251.914 351.452C250.905 350.87 250.967 350.168 251.844 349.661C252.693 349.171 253.739 349.19 254.667 349.725L258.544 351.964L259.776 351.253L255.75 348.928C254.172 348.017 252.499 348.051 251.197 348.802C250.213 349.371 250.048 349.961 250.435 350.527L250.357 350.572L247.217 348.76L246.002 349.461L254.44 354.333L255.672 353.622L251.914 351.452ZM264.275 348.802C265.655 348.006 265.952 347.049 265.202 346.293L263.826 346.845C264.201 347.318 263.97 347.803 263.269 348.208C262.215 348.817 260.822 348.831 259.57 348.146L264.069 345.548L263.632 345.296C261.345 343.976 259.083 344.249 257.65 345.077C255.886 346.095 256.067 347.542 258.012 348.664C259.977 349.799 262.408 349.88 264.275 348.802ZM258.651 347.611C257.802 347.064 257.674 346.238 258.675 345.66C259.631 345.108 260.966 345.156 261.939 345.712L258.651 347.611ZM270.722 345.075C271.875 344.409 271.624 343.741 271.443 343.379L271.546 343.32L272.531 343.888L273.734 343.194L265.296 338.322L264.064 339.033L267.199 340.844L267.125 340.886C266.511 340.789 265.374 340.618 264.195 341.298C262.667 342.18 262.749 343.527 264.801 344.712C266.849 345.894 269.185 345.963 270.722 345.075ZM269.943 344.312C268.843 344.947 267.302 344.719 266.033 343.986C264.776 343.26 264.393 342.392 265.506 341.75C266.581 341.129 268.035 341.303 269.358 342.066C270.689 342.835 271.006 343.698 269.943 344.312ZM276.876 338.349C277.956 338.967 277.667 339.724 276.975 340.123C276.213 340.564 275.133 340.549 274.272 340.052L270.395 337.814L269.163 338.525L273.189 340.849C274.759 341.755 276.435 341.729 277.651 341.027C278.603 340.478 278.747 339.814 278.364 339.255L278.43 339.217L279.526 339.85L280.737 339.151L274.408 335.497L273.172 336.21L276.876 338.349ZM275.186 332.612L273.954 333.323L282.392 338.195L283.624 337.484L275.186 332.612ZM288.137 335.026C289.517 334.229 289.814 333.273 289.064 332.516L287.688 333.068C288.063 333.541 287.832 334.027 287.131 334.431C286.077 335.04 284.684 335.054 283.431 334.369L287.931 331.772L287.494 331.519C285.207 330.199 282.945 330.473 281.511 331.301C279.748 332.319 279.929 333.765 281.874 334.888C283.839 336.022 286.27 336.103 288.137 335.026ZM282.513 333.834C281.664 333.287 281.536 332.461 282.537 331.883C283.493 331.331 284.828 331.379 285.801 331.936L282.513 333.834ZM296.913 329.811L298.198 329.069L293.654 324.395L293.72 324.357L301.816 326.981L303.097 326.241L297.003 320.016L295.66 320.791L300.559 325.513L300.481 325.558L292.232 322.77L290.905 323.536L295.73 328.296L295.652 328.341L287.473 325.518L286.134 326.291L296.913 329.811ZM308.674 323.169C310.458 322.139 310.318 320.711 308.361 319.581C306.391 318.444 303.919 318.364 302.135 319.394C300.351 320.424 300.491 321.851 302.46 322.988C304.418 324.118 306.89 324.199 308.674 323.169ZM307.644 322.569C306.478 323.242 304.916 322.969 303.701 322.267C302.489 321.568 302.003 320.659 303.169 319.986C304.327 319.317 305.901 319.598 307.112 320.297C308.328 320.999 308.801 321.901 307.644 322.569ZM312.871 320.598L314.103 319.887L310.238 317.655C309.41 317.177 309.451 316.463 310.325 315.959C310.58 315.812 310.914 315.671 311.042 315.631L309.863 314.951C309.723 315.012 309.468 315.146 309.311 315.236C308.57 315.664 308.355 316.273 308.805 316.799L308.739 316.837L307.733 316.257L306.543 316.944L312.871 320.598ZM317.324 318.027L318.556 317.316L316.31 316.019L316.31 315.31L321.321 315.72L322.833 314.847L316.483 314.34L316.331 311.293L314.856 312.144L315.013 315.146L314.905 315.208L310.118 312.444L308.886 313.155L317.324 318.027ZM320.466 308.906L319.102 309.693L318.533 309.365C317.973 309.041 317.899 308.732 318.5 308.385C318.756 308.237 318.995 308.166 319.147 308.121L318.438 307.378C318.2 307.44 317.738 307.588 317.24 307.875C316.238 308.454 315.946 309.298 317.132 309.983L317.866 310.407L316.889 310.97L317.878 311.541L318.855 310.977L324.194 314.06L325.43 313.347L320.091 310.264L321.454 309.476L320.466 308.906ZM320.859 306.242L319.627 306.954L328.065 311.825L329.297 311.114L320.859 306.242ZM333.748 308.692C335.532 307.662 335.392 306.235 333.435 305.105C331.465 303.968 328.993 303.887 327.209 304.917C325.425 305.947 325.565 307.374 327.535 308.511C329.492 309.641 331.964 309.722 333.748 308.692ZM332.718 308.093C331.552 308.766 329.99 308.492 328.775 307.79C327.564 307.091 327.077 306.182 328.243 305.509C329.401 304.841 330.975 305.121 332.186 305.821C333.402 306.523 333.876 307.424 332.718 308.093ZM339.125 305.44L340.377 304.717L337.094 301.337L337.188 301.282L343.043 303.178L344.3 302.452L339.829 297.726L338.556 298.461L341.951 301.844L341.889 301.879L336.026 299.921L334.753 300.656L338.157 304.058L338.095 304.094L332.207 302.127L330.934 302.862L339.125 305.44Z" fill="white"/>
</g>
<rect width="205.391" height="117.899" transform="matrix(0.866025 -0.5 0.866025 0.5 48.2035 320.494)" fill="white"/>
<path d="M219.025 274.501L206.37 258.462L210.537 256.056" stroke="#00CC9A" stroke-width="0.356418"/>
<path d="M219.181 274.412L246.961 281.719L251.128 279.313" stroke="#00CC9A" stroke-width="0.356418"/>
<path d="M264.245 248.215L236.465 240.908L232.298 243.314" stroke="#00CC9A" stroke-width="0.356418"/>
<path d="M264.091 248.126L276.746 264.343L272.579 266.749" stroke="#00CC9A" stroke-width="0.356418"/>
<path d="M204.363 282.965L219.179 274.411" stroke="#F2536D" stroke-width="0.356418"/>
<path d="M167.015 304.35L202.577 315.718L208.994 312.013" stroke="#5252F6" stroke-width="0.356418"/>
<path d="M218.871 274.412L238.56 294.943L232.143 298.648" stroke="#5252F6" stroke-width="0.356418"/>
<path d="M167.479 304.44L147.79 283.908L154.206 280.204" stroke="#00CC9A" stroke-width="0.356418"/>
<path d="M219.335 274.501L183.773 263.133L177.356 266.838" stroke="#00CC9A" stroke-width="0.356418"/>
<path d="M167.015 304.529L181.522 296.153" stroke="#F2536D" stroke-width="0.356418"/>
<rect width="8.17806" height="8.17806" rx="4.08903" transform="matrix(0.866025 -0.5 0.866025 0.5 116.026 329.993)" fill="#00CC9A"/>
<g clip-path="url(#clip0)">
<path d="M124.016 330.996C124.017 331.035 123.989 331.073 123.941 331.1C123.894 331.128 123.828 331.144 123.761 331.144L121.719 331.144C121.507 331.144 121.335 331.044 121.335 330.922L121.335 330.774C121.335 330.652 121.507 330.553 121.719 330.553L122.993 330.553L122.993 328.564C122.993 328.442 123.165 328.343 123.377 328.343L123.633 328.343C123.845 328.343 124.016 328.442 124.016 328.564L124.016 330.996Z" fill="white"/>
</g>
<path d="M117.802 340.921L117.349 341.183L116.84 340.889L116.514 341.077L117.022 341.371L116.702 341.556L116.978 341.716L117.299 341.53L118.626 342.296C118.996 342.51 119.471 342.44 119.748 342.28C119.869 342.21 119.925 342.153 119.952 342.118L119.593 341.987C119.571 342.006 119.538 342.038 119.466 342.079C119.322 342.162 119.14 342.217 118.863 342.057L117.625 341.342L118.078 341.08L117.802 340.921ZM121.327 341.388C121.758 341.139 121.857 340.833 121.636 340.59L121.233 340.721C121.371 340.896 121.289 341.071 121.034 341.219C120.651 341.44 120.14 341.449 119.67 341.196L121.211 340.306L121.072 340.226C120.282 339.77 119.541 339.885 119.099 340.14C118.524 340.472 118.596 340.954 119.248 341.331C119.901 341.707 120.713 341.742 121.327 341.388ZM119.388 341.033C119.08 340.829 119.019 340.525 119.392 340.309C119.746 340.105 120.238 340.127 120.597 340.335L119.388 341.033ZM122.514 338.749C122.11 338.634 121.679 338.65 121.259 338.893C120.811 339.151 120.734 339.49 121.093 339.697C121.386 339.866 121.757 339.879 122.238 339.707L122.674 339.55C122.938 339.455 123.141 339.456 123.288 339.541C123.47 339.646 123.426 339.844 123.122 340.02C122.855 340.174 122.573 340.204 122.287 340.106L122.055 340.329C122.492 340.494 122.981 340.433 123.415 340.182C123.908 339.898 123.975 339.548 123.608 339.337C123.313 339.166 122.941 339.165 122.47 339.33L122.077 339.467C121.763 339.577 121.566 339.594 121.403 339.499C121.22 339.394 121.281 339.206 121.541 339.056C121.826 338.891 122.101 338.914 122.304 338.966L122.514 338.749ZM123.491 337.636L123.038 337.898L122.529 337.604L122.203 337.792L122.712 338.086L122.391 338.271L122.668 338.431L122.988 338.246L124.315 339.012C124.685 339.225 125.161 339.155 125.437 338.996C125.559 338.925 125.614 338.868 125.642 338.833L125.282 338.702C125.26 338.721 125.227 338.753 125.155 338.795C125.012 338.878 124.829 338.932 124.553 338.772L123.314 338.057L123.768 337.796L123.491 337.636ZM125.879 337.132L124.641 337.847L124.945 338.022L126.183 337.307L125.879 337.132ZM128.725 337.116C129.195 336.845 129.217 336.5 128.897 336.251L128.571 336.44C128.742 336.609 128.687 336.8 128.432 336.947C128.045 337.171 127.476 337.129 126.984 336.845C126.503 336.567 126.442 336.239 126.824 336.018C127.111 335.853 127.459 335.856 127.703 335.939L128.029 335.75C127.576 335.553 126.973 335.594 126.525 335.853C125.95 336.184 126.022 336.666 126.669 337.04C127.305 337.407 128.128 337.461 128.725 337.116ZM129.993 336.334L130.319 336.145L128.976 335.37C128.688 335.204 128.705 334.952 129.014 334.773C129.101 334.723 129.208 334.68 129.235 334.671L128.904 334.479C128.864 334.499 128.775 334.547 128.727 334.575C128.472 334.722 128.395 334.933 128.528 335.099L128.506 335.111L128.185 334.926L127.87 335.108L129.993 336.334ZM132.283 335.063C132.858 334.731 132.808 334.255 132.15 333.875C131.487 333.492 130.663 333.464 130.088 333.796C129.513 334.127 129.563 334.603 130.226 334.986C130.884 335.366 131.708 335.395 132.283 335.063ZM131.99 334.893C131.553 335.146 130.978 335.043 130.552 334.798C130.127 334.552 129.944 334.217 130.381 333.965C130.818 333.713 131.398 333.818 131.824 334.064C132.249 334.309 132.426 334.641 131.99 334.893ZM132.747 333.269C132.377 333.055 132.396 332.801 132.709 332.621C133.011 332.446 133.393 332.454 133.726 332.646L135.053 333.412L135.379 333.224L134.03 332.445C133.488 332.133 132.939 332.149 132.51 332.397C132.189 332.583 132.134 332.78 132.25 332.962L132.222 332.978L131.891 332.787L131.575 332.969L133.698 334.194L134.024 334.006L132.747 333.269ZM135.825 331.389L134.587 332.104L134.891 332.28L136.129 331.565L135.825 331.389ZM138.246 331.569L138.566 331.384L137.4 330.174L137.433 330.155L139.528 330.828L139.849 330.643L138.373 329.044L138.03 329.242L139.191 330.442L139.169 330.455L137.101 329.778L136.753 329.979L137.925 331.179L137.903 331.192L135.819 330.519L135.476 330.717L138.246 331.569ZM139.749 328.249L139.274 328.524L139.058 328.4C138.848 328.278 138.826 328.163 139.042 328.039C139.136 327.985 139.213 327.965 139.257 327.953L139.069 327.736C138.998 327.752 138.865 327.79 138.705 327.882C138.4 328.058 138.29 328.332 138.655 328.543L138.948 328.712L138.605 328.91L138.881 329.07L139.224 328.872L141.071 329.938L141.397 329.75L139.55 328.684L140.026 328.409L139.749 328.249ZM142.369 329.214C142.505 329.135 142.505 329.006 142.369 328.927C142.232 328.848 142.008 328.848 141.871 328.927C141.734 329.006 141.734 329.135 141.871 329.214C142.008 329.293 142.232 329.293 142.369 329.214ZM143.44 328.595C143.577 328.516 143.577 328.387 143.44 328.308C143.304 328.229 143.08 328.229 142.943 328.308C142.806 328.387 142.806 328.516 142.943 328.595C143.08 328.674 143.304 328.674 143.44 328.595ZM144.512 327.976C144.649 327.897 144.649 327.768 144.512 327.689C144.375 327.61 144.151 327.61 144.015 327.689C143.878 327.768 143.878 327.897 144.015 327.976C144.151 328.055 144.375 328.055 144.512 327.976Z" fill="#1C0732"/>
<rect width="30.5679" height="4.1448" transform="matrix(0.866025 -0.5 0.866025 0.5 115.083 340.899)" fill="#E3E8EE"/>
<rect width="8.17806" height="8.17806" rx="4.08903" transform="matrix(0.866025 -0.5 0.866025 0.5 156.212 271.56)" fill="#00CC9A"/>
<g clip-path="url(#clip1)">
<path d="M164.203 272.564C164.204 272.603 164.177 272.64 164.129 272.668C164.081 272.696 164.016 272.711 163.948 272.711L161.906 272.711C161.694 272.711 161.522 272.612 161.522 272.49L161.522 272.342C161.522 272.22 161.694 272.121 161.906 272.121L163.181 272.121L163.181 270.132C163.181 270.01 163.352 269.91 163.564 269.911L163.82 269.911C164.032 269.911 164.203 270.01 164.203 270.132L164.203 272.564Z" fill="white"/>
</g>
<path d="M162.993 280.913L163.319 280.724L161.976 279.949C161.688 279.783 161.705 279.531 162.015 279.352C162.102 279.302 162.208 279.259 162.236 279.25L161.904 279.058C161.864 279.078 161.775 279.126 161.727 279.154C161.473 279.301 161.395 279.511 161.528 279.677L161.506 279.69L161.185 279.505L160.87 279.687L162.993 280.913ZM164.911 278.803C165.309 279.033 165.187 279.314 164.944 279.454C164.673 279.611 164.281 279.607 163.971 279.429L162.644 278.663L162.318 278.851L163.667 279.63C164.209 279.942 164.756 279.927 165.154 279.697C165.475 279.512 165.513 279.291 165.397 279.109L165.42 279.097L165.779 279.304L166.105 279.116L163.982 277.89L163.656 278.079L164.911 278.803ZM165.752 277.845C165.381 277.632 165.401 277.378 165.713 277.197C166.016 277.023 166.397 277.031 166.73 277.223L168.057 277.989L168.383 277.801L167.034 277.022C166.492 276.709 165.944 276.726 165.514 276.974C165.193 277.159 165.138 277.357 165.254 277.539L165.226 277.555L164.895 277.363L164.58 277.545L166.702 278.771L167.029 278.583L165.752 277.845ZM168.83 275.966L167.591 276.681L167.895 276.857L169.134 276.142L168.83 275.966ZM171.676 275.951C172.25 275.619 172.201 275.143 171.543 274.763C170.879 274.38 170.056 274.352 169.481 274.684C168.906 275.016 168.956 275.491 169.619 275.874C170.277 276.254 171.101 276.283 171.676 275.951ZM171.383 275.782C170.946 276.034 170.371 275.932 169.945 275.686C169.52 275.44 169.337 275.105 169.774 274.853C170.211 274.601 170.791 274.706 171.217 274.952C171.642 275.198 171.819 275.529 171.383 275.782ZM173.091 275.082L173.417 274.894L172.074 274.119C171.786 273.953 171.803 273.7 172.113 273.522C172.2 273.471 172.306 273.429 172.334 273.42L172.002 273.228C171.962 273.248 171.874 273.296 171.825 273.324C171.571 273.471 171.493 273.681 171.626 273.847L171.604 273.86L171.283 273.675L170.968 273.857L173.091 275.082ZM175.32 273.846C175.729 273.61 175.613 273.384 175.569 273.275L175.608 273.253L175.934 273.441L176.249 273.259L173.419 271.625L173.092 271.813L174.137 272.417L174.11 272.433C173.927 272.41 173.546 272.337 173.131 272.576C172.595 272.886 172.65 273.345 173.319 273.732C173.994 274.121 174.79 274.153 175.32 273.846ZM175.071 273.652C174.662 273.888 174.093 273.802 173.64 273.54C173.192 273.282 173.048 272.962 173.463 272.723C173.861 272.493 174.392 272.557 174.867 272.832C175.348 273.109 175.464 273.425 175.071 273.652ZM177.151 272.764C177.288 272.685 177.288 272.555 177.151 272.476C177.015 272.397 176.791 272.397 176.654 272.476C176.517 272.555 176.517 272.685 176.654 272.764C176.791 272.843 177.015 272.843 177.151 272.764ZM178.223 272.145C178.36 272.066 178.36 271.937 178.223 271.858C178.086 271.779 177.862 271.779 177.726 271.858C177.589 271.937 177.589 272.066 177.726 272.145C177.862 272.224 178.086 272.224 178.223 272.145ZM179.295 271.526C179.432 271.447 179.432 271.318 179.295 271.239C179.158 271.16 178.934 271.16 178.797 271.239C178.661 271.318 178.661 271.447 178.797 271.526C178.934 271.605 179.158 271.605 179.295 271.526Z" fill="#1C0732"/>
<rect width="20.2059" height="4.1448" transform="matrix(0.866025 -0.5 0.866025 0.5 159.504 279.504)" fill="#E3E8EE"/>
<rect width="8.17806" height="8.17806" rx="4.08903" transform="matrix(0.866025 -0.5 0.866025 0.5 251.282 271.204)" fill="#00CC9A"/>
<path d="M256.499 270.015C255.426 270.635 255.426 271.643 256.499 272.262C257.572 272.882 259.318 272.882 260.391 272.262C261.464 271.643 261.464 270.635 260.391 270.015C259.318 269.396 257.572 269.396 256.499 270.015ZM260.148 272.122C259.209 272.664 257.681 272.664 256.742 272.122C255.803 271.58 255.803 270.698 256.742 270.156C257.681 269.614 259.209 269.614 260.148 270.156C261.086 270.698 261.086 271.58 260.148 272.122Z" fill="white"/>
<path d="M257.35 270.366L257.107 270.507L258.374 271.238L259.904 271.238L259.904 271.039L258.516 271.039L257.35 270.366Z" fill="white"/>
<path d="M260.26 281.753L260.586 281.565L259.243 280.789C258.956 280.623 258.972 280.371 259.282 280.192C259.369 280.142 259.475 280.1 259.503 280.09L259.171 279.899C259.131 279.919 259.043 279.967 258.994 279.995C258.74 280.141 258.663 280.352 258.795 280.518L258.773 280.531L258.453 280.346L258.138 280.528L260.26 281.753ZM262.178 279.644C262.576 279.873 262.455 280.154 262.211 280.295C261.941 280.451 261.548 280.448 261.238 280.269L259.912 279.503L259.586 279.692L260.934 280.47C261.476 280.783 262.023 280.767 262.421 280.537C262.742 280.352 262.781 280.132 262.665 279.95L262.687 279.937L263.046 280.145L263.372 279.956L261.25 278.731L260.923 278.919L262.178 279.644ZM263.019 278.686C262.648 278.472 262.668 278.218 262.98 278.038C263.283 277.863 263.664 277.871 263.997 278.064L265.324 278.83L265.65 278.641L264.301 277.863C263.76 277.55 263.211 277.567 262.781 277.815C262.46 278 262.405 278.198 262.521 278.38L262.494 278.396L262.162 278.204L261.847 278.386L263.97 279.612L264.296 279.423L263.019 278.686ZM266.097 276.807L264.859 277.522L265.163 277.697L266.401 276.982L266.097 276.807ZM266.837 275.505L266.383 275.767L265.875 275.473L265.549 275.662L266.057 275.955L265.737 276.14L266.013 276.3L266.334 276.115L267.66 276.881C268.031 277.095 268.506 277.024 268.783 276.865C268.904 276.795 268.959 276.737 268.987 276.702L268.628 276.571C268.606 276.59 268.572 276.622 268.501 276.664C268.357 276.747 268.174 276.801 267.898 276.641L266.66 275.926L267.113 275.665L266.837 275.505ZM270.361 275.972C270.793 275.723 270.892 275.417 270.671 275.174L270.267 275.305C270.406 275.481 270.324 275.656 270.068 275.803C269.686 276.024 269.174 276.034 268.704 275.78L270.245 274.89L270.107 274.811C269.317 274.354 268.576 274.469 268.134 274.724C267.559 275.056 267.631 275.538 268.283 275.915C268.935 276.292 269.748 276.327 270.361 275.972ZM268.422 275.617C268.114 275.414 268.053 275.109 268.427 274.894C268.78 274.689 269.272 274.712 269.632 274.919L268.422 275.617ZM271.549 273.334C271.145 273.219 270.714 273.235 270.294 273.477C269.846 273.736 269.769 274.074 270.128 274.282C270.421 274.451 270.791 274.464 271.272 274.291L271.709 274.135C271.973 274.04 272.176 274.041 272.323 274.125C272.505 274.231 272.461 274.428 272.157 274.604C271.89 274.758 271.608 274.788 271.322 274.69L271.09 274.914C271.526 275.078 272.016 275.017 272.45 274.767C272.943 274.482 273.009 274.132 272.643 273.921C272.347 273.75 271.976 273.749 271.504 273.915L271.112 274.052C270.798 274.161 270.601 274.178 270.437 274.084C270.255 273.978 270.316 273.79 270.576 273.64C270.86 273.476 271.135 273.499 271.339 273.551L271.549 273.334ZM273.985 273.854C274.122 273.776 274.122 273.646 273.985 273.567C273.849 273.488 273.625 273.488 273.488 273.567C273.351 273.646 273.351 273.776 273.488 273.854C273.625 273.933 273.849 273.933 273.985 273.854ZM275.057 273.236C275.194 273.157 275.194 273.027 275.057 272.948C274.92 272.869 274.696 272.869 274.56 272.948C274.423 273.027 274.423 273.157 274.56 273.236C274.696 273.315 274.92 273.315 275.057 273.236ZM276.129 272.617C276.266 272.538 276.266 272.409 276.129 272.33C275.992 272.251 275.768 272.251 275.631 272.33C275.495 272.409 275.495 272.538 275.631 272.617C275.768 272.696 275.992 272.696 276.129 272.617Z" fill="#1C0732"/>
<rect width="20.724" height="3.6267" transform="matrix(0.866025 -0.5 0.866025 0.5 257.318 280.54)" fill="#E3E8EE"/>
<rect x="0.448688" width="11.9163" height="11.9163" rx="5.95815" transform="matrix(0.866025 -0.5 0.866025 0.5 178.858 286.722)" stroke="#F2536D" stroke-width="0.5181" stroke-dasharray="1.04 1.04"/>
<rect width="9.94753" height="9.94753" rx="4.97376" transform="matrix(0.866025 -0.5 0.866025 0.5 180.951 286.498)" fill="#F2536D"/>
<g clip-path="url(#clip2)">
<path d="M190.427 287.031L192.926 287.031C193.202 287.031 193.426 286.901 193.425 286.742L193.425 286.55C193.425 286.39 193.202 286.261 192.926 286.261L190.427 286.261L190.427 284.819C190.427 284.659 190.204 284.53 189.928 284.53L189.594 284.53C189.318 284.53 189.095 284.659 189.095 284.819L189.095 286.261L186.596 286.261C186.32 286.261 186.096 286.391 186.097 286.55L186.097 286.742C186.097 286.902 186.32 287.031 186.596 287.031L189.095 287.031L189.095 288.473C189.095 288.633 189.319 288.762 189.594 288.762H189.927C190.204 288.762 190.427 288.632 190.427 288.473L190.427 287.031Z" fill="white"/>
</g>
<path d="M191.499 296.957L191.826 296.769L190.482 295.993C190.195 295.827 190.211 295.575 190.521 295.396C190.608 295.346 190.714 295.304 190.742 295.294L190.41 295.103C190.37 295.123 190.282 295.171 190.234 295.199C189.979 295.345 189.902 295.556 190.035 295.722L190.012 295.735L189.692 295.55L189.377 295.732L191.499 296.957ZM193.417 294.848C193.815 295.078 193.694 295.358 193.45 295.499C193.18 295.655 192.787 295.652 192.478 295.473L191.151 294.707L190.825 294.896L192.174 295.674C192.715 295.987 193.263 295.971 193.661 295.741C193.981 295.556 194.02 295.336 193.904 295.154L193.926 295.141L194.285 295.349L194.611 295.16L192.489 293.935L192.162 294.123L193.417 294.848ZM194.258 293.89C193.888 293.676 193.907 293.422 194.219 293.242C194.522 293.067 194.903 293.075 195.236 293.268L196.563 294.034L196.889 293.845L195.54 293.067C194.999 292.754 194.45 292.771 194.02 293.019C193.7 293.204 193.644 293.402 193.76 293.584L193.733 293.6L193.401 293.408L193.086 293.59L195.209 294.816L195.535 294.627L194.258 293.89ZM197.336 292.011L196.098 292.726L196.402 292.901L197.64 292.186L197.336 292.011ZM200.182 291.995C200.652 291.724 200.674 291.379 200.353 291.13L200.027 291.319C200.199 291.488 200.143 291.679 199.889 291.826C199.502 292.05 198.933 292.008 198.441 291.724C197.96 291.446 197.899 291.118 198.28 290.897C198.568 290.732 198.916 290.735 199.159 290.818L199.485 290.629C199.032 290.432 198.43 290.473 197.982 290.732C197.407 291.063 197.479 291.545 198.125 291.919C198.761 292.286 199.585 292.34 200.182 291.995ZM202.124 290.881C202.494 290.667 202.489 290.44 202.417 290.322L202.433 290.313L202.721 290.479L203.047 290.29L201.648 289.483C200.974 289.093 200.382 289.346 200.111 289.502C199.791 289.687 199.537 289.962 199.758 290.281L200.178 290.166C200.095 290.035 200.099 289.841 200.41 289.662C200.71 289.488 201.017 289.495 201.289 289.652L201.3 289.658C201.458 289.749 201.283 289.834 200.946 290.086C200.603 290.343 200.261 290.641 200.747 290.922C201.162 291.162 201.72 291.114 202.124 290.881ZM201.88 290.683C201.621 290.833 201.317 290.874 201.09 290.743C200.841 290.6 200.99 290.424 201.212 290.258C201.333 290.169 201.665 289.933 201.654 289.863L201.952 290.035C202.218 290.188 202.267 290.459 201.88 290.683ZM202.443 288.188L201.989 288.45L201.481 288.156L201.155 288.344L201.663 288.638L201.342 288.823L201.619 288.983L201.94 288.798L203.266 289.564C203.637 289.777 204.112 289.707 204.388 289.548C204.51 289.477 204.565 289.42 204.593 289.385L204.234 289.254C204.212 289.273 204.178 289.305 204.106 289.347C203.963 289.43 203.78 289.484 203.504 289.324L202.266 288.609L202.719 288.348L202.443 288.188ZM205.316 289.006C205.453 288.927 205.453 288.798 205.316 288.719C205.179 288.64 204.955 288.64 204.818 288.719C204.681 288.798 204.681 288.927 204.818 289.006C204.955 289.085 205.179 289.085 205.316 289.006ZM206.388 288.387C206.524 288.308 206.524 288.179 206.388 288.1C206.251 288.021 206.027 288.021 205.89 288.1C205.753 288.179 205.753 288.308 205.89 288.387C206.027 288.466 206.251 288.466 206.388 288.387ZM207.459 287.768C207.596 287.689 207.596 287.56 207.459 287.481C207.322 287.402 207.099 287.402 206.962 287.481C206.825 287.56 206.825 287.689 206.962 287.768C207.099 287.847 207.322 287.847 207.459 287.768Z" fill="#1C0732"/>
<rect width="20.2059" height="4.1448" transform="matrix(0.866025 -0.5 0.866025 0.5 186.874 295.306)" fill="#E3E8EE"/>
<rect width="8.17806" height="8.17806" rx="4.08903" transform="matrix(0.866025 -0.5 0.866025 0.5 211.79 248.383)" fill="#00CC9A"/>
<path d="M217.025 247.225C215.952 247.844 215.952 248.852 217.025 249.472C218.098 250.091 219.844 250.091 220.917 249.472C221.99 248.852 221.99 247.844 220.917 247.225C219.844 246.605 218.098 246.605 217.025 247.225ZM220.674 249.331C219.735 249.873 218.208 249.873 217.269 249.331C216.33 248.789 216.33 247.907 217.269 247.365C218.208 246.823 219.735 246.823 220.674 247.365C221.613 247.907 221.613 248.789 220.674 249.331Z" fill="white"/>
<path d="M217.877 247.576L217.634 247.717L218.9 248.448L220.431 248.448L220.431 248.249L219.043 248.249L217.877 247.576Z" fill="white"/>
<path d="M220.651 258.899L220.977 258.711L219.633 257.935C219.346 257.769 219.363 257.517 219.672 257.338C219.759 257.288 219.866 257.246 219.893 257.236L219.562 257.045C219.521 257.065 219.433 257.113 219.385 257.14C219.13 257.287 219.053 257.498 219.186 257.664L219.164 257.677L218.843 257.492L218.528 257.673L220.651 258.899ZM222.568 256.79C222.967 257.019 222.845 257.3 222.602 257.441C222.331 257.597 221.938 257.594 221.629 257.415L220.302 256.649L219.976 256.837L221.325 257.616C221.866 257.929 222.414 257.913 222.812 257.683C223.132 257.498 223.171 257.278 223.055 257.096L223.077 257.083L223.436 257.291L223.763 257.102L221.64 255.877L221.314 256.065L222.568 256.79ZM223.409 255.832C223.039 255.618 223.058 255.364 223.37 255.184C223.673 255.009 224.054 255.017 224.388 255.21L225.714 255.976L226.04 255.787L224.692 255.008C224.15 254.696 223.601 254.712 223.171 254.961C222.851 255.146 222.795 255.344 222.912 255.526L222.884 255.541L222.552 255.35L222.237 255.532L224.36 256.757L224.686 256.569L223.409 255.832ZM226.487 253.953L225.249 254.668L225.553 254.843L226.791 254.128L226.487 253.953ZM229.333 253.937C229.803 253.666 229.825 253.321 229.504 253.072L229.178 253.261C229.35 253.43 229.294 253.621 229.04 253.768C228.653 253.992 228.084 253.95 227.592 253.666C227.111 253.388 227.05 253.06 227.431 252.839C227.719 252.673 228.067 252.677 228.31 252.76L228.637 252.571C228.183 252.373 227.581 252.415 227.133 252.673C226.558 253.005 226.63 253.487 227.277 253.861C227.912 254.228 228.736 254.282 229.333 253.937ZM231.275 252.823C231.645 252.609 231.64 252.382 231.568 252.264L231.584 252.255L231.872 252.42L232.198 252.232L230.799 251.425C230.125 251.035 229.533 251.287 229.263 251.444C228.942 251.629 228.688 251.903 228.909 252.223L229.329 252.108C229.246 251.977 229.25 251.783 229.561 251.603C229.861 251.43 230.168 251.437 230.44 251.594L230.451 251.6C230.609 251.691 230.435 251.776 230.097 252.028C229.755 252.285 229.412 252.583 229.898 252.864C230.313 253.103 230.871 253.056 231.275 252.823ZM231.032 252.625C230.772 252.775 230.468 252.816 230.241 252.685C229.992 252.542 230.142 252.366 230.363 252.2C230.484 252.111 230.816 251.875 230.805 251.804L231.103 251.977C231.369 252.13 231.419 252.401 231.032 252.625ZM231.594 250.13L231.14 250.392L230.632 250.098L230.306 250.286L230.814 250.58L230.494 250.765L230.77 250.925L231.091 250.739L232.417 251.505C232.788 251.719 233.263 251.649 233.54 251.49C233.661 251.419 233.716 251.362 233.744 251.327L233.385 251.196C233.363 251.215 233.33 251.247 233.258 251.288C233.114 251.371 232.931 251.426 232.655 251.266L231.417 250.551L231.87 250.289L231.594 250.13ZM234.467 250.948C234.604 250.869 234.604 250.739 234.467 250.66C234.33 250.582 234.106 250.582 233.969 250.66C233.833 250.739 233.833 250.869 233.969 250.948C234.106 251.027 234.33 251.027 234.467 250.948ZM235.539 250.329C235.675 250.25 235.675 250.121 235.539 250.042C235.402 249.963 235.178 249.963 235.041 250.042C234.904 250.121 234.904 250.25 235.041 250.329C235.178 250.408 235.402 250.408 235.539 250.329ZM236.61 249.71C236.747 249.631 236.747 249.502 236.61 249.423C236.474 249.344 236.25 249.344 236.113 249.423C235.976 249.502 235.976 249.631 236.113 249.71C236.25 249.789 236.474 249.789 236.61 249.71Z" fill="#1C0732"/>
<rect width="20.724" height="3.6267" transform="matrix(0.866025 -0.5 0.866025 0.5 216.936 257.225)" fill="#E3E8EE"/>
<path d="M137.967 321.47L167.131 304.632" stroke="#00CC9A" stroke-width="0.356418"/>
<path d="M215.97 312.092L215.502 312.362L214.978 312.059L214.642 312.253L215.166 312.556L214.835 312.747L215.12 312.911L215.451 312.72L216.819 313.51C217.201 313.731 217.691 313.658 217.976 313.494C218.101 313.421 218.158 313.362 218.187 313.326L217.816 313.191C217.794 313.211 217.759 313.243 217.685 313.286C217.537 313.372 217.349 313.428 217.064 313.263L215.787 312.526L216.255 312.256L215.97 312.092ZM219.604 312.573C220.049 312.317 220.151 312.001 219.923 311.751L219.507 311.886C219.65 312.067 219.566 312.247 219.302 312.399C218.907 312.627 218.38 312.637 217.896 312.375L219.484 311.458L219.342 311.376C218.527 310.905 217.763 311.023 217.307 311.287C216.714 311.629 216.788 312.126 217.461 312.514C218.133 312.902 218.971 312.939 219.604 312.573ZM217.605 312.207C217.287 311.998 217.224 311.683 217.609 311.461C217.974 311.251 218.481 311.274 218.852 311.487L217.605 312.207ZM220.828 309.853C220.412 309.734 219.967 309.751 219.534 310.001C219.073 310.267 218.993 310.616 219.363 310.83C219.665 311.005 220.047 311.018 220.543 310.84L220.993 310.679C221.266 310.581 221.475 310.582 221.626 310.669C221.814 310.777 221.769 310.981 221.455 311.162C221.18 311.321 220.889 311.353 220.594 311.251L220.355 311.482C220.805 311.651 221.31 311.589 221.757 311.33C222.266 311.037 222.334 310.676 221.957 310.458C221.652 310.282 221.268 310.281 220.782 310.452L220.378 310.593C220.054 310.706 219.851 310.723 219.682 310.626C219.494 310.517 219.557 310.323 219.825 310.169C220.118 309.999 220.402 310.023 220.611 310.077L220.828 309.853ZM221.836 308.705L221.368 308.975L220.844 308.672L220.508 308.866L221.032 309.169L220.702 309.36L220.987 309.524L221.317 309.333L222.685 310.123C223.067 310.344 223.557 310.271 223.842 310.107C223.968 310.034 224.025 309.975 224.053 309.939L223.683 309.804C223.66 309.824 223.626 309.857 223.552 309.899C223.403 309.985 223.215 310.041 222.93 309.876L221.653 309.139L222.121 308.869L221.836 308.705ZM224.298 308.185L223.021 308.922L223.335 309.103L224.612 308.366L224.298 308.185ZM225.084 306.83L224.594 307.113L224.371 306.984C224.155 306.859 224.132 306.741 224.354 306.613C224.451 306.557 224.531 306.537 224.576 306.524L224.383 306.3C224.309 306.316 224.172 306.356 224.006 306.451C223.693 306.632 223.579 306.915 223.955 307.132L224.257 307.307L223.904 307.511L224.189 307.675L224.542 307.471L226.446 308.571L226.782 308.376L224.879 307.277L225.369 306.994L225.084 306.83ZM225.162 305.942L224.825 306.136L227.744 307.821L228.08 307.627L225.162 305.942ZM229.631 306.784C230.224 306.442 230.172 305.952 229.494 305.56C228.81 305.165 227.961 305.136 227.368 305.478C226.775 305.82 226.826 306.311 227.51 306.706C228.189 307.097 229.038 307.127 229.631 306.784ZM229.329 306.61C228.878 306.87 228.286 306.765 227.847 306.511C227.408 306.258 227.22 305.912 227.67 305.652C228.12 305.392 228.719 305.501 229.158 305.754C229.597 306.008 229.779 306.35 229.329 306.61ZM231.512 305.646L231.842 305.455L230.64 304.208L230.674 304.188L232.834 304.882L233.165 304.692L231.643 303.043L231.289 303.247L232.486 304.484L232.464 304.497L230.332 303.8L229.973 304.007L231.181 305.244L231.158 305.258L229.009 304.563L228.656 304.767L231.512 305.646ZM234.246 304.093C234.387 304.012 234.387 303.879 234.246 303.797C234.105 303.716 233.874 303.716 233.733 303.797C233.592 303.879 233.592 304.012 233.733 304.093C233.874 304.175 234.105 304.175 234.246 304.093ZM235.351 303.455C235.492 303.374 235.492 303.241 235.351 303.159C235.21 303.078 234.979 303.078 234.838 303.159C234.697 303.241 234.697 303.374 234.838 303.455C234.979 303.537 235.21 303.537 235.351 303.455ZM222.671 316.777C222.812 316.695 222.812 316.562 222.671 316.48C222.53 316.399 222.299 316.399 222.158 316.48C222.017 316.562 222.017 316.695 222.158 316.777C222.299 316.858 222.53 316.858 222.671 316.777Z" fill="#1C0732"/>
<rect width="23.3145" height="10.362" transform="matrix(0.866025 -0.5 0.866025 0.5 213.346 312.144)" fill="#E3E8EE"/>
<rect width="8.17806" height="8.17806" rx="4.08903" transform="matrix(0.866025 -0.5 0.866025 0.5 211.771 303.638)" fill="#5252F6"/>
<path d="M220.98 304.864C220.693 305.03 220.359 305.158 219.986 305.245C219.626 305.33 219.245 305.372 218.855 305.372C218.465 305.372 218.084 305.33 217.724 305.245C217.352 305.158 217.017 305.03 216.73 304.864C216.648 304.817 216.648 304.739 216.73 304.692C216.813 304.644 216.947 304.644 217.029 304.692C217.276 304.834 217.563 304.944 217.884 305.019C218.193 305.092 218.52 305.129 218.856 305.129C219.191 305.128 219.518 305.092 219.827 305.019C220.147 304.944 220.435 304.834 220.681 304.692C220.928 304.549 221.119 304.384 221.249 304.198C221.374 304.02 221.438 303.831 221.438 303.637C221.438 303.444 221.374 303.254 221.249 303.076C221.119 302.891 220.928 302.725 220.681 302.583C220.435 302.441 220.148 302.331 219.827 302.256C219.518 302.183 219.188 302.146 218.855 302.146C218.522 302.146 218.192 302.183 217.883 302.256C217.563 302.331 217.276 302.441 217.029 302.583C216.947 302.631 216.813 302.631 216.73 302.583C216.648 302.536 216.648 302.458 216.73 302.411C217.017 302.245 217.352 302.117 217.724 302.03C218.085 301.945 218.465 301.903 218.855 301.903C219.245 301.903 219.626 301.946 219.986 302.03C220.358 302.117 220.693 302.245 220.98 302.411C221.266 302.576 221.489 302.77 221.64 302.985C221.786 303.192 221.86 303.412 221.86 303.637C221.86 303.863 221.786 304.082 221.64 304.29C221.489 304.505 221.267 304.699 220.98 304.864Z" fill="white"/>
<g filter="url(#filter1_dd)">
<rect width="254.38" height="114.705" rx="7.80307" transform="matrix(0.866025 -0.5 0.866025 0.5 435.831 149.19)" fill="white"/>
</g>
<g filter="url(#filter2_dd)">
<rect width="124.069" height="101.44" rx="7.80307" transform="matrix(0.866025 -0.5 0.866025 0.5 547.332 91.0573)" fill="#109B67"/>
</g>
<path d="M497.18 162.337L500.021 160.696C501.879 159.623 501.741 158.657 500.559 157.974C499.315 157.256 497.779 157.362 497.011 157.752L496.934 157.708C497.425 157.212 497.579 156.609 496.565 156.023C495.414 155.358 493.709 155.261 492.065 156.21L489.316 157.797L497.18 162.337ZM497.287 161.299L494.553 159.721L496.489 158.604C497.518 158.01 498.854 158.036 499.652 158.497C500.344 158.896 500.42 159.49 499.176 160.209L497.287 161.299ZM493.724 159.242L491.113 157.735L492.91 156.697C493.954 156.094 494.968 156.148 495.659 156.547C496.489 157.025 496.35 157.726 495.49 158.222L493.724 159.242ZM505.963 157.425C506.992 156.831 506.976 156.202 506.777 155.874L506.823 155.847L507.621 156.308L508.528 155.785L504.642 153.542C502.768 152.46 501.125 153.16 500.372 153.595C499.482 154.109 498.775 154.872 499.389 155.758L500.557 155.439C500.326 155.076 500.338 154.537 501.202 154.038C502.035 153.557 502.887 153.575 503.644 154.012L503.674 154.029C504.112 154.282 503.628 154.517 502.691 155.218C501.739 155.931 500.787 156.76 502.139 157.541C503.29 158.206 504.842 158.073 505.963 157.425ZM505.287 156.876C504.565 157.292 503.72 157.408 503.091 157.044C502.4 156.645 502.814 156.157 503.429 155.696C503.767 155.448 504.688 154.792 504.657 154.597L505.487 155.076C506.224 155.501 506.362 156.255 505.287 156.876ZM512.7 153.518C514.006 152.764 514.067 151.806 513.176 151.115L512.27 151.638C512.746 152.108 512.593 152.64 511.886 153.048C510.811 153.669 509.229 153.553 507.862 152.764C506.526 151.993 506.357 151.079 507.417 150.468C508.216 150.006 509.183 150.015 509.859 150.246L510.765 149.723C509.506 149.173 507.832 149.288 506.588 150.006C504.99 150.929 505.19 152.268 506.987 153.305C508.753 154.325 511.042 154.476 512.7 153.518ZM516.221 151.343L517.127 150.82L514.92 149.545L514.966 148.84L519.969 149.18L521.12 148.515L515.065 148.109L515.039 145.216L513.917 145.863L513.963 148.869L513.856 148.931L509.264 146.28L508.358 146.803L516.221 151.343ZM526.575 148.061C527.988 147.245 528.479 146.217 526.959 145.339L520.892 141.837L520.017 142.342L520.953 142.883L520.861 142.936C520.354 142.874 519.279 142.679 518.127 143.344C516.638 144.204 516.791 145.481 518.604 146.527C520.447 147.591 522.566 147.574 523.994 146.749C525.146 146.084 524.839 145.481 524.716 145.179L524.793 145.135L525.991 145.827C526.974 146.394 526.728 147.05 525.776 147.6C524.705 148.219 523.764 148.11 523.196 148.061L522.981 148.771C523.967 148.915 525.258 148.822 526.575 148.061ZM523.303 146.208C522.167 146.864 520.723 146.705 519.494 145.995C518.296 145.304 517.897 144.417 519.049 143.752C520.155 143.113 521.629 143.291 522.904 144.027C524.209 144.78 524.394 145.578 523.303 146.208ZM528.448 144.284L529.354 143.761L525.622 141.606C524.824 141.145 524.87 140.444 525.73 139.948C525.972 139.808 526.267 139.691 526.344 139.664L525.423 139.132C525.311 139.187 525.066 139.32 524.931 139.398C524.225 139.806 524.01 140.391 524.378 140.852L524.317 140.888L523.426 140.373L522.551 140.879L528.448 144.284ZM534.81 140.753C536.408 139.83 536.269 138.509 534.442 137.454C532.599 136.39 530.31 136.31 528.713 137.232C527.116 138.154 527.254 139.476 529.097 140.54C530.925 141.595 533.213 141.675 534.81 140.753ZM533.996 140.283C532.783 140.983 531.186 140.699 530.003 140.017C528.821 139.334 528.314 138.403 529.527 137.702C530.741 137.002 532.353 137.294 533.536 137.977C534.718 138.66 535.21 139.582 533.996 140.283ZM540.049 134.802C541.154 135.441 540.817 136.221 540.141 136.611C539.388 137.046 538.298 137.037 537.438 136.54L533.752 134.412L532.846 134.935L536.593 137.099C538.098 137.968 539.619 137.923 540.724 137.285C541.615 136.771 541.723 136.159 541.4 135.653L541.462 135.618L542.46 136.194L543.366 135.671L537.468 132.266L536.562 132.789L540.049 134.802ZM542.384 132.141C541.355 131.547 541.409 130.842 542.277 130.341C543.117 129.856 544.177 129.878 545.102 130.412L548.788 132.54L549.695 132.017L545.947 129.854C544.442 128.985 542.918 129.031 541.724 129.721C540.833 130.235 540.679 130.785 541.002 131.29L540.925 131.335L540.003 130.802L539.128 131.308L545.026 134.713L545.932 134.19L542.384 132.141ZM553.7 129.847C554.837 129.19 554.514 128.561 554.391 128.259L554.499 128.197L555.405 128.72L556.28 128.215L548.417 123.675L547.511 124.198L550.414 125.874L550.337 125.918C549.83 125.856 548.77 125.652 547.618 126.317C546.129 127.178 546.282 128.454 548.141 129.527C550.014 130.609 552.226 130.698 553.7 129.847ZM553.009 129.306C551.873 129.962 550.291 129.722 549.031 128.995C547.787 128.277 547.388 127.39 548.54 126.725C549.646 126.087 551.12 126.264 552.441 127.027C553.777 127.798 554.1 128.676 553.009 129.306Z" fill="#1C0732"/>
<path d="M515.336 168.418C514.215 168.099 513.017 168.143 511.85 168.817C510.606 169.535 510.391 170.475 511.389 171.052C512.203 171.521 513.232 171.557 514.568 171.078L515.781 170.644C516.515 170.38 517.079 170.382 517.486 170.617C517.993 170.91 517.87 171.459 517.025 171.947C516.284 172.375 515.501 172.459 514.706 172.186L514.061 172.807C515.275 173.264 516.634 173.095 517.839 172.399C519.21 171.608 519.395 170.637 518.377 170.05C517.555 169.575 516.522 169.573 515.213 170.032L514.123 170.413C513.251 170.717 512.702 170.763 512.249 170.502C511.742 170.209 511.911 169.686 512.633 169.269C513.424 168.813 514.188 168.877 514.752 169.021L515.336 168.418ZM522.69 166.673C523.796 167.311 523.458 168.092 522.782 168.482C522.029 168.916 520.939 168.907 520.079 168.411L516.393 166.283L515.487 166.806L519.234 168.969C520.739 169.838 522.26 169.794 523.366 169.156C524.256 168.641 524.364 168.029 524.041 167.524L524.103 167.489L525.101 168.065L526.007 167.542L520.11 164.137L519.203 164.66L522.69 166.673ZM530.186 165.271C531.491 164.518 531.553 163.56 530.662 162.868L529.756 163.391C530.232 163.861 530.078 164.393 529.372 164.801C528.297 165.422 526.715 165.307 525.348 164.518C524.012 163.746 523.843 162.833 524.902 162.221C525.701 161.76 526.669 161.769 527.344 161.999L528.25 161.476C526.991 160.926 525.317 161.042 524.073 161.76C522.476 162.682 522.675 164.021 524.472 165.058C526.239 166.078 528.527 166.229 530.186 165.271ZM536.225 161.784C537.531 161.031 537.592 160.073 536.701 159.381L535.795 159.904C536.271 160.374 536.118 160.906 535.411 161.314C534.336 161.935 532.754 161.82 531.387 161.031C530.051 160.259 529.882 159.346 530.942 158.734C531.741 158.273 532.708 158.282 533.384 158.512L534.29 157.989C533.031 157.439 531.357 157.555 530.113 158.273C528.515 159.195 528.715 160.534 530.512 161.571C532.278 162.591 534.567 162.742 536.225 161.784ZM542.342 158.253C543.54 157.561 543.816 156.71 543.202 156.036L542.081 156.4C542.465 156.887 542.238 157.373 541.528 157.783C540.464 158.397 539.044 158.424 537.738 157.719L542.019 155.247L541.635 155.025C539.439 153.757 537.381 154.076 536.152 154.786C534.555 155.708 534.755 157.047 536.567 158.093C538.379 159.14 540.637 159.237 542.342 158.253ZM536.955 157.266C536.099 156.701 535.93 155.854 536.966 155.256C537.949 154.688 539.316 154.75 540.314 155.327L536.955 157.266ZM545.64 150.922C544.519 150.603 543.321 150.647 542.154 151.321C540.91 152.039 540.695 152.979 541.693 153.556C542.507 154.026 543.536 154.061 544.872 153.582L546.085 153.148C546.819 152.884 547.383 152.886 547.79 153.121C548.297 153.414 548.174 153.963 547.329 154.451C546.588 154.879 545.805 154.963 545.01 154.691L544.365 155.311C545.579 155.768 546.938 155.599 548.143 154.903C549.514 154.112 549.698 153.141 548.681 152.554C547.859 152.079 546.826 152.077 545.517 152.536L544.427 152.917C543.555 153.221 543.006 153.267 542.553 153.006C542.046 152.713 542.215 152.19 542.937 151.773C543.728 151.317 544.492 151.381 545.056 151.525L545.64 150.922ZM551.289 147.661C550.168 147.341 548.97 147.386 547.803 148.06C546.559 148.778 546.344 149.718 547.342 150.294C548.156 150.764 549.185 150.8 550.521 150.321L551.734 149.886C552.468 149.622 553.032 149.625 553.439 149.86C553.946 150.152 553.823 150.702 552.978 151.19C552.237 151.618 551.454 151.702 550.659 151.429L550.014 152.05C551.227 152.506 552.587 152.338 553.792 151.642C555.163 150.851 555.347 149.88 554.33 149.292C553.508 148.818 552.475 148.816 551.166 149.274L550.076 149.656C549.204 149.959 548.655 150.006 548.202 149.744C547.695 149.452 547.864 148.929 548.586 148.512C549.377 148.055 550.141 148.119 550.705 148.264L551.289 147.661ZM558.059 149.108C558.439 148.888 558.439 148.529 558.059 148.31C557.679 148.09 557.057 148.09 556.677 148.31C556.297 148.529 556.297 148.888 556.677 149.108C557.057 149.327 557.679 149.327 558.059 149.108ZM560.315 147.734L561.221 147.211L557.535 145.083C556.671 144.584 556.69 143.868 557.397 143.46C558.084 143.064 559.013 143.046 559.685 143.434L563.724 145.766L564.646 145.234L560.806 143.017C560.046 142.578 559.962 141.98 560.791 141.501C561.436 141.128 562.331 141.006 563.202 141.51L567.149 143.788L568.055 143.265L564.108 140.986C562.722 140.186 561.336 140.246 560.284 140.853C559.439 141.341 559.209 141.922 559.516 142.449L559.455 142.485C558.533 142.29 557.65 142.374 556.875 142.822C556.107 143.265 555.907 143.806 556.291 144.312L556.214 144.356L555.293 143.824L554.417 144.329L560.315 147.734ZM571.586 141.387C572.615 140.792 572.6 140.163 572.4 139.835L572.446 139.808L573.245 140.269L574.151 139.746L570.265 137.503C568.391 136.421 566.748 137.121 565.995 137.556C565.105 138.07 564.398 138.833 565.013 139.72L566.18 139.4C565.949 139.037 565.961 138.498 566.825 137.999C567.658 137.518 568.51 137.536 569.267 137.973L569.297 137.99C569.735 138.243 569.251 138.478 568.315 139.179C567.362 139.892 566.41 140.722 567.762 141.502C568.914 142.167 570.465 142.034 571.586 141.387ZM570.91 140.837C570.188 141.254 569.344 141.369 568.714 141.005C568.023 140.606 568.437 140.119 569.052 139.657C569.39 139.409 570.311 138.753 570.28 138.558L571.11 139.037C571.847 139.462 571.985 140.216 570.91 140.837ZM575.805 138.791L576.711 138.268L570.813 134.863L569.907 135.386L575.805 138.791ZM569.385 134.553C569.738 134.349 569.753 134.021 569.416 133.826C569.078 133.631 568.509 133.639 568.156 133.843C567.803 134.047 567.788 134.375 568.125 134.57C568.463 134.766 569.032 134.757 569.385 134.553ZM575.729 134.738C574.7 134.144 574.754 133.439 575.621 132.938C576.462 132.453 577.522 132.475 578.447 133.009L582.133 135.137L583.039 134.614L579.292 132.451C577.787 131.582 576.262 131.628 575.068 132.318C574.178 132.832 574.024 133.382 574.347 133.887L574.27 133.932L573.348 133.399L572.473 133.905L578.37 137.31L579.277 136.787L575.729 134.738Z" fill="#696F8C"/>
<rect x="344.433" y="168.413" width="7.6556" height="132.059" rx="3.8278" fill="url(#paint1_linear)"/>
<line x1="348.27" y1="172.241" x2="348.27" y2="294.731" stroke="white" stroke-width="0.95695" stroke-dasharray="1.91 1.91"/>
<line y1="-0.478475" x2="52.6322" y2="-0.478475" transform="matrix(-4.37114e-08 -1 -1 4.37114e-08 347.792 225.83)" stroke="white" stroke-width="0.95695"/>
<circle r="1.43542" transform="matrix(1 0 0 -1 348.27 225.352)" fill="white"/>
<g filter="url(#filter3_f)">
<path d="M437.717 180.523C438.408 179.636 439.669 179.487 440.562 180.134C441.449 180.825 441.598 182.086 440.951 182.979C440.261 183.866 439 184.015 438.107 183.368C437.219 182.677 437.07 181.416 437.717 180.523Z" fill="#B2B2FB" fill-opacity="0.7"/>
</g>
<path d="M438.293 181.06C438.727 180.503 439.519 180.409 440.08 180.816C440.637 181.249 440.73 182.041 440.324 182.602C439.89 183.16 439.098 183.253 438.537 182.847C437.98 182.413 437.887 181.621 438.293 181.06Z" fill="#FFCAC7"/>
<g filter="url(#filter4_f)">
<path d="M432.13 177.003C432.995 175.891 434.575 175.704 435.694 176.515C436.806 177.38 436.993 178.961 436.182 180.08C435.317 181.192 433.736 181.378 432.617 180.567C431.505 179.702 431.319 178.122 432.13 177.003Z" fill="#B2B2FB" fill-opacity="0.7"/>
</g>
<path d="M432.851 177.675C433.394 176.977 434.387 176.86 435.09 177.369C435.788 177.912 435.905 178.905 435.396 179.608C434.853 180.306 433.86 180.423 433.157 179.914C432.459 179.371 432.342 178.378 432.851 177.675Z" fill="#FFCAC7"/>
<g filter="url(#filter5_f)">
<path d="M426.557 173.361C427.471 172.188 429.139 171.991 430.32 172.847C431.494 173.76 431.691 175.428 430.835 176.61C429.922 177.783 428.254 177.98 427.072 177.125C425.898 176.211 425.702 174.543 426.557 173.361Z" fill="#B2B2FB" fill-opacity="0.7"/>
</g>
<path d="M427.317 174.072C427.891 173.335 428.938 173.211 429.68 173.748C430.417 174.322 430.541 175.37 430.004 176.112C429.43 176.849 428.382 176.973 427.64 176.435C426.903 175.862 426.779 174.814 427.317 174.072Z" fill="#FFCAC7"/>
<g filter="url(#filter6_f)">
<path d="M443.213 184.22C443.715 183.574 444.633 183.466 445.283 183.936C445.928 184.439 446.037 185.356 445.566 186.006C445.063 186.652 444.146 186.76 443.496 186.29C442.85 185.787 442.742 184.869 443.213 184.22Z" fill="#B2B2FB" fill-opacity="0.7"/>
</g>
<path d="M443.629 184.61C443.945 184.205 444.521 184.137 444.929 184.432C445.335 184.748 445.403 185.324 445.107 185.732C444.792 186.138 444.215 186.206 443.807 185.91C443.402 185.595 443.334 185.018 443.629 184.61Z" fill="#FFCAC7"/>
<path d="M401.123 159.952L460.167 194.211L487.388 178.366C488.453 178.761 489.675 178.981 490.942 178.981C492.715 178.981 494.405 178.568 495.7 177.825C497.206 176.952 498.078 175.667 498.078 174.29C498.078 172.923 497.224 171.637 495.727 170.774C494.451 170.04 492.779 169.627 491.016 169.627C489.243 169.627 487.553 170.04 486.258 170.784C484.752 171.656 483.88 172.941 483.88 174.327C483.88 175.172 484.21 175.979 484.807 176.686L460.167 191.034L402.51 157.583L401.123 159.952ZM487.636 173.17C488.509 172.666 489.739 172.381 491.016 172.381C492.283 172.381 493.495 172.666 494.35 173.152C494.956 173.501 495.323 173.923 495.323 174.281C495.323 174.639 494.947 175.071 494.322 175.438C493.45 175.943 492.219 176.218 490.942 176.218C489.684 176.218 488.463 175.943 487.609 175.447C487.002 175.098 486.635 174.676 486.635 174.318C486.635 173.96 487.012 173.528 487.636 173.17Z" fill="url(#paint2_linear)" fill-opacity="0.24"/>
<path d="M401.123 159.952L460.167 194.211L487.388 178.366C488.453 178.761 489.675 178.981 490.942 178.981C492.715 178.981 494.405 178.568 495.7 177.825C497.206 176.952 498.078 175.667 498.078 174.29C498.078 172.923 497.224 171.637 495.727 170.774C494.451 170.04 492.779 169.627 491.016 169.627C489.243 169.627 487.553 170.04 486.258 170.784C484.752 171.656 483.88 172.941 483.88 174.327C483.88 175.172 484.21 175.979 484.807 176.686L460.167 191.034L402.51 157.583L401.123 159.952ZM487.636 173.17C488.509 172.666 489.739 172.381 491.016 172.381C492.283 172.381 493.495 172.666 494.35 173.152C494.956 173.501 495.323 173.923 495.323 174.281C495.323 174.639 494.947 175.071 494.322 175.438C493.45 175.943 492.219 176.218 490.942 176.218C489.684 176.218 488.463 175.943 487.609 175.447C487.002 175.098 486.635 174.676 486.635 174.318C486.635 173.96 487.012 173.528 487.636 173.17Z" fill="url(#paint3_linear)"/>
<path opacity="0.3" d="M347.03 200.082C379.251 200.082 405.371 184.235 405.371 164.687C405.371 145.139 379.251 129.292 347.03 129.292C314.809 129.292 288.689 145.139 288.689 164.687C288.689 184.235 314.809 200.082 347.03 200.082Z" fill="url(#paint4_radial)"/>
<path d="M418.471 120.166H277.447V132.535L277.473 133.854C277.473 134.039 277.447 132.905 277.447 133.103C277.447 155.772 309.019 174.142 347.966 174.142C386.913 174.142 418.484 155.772 418.484 133.103C418.484 132.918 418.458 132.72 418.458 132.535H418.484V120.166H418.471Z" fill="url(#paint5_linear)"/>
<path d="M347.965 161.495C386.912 161.495 418.484 143.122 418.484 120.456C418.484 97.7909 386.912 79.417 347.965 79.417C309.019 79.417 277.447 97.7909 277.447 120.456C277.447 143.122 309.019 161.495 347.965 161.495Z" fill="url(#paint6_linear)"/>
<path d="M347.966 161.337C309.441 161.337 278.159 143.35 277.487 121.023C277.473 121.274 277.46 121.511 277.46 121.762C277.46 144.431 309.032 162.801 347.979 162.801C386.926 162.801 418.498 144.431 418.498 121.762C418.498 121.511 418.471 121.274 418.471 121.023C417.772 143.35 386.477 161.337 347.966 161.337Z" fill="url(#paint7_radial)"/>
<path d="M352.897 120.552C355.63 118.974 355.63 116.415 352.897 114.837C350.164 113.26 345.733 113.26 343 114.837C340.266 116.415 340.266 118.974 343 120.552C345.733 122.13 350.164 122.13 352.897 120.552Z" fill="#CCCCCC"/>
<path d="M328.153 134.838C330.886 133.26 330.886 130.701 328.153 129.124C325.42 127.546 320.989 127.546 318.256 129.124C315.522 130.701 315.522 133.26 318.256 134.838C320.989 136.416 325.42 136.416 328.153 134.838Z" fill="white"/>
<path d="M377.642 106.266C380.375 104.688 380.375 102.129 377.642 100.551C374.909 98.9732 370.477 98.9732 367.744 100.551C365.011 102.129 365.011 104.688 367.744 106.266C370.477 107.844 374.909 107.844 377.642 106.266Z" fill="#CCCCCC"/>
<path d="M377.642 134.838C380.375 133.26 380.375 130.702 377.642 129.124C374.909 127.546 370.477 127.546 367.744 129.124C365.011 130.702 365.011 133.26 367.744 134.838C370.477 136.416 374.909 136.416 377.642 134.838Z" fill="white"/>
<path d="M328.153 106.266C330.887 104.688 330.887 102.13 328.153 100.552C325.42 98.9737 320.989 98.9737 318.256 100.552C315.523 102.13 315.523 104.688 318.256 106.266C320.989 107.844 325.42 107.844 328.153 106.266Z" fill="#CCCCCC"/>
<path d="M318.256 121.505C320.989 119.927 320.989 117.368 318.256 115.79C315.523 114.212 311.092 114.212 308.359 115.79C305.625 117.368 305.625 119.927 308.359 121.505C311.092 123.083 315.523 123.083 318.256 121.505Z" fill="white"/>
<path d="M351.248 140.553C353.981 138.975 353.981 136.416 351.248 134.838C348.515 133.26 344.083 133.26 341.35 134.838C338.617 136.416 338.617 138.975 341.35 140.553C344.083 142.131 348.515 142.131 351.248 140.553Z" fill="white"/>
<path d="M388.364 120.076C391.097 118.498 391.097 115.939 388.364 114.361C385.631 112.783 381.2 112.783 378.466 114.361C375.733 115.939 375.733 118.498 378.466 120.076C381.2 121.654 385.631 121.654 388.364 120.076Z" fill="white"/>
<path d="M354.548 100.552C357.281 98.9739 357.281 96.4155 354.548 94.8375C351.815 93.2595 347.383 93.2595 344.65 94.8375C341.917 96.4155 341.917 98.9739 344.65 100.552C347.383 102.13 351.815 102.13 354.548 100.552Z" fill="white"/>
<circle opacity="0.26" cx="402.063" cy="161.44" r="23.6488" fill="url(#paint8_radial)"/>
<path d="M672.198 183.389H692.899L715.99 170.131C718.909 168.407 724.084 168.672 727.535 170.661L749.696 183.522H770.398V197.443C770.53 198.636 769.867 199.697 768.407 200.492L726.738 224.623C723.819 226.346 718.644 226.081 715.193 224.092L675.117 201.023C673.392 199.962 672.33 198.636 672.33 197.443V183.389H672.198Z" fill="url(#paint9_linear)"/>
<path d="M726.792 210.996L768.461 186.865C771.38 185.142 771.115 182.225 767.665 180.236L727.588 157.167C724.138 155.178 718.963 154.913 716.043 156.636L674.375 180.766C671.455 182.49 671.72 185.407 675.171 187.396L715.247 210.465C718.565 212.587 723.74 212.719 726.792 210.996Z" fill="url(#paint10_linear)"/>
<path d="M724.351 202.022L754.023 184.914C756.102 183.692 755.913 181.624 753.456 180.214L724.918 163.858C722.461 162.448 718.775 162.26 716.696 163.482L687.024 180.59C684.945 181.812 685.134 183.88 687.591 185.29L716.129 201.646C718.492 203.15 722.177 203.244 724.351 202.022Z" fill="#FFA600"/>
<path d="M674.188 180.34L715.856 156.209C717.449 155.281 719.572 155.016 721.695 155.016C720.103 155.149 718.643 155.546 717.449 156.209L675.78 180.34C672.861 182.063 673.126 184.98 676.576 186.969L716.653 210.038C718.245 210.966 720.368 211.497 722.359 211.629C719.837 211.762 717.051 211.232 715.06 210.038L674.984 186.969C671.666 184.98 671.268 182.063 674.188 180.34Z" fill="white"/>
<path d="M614.781 218.796H635.482L658.573 205.538C661.492 203.814 666.667 204.079 670.118 206.068L692.279 218.929H712.981V232.85C713.113 234.043 712.45 235.104 710.99 235.9L669.321 260.03C666.402 261.753 661.227 261.488 657.776 259.499L617.7 236.43C615.975 235.369 614.913 234.043 614.913 232.85V218.796H614.781Z" fill="url(#paint11_linear)"/>
<path d="M669.375 246.403L711.044 222.272C713.963 220.549 713.698 217.632 710.248 215.643L670.171 192.574C666.721 190.585 661.546 190.32 658.626 192.043L616.958 216.174C614.038 217.897 614.303 220.814 617.754 222.803L657.83 245.872C661.148 247.994 666.323 248.126 669.375 246.403Z" fill="url(#paint12_linear)"/>
<path d="M666.934 237.429L696.606 220.321C698.685 219.099 698.496 217.031 696.039 215.621L667.501 199.265C665.044 197.855 661.358 197.667 659.279 198.889L629.607 215.997C627.528 217.219 627.717 219.287 630.174 220.697L658.712 237.053C661.075 238.557 664.76 238.651 666.934 237.429Z" fill="#F2536D"/>
<path d="M616.771 215.747L658.439 191.616C660.032 190.688 662.155 190.423 664.278 190.423C662.686 190.556 661.226 190.953 660.032 191.616L618.363 215.747C615.444 217.47 615.709 220.387 619.159 222.376L659.236 245.445C660.828 246.374 662.951 246.904 664.942 247.036C662.421 247.169 659.634 246.639 657.643 245.445L617.567 222.376C614.249 220.387 613.851 217.47 616.771 215.747Z" fill="white"/>
<path d="M555.45 254.203H576.151L599.242 240.945C602.161 239.221 607.336 239.486 610.787 241.475L632.948 254.336H653.65V268.257C653.782 269.45 653.119 270.511 651.659 271.307L609.991 295.437C607.071 297.16 601.896 296.895 598.445 294.907L558.369 271.837C556.644 270.776 555.582 269.45 555.582 268.257V254.203H555.45Z" fill="url(#paint13_linear)"/>
<path d="M610.044 281.81L651.713 257.68C654.632 255.956 654.367 253.039 650.917 251.05L610.84 227.981C607.39 225.992 602.215 225.727 599.295 227.451L557.627 251.581C554.707 253.304 554.973 256.221 558.423 258.21L598.499 281.28C601.817 283.401 606.992 283.534 610.044 281.81Z" fill="url(#paint14_linear)"/>
<path d="M607.603 272.836L637.275 255.728C639.354 254.506 639.165 252.438 636.708 251.028L608.17 234.672C605.713 233.262 602.027 233.074 599.948 234.296L570.276 251.404C568.197 252.626 568.386 254.694 570.843 256.104L599.381 272.46C601.744 273.964 605.429 274.058 607.603 272.836Z" fill="#00CC9A"/>
<path d="M557.44 251.154L599.109 227.023C600.701 226.095 602.824 225.83 604.948 225.83C603.355 225.963 601.895 226.361 600.701 227.023L559.032 251.154C556.113 252.877 556.378 255.794 559.829 257.783L599.905 280.853C601.497 281.781 603.62 282.311 605.611 282.444C603.09 282.576 600.303 282.046 598.312 280.853L558.236 257.783C554.919 255.794 554.52 252.877 557.44 251.154Z" fill="white"/>
<path d="M496.119 289.611H516.82L539.911 276.352C542.83 274.629 548.006 274.894 551.456 276.882L573.617 289.743H594.319V303.664C594.452 304.858 593.788 305.918 592.328 306.714L550.66 330.844C547.74 332.568 542.565 332.303 539.114 330.314L499.038 307.244C497.313 306.184 496.251 304.858 496.251 303.664V289.611H496.119Z" fill="url(#paint15_linear)"/>
<path d="M550.713 317.217L592.382 293.087C595.302 291.363 595.036 288.446 591.586 286.458L551.51 263.388C548.059 261.399 542.884 261.134 539.964 262.858L498.296 286.988C495.376 288.711 495.642 291.628 499.092 293.617L539.168 316.687C542.486 318.808 547.661 318.941 550.713 317.217Z" fill="url(#paint16_linear)"/>
<path d="M548.272 308.243L577.944 291.135C580.023 289.913 579.834 287.845 577.377 286.435L548.839 270.079C546.382 268.669 542.697 268.481 540.618 269.703L510.945 286.811C508.866 288.033 509.055 290.101 511.512 291.511L540.051 307.867C542.413 309.371 546.098 309.465 548.272 308.243Z" fill="#7182D8"/>
<path d="M498.109 286.561L539.778 262.431C541.37 261.503 543.493 261.237 545.617 261.237C544.024 261.37 542.564 261.768 541.37 262.431L499.701 286.561C496.782 288.285 497.047 291.201 500.498 293.19L540.574 316.26C542.166 317.188 544.29 317.718 546.28 317.851C543.759 317.983 540.972 317.453 538.981 316.26L498.905 293.19C495.588 291.201 495.19 288.285 498.109 286.561Z" fill="white"/>
<rect x="6" width="772" height="434" fill="url(#paint17_linear)"/>
<defs>
<filter id="filter0_dd" x="195.891" y="283.926" width="185.85" height="124.308" filterUnits="userSpaceOnUse" color-interpolation-filters="sRGB">
<feFlood flood-opacity="0" result="BackgroundImageFix"/>
<feColorMatrix in="SourceAlpha" type="matrix" values="0 0 0 0 0 0 0 0 0 0 0 0 0 0 0 0 0 0 127 0"/>
<feOffset dy="19.139"/>
<feGaussianBlur stdDeviation="6.89004"/>
<feColorMatrix type="matrix" values="0 0 0 0 0 0 0 0 0 0 0 0 0 0 0 0 0 0 0.13 0"/>
<feBlend mode="normal" in2="BackgroundImageFix" result="effect1_dropShadow"/>
<feColorMatrix in="SourceAlpha" type="matrix" values="0 0 0 0 0 0 0 0 0 0 0 0 0 0 0 0 0 0 127 0"/>
<feOffset dy="9.5695"/>
<feGaussianBlur stdDeviation="1.72251"/>
<feColorMatrix type="matrix" values="0 0 0 0 0 0 0 0 0 0 0 0 0 0 0 0 0 0 0.1 0"/>
<feBlend mode="normal" in2="effect1_dropShadow" result="effect2_dropShadow"/>
<feBlend mode="normal" in="SourceGraphic" in2="effect2_dropShadow" result="shape"/>
</filter>
<filter id="filter1_dd" x="432.899" y="20.4577" width="325.5" height="193.752" filterUnits="userSpaceOnUse" color-interpolation-filters="sRGB">
<feFlood flood-opacity="0" result="BackgroundImageFix"/>
<feColorMatrix in="SourceAlpha" type="matrix" values="0 0 0 0 0 0 0 0 0 0 0 0 0 0 0 0 0 0 127 0"/>
<feOffset dy="3.06224"/>
<feGaussianBlur stdDeviation="3.44502"/>
<feColorMatrix type="matrix" values="0 0 0 0 0 0 0 0 0 0 0 0 0 0 0 0 0 0 0.13 0"/>
<feBlend mode="normal" in2="BackgroundImageFix" result="effect1_dropShadow"/>
<feColorMatrix in="SourceAlpha" type="matrix" values="0 0 0 0 0 0 0 0 0 0 0 0 0 0 0 0 0 0 127 0"/>
<feOffset dy="0.57417"/>
<feGaussianBlur stdDeviation="0.861255"/>
<feColorMatrix type="matrix" values="0 0 0 0 0 0 0 0 0 0 0 0 0 0 0 0 0 0 0.1 0"/>
<feBlend mode="normal" in2="effect1_dropShadow" result="effect2_dropShadow"/>
<feBlend mode="normal" in="SourceGraphic" in2="effect2_dropShadow" result="shape"/>
</filter>
<filter id="filter2_dd" x="547.846" y="29.3945" width="194.269" height="115.073" filterUnits="userSpaceOnUse" color-interpolation-filters="sRGB">
<feFlood flood-opacity="0" result="BackgroundImageFix"/>
<feColorMatrix in="SourceAlpha" type="matrix" values="0 0 0 0 0 0 0 0 0 0 0 0 0 0 0 0 0 0 127 0"/>
<feOffset dy="1.53112"/>
<feGaussianBlur stdDeviation="1.72251"/>
<feColorMatrix type="matrix" values="0 0 0 0 0 0 0 0 0 0 0 0 0 0 0 0 0 0 0.13 0"/>
<feBlend mode="normal" in2="BackgroundImageFix" result="effect1_dropShadow"/>
<feColorMatrix in="SourceAlpha" type="matrix" values="0 0 0 0 0 0 0 0 0 0 0 0 0 0 0 0 0 0 127 0"/>
<feOffset dy="0.287085"/>
<feGaussianBlur stdDeviation="0.430627"/>
<feColorMatrix type="matrix" values="0 0 0 0 0 0 0 0 0 0 0 0 0 0 0 0 0 0 0.1 0"/>
<feBlend mode="normal" in2="effect1_dropShadow" result="effect2_dropShadow"/>
<feBlend mode="normal" in="SourceGraphic" in2="effect2_dropShadow" result="shape"/>
</filter>
<filter id="filter3_f" x="433.597" y="176.014" width="11.4737" height="11.4737" filterUnits="userSpaceOnUse" color-interpolation-filters="sRGB">
<feFlood flood-opacity="0" result="BackgroundImageFix"/>
<feBlend mode="normal" in="SourceGraphic" in2="BackgroundImageFix" result="shape"/>
<feGaussianBlur stdDeviation="1.86074" result="effect1_foregroundBlur"/>
</filter>
<filter id="filter4_f" x="427.909" y="172.294" width="12.4939" height="12.4939" filterUnits="userSpaceOnUse" color-interpolation-filters="sRGB">
<feFlood flood-opacity="0" result="BackgroundImageFix"/>
<feBlend mode="normal" in="SourceGraphic" in2="BackgroundImageFix" result="shape"/>
<feGaussianBlur stdDeviation="1.86074" result="effect1_foregroundBlur"/>
</filter>
<filter id="filter5_f" x="422.309" y="168.598" width="12.7749" height="12.7749" filterUnits="userSpaceOnUse" color-interpolation-filters="sRGB">
<feFlood flood-opacity="0" result="BackgroundImageFix"/>
<feBlend mode="normal" in="SourceGraphic" in2="BackgroundImageFix" result="shape"/>
<feGaussianBlur stdDeviation="1.86074" result="effect1_foregroundBlur"/>
</filter>
<filter id="filter6_f" x="439.201" y="179.925" width="10.376" height="10.376" filterUnits="userSpaceOnUse" color-interpolation-filters="sRGB">
<feFlood flood-opacity="0" result="BackgroundImageFix"/>
<feBlend mode="normal" in="SourceGraphic" in2="BackgroundImageFix" result="shape"/>
<feGaussianBlur stdDeviation="1.86074" result="effect1_foregroundBlur"/>
</filter>
<linearGradient id="paint0_linear" x1="151.641" y1="15.5922" x2="77.5052" y2="-59.1773" gradientUnits="userSpaceOnUse">
<stop offset="0.302083" stop-color="#109B67"/>
<stop offset="0.911458" stop-color="white" stop-opacity="0"/>
</linearGradient>
<linearGradient id="paint1_linear" x1="348.261" y1="168.413" x2="348.261" y2="300.472" gradientUnits="userSpaceOnUse">
<stop offset="0.411458" stop-color="white" stop-opacity="0.5"/>
<stop offset="1" stop-color="#109B67"/>
</linearGradient>
<linearGradient id="paint2_linear" x1="449.601" y1="157.583" x2="449.601" y2="194.211" gradientUnits="userSpaceOnUse">
<stop stop-color="#7B61FF"/>
<stop offset="1" stop-color="#D0C7FF"/>
</linearGradient>
<linearGradient id="paint3_linear" x1="449.601" y1="157.583" x2="449.601" y2="194.211" gradientUnits="userSpaceOnUse">
<stop stop-color="#D0C7FF"/>
<stop offset="1" stop-color="#D0C7FF" stop-opacity="0"/>
</linearGradient>
<radialGradient id="paint4_radial" cx="0" cy="0" r="1" gradientUnits="userSpaceOnUse" gradientTransform="translate(347.028 164.681) scale(58.3457 35.394)">
<stop/>
<stop offset="1" stop-opacity="0"/>
</radialGradient>
<linearGradient id="paint5_linear" x1="278.119" y1="147.16" x2="416.913" y2="147.16" gradientUnits="userSpaceOnUse">
<stop stop-color="#161B50"/>
<stop offset="0.2929" stop-color="#5B44BA"/>
<stop offset="0.6212" stop-color="#0C0F2C"/>
<stop offset="0.759" stop-color="#0C0F2C"/>
<stop offset="1" stop-color="#161B50"/>
</linearGradient>
<linearGradient id="paint6_linear" x1="430.765" y1="31.7074" x2="319.102" y2="151.492" gradientUnits="userSpaceOnUse">
<stop stop-color="#232B80"/>
<stop offset="1" stop-color="#878EDE"/>
</linearGradient>
<radialGradient id="paint7_radial" cx="0" cy="0" r="1" gradientUnits="userSpaceOnUse" gradientTransform="translate(325.33 155.835) scale(52.0043 51.981)">
<stop stop-color="#7B61FF"/>
<stop offset="1" stop-color="#7B61FF" stop-opacity="0"/>
</radialGradient>
<radialGradient id="paint8_radial" cx="0" cy="0" r="1" gradientUnits="userSpaceOnUse" gradientTransform="translate(402.063 161.44) rotate(90) scale(23.6488)">
<stop stop-color="#FF6159"/>
<stop offset="1" stop-color="#291846" stop-opacity="0"/>
</radialGradient>
<linearGradient id="paint9_linear" x1="779.683" y1="197.312" x2="660.066" y2="197.312" gradientUnits="userSpaceOnUse">
<stop stop-color="#F6D4F7" stop-opacity="0.54"/>
<stop offset="0.4785" stop-color="#F2F2F2"/>
<stop offset="1" stop-color="#E6E6E6"/>
</linearGradient>
<linearGradient id="paint10_linear" x1="766.002" y1="186.109" x2="676.278" y2="183.973" gradientUnits="userSpaceOnUse">
<stop stop-color="white"/>
<stop offset="1" stop-color="white"/>
</linearGradient>
<linearGradient id="paint11_linear" x1="722.266" y1="232.719" x2="602.649" y2="232.719" gradientUnits="userSpaceOnUse">
<stop stop-color="#F6D4F7" stop-opacity="0.54"/>
<stop offset="0.4785" stop-color="#F2F2F2"/>
<stop offset="1" stop-color="#E6E6E6"/>
</linearGradient>
<linearGradient id="paint12_linear" x1="708.585" y1="221.516" x2="618.861" y2="219.38" gradientUnits="userSpaceOnUse">
<stop stop-color="white"/>
<stop offset="1" stop-color="white"/>
</linearGradient>
<linearGradient id="paint13_linear" x1="662.935" y1="268.126" x2="543.318" y2="268.126" gradientUnits="userSpaceOnUse">
<stop stop-color="#F6D4F7" stop-opacity="0.54"/>
<stop offset="0.4785" stop-color="#F2F2F2"/>
<stop offset="1" stop-color="#E6E6E6"/>
</linearGradient>
<linearGradient id="paint14_linear" x1="649.254" y1="256.923" x2="559.53" y2="254.788" gradientUnits="userSpaceOnUse">
<stop stop-color="white"/>
<stop offset="1" stop-color="white"/>
</linearGradient>
<linearGradient id="paint15_linear" x1="603.604" y1="303.533" x2="483.987" y2="303.533" gradientUnits="userSpaceOnUse">
<stop stop-color="#F6D4F7" stop-opacity="0.54"/>
<stop offset="0.4785" stop-color="#F2F2F2"/>
<stop offset="1" stop-color="#E6E6E6"/>
</linearGradient>
<linearGradient id="paint16_linear" x1="589.923" y1="292.33" x2="500.2" y2="290.195" gradientUnits="userSpaceOnUse">
<stop stop-color="white"/>
<stop offset="1" stop-color="white"/>
</linearGradient>
<linearGradient id="paint17_linear" x1="893.247" y1="410.382" x2="410.759" y2="210.562" gradientUnits="userSpaceOnUse">
<stop stop-color="#5842B3"/>
<stop offset="1" stop-color="#523DA7" stop-opacity="0"/>
</linearGradient>
<clipPath id="clip0">
<rect width="4.08903" height="4.08903" fill="white" transform="matrix(0.866025 -0.5 0.866025 0.5 119.567 329.993)"/>
</clipPath>
<clipPath id="clip1">
<rect width="4.08903" height="4.08903" fill="white" transform="matrix(0.866025 -0.5 0.866025 0.5 159.754 271.56)"/>
</clipPath>
<clipPath id="clip2">
<rect width="6.2172" height="6.2172" fill="white" transform="matrix(0.866025 0.5 -0.866025 0.5 189.566 283.39)"/>
</clipPath>
</defs>
</svg>
