<svg width="379" height="146" viewBox="0 0 379 146" fill="none" xmlns="http://www.w3.org/2000/svg">
<path d="M183.276 99.7087V106.828H153.027V39.3291H161.925V99.7087H183.276Z" fill="#1C0732"/>
<path d="M202.833 106.828H193.947V56.9739H202.833V106.828ZM198.385 48.1654C196.921 48.1654 195.648 47.6927 194.566 46.7473C193.548 45.7389 193.056 44.4169 193.056 42.7782C193.056 41.1396 193.548 39.8461 194.566 38.9008C195.648 37.8924 196.921 37.3882 198.385 37.3882C199.849 37.3882 201.09 37.8924 202.109 38.9008C203.191 39.8461 203.731 41.1381 203.731 42.7768C203.731 44.4154 203.191 45.7389 202.109 46.7473C201.09 47.6927 199.849 48.1654 198.385 48.1654Z" fill="#1C0732"/>
<path d="M222.42 56.9768H234.873V63.9725H222.42L222.415 90.3853C222.415 93.7886 223.02 96.1837 224.229 97.5702C225.502 98.8934 227.189 99.5551 229.289 99.5551C230.371 99.5551 231.39 99.3978 232.344 99.0826C233.363 98.7675 234.222 98.3891 234.922 97.948L236.545 104.471C233.935 105.984 230.486 106.74 227.558 106.74C222.848 106.74 219.315 105.448 216.96 102.864C214.669 100.217 213.523 95.8686 213.523 89.8178L213.528 43.6471L222.42 42.229V56.9768Z" fill="#1C0732"/>
<path d="M245.549 55.9503C247.822 55.2352 250.29 54.6496 252.953 54.1944C255.615 53.674 258.05 53.4141 260.258 53.4141C262.531 53.4141 264.577 53.7069 266.395 54.292C268.278 54.8772 269.934 55.8527 271.363 57.2187C273.051 56.1132 274.869 55.2024 276.818 54.4872C278.766 53.7716 280.909 53.4141 283.247 53.4141C285.585 53.4141 287.695 53.7716 289.579 54.4872C291.527 55.1376 293.182 56.2755 294.546 57.9015C295.91 59.5274 296.981 61.7385 297.761 64.5353C298.54 67.2668 298.93 70.681 298.93 74.778V106.829H290.553V75.4613C290.553 70.3882 289.968 66.6811 288.799 64.3401C287.63 61.999 285.422 60.8282 282.175 60.8282C280.941 60.8282 279.675 61.0558 278.376 61.511C277.142 61.9661 275.973 62.5841 274.869 63.3645C275.389 64.8605 275.779 66.5511 276.038 68.437C276.298 70.3235 276.428 72.437 276.428 74.778V106.829H268.051V75.4613C268.051 70.3882 267.467 66.6811 266.298 64.3401C265.129 61.999 262.921 60.8282 259.674 60.8282C257.985 60.8282 256.07 61.1534 253.927 61.8038L253.927 106.829H245.549V55.9503Z" fill="#1C0732"/>
<path d="M341.533 104.373C340.705 104.688 339.686 105.003 338.477 105.318C337.331 105.57 336.09 105.791 334.754 105.98C333.481 106.232 332.176 106.421 330.839 106.547C329.566 106.736 328.389 106.831 327.307 106.831C324.697 106.831 322.31 106.515 320.146 105.885C317.982 105.318 316.136 104.278 314.609 102.766C313.081 101.253 311.904 99.2047 311.076 96.6209C310.248 93.9739 309.835 90.6652 309.835 86.6944V56.9766H318.046V86.4107C318.046 91.2636 318.778 94.6987 320.242 96.7155C321.769 98.669 324.06 99.6458 327.116 99.6458C328.134 99.6458 329.152 99.6144 330.171 99.5512C331.19 99.4252 332.239 99.2047 333.321 98.8896V56.9766H341.533V104.373Z" fill="#1C0732"/>
<path d="M362.265 99.6551C364.85 99.6551 366.789 98.9766 368.081 97.6192C369.442 96.1974 370.122 94.3555 370.122 92.0935C370.122 90.6717 369.85 89.4761 369.306 88.5067C368.762 87.4729 368.047 86.5678 367.163 85.7923C366.278 85.0169 365.258 84.3384 364.102 83.7569C362.945 83.1106 361.789 82.4317 360.632 81.721C359.476 81.0747 358.353 80.3314 357.265 79.4912C356.176 78.5865 355.19 77.5849 354.306 76.4863C353.49 75.3229 352.809 74.0303 352.265 72.6085C351.789 71.1219 351.551 69.4092 351.551 67.4708C351.551 63.2699 352.911 59.8771 355.632 57.2919C358.421 54.7067 362.163 53.4141 366.857 53.4141C368.83 53.4141 370.701 53.6729 372.469 54.1895C374.238 54.6418 375.7 55.159 376.857 55.7409L374.918 62.4296C373.694 61.7833 372.469 61.2988 371.245 60.9757C370.02 60.6525 368.694 60.4907 367.265 60.4907C365.088 60.4907 363.353 61.1048 362.061 62.3326C360.768 63.496 360.122 65.2088 360.122 67.4708C360.122 68.7634 360.36 69.8942 360.836 70.8636C361.313 71.7682 361.925 72.6085 362.673 73.384C363.489 74.0951 364.374 74.7736 365.326 75.4199C366.346 76.0662 367.401 76.6798 368.49 77.2618C369.782 77.9724 371.041 78.7479 372.265 79.5882C373.558 80.4284 374.68 81.43 375.632 82.5935C376.653 83.6921 377.469 85.0169 378.081 86.5678C378.693 88.0544 379 89.8641 379 91.9965C379 96.4557 377.605 100.043 374.816 102.757C372.095 105.472 368.081 106.829 362.775 106.829C360.054 106.829 357.605 106.473 355.428 105.762C353.251 105.052 351.619 104.405 350.53 103.823L352.367 96.9407C353.387 97.4579 354.748 98.0393 356.448 98.6856C358.217 99.3319 360.156 99.6551 362.265 99.6551Z" fill="#1C0732"/>
<path fill-rule="evenodd" clip-rule="evenodd" d="M115.657 0H0V135.05C0 141.098 4.85452 146 10.8429 146H104.814C110.803 146 115.657 141.098 115.657 135.05V0Z" fill="#858CDD"/>
<path d="M17.7935 17.8042H35.5869V58.7554H17.7935V17.8042Z" fill="#4028A0"/>
<path d="M17.7935 55.1943H35.5869V128.194H17.7935V55.1943Z" fill="white"/>
<path d="M44.4834 110.391H97.8637V128.196H44.4834V110.391Z" fill="white"/>
</svg>
