<svg width="24" height="25" viewBox="0 0 24 25" fill="none" xmlns="http://www.w3.org/2000/svg">
<path d="M5.1045 15.6175C5.1045 17.0089 4.01865 18.1335 2.67508 18.1335C1.33152 18.1335 0.245667 17.0089 0.245667 15.6175C0.245667 14.2262 1.33152 13.1017 2.67517 13.1017H5.10441V15.6176L5.1045 15.6175ZM6.31925 15.6175C6.31925 14.2262 7.4051 13.1017 8.74866 13.1017C10.0922 13.1017 11.1781 14.2262 11.1781 15.6176V21.9074C11.1781 23.2988 10.0922 24.4234 8.74857 24.4234C7.40519 24.4234 6.31925 23.2988 6.31925 21.9074V15.6176V15.6175Z" fill="#E01E5A"/>
<path d="M8.74908 5.51427C7.40552 5.51427 6.31959 4.38975 6.31959 2.99834C6.31959 1.60694 7.40561 0.482422 8.74908 0.482422C10.0926 0.482422 11.1785 1.60694 11.1785 2.99834V5.51436H8.74899L8.74908 5.51427ZM8.74908 6.79132C10.0926 6.79132 11.1785 7.91583 11.1785 9.30724C11.1785 10.6986 10.0926 11.8232 8.74899 11.8232H2.65722C1.31357 11.8232 0.227722 10.6986 0.227722 9.30715C0.227722 7.91593 1.31357 6.79132 2.65713 6.79132H8.74899H8.74908Z" fill="#36C5F0"/>
<path d="M18.4851 9.30724C18.4851 7.91583 19.571 6.79122 20.9145 6.79122C22.258 6.79122 23.344 7.91583 23.344 9.30724C23.344 10.6986 22.258 11.8232 20.9145 11.8232H18.4851V9.30715V9.30724ZM17.2704 9.30724C17.2704 10.6986 16.1845 11.8232 14.8409 11.8232C13.4974 11.8232 12.4116 10.6986 12.4116 9.30715V2.99844C12.4116 1.60694 13.4974 0.482422 14.8409 0.482422C16.1844 0.482422 17.2703 1.60694 17.2703 2.99834V9.30715L17.2704 9.30724Z" fill="#2EB67D"/>
<path d="M14.8409 19.3916C16.1844 19.3916 17.2704 20.5161 17.2704 21.9074C17.2704 23.2988 16.1844 24.4234 14.8409 24.4234C13.4974 24.4234 12.4116 23.2988 12.4116 21.9074V19.3916H14.841H14.8409ZM14.8409 18.1335C13.4974 18.1335 12.4116 17.0089 12.4116 15.6175C12.4116 14.2262 13.4974 13.1017 14.841 13.1017H20.9328C22.2764 13.1017 23.3623 14.2262 23.3623 15.6176C23.3623 17.0089 22.2764 18.1335 20.9328 18.1335H14.841H14.8409Z" fill="#ECB22E"/>
</svg>
