<svg width="12" height="13" viewBox="0 0 12 13" fill="none" xmlns="http://www.w3.org/2000/svg">
<g clip-path="url(#clip0)">
<path d="M2.11091 10.3891C1.07946 9.35764 0.5 7.95869 0.5 6.5C0.5 5.04131 1.07946 3.64236 2.11091 2.61091C3.14236 1.57946 4.54131 1 6 1C7.45869 1 8.85764 1.57946 9.88909 2.61091C10.9205 3.64236 11.5 5.04131 11.5 6.5C11.5 7.95869 10.9205 9.35764 9.88909 10.3891C8.85764 11.4205 7.45869 12 6 12C4.54131 12 3.14236 11.4205 2.11091 10.3891Z" stroke="#DD2B0E"/>
<path fill-rule="evenodd" clip-rule="evenodd" d="M5.99994 5.61622L4.79908 4.41537C4.77573 4.39214 4.74799 4.37378 4.71748 4.36136C4.68697 4.34894 4.6543 4.34271 4.62136 4.34303C4.58843 4.34335 4.55588 4.35021 4.52562 4.36322C4.49535 4.37622 4.46798 4.39512 4.44508 4.4188L3.9188 4.94508C3.8718 4.99179 3.84509 5.05512 3.84445 5.12138C3.84381 5.18763 3.86929 5.25147 3.91537 5.29908L5.11537 6.49994L3.91537 7.7008C3.89214 7.72415 3.87378 7.75188 3.86136 7.78239C3.84894 7.8129 3.84271 7.84558 3.84303 7.87851C3.84335 7.91145 3.85021 7.944 3.86322 7.97426C3.87622 8.00452 3.89512 8.0319 3.9188 8.0548L4.44508 8.58108C4.54194 8.6788 4.70222 8.68137 4.79908 8.58451L5.99994 7.38451L7.2008 8.58451C7.22415 8.60774 7.25188 8.6261 7.28239 8.63852C7.3129 8.65094 7.34557 8.65717 7.37851 8.65685C7.41145 8.65653 7.444 8.64967 7.47426 8.63666C7.50452 8.62365 7.5319 8.60476 7.5548 8.58108L8.08108 8.0548C8.12808 8.00809 8.15478 7.94475 8.15543 7.8785C8.15607 7.81225 8.13059 7.7484 8.08451 7.7008L6.88451 6.49994L8.08451 5.29908C8.10774 5.27573 8.1261 5.24799 8.13852 5.21748C8.15094 5.18697 8.15717 5.1543 8.15685 5.12136C8.15653 5.08843 8.14967 5.05588 8.13666 5.02562C8.12365 4.99535 8.10476 4.96798 8.08108 4.94508L7.5548 4.4188C7.50809 4.3718 7.44475 4.34509 7.3785 4.34445C7.31224 4.34381 7.2484 4.36929 7.2008 4.41537L5.99994 5.61537V5.61622Z" fill="#DD2B0E"/>
</g>
<defs>
<clipPath id="clip0">
<rect width="12" height="12" fill="white" transform="translate(0 0.5)"/>
</clipPath>
</defs>
</svg>
