<svg width="12" height="13" viewBox="0 0 12 13" fill="none" xmlns="http://www.w3.org/2000/svg">
<g clip-path="url(#clip0)">
<path d="M0.5 6.5C0.5 5.04131 1.07946 3.64236 2.11091 2.61091C3.14236 1.57946 4.54131 1 6 1C7.45869 1 8.85764 1.57946 9.88909 2.61091C10.9205 3.64236 11.5 5.04131 11.5 6.5C11.5 7.95869 10.9205 9.35764 9.88909 10.3891C8.85764 11.4205 7.45869 12 6 12C4.54131 12 3.14236 11.4205 2.11091 10.3891C1.07946 9.35764 0.5 7.95869 0.5 6.5Z" stroke="#3A97D4"/>
<path fill-rule="evenodd" clip-rule="evenodd" d="M5.99996 3.07153C7.88567 3.07153 9.42853 4.61439 9.42853 6.5001C9.42853 8.38582 7.88567 9.92868 5.99996 9.92868C4.88567 9.92868 3.8571 9.32868 3.17139 8.47153L5.99996 6.5001V3.07153Z" fill="#3A97D4"/>
</g>
<defs>
<clipPath id="clip0">
<rect width="12" height="12" fill="white" transform="translate(0 0.5)"/>
</clipPath>
</defs>
</svg>
