<svg width="12" height="13" viewBox="0 0 12 13" fill="none" xmlns="http://www.w3.org/2000/svg">
<g clip-path="url(#clip0)">
<path d="M2.11091 10.3891C1.07946 9.35764 0.5 7.95869 0.5 6.5C0.5 5.04131 1.07946 3.64236 2.11091 2.61091C3.14236 1.57946 4.54131 1 6 1C7.45869 1 8.85764 1.57946 9.88909 2.61091C10.9205 3.64236 11.5 5.04131 11.5 6.5C11.5 7.95869 10.9205 9.35764 9.88909 10.3891C8.85764 11.4205 7.45869 12 6 12C4.54131 12 3.14236 11.4205 2.11091 10.3891Z" stroke="#09825D"/>
<path fill-rule="evenodd" clip-rule="evenodd" d="M5.38111 7.09747L4.32425 6.04061C4.30079 6.01676 4.27283 5.99779 4.242 5.98478C4.21117 5.97178 4.17807 5.965 4.14461 5.96484C4.11115 5.96469 4.07799 5.97115 4.04703 5.98386C4.01608 5.99656 3.98795 6.01527 3.96425 6.0389L3.43883 6.56518C3.39153 6.61326 3.36516 6.67809 3.36548 6.74554C3.3658 6.81298 3.39278 6.87756 3.44054 6.92518L5.07768 8.56147C5.15734 8.64134 5.26528 8.68659 5.37809 8.68739C5.49089 8.6882 5.59947 8.64449 5.68025 8.56576L5.9074 8.33861L8.56882 5.67718C8.61367 5.62953 8.63799 5.56617 8.63655 5.50075C8.6351 5.43533 8.60801 5.3731 8.56111 5.32747L8.03482 4.80118C7.98931 4.75408 7.92704 4.72685 7.86155 4.7254C7.79607 4.72396 7.73266 4.74842 7.68511 4.79347L5.38111 7.09747Z" fill="#09825D"/>
</g>
<defs>
<clipPath id="clip0">
<rect width="12" height="12" fill="white" transform="translate(0 0.5)"/>
</clipPath>
</defs>
</svg>
