<svg width="23" height="23" viewBox="0 0 23 23" fill="none" xmlns="http://www.w3.org/2000/svg">
<path d="M11.3623 0.0693665C5.28775 0.0693665 0.362305 5.16655 0.362305 11.4529C0.362305 17.7393 5.28775 22.8365 11.3623 22.8365C17.4369 22.8365 22.3623 17.7393 22.3623 11.4529C22.3623 5.16655 17.4369 0.0693665 11.3623 0.0693665ZM16.6487 8.65022C16.6561 8.76965 16.6561 8.89415 16.6561 9.01612C16.6561 12.7463 13.911 17.043 8.89467 17.043C7.3478 17.043 5.91387 16.578 4.70583 15.7776C4.92681 15.8031 5.13797 15.8132 5.36387 15.8132C6.64065 15.8132 7.81431 15.366 8.7498 14.6088C7.55159 14.5834 6.54489 13.7703 6.20114 12.6522C6.62101 12.7158 6.99913 12.7158 7.43128 12.6014C6.81431 12.4717 6.25977 12.125 5.86185 11.6201C5.46394 11.1152 5.2472 10.4833 5.24847 9.83177V9.7962C5.6094 10.0071 6.03418 10.1367 6.4786 10.1545C6.105 9.89681 5.79861 9.54772 5.5866 9.13816C5.37458 8.72861 5.2635 8.27124 5.2632 7.80662C5.2632 7.28064 5.39579 6.8004 5.63396 6.38368C6.31876 7.25608 7.1733 7.9696 8.14202 8.47786C9.11074 8.98611 10.172 9.27772 11.2567 9.33374C10.8712 7.41531 12.2561 5.86278 13.9208 5.86278C14.7065 5.86278 15.4136 6.20327 15.9121 6.75212C16.5284 6.63269 17.1177 6.39384 17.6431 6.07368C17.4393 6.72671 17.0121 7.2781 16.4449 7.62621C16.9949 7.56523 17.5253 7.40769 18.0163 7.18662C17.6456 7.75072 17.1815 8.25129 16.6487 8.65022Z" fill="#55ACEE"/>
</svg>
