<svg width="23" height="17" viewBox="0 0 23 17" fill="none" xmlns="http://www.w3.org/2000/svg">
<path d="M22.1304 3.89958C22.1304 3.89958 21.9156 2.33437 21.2541 1.6407C20.4209 0.733588 19.4845 0.733588 19.0464 0.680229C15.9797 0.449005 11.3666 0.449005 11.3666 0.449005H11.358C11.358 0.449005 6.74497 0.449005 3.66102 0.680229C3.2315 0.733588 2.29512 0.733588 1.45328 1.6407C0.800414 2.33437 0.585656 3.89958 0.585656 3.89958C0.585656 3.89958 0.362305 5.74937 0.362305 7.59027V9.31555C0.362305 11.1565 0.585656 12.9974 0.585656 12.9974C0.585656 12.9974 0.800414 14.5626 1.46187 15.2562C2.29513 16.1633 3.3947 16.1367 3.88437 16.2256C5.6454 16.4035 11.358 16.4568 11.358 16.4568C11.358 16.4568 15.9796 16.4479 19.055 16.2167C19.4845 16.1633 20.4209 16.1633 21.2627 15.2562C21.9242 14.5626 22.139 12.9974 22.139 12.9974C22.139 12.9974 22.3623 11.1565 22.3623 9.31555V7.59027C22.3537 5.74937 22.1304 3.89958 22.1304 3.89958ZM9.0902 11.4055V5.01123L15.0347 8.22169L9.0902 11.4055Z" fill="url(#paint0_linear)"/>
<defs>
<linearGradient id="paint0_linear" x1="11.3579" y1="0.449005" x2="11.3579" y2="16.4616" gradientUnits="userSpaceOnUse">
<stop stop-color="#E52D27"/>
<stop offset="1" stop-color="#BF171D"/>
</linearGradient>
</defs>
</svg>
